<svg xmlns="http://www.w3.org/2000/svg">
<defs>
<font id="PSL-Kittithada" horiz-adv-x="0" >
  <font-face 
    font-family="PSL-Kittithada"
    font-weight="400"
    font-stretch="normal"
    units-per-em="2048"
    panose-1="2 0 5 6 0 0 0 2 0 3"
    ascent="1638"
    descent="-410"
    x-height="662"
    cap-height="1081"
    bbox="-829 -600 1894 1452"
    underline-thickness="51"
    underline-position="-86"
    unicode-range="U+0020-U+F882"
  />
<missing-glyph horiz-adv-x="1536" 
d="M256 0v1280h1024v-1280h-1024zM299 33h938q10 0 10 10v1194q0 10 -10 10h-938q-10 0 -10 -10v-1194q0 -10 10 -10zM715 -2h-2v0h2h-2v0h2zM768 -2v-2h-2v2h2zM768 -4v2h-2v-2h2zM780 -2v0v0v-2v2h-4v-2v2h2v0h2zM778 -2h2v0h-2zM799 -2h-4v-2h4v2h-2h2v-2h-4v2h4zM799 -2
v0h4v0v-2v2h-4v-2v2zM717 0v-4h-6v4h6zM717 -4v4h-6v-4h6zM731 -2v-2h-2v2h2zM731 -4v2h-2v-2h2zM733 -2v0h2v0v-2v2h-2zM770 -2v-2h2h-2v2zM844 -2v-2h-4v2h4zM844 -4v2h-4v-2h4zM834 -2v-2h2v2v-2h-2v2zM803 -2h4h-2v-2v2h-2zM758 -2h2v-2h-2v2h2v0h-2zM758 -4h2v2h-2v-2z
M766 -2v0h-4v-2v2h4zM762 -2h4v0h-4zM795 -2v-2v2zM725 -4h-4h4zM725 -2v0h-4v-2v2h4v0h-4h4zM678 -2h-4v-2h4h-4v2h4zM727 -2v-2h-2v2h2zM727 -4v2h-2v-2h2zM684 -2v0h-2v-2v2h2zM682 -2h2v0h-2zM682 -2v-2h-4v2h4zM682 -4v2h-4v-2h4zM686 -2v0h4v0v0h-2v-2v2h-2zM784 -2
v-2h2h-2v2zM782 -2v-2h2h-2v2zM754 -4v2h2v-2v2h-2v-2zM815 -2v0h2v-2v2h-4v-2v2h2zM813 -2h2v0h-2zM762 -2v-2v2zM698 -2h-2v-2h2v2h-2h2v-2h-2v2h2zM700 -2v0h2v0v-2v2h-2v-2v2zM705 -2h4h-2v-2v2h-2zM694 -2v-2v2zM692 -2v0h2v-2v2h-4v-2v2h2zM690 -2h2v0h-2zM831 -2v0h3
v-2v2h-5v-2v2h2zM829 -2h2v0h-2zM836 -4h4h-4zM836 -2h4h-4zM836 -2h4h-4zM750 -4h2h-2zM752 -2v0v0v-2v2h-2v-2v2v0h2zM750 -2h2v0h-2zM829 -4h-4h4zM825 -2h4h-4zM825 -2h4h-4zM809 -2h2v-2h-2h2v2h-2zM809 -2h2h-2v0zM821 -2h4v-2h-4h4v2h-4zM821 -2h4h-4v0zM817 -4h4h-4
zM817 -2h4h-4zM817 -2h4h-4zM793 -2v0v0v-2v2h-2v-2v2h2zM791 -2h2v0h-2zM745 -4h3h-3zM745 -2h3h-3zM745 -2h3h-3zM739 -2v-2h4v2v-2h-4v2zM741 -2v-2v2z" />
    <glyph glyph-name="fi" unicode="fi" horiz-adv-x="561" 
d="M160 602v-602h-62v602h-71v60h71v296q0 37 3 83t20 79q22 41 62 61.5t85 20.5q13 0 26 -3l30 -7v-57q-17 4 -29 6t-23 2q-41 0 -63.5 -18.5t-33.5 -48t-13 -64.5t-2 -66v-284h164v-60h-164zM459 883q0 -25 -17.5 -42.5t-39.5 -17.5q-25 0 -42.5 17.5t-17.5 42.5
q0 24 17.5 41.5t42.5 17.5q22 0 39.5 -17.5t17.5 -41.5zM369 0v662h61v-662h-61z" />
    <glyph glyph-name="fl" unicode="fl" horiz-adv-x="588" 
d="M184 602v-602h-62v602h-71v60h71v296q0 37 3 83t20 79q22 41 62 61.5t85 20.5q13 0 26 -3l30 -7v-57q-17 4 -29 6t-23 2q-41 0 -63.5 -18.5t-33.5 -48t-13 -64.5t-2 -66v-284h164v-60h-164zM420 -1v1186h61v-1186h-61z" />
    <glyph glyph-name="Rulakkhangyao" unicode="&#xc4;&#xd2;" horiz-adv-x="1321" 
d="M645 -307v856q0 110 -74.5 166.5t-181.5 56.5q-170 0 -256 -123v-588h123v-61h-184v668q112 166 317 166q64 0 121 -16.5t101 -50.5t70 -84t26 -116v-874h-62zM1138 -307v835q0 113 -56.5 180.5t-169.5 67.5q-53 0 -98 -18.5t-62 -30.5v64q17 10 62 26.5t100 16.5
q74 0 127 -23t89 -62.5t52.5 -91t16.5 -110.5v-854h-61z" />
    <glyph glyph-name="Lulakkhangyao" unicode="&#xc6;&#xd2;" horiz-adv-x="1303" 
d="M1138 -307v835q0 113 -56.5 180.5t-169.5 67.5q-53 0 -98 -18.5t-62 -30.5v64q17 10 62 26.5t100 16.5q74 0 127 -23t89 -62.5t52.5 -91t16.5 -110.5v-854h-61zM655 -307v856q0 110 -74.5 166.5t-181.5 56.5q-170 0 -256 -123v-649h-143v61h82v607q113 166 317 166
q64 0 121.5 -16.5t101.5 -50.5t69.5 -84t25.5 -116v-874h-62z" />
    <glyph glyph-name="ffi" unicode="ffi" horiz-adv-x="878" 
d="M160 602v-602h-62v602h-71v60h71v296q0 37 3 83t20 79q22 41 62 61.5t85 20.5q13 0 26 -3l30 -7v-57q-17 4 -29 6t-23 2q-41 0 -63.5 -18.5t-33.5 -48t-13 -64.5t-2 -66v-284h164v-60h-164zM500 602v-602h-62v602h-71v60h71v296q0 37 3 83t20 79q22 41 62 61.5t85 20.5
q13 0 26 -3l30 -7v-57q-17 4 -29 6t-23 2q-41 0 -63.5 -18.5t-33.5 -48t-13 -64.5t-2 -66v-284h164v-60h-164zM799 883q0 -25 -17.5 -42.5t-39.5 -17.5q-25 0 -42.5 17.5t-17.5 42.5q0 24 17.5 41.5t42.5 17.5q22 0 39.5 -17.5t17.5 -41.5zM709 0v662h61v-662h-61z" />
    <glyph glyph-name="ffl" unicode="ffl" horiz-adv-x="915" 
d="M160 602v-602h-62v602h-71v60h71v296q0 37 3 83t20 79q22 41 62 61.5t85 20.5q13 0 26 -3l30 -7v-57q-17 4 -29 6t-23 2q-41 0 -63.5 -18.5t-33.5 -48t-13 -64.5t-2 -66v-284h164v-60h-164zM500 602v-602h-62v602h-71v60h71v296q0 37 3 83t20 79q22 41 62 61.5t85 20.5
q13 0 26 -3l30 -7v-57q-17 4 -29 6t-23 2q-41 0 -63.5 -18.5t-33.5 -48t-13 -64.5t-2 -66v-284h164v-60h-164zM736 -1v1186h61v-1186h-61z" />
    <glyph glyph-name="trademark" unicode="&#x3b;&#x3b;Trademark&#x3b;&#x3b;" horiz-adv-x="1993" 
d="M121 1165h801q30 0 30 -28q0 -33 -30 -33h-371v-506q0 -14 -31 -14t-31 14v506h-368q-33 0 -33 33q0 28 33 28zM1833 618v459l-342 -485q-10 -10 -29 -10q-18 0 -28 10l-340 485v-459q0 -34 -31 -34q-33 0 -33 34v521q0 28 31 28q18 0 39 -12l362 -510l363 510
q20 12 41 12q28 0 28 -28v-521q0 -34 -30 -34q-31 0 -31 34z" />
    <glyph glyph-name="multiply" unicode="&#x3b;&#x3b;Multiply&#x3b;&#x3b;" horiz-adv-x="1083" 
d="M803 270l-262 260l-260 -260q-13 -12 -23 -12t-22 12q-11 11 -11 23q0 10 11 20l262 262l-262 261q-11 10 -11 20q0 12 11 23q12 12 22 12t23 -12l260 -261l262 261q10 12 20 12q13 0 23 -12q10 -11 10 -23q0 -10 -10 -20l-260 -261l260 -262q10 -10 10 -20
q0 -12 -10 -23q-10 -12 -23 -12q-10 0 -20 12z" />
    <glyph glyph-name="divide" unicode="&#x3b;&#x3b;Divide&#x3b;&#x3b;" horiz-adv-x="1292" 
d="M246 606h801q30 0 30 -31q0 -30 -30 -30h-801q-31 0 -31 30q0 31 31 31zM639 362q14 0 27.5 -7t20.5 -20t7 -28q0 -14 -6 -27.5t-20.5 -20.5t-28.5 -7q-12 0 -25.5 7t-20.5 20.5t-7 27.5q0 15 7 28t20.5 20t25.5 7zM639 920q14 0 27.5 -7.5t20.5 -20.5t7 -28
q0 -12 -6 -25.5t-20.5 -20.5t-28.5 -7q-12 0 -25.5 7t-20.5 20.5t-7 25.5q0 15 7 28t20.5 20.5t25.5 7.5z" />
    <glyph glyph-name=".notdef" horiz-adv-x="1536" 
d="M256 0v1280h1024v-1280h-1024zM299 33h938q10 0 10 10v1194q0 10 -10 10h-938q-10 0 -10 -10v-1194q0 -10 10 -10zM715 -2h-2v0h2h-2v0h2zM768 -2v-2h-2v2h2zM768 -4v2h-2v-2h2zM780 -2v0v0v-2v2h-4v-2v2h2v0h2zM778 -2h2v0h-2zM799 -2h-4v-2h4v2h-2h2v-2h-4v2h4zM799 -2
v0h4v0v-2v2h-4v-2v2zM717 0v-4h-6v4h6zM717 -4v4h-6v-4h6zM731 -2v-2h-2v2h2zM731 -4v2h-2v-2h2zM733 -2v0h2v0v-2v2h-2zM770 -2v-2h2h-2v2zM844 -2v-2h-4v2h4zM844 -4v2h-4v-2h4zM834 -2v-2h2v2v-2h-2v2zM803 -2h4h-2v-2v2h-2zM758 -2h2v-2h-2v2h2v0h-2zM758 -4h2v2h-2v-2z
M766 -2v0h-4v-2v2h4zM762 -2h4v0h-4zM795 -2v-2v2zM725 -4h-4h4zM725 -2v0h-4v-2v2h4v0h-4h4zM678 -2h-4v-2h4h-4v2h4zM727 -2v-2h-2v2h2zM727 -4v2h-2v-2h2zM684 -2v0h-2v-2v2h2zM682 -2h2v0h-2zM682 -2v-2h-4v2h4zM682 -4v2h-4v-2h4zM686 -2v0h4v0v0h-2v-2v2h-2zM784 -2
v-2h2h-2v2zM782 -2v-2h2h-2v2zM754 -4v2h2v-2v2h-2v-2zM815 -2v0h2v-2v2h-4v-2v2h2zM813 -2h2v0h-2zM762 -2v-2v2zM698 -2h-2v-2h2v2h-2h2v-2h-2v2h2zM700 -2v0h2v0v-2v2h-2v-2v2zM705 -2h4h-2v-2v2h-2zM694 -2v-2v2zM692 -2v0h2v-2v2h-4v-2v2h2zM690 -2h2v0h-2zM831 -2v0h3
v-2v2h-5v-2v2h2zM829 -2h2v0h-2zM836 -4h4h-4zM836 -2h4h-4zM836 -2h4h-4zM750 -4h2h-2zM752 -2v0v0v-2v2h-2v-2v2v0h2zM750 -2h2v0h-2zM829 -4h-4h4zM825 -2h4h-4zM825 -2h4h-4zM809 -2h2v-2h-2h2v2h-2zM809 -2h2h-2v0zM821 -2h4v-2h-4h4v2h-4zM821 -2h4h-4v0zM817 -4h4h-4
zM817 -2h4h-4zM817 -2h4h-4zM793 -2v0v0v-2v2h-2v-2v2h2zM791 -2h2v0h-2zM745 -4h3h-3zM745 -2h3h-3zM745 -2h3h-3zM739 -2v-2h4v2v-2h-4v2zM741 -2v-2v2z" />
    <glyph glyph-name="space" unicode=" " horiz-adv-x="690" 
 />
    <glyph glyph-name="exclam" unicode="!" horiz-adv-x="477" 
d="M266 307h-28l-80 676q-4 41 25.5 65.5t68.5 24.5t66.5 -26.5t23.5 -67.5zM252 -4q-45 0 -68.5 28.5t-23.5 63.5t23.5 63.5t68.5 28.5q47 0 69.5 -28.5t22.5 -63.5t-22.5 -63.5t-69.5 -28.5z" />
    <glyph glyph-name="quotedbl" unicode="&#x22;" horiz-adv-x="436" 
d="M238 637h-41l84 295h86zM106 637h-40l84 295h86z" />
    <glyph glyph-name="numbersign" unicode="#" horiz-adv-x="846" 
d="M610 629l-37 -234h164v-67h-176l-51 -328h-64l50 328h-187l-47 -328h-65l45 328h-168v67h178l33 234h-172v67h180l45 305h70l-46 -305h191l43 305h70l-45 -305h151v-67h-162zM352 629l-35 -234h191l33 234h-189z" />
    <glyph glyph-name="dollar" unicode="$" horiz-adv-x="846" 
d="M739 301q0 -57 -20.5 -108.5t-56 -93.5t-84 -70.5t-103.5 -40.5v-162h-63v160q-111 6 -188 65.5t-118 167.5l60 27q33 -86 95.5 -139.5t150.5 -51.5v496q-45 22 -89 46t-79 54.5t-56.5 71.5t-21.5 98q0 115 67.5 188.5t178.5 86.5v149h63v-155q66 -11 122 -47.5t91 -96.5
l-53 -43q-29 47 -68 80t-92 43v-430l97.5 -51.5t85 -57t59 -76.5t22.5 -110zM412 1026q-39 -2 -73 -20.5t-56.5 -46t-36 -63.5t-13.5 -73q0 -39 15.5 -67.5t40 -51t57.5 -41l66 -36.5v399zM672 307q0 41 -17.5 73t-45 56.5t-62.5 44t-72 37.5v-461q88 25 142.5 93.5
t54.5 156.5z" />
    <glyph glyph-name="percent" unicode="%" horiz-adv-x="907" 
d="M453 879q0 -45 -16.5 -84t-45.5 -67t-67.5 -44t-81.5 -16t-82 16t-68 44t-45 67t-16 84q0 47 16 86t45 66.5t67 44t83 16.5q43 0 81.5 -16.5t67.5 -44t45.5 -66.5t16.5 -86zM164 -25l-43 27l620 1104l47 -23zM877 203q0 -92 -61.5 -151.5t-149.5 -59.5q-43 0 -82 15.5
t-69 44t-46 67.5t-16 84q0 47 16 85t45 66.5t68 44t84 15.5q88 0 149.5 -59.5t61.5 -151.5zM395 879q0 65 -46 108t-107 43q-62 0 -107 -43t-45 -108q0 -64 45 -108t107 -44q61 0 107 44t46 108zM819 203q0 65 -46 109t-107 44q-64 0 -109 -44t-45 -109q0 -66 45 -109
t109 -43q61 0 107 43t46 109z" />
    <glyph glyph-name="ampersand" unicode="&#x26;" horiz-adv-x="877" 
d="M815 0l-129 178q-47 -39 -95 -74.5t-97.5 -63.5t-98.5 -44t-100 -16q-57 0 -106.5 22.5t-86 60t-58 90t-21.5 111.5q0 70 28.5 126t74.5 103.5t103.5 88.5t114.5 77q-43 54 -79 110t-36 126q0 43 16.5 80t45 65.5t65.5 45t78 16.5q84 0 137.5 -59.5t53.5 -141.5
q0 -92 -57.5 -152.5t-139.5 -115.5l262 -363l139 140l48 -43l-148 -148l156 -219h-70zM559 901q0 55 -37 96t-92 41t-94 -47t-39 -104q0 -56 31.5 -102l64.5 -97l58.5 44.5t53 46t39 54t15.5 68.5zM379 602l-66 -45l-76.5 -53.5t-72.5 -63t-53.5 -76.5t-20.5 -94
q0 -45 15.5 -87t42 -73.5t64.5 -50t83 -18.5q47 0 93 17.5t90 45t86 62.5l81 67z" />
    <glyph glyph-name="quotesingle" unicode="'" horiz-adv-x="291" 
d="M164 737h-37l-14 344h65z" />
    <glyph glyph-name="parenleft" unicode="(" horiz-adv-x="365" 
d="M268 -205q-92 148 -144 321t-52 347q0 172 54 332.5t142 306.5l51 -2q-28 -41 -48.5 -89l-39.5 -96q-47 -106 -69.5 -221.5t-22.5 -234.5q0 -101 12.5 -186t35 -161.5t56 -152.5t76.5 -162z" />
    <glyph glyph-name="parenright" unicode=")" horiz-adv-x="365" 
d="M291 463q0 -82 -13.5 -171t-39 -176t-61.5 -170t-81 -151h-51q43 82 76 159t56.5 156.5t35.5 164.5t12 184q0 129 -27.5 250.5t-78.5 238.5q-17 37 -34 78t-40 76h51q86 -144 140.5 -306.5t54.5 -332.5z" />
    <glyph glyph-name="asterisk" unicode="*" horiz-adv-x="721" 
d="M408 811l129 -172l-56 -43l-114 166l-16.5 -20.5t-37 -49l-41 -56.5t-30.5 -40l-56 43l129 172l-202 61l22 66l199 -70l-8 213h69l-6 -213l199 70l22 -66z" />
    <glyph glyph-name="plus" unicode="+" horiz-adv-x="778" 
d="M420 328v-297h-62v297h-297v61h297v297h62v-297h297v-61h-297z" />
    <glyph glyph-name="comma" unicode="," horiz-adv-x="303" 
d="M233 29q0 -45 -33.5 -97.5t-97.5 -93.5l-20 21q45 28 69.5 63t45.5 84q-23 -16 -52 -16q-26 0 -44.5 18.5t-18.5 44.5q0 27 19.5 47.5t50.5 20.5q41 0 61 -29t20 -63z" />
    <glyph glyph-name="hyphen" unicode="-" horiz-adv-x="475" 
d="M88 328v61h299v-61h-299z" />
    <glyph glyph-name="period" unicode="." horiz-adv-x="303" 
d="M217 55q0 -28 -18.5 -46.5t-46.5 -18.5q-29 0 -47.5 18.5t-18.5 46.5q0 29 18.5 47.5t47.5 18.5q28 0 46.5 -18.5t18.5 -47.5z" />
    <glyph glyph-name="slash" unicode="/" horiz-adv-x="874" 
d="M92 -203l-55 27l747 1358l52 -25z" />
    <glyph glyph-name="zero" unicode="0" horiz-adv-x="778" 
d="M752 547q0 -111 -25 -213.5t-72 -179t-113.5 -122.5t-152.5 -46q-84 0 -151.5 46t-113.5 122.5t-70.5 179t-24.5 213.5q0 112 24.5 211.5t71.5 174.5t113.5 119t150.5 44t150.5 -44t113.5 -119t73 -174.5t26 -211.5zM680 547q0 86 -18.5 173t-55.5 155.5t-91 112.5
t-126 44q-70 0 -124 -44t-91 -112.5t-56.5 -155.5t-19.5 -173q0 -96 19.5 -186.5t56.5 -160t91 -111.5t124 -42q72 0 126 42t91 111.5t55.5 160t18.5 186.5z" />
    <glyph glyph-name="one" unicode="1" horiz-adv-x="778" 
d="M389 0v1018h-188l32 63h222v-1081h-66z" />
    <glyph glyph-name="two" unicode="2" horiz-adv-x="778" 
d="M707 778q0 -55 -18.5 -104t-47.5 -94t-63.5 -86l-69.5 -80l-305 -353h499v-61h-647l391 442l63 74t62.5 83t48 90t19.5 93q0 54 -19.5 99t-53.5 78.5t-79 53t-96 19.5t-97 -18.5t-79 -52t-52.5 -80.5t-19.5 -105h-67q2 78 28.5 137.5t70.5 99.5t100.5 61.5t115.5 21.5
q66 0 123 -24.5t100 -66.5t68 -100.5t25 -126.5z" />
    <glyph glyph-name="three" unicode="3" horiz-adv-x="778" 
d="M684 303q0 -67 -23.5 -124.5t-64.5 -100.5t-97.5 -67.5t-121.5 -24.5q-58 0 -111 19.5t-93 56t-63.5 88t-23.5 114.5h66q12 -96 70.5 -156.5t152.5 -60.5q49 0 93 20.5t77 55.5t52 80t19 96q0 104 -67.5 165.5t-169.5 65.5v64q98 6 159.5 66.5t61.5 158.5q0 45 -16.5 84
t-44 67.5t-65.5 45t-81 16.5q-90 0 -142 -55t-61 -152h-65q10 127 79.5 199t190.5 72q56 0 106 -21.5t87 -59.5t58.5 -88t21.5 -110q0 -78 -39 -144.5t-117 -107.5q86 -41 129 -110.5t43 -151.5z" />
    <glyph glyph-name="four" unicode="4" horiz-adv-x="778" 
d="M608 205v-205h-67v205h-545v8l604 903l8 2v-848h127v-65h-127zM541 922l-428 -652h428v652z" />
    <glyph glyph-name="five" unicode="5" horiz-adv-x="778" 
d="M721 367q0 -82 -29.5 -153t-81 -121t-120 -78.5t-146.5 -28.5q-92 0 -174 45t-135 135l59 27q45 -66 111.5 -106t140.5 -40q66 0 122 24.5t98 67.5t65.5 101.5t23.5 128.5q0 65 -24.5 120.5t-66.5 95.5t-97 63.5t-117 23.5q-67 0 -129.5 -22.5t-97.5 -45.5v477h500v-63
h-433v-322q25 11 70 24t105 13q75 0 140.5 -28.5t113 -77.5t75 -116t27.5 -144z" />
    <glyph glyph-name="six" unicode="6" horiz-adv-x="778" 
d="M745 362q0 -71 -27.5 -138.5t-74.5 -121.5q-49 -59 -115.5 -87.5t-138.5 -28.5t-136.5 28.5t-112.5 79.5t-76.5 120t-28.5 148q0 70 19.5 126.5t54.5 111.5l321 496l53 -43l-219 -336q41 14 69.5 20t61.5 6q72 0 136.5 -30.5t111.5 -82.5t74.5 -121t27.5 -147zM674 365
q0 65 -22.5 121.5t-61.5 99.5t-90 67.5t-111 24.5q-57 0 -109.5 -24.5t-90 -67.5t-60.5 -99.5t-23 -121.5q0 -66 23 -123.5t60.5 -100.5t90 -67.5t109.5 -24.5q60 0 111 24.5t90 67.5t61.5 100.5t22.5 123.5z" />
    <glyph glyph-name="seven" unicode="7" horiz-adv-x="778" 
d="M68 -12l-54 43l660 985h-617v65h740z" />
    <glyph glyph-name="eight" unicode="8" horiz-adv-x="778" 
d="M694 283q0 -64 -24.5 -119t-65.5 -94t-97 -61.5t-118 -22.5q-61 0 -116.5 22.5t-96.5 61.5t-65.5 94t-24.5 119q0 92 40 162.5t130 117.5q-72 43 -108.5 108.5t-36.5 137.5q0 61 21.5 113.5t58 91.5t88 60.5t110.5 21.5q60 0 111 -21.5t89 -60.5t59.5 -91.5t21.5 -113.5
q0 -72 -36 -137.5t-108 -108.5q88 -47 128 -117.5t40 -162.5zM604 811q0 45 -17.5 85t-46 70.5t-68.5 48t-83 17.5t-82 -17.5t-68.5 -48t-46 -70.5t-16.5 -85t16.5 -85t45 -68.5t67.5 -46t84 -17.5t84 17.5t68.5 46t46 68.5t16.5 85zM629 289q0 49 -19.5 93t-52.5 77t-76 51
t-92 18t-92 -18t-75 -51t-51 -77t-19 -93t19 -93t51 -77t75 -52.5t92 -19.5t92 19.5t76 52.5t52.5 77t19.5 93z" />
    <glyph glyph-name="nine" unicode="9" horiz-adv-x="778" 
d="M745 713q0 -66 -19 -122t-54 -110l-318 -493l-53 45l209 317l-10 12q-25 -12 -53.5 -16t-61.5 -4q-70 0 -133.5 29.5t-111.5 82t-75.5 121t-27.5 144.5q0 80 28.5 148.5t78 119.5t114 80t135.5 29q74 0 138.5 -29t111.5 -80t74.5 -121.5t27.5 -152.5zM674 719
q0 65 -22.5 121.5t-60.5 98.5t-89 66.5t-109 24.5q-57 0 -109.5 -24.5t-91 -66.5t-61 -98.5t-22.5 -121.5q0 -64 22.5 -121t61 -100t91 -67.5t109.5 -24.5q58 0 109 24.5t89 67.5t60.5 100t22.5 121z" />
    <glyph glyph-name="colon" unicode=":" horiz-adv-x="303" 
d="M217 602q0 -29 -18.5 -47t-46.5 -18q-29 0 -47.5 18t-18.5 47t18.5 47.5t47.5 18.5q28 0 46.5 -18.5t18.5 -47.5zM217 55q0 -28 -18.5 -46.5t-46.5 -18.5q-29 0 -47.5 18.5t-18.5 46.5q0 29 18.5 47.5t47.5 18.5q28 0 46.5 -18.5t18.5 -47.5z" />
    <glyph glyph-name="semicolon" unicode=";" horiz-adv-x="303" 
d="M217 602q0 -29 -18.5 -47t-46.5 -18q-29 0 -47.5 18t-18.5 47t18.5 47.5t47.5 18.5q28 0 46.5 -18.5t18.5 -47.5zM233 29q0 -45 -33.5 -97.5t-97.5 -93.5l-20 21q45 28 69.5 63t45.5 84q-23 -16 -52 -16q-26 0 -44.5 18.5t-18.5 44.5q0 27 19.5 47.5t50.5 20.5
q41 0 61 -29t20 -63z" />
    <glyph glyph-name="less" unicode="&#x3c;" horiz-adv-x="762" 
d="M61 326v75l637 318v-64l-571 -290l571 -310v-61z" />
    <glyph glyph-name="equal" unicode="=" horiz-adv-x="778" 
d="M61 420v61h656v-61h-656zM61 236v61h656v-61h-656z" />
    <glyph glyph-name="greater" unicode="&#x3e;" horiz-adv-x="762" 
d="M61 -6v61l574 310l-574 290v64l637 -318v-75z" />
    <glyph glyph-name="question" unicode="?" horiz-adv-x="700" 
d="M633 834q0 -80 -38 -135.5t-84 -103.5t-85 -96t-39 -114v-152h-65v156q0 72 37.5 123t83.5 100.5t84 101.5t38 122q0 36 -13 72t-41 66t-70 47t-97 17q-57 0 -104 -20.5t-78 -56t-42 -83t3 -100.5l-68 -18q-18 67 -3.5 128.5t54 110t102 76t136.5 27.5q68 0 121 -21.5
t91 -58.5t57.5 -85t19.5 -103zM420 57q0 -28 -18.5 -47.5t-47.5 -19.5q-28 0 -46.5 19.5t-18.5 47.5q0 29 18.5 47.5t46.5 18.5q29 0 47.5 -18.5t18.5 -47.5z" />
    <glyph glyph-name="at" unicode="@" horiz-adv-x="1130" 
d="M1081 633q0 -86 -30.5 -162t-78.5 -132t-107.5 -89t-116.5 -33q-76 0 -109 70q-49 -41 -96 -55.5t-90 -14.5q-93 0 -142 59.5t-49 151.5q0 74 24.5 151.5t69.5 143t109.5 107.5t144.5 42q47 0 91 -22.5t81 -71.5l21 66h63l-147 -465q-6 -21 -10 -39t-1 -32.5t16 -23
t44 -8.5q45 0 90 35t82 87.5t59.5 117t22.5 121.5q0 90 -37 163.5t-97.5 126t-138 81t-159.5 28.5q-101 0 -188 -41t-152.5 -109.5t-103 -159.5t-37.5 -191q0 -99 38.5 -188t105 -156.5t155 -107.5t184.5 -40q119 0 224.5 50t166.5 147l82 2q-68 -121 -190.5 -188.5
t-282.5 -67.5q-115 0 -214 44t-172 119.5t-115 177t-42 218.5q0 114 43 214.5t117 175.5t171 118t206 43q104 0 194 -35t157 -96.5t105.5 -146.5t38.5 -185zM743 657q7 19 -0.5 45.5t-27 51t-49 41t-68.5 16.5q-55 0 -105.5 -38t-88 -95t-59 -121.5t-21.5 -120.5
q0 -63 37.5 -112.5t113.5 -47.5q35 0 67.5 16.5t59.5 41t47.5 54.5t28.5 58z" />
    <glyph glyph-name="A" unicode="A" horiz-adv-x="877" 
d="M809 0l-141 356h-461l-139 -356h-70l442 1116l437 -1116h-68zM438 944l-207 -524h412z" />
    <glyph glyph-name="B" unicode="B" horiz-adv-x="768" 
d="M715 301q0 -65 -23.5 -122.5t-73.5 -100.5q-55 -49 -114.5 -63.5t-130.5 -14.5h-269v1081h209q60 0 116 -10t103 -53q48 -43 68.5 -100.5t20.5 -122.5q0 -72 -28 -124.5t-93 -95.5q102 -28 158.5 -102t56.5 -172zM553 805q0 53 -20.5 100t-65.5 76q-41 29 -87 33t-93 4
h-117v-428h117q53 0 98 3t90 38t61.5 76t16.5 98zM647 299q0 59 -26.5 112.5t-79.5 80.5q-47 24 -108.5 29t-115.5 5h-147v-465h162q55 0 110.5 5.5t104.5 39.5q47 33 73.5 82.5t26.5 110.5z" />
    <glyph glyph-name="C" unicode="C" horiz-adv-x="1010" 
d="M940 123q-76 -64 -165 -100.5t-187 -36.5q-111 0 -209 44t-174 118.5t-120 176t-44 214.5q0 114 44 215.5t119 177.5t174 120t212 44q96 0 186 -38t162 -104v-94q-72 84 -166 128t-186 44q-99 0 -186 -41t-151.5 -109.5t-102 -158.5t-37.5 -191q0 -94 36.5 -180
t102.5 -153q67 -66 156.5 -109t181.5 -43q86 0 184 45t170 125v-94z" />
    <glyph glyph-name="D" unicode="D" horiz-adv-x="889" 
d="M850 539q0 -113 -41 -215.5t-121 -180.5q-86 -86 -182 -114.5t-213 -28.5h-189v1081h189q117 0 210 -26.5t181 -110.5q82 -80 124 -184.5t42 -220.5zM782 539q0 104 -37.5 196t-113.5 164q-74 70 -158 94.5t-182 24.5h-121v-957h121q104 0 191 28t161 104
q68 71 103.5 159t35.5 187z" />
    <glyph glyph-name="E" unicode="E" horiz-adv-x="688" 
d="M104 0v1081h502v-63h-436v-395h424v-64h-424v-498h436v-61h-502z" />
    <glyph glyph-name="F" unicode="F" horiz-adv-x="602" 
d="M170 1018v-395h348v-64h-348v-559h-66v1081h422v-63h-356z" />
    <glyph glyph-name="G" unicode="G" horiz-adv-x="1130" 
d="M1087 520q3 -104 -18.5 -193t-91.5 -167q-74 -82 -180.5 -128t-216.5 -46q-109 0 -207.5 44t-172 119.5t-116.5 175t-43 212.5q0 116 43 217.5t117.5 177.5t174 120t212.5 44q141 0 255.5 -67.5t200.5 -184.5l-55 -43q-76 108 -177 169.5t-228 61.5q-97 0 -183 -40
t-151.5 -107.5t-103 -156.5t-37.5 -187q0 -101 37.5 -190t102 -156.5t150.5 -107.5t185 -40q86 0 164.5 35t144.5 88q65 57 94 124.5t33 162.5h-375v63h442z" />
    <glyph glyph-name="H" unicode="H" horiz-adv-x="979" 
d="M809 0v557h-639v-557h-66v1081h66v-458h639v458h65v-1081h-65z" />
    <glyph glyph-name="I" unicode="I" horiz-adv-x="276" 
d="M104 0v1081h66v-1081h-66z" />
    <glyph glyph-name="J" unicode="J" horiz-adv-x="287" 
d="M182 20q0 -51 -7 -96t-27.5 -78.5t-56.5 -53t-93 -19.5t-102.5 31.5t-73.5 84.5l53 41q21 -41 55.5 -66.5t73.5 -25.5t60.5 17.5t33 43t14.5 58.5t3 63v1061h67v-1061z" />
    <glyph glyph-name="K" unicode="K" horiz-adv-x="774" 
d="M702 0l-501 520l-31 -31v-489h-66v1081h66v-506l500 506h88l-512 -518l547 -563h-91z" />
    <glyph glyph-name="L" unicode="L" horiz-adv-x="438" 
d="M104 0v1081h66v-1020h268v-61h-334z" />
    <glyph glyph-name="M" unicode="M" horiz-adv-x="1231" 
d="M1161 -16l-176 919l-367 -938l-370 938l-180 -919h-64l225 1132l387 -985l388 985l223 -1132h-66z" />
    <glyph glyph-name="N" unicode="N" horiz-adv-x="1155" 
d="M170 928v-940h-66v1108l881 -957v942h66v-1116z" />
    <glyph glyph-name="O" unicode="O" horiz-adv-x="1171" 
d="M1130 541q0 -115 -44 -216.5t-117.5 -176t-173 -118.5t-209.5 -44q-111 0 -210.5 44t-174 118.5t-117.5 176t-43 216.5q0 114 43 214.5t117.5 176.5t174 120t210.5 44q110 0 209.5 -44t173 -120t117.5 -176.5t44 -214.5zM1063 541q0 100 -38 189t-103.5 156.5
t-151.5 106.5t-184 39q-99 0 -186 -39t-151.5 -106.5t-102 -156.5t-37.5 -189q0 -101 37.5 -190t102 -156.5t151.5 -107.5t186 -40q98 0 184 40t151.5 107.5t103.5 156.5t38 190z" />
    <glyph glyph-name="P" unicode="P" horiz-adv-x="639" 
d="M610 795q0 -58 -21.5 -116t-66.5 -97q-47 -43 -109.5 -55.5t-123.5 -12.5h-119v-514h-66v1081h185q61 0 119.5 -10t107.5 -53q47 -41 70.5 -99.5t23.5 -123.5zM545 799q0 51 -20.5 98t-61.5 76q-39 35 -86 40t-94 5h-113v-440h121q51 0 98 10t88 49q68 65 68 162z" />
    <glyph glyph-name="Q" unicode="Q" horiz-adv-x="1171" 
d="M1130 545q0 -113 -38.5 -207t-112.5 -184l135 -154h-92l-90 115q-78 -62 -167 -95.5t-179 -33.5q-113 0 -212.5 43t-173 118.5t-116.5 176t-43 217.5q0 114 43 215.5t117.5 177.5t174 119t212.5 43q110 0 208.5 -43t172 -119t117.5 -175.5t44 -213.5zM1063 532
q0 103 -37 193t-100.5 158.5t-150.5 108.5t-187 40q-99 0 -186 -39t-152.5 -106.5t-103 -156.5t-37.5 -189q0 -101 37.5 -191t103 -157.5t154 -106.5t186.5 -39q78 0 152.5 33t140.5 86l-262 276h92l217 -237q63 76 98 154.5t35 172.5z" />
    <glyph glyph-name="R" unicode="R" horiz-adv-x="664" 
d="M547 0l-344 512l-33 2v-514h-66v1081h129q66 0 127.5 -7t114.5 -48q57 -41 81 -100.5t24 -130.5q0 -136 -82 -207.5t-217 -73.5l344 -514h-78zM512 797q0 59 -26.5 114.5t-84.5 79.5q-41 23 -90 25t-96 2h-45v-443h86q49 0 95 8.5t85 45.5q39 28 57.5 74.5t18.5 93.5z
" />
    <glyph glyph-name="S" unicode="S" horiz-adv-x="741" 
d="M688 299q0 -68 -27.5 -125t-72.5 -99t-104.5 -65.5t-125.5 -23.5q-106 0 -186 62.5t-121 170.5l60 29q36 -92 97.5 -146.5t153.5 -54.5q52 0 99 20.5t82 55.5t56.5 82t21.5 100q0 47 -20.5 80t-51.5 58.5t-68 45l-69 35.5l-191 107q-53 33 -80.5 79t-27.5 111
q0 60 19.5 110t55 87t85 57.5t108.5 20.5q78 0 147.5 -40t110.5 -110l-49 -41q-39 60 -90 93.5t-123 33.5q-43 0 -79 -16.5t-62.5 -45t-42 -66.5t-15.5 -81t18.5 -73.5t46 -53t61.5 -40l65 -33.5l198 -107q60 -41 90.5 -92t30.5 -125z" />
    <glyph glyph-name="T" unicode="T" horiz-adv-x="610" 
d="M338 1018v-1018h-66v1018h-272v63h610v-63h-272z" />
    <glyph glyph-name="U" unicode="U" horiz-adv-x="901" 
d="M807 408q0 -84 -9.5 -156t-62.5 -137q-53 -64 -130 -96.5t-154 -32.5q-78 0 -156 33.5t-131 95.5q-51 65 -60.5 138t-9.5 155v673h66v-653q0 -74 7 -146.5t50 -125.5q41 -54 106.5 -81.5t127.5 -27.5q61 0 127.5 27.5t107.5 81.5q41 53 48 125.5t7 146.5v653h66v-673z
" />
    <glyph glyph-name="V" unicode="V" horiz-adv-x="754" 
d="M375 -35l-377 1116h68l311 -923l311 923h68z" />
    <glyph glyph-name="W" unicode="W" horiz-adv-x="1520" 
d="M1159 -35l-401 1002l-400 -1002l-350 1116h68l293 -929l395 983l391 -983l289 929h67z" />
    <glyph glyph-name="X" unicode="X" horiz-adv-x="672" 
d="M590 0l-256 492l-252 -492h-74l289 551l-277 530h72l244 -463l237 463h74l-274 -530l289 -551h-72z" />
    <glyph glyph-name="Y" unicode="Y" horiz-adv-x="760" 
d="M414 461v-461h-70v461l-348 620h74l309 -551l309 551h74z" />
    <glyph glyph-name="Z" unicode="Z" horiz-adv-x="774" 
d="M125 61h623v-61h-740l639 1018h-577v63h694z" />
    <glyph glyph-name="bracketleft" unicode="[" horiz-adv-x="401" 
d="M82 -229v1372h235v-72h-167v-1229h167v-71h-235z" />
    <glyph glyph-name="backslash" unicode="\" horiz-adv-x="874" 
d="M784 0l-743 1157l49 25l744 -1153z" />
    <glyph glyph-name="bracketright" unicode="]" horiz-adv-x="401" 
d="M82 -229v71h170v1229h-170v72h235v-1372h-235z" />
    <glyph glyph-name="asciicircum" unicode="^" horiz-adv-x="844" 
d="M715 432l-293 584l-289 -584h-65l319 649h72l319 -649h-63z" />
    <glyph glyph-name="underscore" unicode="_" horiz-adv-x="717" 
d="M8 -158v56h701v-56h-701z" />
    <glyph glyph-name="grave" unicode="`" horiz-adv-x="418" 
d="M270 788l-174 207l86 29l140 -211z" />
    <glyph glyph-name="a" unicode="a" horiz-adv-x="762" 
d="M602 0v123q-49 -72 -115.5 -104.5t-132.5 -32.5q-73 0 -132.5 27.5t-100.5 74.5t-63.5 110.5t-22.5 137.5q0 72 22.5 134t63.5 108.5t99.5 72t131.5 25.5q70 0 133.5 -31t116.5 -108v125h62v-662h-62zM606 342q0 57 -18.5 107.5t-52 87t-80.5 58t-107 21.5
q-55 0 -101 -23.5t-79 -62t-51.5 -90t-18.5 -104.5q0 -57 17.5 -109.5t51.5 -92.5t81 -64.5t104 -24.5q62 0 109 24.5t79.5 65.5t49 94.5t16.5 112.5z" />
    <glyph glyph-name="b" unicode="b" horiz-adv-x="762" 
d="M727 336q0 -74 -22.5 -137.5t-63.5 -110.5t-99.5 -74.5t-131.5 -27.5q-68 0 -134.5 33.5t-115.5 105.5v-125h-62v1182h62v-637q53 69 117.5 100t134.5 31q71 0 129.5 -25.5t99.5 -72t63.5 -108.5t22.5 -134zM664 336q0 53 -18.5 104.5t-51.5 90t-79 62t-101 23.5
q-62 0 -110 -21.5t-79.5 -60t-49 -90t-17.5 -110.5q0 -58 17.5 -111t50 -93t79.5 -63.5t107 -23.5q59 0 105 24.5t79 65.5t50.5 93.5t17.5 109.5z" />
    <glyph glyph-name="c" unicode="c" horiz-adv-x="647" 
d="M602 80q-49 -43 -110.5 -68.5t-126.5 -25.5q-72 0 -132.5 26.5t-104.5 73.5t-68.5 110.5t-24.5 135.5q0 71 25.5 134.5t69.5 110t105.5 73t131.5 26.5q129 0 225 -82v-86q-53 55 -107.5 81.5t-119.5 26.5q-58 0 -106 -23.5t-84 -62t-56.5 -90t-20.5 -108.5
q0 -56 20.5 -108t55.5 -92t84 -63.5t104 -23.5q66 0 126.5 29.5t113.5 93.5v-88z" />
    <glyph glyph-name="d" unicode="d" horiz-adv-x="762" 
d="M602 0v123q-49 -72 -115.5 -104.5t-132.5 -32.5q-73 0 -132.5 27.5t-100.5 74.5t-63.5 110.5t-22.5 137.5q0 72 22.5 134t63.5 108.5t99.5 72t131.5 25.5q70 0 133.5 -32t116.5 -105v643h62v-1182h-62zM606 342q0 57 -18.5 107.5t-52 87t-80.5 58t-107 21.5
q-55 0 -101 -23.5t-79 -62t-51.5 -90t-18.5 -104.5q0 -57 17.5 -109.5t51.5 -93.5t81 -65.5t104 -24.5q62 0 109 24.5t79.5 65.5t49 95.5t16.5 113.5z" />
    <glyph glyph-name="e" unicode="e" horiz-adv-x="692" 
d="M98 326q0 -129 74 -205t184 -76q74 0 131.5 40t94.5 110l26 -15l27 -16q-94 -178 -287 -178q-72 0 -129 27.5t-98 75.5t-63.5 110.5t-22.5 132.5q0 69 22.5 131.5t63.5 110t99.5 75t127.5 27.5q72 0 129.5 -27.5t96 -75t60 -111t23.5 -136.5h-559zM594 385
q-16 98 -82 164.5t-162 66.5q-49 0 -92 -18t-77 -49t-55.5 -73t-27.5 -91h496z" />
    <glyph glyph-name="f" unicode="f" horiz-adv-x="317" 
d="M160 602v-602h-62v602h-71v60h71v296q0 37 3 83t20 79q22 41 62 61.5t85 20.5q13 0 26 -3l30 -7v-57q-17 4 -29 6t-23 2q-41 0 -63.5 -18.5t-33.5 -48t-13 -64.5t-2 -66v-284h164v-60h-164z" />
    <glyph glyph-name="g" unicode="g" horiz-adv-x="772" 
d="M674 31q0 -76 -8.5 -145.5t-55.5 -135.5q-45 -63 -112.5 -95t-143.5 -32q-63 0 -118.5 18.5t-98.5 54.5t-69.5 89t-32.5 123h63q8 -111 81 -169t169 -58q60 0 114 24.5t93 77.5q37 59 46 121.5t9 128.5v88q-51 -68 -116.5 -101.5t-137.5 -33.5q-69 0 -126.5 28.5
t-98.5 75.5t-63.5 109.5t-22.5 132.5q0 71 23.5 133.5t66.5 110t101.5 74t128.5 26.5q77 0 134.5 -32t110.5 -103v121h64v-631zM616 342q0 57 -18 107.5t-53 88t-82 59t-107 21.5q-55 0 -100 -23.5t-78 -63t-51 -90t-18 -105.5q0 -57 17 -109.5t50 -92.5t80 -64.5t104 -24.5
q62 0 110 24.5t81 65.5t49 94.5t16 112.5z" />
    <glyph glyph-name="h" unicode="h" horiz-adv-x="666" 
d="M504 0v399q0 47 -4 86t-20.5 69t-46.5 46t-83 16q-61 0 -98 -26.5t-57.5 -67.5t-27.5 -93t-7 -101v-328h-62v1182h62v-623q35 59 86 88t110 29q123 0 166 -74t43 -203v-399h-61z" />
    <glyph glyph-name="i" unicode="i" horiz-adv-x="309" 
d="M213 883q0 -25 -17.5 -42.5t-39.5 -17.5q-25 0 -42.5 17.5t-17.5 42.5q0 24 17.5 41.5t42.5 17.5q22 0 39.5 -17.5t17.5 -41.5zM123 0v662h61v-662h-61z" />
    <glyph glyph-name="j" unicode="j" horiz-adv-x="309" 
d="M213 883q0 -25 -17.5 -42.5t-39.5 -17.5q-25 0 -42.5 17.5t-17.5 42.5q0 24 17.5 41.5t42.5 17.5q22 0 39.5 -17.5t17.5 -41.5zM123 -387v1049h61v-1049h-61z" />
    <glyph glyph-name="k" unicode="k" horiz-adv-x="578" 
d="M514 0l-317 336l-37 -41v-295h-62v1182h62v-799l264 279h82l-268 -285l358 -377h-82z" />
    <glyph glyph-name="l" unicode="l" horiz-adv-x="260" 
d="M98 0v1182h62v-1182h-62z" />
    <glyph glyph-name="m" unicode="m" horiz-adv-x="991" 
d="M829 0v424q0 39 -4 73.5t-18 61.5t-41 42t-74 15q-49 0 -81.5 -20.5t-51 -54t-26 -74.5t-7.5 -84v-383h-61v408q0 38 -5 76t-20.5 67t-43 47t-74.5 18q-52 0 -83.5 -24.5t-49 -61t-23.5 -80.5t-6 -85v-365h-62v662h62v-82q35 53 77 74.5t89 21.5q116 0 180 -113
q35 60 82 86.5t104 26.5q64 0 103 -20.5t60.5 -55.5t29.5 -82t8 -102v-416h-64z" />
    <glyph glyph-name="n" unicode="n" horiz-adv-x="666" 
d="M504 0v399q0 45 -4 85t-20.5 69t-46.5 46t-83 17q-61 0 -98 -26.5t-57.5 -67.5t-27.5 -93t-7 -101v-328h-62v662h62v-103q41 62 89 89.5t107 27.5q123 0 166 -74t43 -203v-399h-61z" />
    <glyph glyph-name="o" unicode="o" horiz-adv-x="745" 
d="M707 332q0 -74 -26 -137.5t-72 -109.5t-107.5 -72.5t-132.5 -26.5q-70 0 -130.5 27.5t-105.5 73.5t-71.5 109.5t-26.5 133.5q0 71 26.5 133.5t71.5 110t105.5 75t130.5 27.5q71 0 132.5 -25.5t107.5 -72t72 -109.5t26 -137zM645 330q0 61 -21.5 113.5t-59.5 91t-89 60
t-110 21.5q-58 0 -106 -23.5t-84 -62t-56.5 -91t-20.5 -109.5q0 -58 20.5 -109t56.5 -90t85 -62.5t105 -23.5q59 0 110 22.5t89 60.5t59.5 90t21.5 112z" />
    <glyph glyph-name="p" unicode="p" horiz-adv-x="762" 
d="M727 326q0 -74 -21.5 -135.5t-62.5 -107.5t-99.5 -71.5t-131.5 -25.5q-72 0 -136.5 31.5t-115.5 103.5v-508h-62v1049h62v-123q51 71 116.5 104t133.5 33q73 0 131.5 -27.5t100.5 -75t63.5 -112t21.5 -135.5zM664 324q0 57 -17.5 110t-50.5 94t-79 65.5t-105 24.5
q-62 0 -110 -24.5t-80 -66.5t-48 -96t-16 -114q0 -116 69.5 -194t186.5 -78q55 0 101 22.5t79 61.5t51.5 89t18.5 106z" />
    <glyph glyph-name="q" unicode="q" horiz-adv-x="762" 
d="M602 -387v504q-51 -70 -116.5 -100.5t-133.5 -30.5q-73 0 -131.5 25.5t-99.5 70.5t-63.5 107.5t-22.5 134.5q0 73 22.5 136.5t63.5 112t100.5 76t132.5 27.5q66 0 132.5 -32t115.5 -101v119h62v-1049h-62zM606 324q0 57 -17.5 110t-51 94t-79.5 65.5t-106 24.5
q-61 0 -108 -24.5t-80 -66.5t-49.5 -96t-16.5 -114q0 -116 71 -194t187 -78q56 0 102 22.5t78.5 61.5t51 89t18.5 106z" />
    <glyph glyph-name="r" unicode="r" horiz-adv-x="371" 
d="M340 606q-31 10 -47 10q-51 0 -79 -29.5t-40 -72.5t-13 -91t-1 -85v-338h-62v662h62v-95q2 4 4 11q4 14 10 22q21 35 51.5 55.5t77.5 20.5q19 0 34 -3t36 -9z" />
    <glyph glyph-name="s" unicode="s" horiz-adv-x="504" 
d="M459 193q0 -93 -60.5 -150t-146.5 -57q-78 0 -137.5 46t-81.5 128l57 22q23 -63 60.5 -100t101.5 -37q59 0 102 43t43 107q0 61 -39 87.5t-86 43.5q-32 12 -66 26.5t-60.5 35t-44 50t-17.5 70.5q0 76 51 122t123 46q47 0 93 -26.5t71 -76.5l-53 -30q-19 37 -48.5 55
t-64.5 18q-41 0 -75 -29.5t-34 -72.5q0 -41 24 -63.5t57.5 -38t74.5 -29.5t75 -36.5t57.5 -58.5t23.5 -95z" />
    <glyph glyph-name="t" unicode="t" horiz-adv-x="274" 
d="M168 602v-602h-64v602h-69v60h69v237h64v-237h115v-60h-115z" />
    <glyph glyph-name="u" unicode="u" horiz-adv-x="639" 
d="M551 264q0 -49 -4 -98t-35 -92q-35 -45 -86 -66.5t-107 -21.5q-53 0 -105 21.5t-85 66.5q-31 43 -35 92t-4 98v398h62v-373q0 -49 4 -93t21.5 -78t51 -53.5t90.5 -19.5q60 0 92.5 19.5t50 53.5t21.5 78t4 93v373h64v-398z" />
    <glyph glyph-name="v" unicode="v" horiz-adv-x="586" 
d="M295 -35l-297 697h65l234 -545l225 545h66z" />
    <glyph glyph-name="w" unicode="w" horiz-adv-x="1028" 
d="M743 -35l-231 576l-223 -576l-291 699h65l228 -545l225 579l229 -579l222 545h61z" />
    <glyph glyph-name="x" unicode="x" horiz-adv-x="600" 
d="M526 0l-227 305l-227 -305h-72l260 352l-237 310h71l207 -267l201 267h78l-236 -310l258 -352h-76z" />
    <glyph glyph-name="y" unicode="y" horiz-adv-x="623" 
d="M201 -387h-64l152 373l-307 676h65l277 -601l243 601h64z" />
    <glyph glyph-name="z" unicode="z" horiz-adv-x="651" 
d="M129 59h520v-59h-653l526 602h-440v60h569z" />
    <glyph glyph-name="braceleft" unicode="{" horiz-adv-x="401" 
d="M352 -229q-61 2 -100 16t-61.5 42t-30.5 71t-8 104v252q0 59 -27 98t-74 74v61q47 35 74 71t27 95v252q0 121 39.5 176.5t160.5 59.5v-66q-26 0 -51 -4t-43 -16.5t-29.5 -35t-11.5 -58.5v-269q0 -53 -7 -90t-20.5 -63.5t-33 -45t-43.5 -36.5v-2q47 -33 75.5 -84
t28.5 -160v-264q0 -37 11.5 -59.5t29.5 -35t43 -16.5t51 -4v-63z" />
    <glyph glyph-name="bar" unicode="|" horiz-adv-x="428" 
d="M180 0v1182h68v-1182h-68z" />
    <glyph glyph-name="braceright" unicode="}" horiz-adv-x="401" 
d="M350 428q-47 -35 -73.5 -74t-26.5 -98v-252q0 -61 -8.5 -104t-31 -71t-61 -42t-100.5 -16v63q27 0 51.5 4t43 16.5t29.5 35t11 59.5v264q0 109 29 160t76 84v2q-25 18 -44.5 36.5t-32.5 45t-20.5 63.5t-7.5 90v269q0 36 -11 58.5t-29.5 35t-43 16.5t-51.5 4v66
q62 -2 100.5 -16.5t61 -42t31 -71.5t8.5 -106v-252q0 -59 26.5 -95t73.5 -71v-61z" />
    <glyph glyph-name="asciitilde" unicode="~" horiz-adv-x="844" 
d="M778 422q-39 -64 -87 -110t-116 -46q-36 0 -74 17.5t-77 40.5q-39 20 -77 35.5t-75 15.5q-47 0 -77.5 -29t-61.5 -76l-63 33l38.5 51.5t45 47t53.5 34t65 13.5q37 0 78 -16.5l84 -35.5l78 -37.5t66 -17.5q45 0 76.5 30.5t58.5 84.5z" />
    <glyph glyph-name="saraiileftthai" 
d="M-829 922v61h532v102h61v-163h-593z" />
    <glyph glyph-name="saraiileftthai" unicode="&#xf702;" 
d="M-829 922v61h532v102h61v-163h-593z" />
    <glyph glyph-name="saraiileftthai" unicode="&#x201a;" 
d="M-829 922v61h532v102h61v-163h-593z" />
    <glyph glyph-name="saraueleftthai" 
d="M-178 1008q0 -35 -26.5 -60.5t-61.5 -25.5h-563v61h479q-4 16 -4 25q0 34 26.5 61t61.5 27t61.5 -27t26.5 -61zM-225 1008q0 16 -13.5 29.5t-29.5 13.5q-17 0 -30 -13.5t-13 -29.5q0 -17 13 -30t30 -13q16 0 29.5 13t13.5 30z" />
    <glyph glyph-name="saraueleftthai" unicode="&#xf703;" 
d="M-178 1008q0 -35 -26.5 -60.5t-61.5 -25.5h-563v61h479q-4 16 -4 25q0 34 26.5 61t61.5 27t61.5 -27t26.5 -61zM-225 1008q0 16 -13.5 29.5t-29.5 13.5q-17 0 -30 -13.5t-13 -29.5q0 -17 13 -30t30 -13q16 0 29.5 13t13.5 30z" />
    <glyph glyph-name="saraueleftthai" unicode="&#x192;" 
d="M-178 1008q0 -35 -26.5 -60.5t-61.5 -25.5h-563v61h479q-4 16 -4 25q0 34 26.5 61t61.5 27t61.5 -27t26.5 -61zM-225 1008q0 16 -13.5 29.5t-29.5 13.5q-17 0 -30 -13.5t-13 -29.5q0 -17 13 -30t30 -13q16 0 29.5 13t13.5 30z" />
    <glyph glyph-name="saraueeleftthai" 
d="M-829 922v61h409v102h62v-102h61v102h61v-163h-593z" />
    <glyph glyph-name="saraueeleftthai" unicode="&#xf704;" 
d="M-829 922v61h409v102h62v-102h61v102h61v-163h-593z" />
    <glyph glyph-name="saraueeleftthai" unicode="&#x201e;" 
d="M-829 922v61h409v102h62v-102h61v102h61v-163h-593z" />
    <glyph glyph-name="ellipsis" unicode="&#x85;" horiz-adv-x="918" 
d="M823 63q0 -28 -18.5 -46.5t-46.5 -18.5q-29 0 -47.5 18.5t-18.5 46.5q0 29 18.5 47.5t47.5 18.5q28 0 46.5 -18.5t18.5 -47.5zM524 63q0 -28 -18.5 -46.5t-46.5 -18.5q-29 0 -47.5 18.5t-18.5 46.5q0 29 18.5 47.5t47.5 18.5q28 0 46.5 -18.5t18.5 -47.5zM225 63
q0 -28 -18.5 -46.5t-46.5 -18.5q-29 0 -47.5 18.5t-18.5 46.5q0 29 18.5 47.5t47.5 18.5q28 0 46.5 -18.5t18.5 -47.5z" />
    <glyph glyph-name="ellipsis" unicode="&#x2026;" horiz-adv-x="918" 
d="M823 63q0 -28 -18.5 -46.5t-46.5 -18.5q-29 0 -47.5 18.5t-18.5 46.5q0 29 18.5 47.5t47.5 18.5q28 0 46.5 -18.5t18.5 -47.5zM524 63q0 -28 -18.5 -46.5t-46.5 -18.5q-29 0 -47.5 18.5t-18.5 46.5q0 29 18.5 47.5t47.5 18.5q28 0 46.5 -18.5t18.5 -47.5zM225 63
q0 -28 -18.5 -46.5t-46.5 -18.5q-29 0 -47.5 18.5t-18.5 46.5q0 29 18.5 47.5t47.5 18.5q28 0 46.5 -18.5t18.5 -47.5z" />
    <glyph glyph-name="maieklowleftthai" 
d="M-338 922v184h62v-184h-62z" />
    <glyph glyph-name="maieklowleftthai" unicode="&#xf705;" 
d="M-338 922v184h62v-184h-62z" />
    <glyph glyph-name="maieklowleftthai" unicode="&#x2020;" 
d="M-338 922v184h62v-184h-62z" />
    <glyph glyph-name="maitholowleftthai" 
d="M-166 1268q2 0 -5 -23.5t-25.5 -60.5t-51.5 -79t-82 -79q-51 -39 -115.5 -57.5t-121 -24.5t-94 -5t-37.5 3v43q0 2 16 6t37 19q10 6 15 13l9 13q7 8 9 15q2 4 -17.5 5t-42.5 13q-26 16 -36.5 42t-8.5 56q4 52 39 77.5t78 25.5q65 2 95 -38t24 -91q-4 -35 -20.5 -62.5
t-35.5 -46.5q-22 -22 -47 -35q0 -2 19.5 0t48.5 9.5t63.5 22.5t65.5 40q37 31 56.5 66.5t26.5 64.5t8 48.5l1 19.5h129zM-598 1100q27 0 41 18.5t14 40t-14 40t-43 18.5t-43 -18.5t-14 -41t15 -40t44 -17.5z" />
    <glyph glyph-name="maitholowleftthai" unicode="&#xf706;" 
d="M-166 1268q2 0 -5 -23.5t-25.5 -60.5t-51.5 -79t-82 -79q-51 -39 -115.5 -57.5t-121 -24.5t-94 -5t-37.5 3v43q0 2 16 6t37 19q10 6 15 13l9 13q7 8 9 15q2 4 -17.5 5t-42.5 13q-26 16 -36.5 42t-8.5 56q4 52 39 77.5t78 25.5q65 2 95 -38t24 -91q-4 -35 -20.5 -62.5
t-35.5 -46.5q-22 -22 -47 -35q0 -2 19.5 0t48.5 9.5t63.5 22.5t65.5 40q37 31 56.5 66.5t26.5 64.5t8 48.5l1 19.5h129zM-598 1100q27 0 41 18.5t14 40t-14 40t-43 18.5t-43 -18.5t-14 -41t15 -40t44 -17.5z" />
    <glyph glyph-name="maitholowleftthai" unicode="&#x2021;" 
d="M-166 1268q2 0 -5 -23.5t-25.5 -60.5t-51.5 -79t-82 -79q-51 -39 -115.5 -57.5t-121 -24.5t-94 -5t-37.5 3v43q0 2 16 6t37 19q10 6 15 13l9 13q7 8 9 15q2 4 -17.5 5t-42.5 13q-26 16 -36.5 42t-8.5 56q4 52 39 77.5t78 25.5q65 2 95 -38t24 -91q-4 -35 -20.5 -62.5
t-35.5 -46.5q-22 -22 -47 -35q0 -2 19.5 0t48.5 9.5t63.5 22.5t65.5 40q37 31 56.5 66.5t26.5 64.5t8 48.5l1 19.5h129zM-598 1100q27 0 41 18.5t14 40t-14 40t-43 18.5t-43 -18.5t-14 -41t15 -40t44 -17.5z" />
    <glyph glyph-name="maitrilowleftthai" 
d="M-236 1262q-2 -31 -10 -64q-6 -29 -18 -60.5t-33 -60.5q-39 -49 -82 -76.5t-80 -41t-60.5 -15.5l-23.5 -2v41q0 2 18.5 27.5t22.5 85.5q0 24 -7 41.5t-17 29.5q-11 15 -25 23l-74 -64l-75 64q-11 -2 -19 -10q-8 -6 -15 -14.5t-14 -24.5q-10 -27 -10 -55.5t10 -53.5
q11 -24 28.5 -34.5t17.5 -8.5q2 -2 -7.5 12.5t0.5 40.5q9 23 35.5 28t48.5 -7q15 -8 22 -23.5t7 -31t-6 -29.5t-16 -23q-39 -28 -85.5 -17t-72.5 38q-39 39 -44 101.5t19 105.5q27 45 61.5 59t37.5 14l77 -71l78 69l11.5 -3t25.5 -10t29.5 -21.5t25.5 -38.5q17 -37 14 -71
t-12.5 -58.5t-18.5 -40l-9 -15.5l13 4.5t32.5 16.5t41 33.5t38.5 56.5q12 29 18 55.5t8 49t2 36v13.5h92z" />
    <glyph glyph-name="maitrilowleftthai" unicode="&#xf707;" 
d="M-236 1262q-2 -31 -10 -64q-6 -29 -18 -60.5t-33 -60.5q-39 -49 -82 -76.5t-80 -41t-60.5 -15.5l-23.5 -2v41q0 2 18.5 27.5t22.5 85.5q0 24 -7 41.5t-17 29.5q-11 15 -25 23l-74 -64l-75 64q-11 -2 -19 -10q-8 -6 -15 -14.5t-14 -24.5q-10 -27 -10 -55.5t10 -53.5
q11 -24 28.5 -34.5t17.5 -8.5q2 -2 -7.5 12.5t0.5 40.5q9 23 35.5 28t48.5 -7q15 -8 22 -23.5t7 -31t-6 -29.5t-16 -23q-39 -28 -85.5 -17t-72.5 38q-39 39 -44 101.5t19 105.5q27 45 61.5 59t37.5 14l77 -71l78 69l11.5 -3t25.5 -10t29.5 -21.5t25.5 -38.5q17 -37 14 -71
t-12.5 -58.5t-18.5 -40l-9 -15.5l13 4.5t32.5 16.5t41 33.5t38.5 56.5q12 29 18 55.5t8 49t2 36v13.5h92z" />
    <glyph glyph-name="maitrilowleftthai" unicode="&#xf08d;" 
d="M-236 1262q-2 -31 -10 -64q-6 -29 -18 -60.5t-33 -60.5q-39 -49 -82 -76.5t-80 -41t-60.5 -15.5l-23.5 -2v41q0 2 18.5 27.5t22.5 85.5q0 24 -7 41.5t-17 29.5q-11 15 -25 23l-74 -64l-75 64q-11 -2 -19 -10q-8 -6 -15 -14.5t-14 -24.5q-10 -27 -10 -55.5t10 -53.5
q11 -24 28.5 -34.5t17.5 -8.5q2 -2 -7.5 12.5t0.5 40.5q9 23 35.5 28t48.5 -7q15 -8 22 -23.5t7 -31t-6 -29.5t-16 -23q-39 -28 -85.5 -17t-72.5 38q-39 39 -44 101.5t19 105.5q27 45 61.5 59t37.5 14l77 -71l78 69l11.5 -3t25.5 -10t29.5 -21.5t25.5 -38.5q17 -37 14 -71
t-12.5 -58.5t-18.5 -40l-9 -15.5l13 4.5t32.5 16.5t41 33.5t38.5 56.5q12 29 18 55.5t8 49t2 36v13.5h92z" />
    <glyph glyph-name="maitrilowleftthai" unicode="&#x2c6;" 
d="M-236 1262q-2 -31 -10 -64q-6 -29 -18 -60.5t-33 -60.5q-39 -49 -82 -76.5t-80 -41t-60.5 -15.5l-23.5 -2v41q0 2 18.5 27.5t22.5 85.5q0 24 -7 41.5t-17 29.5q-11 15 -25 23l-74 -64l-75 64q-11 -2 -19 -10q-8 -6 -15 -14.5t-14 -24.5q-10 -27 -10 -55.5t10 -53.5
q11 -24 28.5 -34.5t17.5 -8.5q2 -2 -7.5 12.5t0.5 40.5q9 23 35.5 28t48.5 -7q15 -8 22 -23.5t7 -31t-6 -29.5t-16 -23q-39 -28 -85.5 -17t-72.5 38q-39 39 -44 101.5t19 105.5q27 45 61.5 59t37.5 14l77 -71l78 69l11.5 -3t25.5 -10t29.5 -21.5t25.5 -38.5q17 -37 14 -71
t-12.5 -58.5t-18.5 -40l-9 -15.5l13 4.5t32.5 16.5t41 33.5t38.5 56.5q12 29 18 55.5t8 49t2 36v13.5h92z" />
    <glyph glyph-name="maichattawalowleftthai" 
d="M-393 1067v-127h-115v127h-113v70h113v123h115v-123h112v-70h-112z" />
    <glyph glyph-name="maichattawalowleftthai" unicode="&#xf708;" 
d="M-393 1067v-127h-115v127h-113v70h113v123h115v-123h112v-70h-112z" />
    <glyph glyph-name="maichattawalowleftthai" unicode="&#x2030;" 
d="M-393 1067v-127h-115v127h-113v70h113v123h115v-123h112v-70h-112z" />
    <glyph glyph-name="maieklowrightthai" 
d="M-164 1008h-88l-29 266h142z" />
    <glyph glyph-name="maieklowrightthai" unicode="&#xf70a;" 
d="M-164 1008h-88l-29 266h142z" />
    <glyph glyph-name="maieklowrightthai" unicode="&#x2039;" 
d="M-164 1008h-88l-29 266h142z" />
    <glyph glyph-name="maitholowrightthai" 
d="M72 1268q2 0 -5.5 -23.5t-25.5 -60.5t-51 -79t-82 -79q-51 -39 -115.5 -57.5t-121 -24.5t-94.5 -5t-38 3v43q0 2 16.5 6t36.5 19q11 6 16 13l9 13q6 8 8 15q2 4 -17.5 5t-41.5 13q-27 16 -37 42t-8 56q4 52 38.5 77.5t78.5 25.5q65 2 94.5 -38t23.5 -91
q-4 -35 -20.5 -62.5t-34.5 -46.5q-23 -22 -47 -35q0 -2 19.5 0t48 9.5t63.5 22.5t65 40q37 31 56.5 66.5t27 64.5t8.5 48.5l1 19.5h129zM-360 1100q26 0 40.5 18.5t14.5 40t-14.5 40t-42.5 18.5q-29 0 -43.5 -18.5t-14.5 -41t15.5 -40t44.5 -17.5z" />
    <glyph glyph-name="maitholowrightthai" unicode="&#xf70b;" 
d="M72 1268q2 0 -5.5 -23.5t-25.5 -60.5t-51 -79t-82 -79q-51 -39 -115.5 -57.5t-121 -24.5t-94.5 -5t-38 3v43q0 2 16.5 6t36.5 19q11 6 16 13l9 13q6 8 8 15q2 4 -17.5 5t-41.5 13q-27 16 -37 42t-8 56q4 52 38.5 77.5t78.5 25.5q65 2 94.5 -38t23.5 -91
q-4 -35 -20.5 -62.5t-34.5 -46.5q-23 -22 -47 -35q0 -2 19.5 0t48 9.5t63.5 22.5t65 40q37 31 56.5 66.5t27 64.5t8.5 48.5l1 19.5h129zM-360 1100q26 0 40.5 18.5t14.5 40t-14.5 40t-42.5 18.5q-29 0 -43.5 -18.5t-14.5 -41t15.5 -40t44.5 -17.5z" />
    <glyph glyph-name="maitholowrightthai" unicode="&#x152;" 
d="M72 1268q2 0 -5.5 -23.5t-25.5 -60.5t-51 -79t-82 -79q-51 -39 -115.5 -57.5t-121 -24.5t-94.5 -5t-38 3v43q0 2 16.5 6t36.5 19q11 6 16 13l9 13q6 8 8 15q2 4 -17.5 5t-41.5 13q-27 16 -37 42t-8 56q4 52 38.5 77.5t78.5 25.5q65 2 94.5 -38t23.5 -91
q-4 -35 -20.5 -62.5t-34.5 -46.5q-23 -22 -47 -35q0 -2 19.5 0t48 9.5t63.5 22.5t65 40q37 31 56.5 66.5t27 64.5t8.5 48.5l1 19.5h129zM-360 1100q26 0 40.5 18.5t14.5 40t-14.5 40t-42.5 18.5q-29 0 -43.5 -18.5t-14.5 -41t15.5 -40t44.5 -17.5z" />
    <glyph glyph-name="quoteleft" horiz-adv-x="385" 
d="M260 848q0 -29 -21.5 -52.5t-56.5 -23.5q-45 0 -67.5 32t-22.5 70q0 50 37 108t109 103l22 -24q-49 -29 -75.5 -68t-47.5 -90q21 10 32 12.5t21 2.5q29 0 49.5 -20.5t20.5 -49.5z" />
    <glyph glyph-name="quoteleft" unicode="&#x2018;" horiz-adv-x="385" 
d="M260 848q0 -29 -21.5 -52.5t-56.5 -23.5q-45 0 -67.5 32t-22.5 70q0 50 37 108t109 103l22 -24q-49 -29 -75.5 -68t-47.5 -90q21 10 32 12.5t21 2.5q29 0 49.5 -20.5t20.5 -49.5z" />
    <glyph glyph-name="quoteright" horiz-adv-x="385" 
d="M260 983q0 -49 -37 -107.5t-108 -103.5l-23 25q49 28 76 67t49 92q-22 -10 -33.5 -13t-21.5 -3q-29 0 -49.5 20.5t-20.5 49.5q0 28 21.5 51.5t56.5 23.5q45 0 67.5 -31.5t22.5 -70.5z" />
    <glyph glyph-name="quoteright" unicode="&#x2019;" horiz-adv-x="385" 
d="M260 983q0 -49 -37 -107.5t-108 -103.5l-23 25q49 28 76 67t49 92q-22 -10 -33.5 -13t-21.5 -3q-29 0 -49.5 20.5t-20.5 49.5q0 28 21.5 51.5t56.5 23.5q45 0 67.5 -31.5t22.5 -70.5z" />
    <glyph glyph-name="quotedblleft" horiz-adv-x="598" 
d="M506 848q0 -29 -21.5 -52.5t-56.5 -23.5q-45 0 -67.5 32t-22.5 70q0 50 37 108t108 103l23 -24q-49 -29 -76 -68t-47 -90q20 10 31.5 12.5t21.5 2.5q29 0 49.5 -20.5t20.5 -49.5zM260 848q0 -29 -21.5 -52.5t-56.5 -23.5q-45 0 -67.5 32t-22.5 70q0 50 37 108t109 103
l22 -24q-49 -29 -75.5 -68t-47.5 -90q21 10 32 12.5t21 2.5q29 0 49.5 -20.5t20.5 -49.5z" />
    <glyph glyph-name="quotedblleft" unicode="&#x201c;" horiz-adv-x="598" 
d="M506 848q0 -29 -21.5 -52.5t-56.5 -23.5q-45 0 -67.5 32t-22.5 70q0 50 37 108t108 103l23 -24q-49 -29 -76 -68t-47 -90q20 10 31.5 12.5t21.5 2.5q29 0 49.5 -20.5t20.5 -49.5zM260 848q0 -29 -21.5 -52.5t-56.5 -23.5q-45 0 -67.5 32t-22.5 70q0 50 37 108t109 103
l22 -24q-49 -29 -75.5 -68t-47.5 -90q21 10 32 12.5t21 2.5q29 0 49.5 -20.5t20.5 -49.5z" />
    <glyph glyph-name="quotedblright" horiz-adv-x="631" 
d="M506 983q0 -49 -37 -107.5t-109 -103.5l-22 25q49 28 75.5 67t49.5 92q-23 -10 -34 -13t-21 -3q-29 0 -49.5 20.5t-20.5 49.5q0 28 21.5 51.5t56.5 23.5q45 0 67.5 -31.5t22.5 -70.5zM260 983q0 -49 -37 -107.5t-108 -103.5l-23 25q49 28 76 67t49 92q-22 -10 -33.5 -13
t-21.5 -3q-29 0 -49.5 20.5t-20.5 49.5q0 28 21.5 51.5t56.5 23.5q45 0 67.5 -31.5t22.5 -70.5z" />
    <glyph glyph-name="quotedblright" unicode="&#x201d;" horiz-adv-x="631" 
d="M506 983q0 -49 -37 -107.5t-109 -103.5l-22 25q49 28 75.5 67t49.5 92q-23 -10 -34 -13t-21 -3q-29 0 -49.5 20.5t-20.5 49.5q0 28 21.5 51.5t56.5 23.5q45 0 67.5 -31.5t22.5 -70.5zM260 983q0 -49 -37 -107.5t-108 -103.5l-23 25q49 28 76 67t49 92q-22 -10 -33.5 -13
t-21.5 -3q-29 0 -49.5 20.5t-20.5 49.5q0 28 21.5 51.5t56.5 23.5q45 0 67.5 -31.5t22.5 -70.5z" />
    <glyph glyph-name="bullet" horiz-adv-x="737" 
d="M676 410q0 -64 -24.5 -120.5t-65.5 -97t-97.5 -65.5t-119.5 -25q-64 0 -120 25t-97 65.5t-66 97t-25 120.5q0 63 25 119.5t66 97.5t97 65.5t120 24.5q63 0 119.5 -24.5t97.5 -65.5t65.5 -97.5t24.5 -119.5z" />
    <glyph glyph-name="bullet" unicode="&#x2022;" horiz-adv-x="737" 
d="M676 410q0 -64 -24.5 -120.5t-65.5 -97t-97.5 -65.5t-119.5 -25q-64 0 -120 25t-97 65.5t-66 97t-25 120.5q0 63 25 119.5t66 97.5t97 65.5t120 24.5q63 0 119.5 -24.5t97.5 -65.5t65.5 -97.5t24.5 -119.5z" />
    <glyph glyph-name="endash" horiz-adv-x="778" 
d="M61 328v61h656v-61h-656z" />
    <glyph glyph-name="endash" unicode="&#x2013;" horiz-adv-x="778" 
d="M61 328v61h656v-61h-656z" />
    <glyph glyph-name="emdash" horiz-adv-x="1556" 
d="M61 328v61h1434v-61h-1434z" />
    <glyph glyph-name="emdash" unicode="&#x2014;" horiz-adv-x="1556" 
d="M61 328v61h1434v-61h-1434z" />
    <glyph glyph-name="maihanakatleftthai" 
d="M-461 922v122h62v-61h471v-61h-533z" />
    <glyph glyph-name="maihanakatleftthai" unicode="&#xf710;" 
d="M-461 922v122h62v-61h471v-61h-533z" />
    <glyph glyph-name="maihanakatleftthai" unicode="&#x2dc;" 
d="M-461 922v122h62v-61h471v-61h-533z" />
    <glyph glyph-name="nikhahitleftthai" 
d="M-178 1008q0 -35 -26.5 -60.5t-61.5 -25.5t-61.5 25.5t-26.5 60.5q0 34 26.5 61t61.5 27t61.5 -27t26.5 -61zM-225 1008q0 16 -13.5 29.5t-29.5 13.5q-17 0 -30 -13.5t-13 -29.5q0 -17 13 -30t30 -13q16 0 29.5 13t13.5 30z" />
    <glyph glyph-name="nikhahitleftthai" unicode="&#xf711;" 
d="M-178 1008q0 -35 -26.5 -60.5t-61.5 -25.5t-61.5 25.5t-26.5 60.5q0 34 26.5 61t61.5 27t61.5 -27t26.5 -61zM-225 1008q0 16 -13.5 29.5t-29.5 13.5q-17 0 -30 -13.5t-13 -29.5q0 -17 13 -30t30 -13q16 0 29.5 13t13.5 30z" />
    <glyph glyph-name="nikhahitleftthai" unicode="&#x2122;" 
d="M-178 1008q0 -35 -26.5 -60.5t-61.5 -25.5t-61.5 25.5t-26.5 60.5q0 34 26.5 61t61.5 27t61.5 -27t26.5 -61zM-225 1008q0 16 -13.5 29.5t-29.5 13.5q-17 0 -30 -13.5t-13 -29.5q0 -17 13 -30t30 -13q16 0 29.5 13t13.5 30z" />
    <glyph glyph-name="maiekupperleftthai" 
d="M-297 1147v143h61v-143h-61z" />
    <glyph glyph-name="maiekupperleftthai" unicode="&#xf713;" 
d="M-297 1147v143h61v-143h-61z" />
    <glyph glyph-name="maiekupperleftthai" unicode="&#x203a;" 
d="M-297 1147v143h61v-143h-61z" />
    <glyph glyph-name="maithoupperleftthai" 
d="M-356 1147v37q0 18 -7.5 29.5t-29.5 11.5h-21v57h35q82 0 82 -61v-17h246v-57h-305z" />
    <glyph glyph-name="maithoupperleftthai" unicode="&#xf714;" 
d="M-356 1147v37q0 18 -7.5 29.5t-29.5 11.5h-21v57h35q82 0 82 -61v-17h246v-57h-305z" />
    <glyph glyph-name="maithoupperleftthai" unicode="&#x153;" 
d="M-356 1147v37q0 18 -7.5 29.5t-29.5 11.5h-21v57h35q82 0 82 -61v-17h246v-57h-305z" />
    <glyph glyph-name="thanthakhatupperleftthai" 
d="M-236 1139q-30 0 -46.5 -9.5t-16.5 -35.5v-29h-61v35q0 51 29.5 71.5t66.5 20.5h88v-53h-60z" />
    <glyph glyph-name="thanthakhatupperleftthai" unicode="&#xf717;" 
d="M-236 1139q-30 0 -46.5 -9.5t-16.5 -35.5v-29h-61v35q0 51 29.5 71.5t66.5 20.5h88v-53h-60z" />
    <glyph glyph-name="thanthakhatupperleftthai" unicode="&#x178;" 
d="M-236 1139q-30 0 -46.5 -9.5t-16.5 -35.5v-29h-61v35q0 51 29.5 71.5t66.5 20.5h88v-53h-60z" />
    <glyph glyph-name="uni00A0" unicode="&#xa0;" horiz-adv-x="926" 
 />
    <glyph glyph-name="uni00A0" unicode="&#xe00;" horiz-adv-x="926" 
 />
    <glyph glyph-name="kokaithai" unicode="&#xa1;" horiz-adv-x="778" 
d="M645 0v549q0 110 -74.5 166.5t-181.5 56.5q-170 0 -256 -123v-649h-61v668q112 166 317 166q64 0 121 -16.5t101 -50.5t70 -84t26 -116v-567h-62z" />
    <glyph glyph-name="kokaithai" unicode="&#xe01;" horiz-adv-x="778" 
d="M645 0v549q0 110 -74.5 166.5t-181.5 56.5q-170 0 -256 -123v-649h-61v668q112 166 317 166q64 0 121 -16.5t101 -50.5t70 -84t26 -116v-567h-62z" />
    <glyph glyph-name="khokhaithai" unicode="&#xa2;" horiz-adv-x="707" 
d="M635 270q0 -61 -21.5 -113.5t-59.5 -90t-90 -59t-114 -21.5q-67 0 -123.5 25.5t-97.5 70.5t-64.5 106.5t-23.5 133.5q0 112 52 194t130 148l-94 133l51 34l123 -172q-92 -73 -146.5 -153t-54.5 -184q0 -58 18.5 -108t50.5 -87t78 -58.5t101 -21.5q99 0 161 63.5t62 159.5
v549h62v-549z" />
    <glyph glyph-name="khokhaithai" unicode="&#xe02;" horiz-adv-x="707" 
d="M635 270q0 -61 -21.5 -113.5t-59.5 -90t-90 -59t-114 -21.5q-67 0 -123.5 25.5t-97.5 70.5t-64.5 106.5t-23.5 133.5q0 112 52 194t130 148l-94 133l51 34l123 -172q-92 -73 -146.5 -153t-54.5 -184q0 -58 18.5 -108t50.5 -87t78 -58.5t101 -21.5q99 0 161 63.5t62 159.5
v549h62v-549z" />
    <glyph glyph-name="khokhuatthai" unicode="&#xa3;" horiz-adv-x="717" 
d="M645 270q0 -61 -21.5 -113.5t-59.5 -90t-90 -59t-114 -21.5q-67 0 -123.5 24.5t-97.5 67.5t-64.5 103.5t-23.5 131.5q0 109 55.5 189t143.5 133v117l-88 -82q-15 18 -37 41q-19 18 -44.5 38.5t-60.5 36.5l33 43q29 -14 50.5 -28.5t35.5 -26.5q17 -14 29 -29l82 74h61
v-211q-39 -20 -74.5 -49t-63.5 -65.5t-44 -81.5t-16 -99q0 -116 68.5 -191t178.5 -75q99 0 161.5 63.5t62.5 159.5v549h61v-549z" />
    <glyph glyph-name="khokhuatthai" unicode="&#xe03;" horiz-adv-x="717" 
d="M645 270q0 -61 -21.5 -113.5t-59.5 -90t-90 -59t-114 -21.5q-67 0 -123.5 24.5t-97.5 67.5t-64.5 103.5t-23.5 131.5q0 109 55.5 189t143.5 133v117l-88 -82q-15 18 -37 41q-19 18 -44.5 38.5t-60.5 36.5l33 43q29 -14 50.5 -28.5t35.5 -26.5q17 -14 29 -29l82 74h61
v-211q-39 -20 -74.5 -49t-63.5 -65.5t-44 -81.5t-16 -99q0 -116 68.5 -191t178.5 -75q99 0 161.5 63.5t62.5 159.5v549h61v-549z" />
    <glyph glyph-name="khokhwaithai" unicode="&#xa4;" horiz-adv-x="778" 
d="M645 0v563q0 49 -21.5 87t-56.5 65.5t-82 42t-96 14.5t-96 -14.5t-82 -42t-56.5 -65.5t-21.5 -87v-117h258v-61h-258v-385h-61v563q0 62 26.5 111t70.5 85t101.5 55.5t118.5 19.5q62 0 119 -19.5t101 -55.5t71 -85t27 -111v-563h-62z" />
    <glyph glyph-name="khokhwaithai" unicode="&#xe04;" horiz-adv-x="778" 
d="M645 0v563q0 49 -21.5 87t-56.5 65.5t-82 42t-96 14.5t-96 -14.5t-82 -42t-56.5 -65.5t-21.5 -87v-117h258v-61h-258v-385h-61v563q0 62 26.5 111t70.5 85t101.5 55.5t118.5 19.5q62 0 119 -19.5t101 -55.5t71 -85t27 -111v-563h-62z" />
    <glyph glyph-name="khokhonthai" unicode="&#xa5;" horiz-adv-x="819" 
d="M686 0v578q0 36 -10 70t-29.5 61.5t-46.5 45t-57 21.5l-133 -162l-134 162q-30 -4 -56.5 -21.5t-46 -45t-30 -61.5t-10.5 -70v-132h279v-61h-279v-385h-61v578q0 49 15 96t45 82t72 56.5t93 21.5l113 -134l112 134q53 0 94 -21.5t71 -56.5t45.5 -82t15.5 -96v-578h-62z
" />
    <glyph glyph-name="khokhonthai" unicode="&#xe05;" horiz-adv-x="819" 
d="M686 0v578q0 36 -10 70t-29.5 61.5t-46.5 45t-57 21.5l-133 -162l-134 162q-30 -4 -56.5 -21.5t-46 -45t-30 -61.5t-10.5 -70v-132h279v-61h-279v-385h-61v578q0 49 15 96t45 82t72 56.5t93 21.5l113 -134l112 134q53 0 94 -21.5t71 -56.5t45.5 -82t15.5 -96v-578h-62z
" />
    <glyph glyph-name="ngonguthai" unicode="&#xa7;" horiz-adv-x="737" 
d="M696 412q0 -107 -35.5 -190t-100 -135t-157 -74.5t-206.5 -10.5l-197 805l61 14l187 -764q86 -4 157.5 17.5t122 66.5t79 114t28.5 157q0 174 -96.5 268t-288.5 78v61q223 19 334.5 -93t111.5 -314z" />
    <glyph glyph-name="ngonguthai" unicode="&#xe07;" horiz-adv-x="737" 
d="M696 412q0 -107 -35.5 -190t-100 -135t-157 -74.5t-206.5 -10.5l-197 805l61 14l187 -764q86 -4 157.5 17.5t122 66.5t79 114t28.5 157q0 174 -96.5 268t-288.5 78v61q223 19 334.5 -93t111.5 -314z" />
    <glyph glyph-name="chochanthai" unicode="&#xa8;" horiz-adv-x="752" 
d="M711 426q0 -96 -33 -178t-93.5 -141.5t-145.5 -90t-189 -22.5l-98 440h-84v62h133l98 -443q78 0 141.5 28t110.5 79t72.5 118.5t25.5 147.5q0 76 -22.5 139.5t-64.5 109.5t-99 71.5t-129 25.5q-94 0 -164 -33.5t-125 -89.5l-49 41q65 72 148 108t194 36q86 0 154.5 -31
t117.5 -84t75 -128t26 -165z" />
    <glyph glyph-name="chochanthai" unicode="&#xe08;" horiz-adv-x="752" 
d="M711 426q0 -96 -33 -178t-93.5 -141.5t-145.5 -90t-189 -22.5l-98 440h-84v62h133l98 -443q78 0 141.5 28t110.5 79t72.5 118.5t25.5 147.5q0 76 -22.5 139.5t-64.5 109.5t-99 71.5t-129 25.5q-94 0 -164 -33.5t-125 -89.5l-49 41q65 72 148 108t194 36q86 0 154.5 -31
t117.5 -84t75 -128t26 -165z" />
    <glyph glyph-name="chochingthai" unicode="&#xa9;" horiz-adv-x="758" 
d="M625 0v115q-41 -60 -114 -94.5t-153 -34.5q-61 0 -113 19.5t-91 55t-60.5 85t-21.5 110.5v145h-62v62h123v-207q0 -98 64.5 -153.5t160.5 -55.5q48 0 96 17.5t86 48t61.5 71.5t23.5 90v289q0 49 -21.5 87t-57.5 65.5t-82 42t-95 14.5q-43 0 -86 -11t-81 -30.5
t-65.5 -49.5t-38.5 -67h-61q10 50 42 90.5t78 69.5t101 44.5t111 15.5q61 0 118.5 -19.5t101.5 -55.5t70.5 -85t26.5 -111v-522l21 -41h-82z" />
    <glyph glyph-name="chochingthai" unicode="&#xe09;" horiz-adv-x="758" 
d="M625 0v115q-41 -60 -114 -94.5t-153 -34.5q-61 0 -113 19.5t-91 55t-60.5 85t-21.5 110.5v145h-62v62h123v-207q0 -98 64.5 -153.5t160.5 -55.5q48 0 96 17.5t86 48t61.5 71.5t23.5 90v289q0 49 -21.5 87t-57.5 65.5t-82 42t-95 14.5q-43 0 -86 -11t-81 -30.5
t-65.5 -49.5t-38.5 -67h-61q10 50 42 90.5t78 69.5t101 44.5t111 15.5q61 0 118.5 -19.5t101.5 -55.5t70.5 -85t26.5 -111v-522l21 -41h-82z" />
    <glyph glyph-name="chochangthai" unicode="&#xaa;" horiz-adv-x="715" 
d="M674 322q0 -144 -92.5 -237t-270.5 -97q-53 -2 -98 5t-76 15q-37 8 -65 21v790h61v-743q23 -6 49 -15q23 -6 56.5 -10t74.5 -4q142 4 220.5 77t78.5 198q0 127 -77.5 205.5t-204.5 107.5l207 194l43 -36l-146 -140q111 -45 175.5 -123.5t64.5 -207.5z" />
    <glyph glyph-name="chochangthai" unicode="&#xe0a;" horiz-adv-x="715" 
d="M674 322q0 -144 -92.5 -237t-270.5 -97q-53 -2 -98 5t-76 15q-37 8 -65 21v790h61v-743q23 -6 49 -15q23 -6 56.5 -10t74.5 -4q142 4 220.5 77t78.5 198q0 127 -77.5 205.5t-204.5 107.5l207 194l43 -36l-146 -140q111 -45 175.5 -123.5t64.5 -207.5z" />
    <glyph glyph-name="sosothai" unicode="&#xab;" horiz-adv-x="735" 
d="M694 322q0 -144 -92 -237t-270 -97q-53 -2 -98.5 5t-75.5 15q-37 8 -66 21v469q0 39 17.5 63.5t37 44l37 38t17.5 44.5v66l-97 -74q-12 18 -28 37q-15 16 -35.5 35.5t-48.5 35.5l37 41q20 -14 35.5 -27.5t25.5 -23.5q12 -12 21 -24l90 65h61v-139q0 -29 -17.5 -50.5
t-37 -42t-36.5 -45t-17 -59.5v-407q22 -6 49 -15q22 -6 56 -10t75 -4q141 4 220 77t79 198q0 127 -78 205.5t-205 107.5l207 194l43 -36l-145 -140q110 -45 174.5 -123.5t64.5 -207.5z" />
    <glyph glyph-name="sosothai" unicode="&#xe0b;" horiz-adv-x="735" 
d="M694 322q0 -144 -92 -237t-270 -97q-53 -2 -98.5 5t-75.5 15q-37 8 -66 21v469q0 39 17.5 63.5t37 44l37 38t17.5 44.5v66l-97 -74q-12 18 -28 37q-15 16 -35.5 35.5t-48.5 35.5l37 41q20 -14 35.5 -27.5t25.5 -23.5q12 -12 21 -24l90 65h61v-139q0 -29 -17.5 -50.5
t-37 -42t-36.5 -45t-17 -59.5v-407q22 -6 49 -15q22 -6 56 -10t75 -4q141 4 220 77t79 198q0 127 -78 205.5t-205 107.5l207 194l43 -36l-145 -140q110 -45 174.5 -123.5t64.5 -207.5z" />
    <glyph glyph-name="chochoethai" unicode="&#xac;" horiz-adv-x="1311" 
d="M1239 256q0 -123 -77 -196.5t-199 -73.5q-78 0 -148 35.5t-108 93.5v-115h-62v549q0 110 -74.5 166.5t-181.5 56.5q-170 0 -256 -123v-588h123v-61h-184v668q112 166 317 166q64 0 121 -16.5t101 -50.5t70 -84t26 -116v-293q0 -49 22.5 -90t58 -71.5t81.5 -48t94 -17.5
q98 0 156.5 55.5t58.5 153.5v563h61v-563z" />
    <glyph glyph-name="chochoethai" unicode="&#xe0c;" horiz-adv-x="1311" 
d="M1239 256q0 -123 -77 -196.5t-199 -73.5q-78 0 -148 35.5t-108 93.5v-115h-62v549q0 110 -74.5 166.5t-181.5 56.5q-170 0 -256 -123v-588h123v-61h-184v668q112 166 317 166q64 0 121 -16.5t101 -50.5t70 -84t26 -116v-293q0 -49 22.5 -90t58 -71.5t81.5 -48t94 -17.5
q98 0 156.5 55.5t58.5 153.5v563h61v-563z" />
    <glyph glyph-name="dochadathai" unicode="&#xae;" horiz-adv-x="788" 
d="M655 -307l-184 143l-184 -143h-287v61h276l195 148l184 -142v789q0 110 -74.5 166.5t-181.5 56.5q-170 0 -256 -123v-649h-143v61h82v607q113 166 317 166q64 0 121.5 -16.5t101.5 -50.5t69.5 -84t25.5 -116v-874h-62z" />
    <glyph glyph-name="dochadathai" unicode="&#xe0e;" horiz-adv-x="788" 
d="M655 -307l-184 143l-184 -143h-287v61h276l195 148l184 -142v789q0 110 -74.5 166.5t-181.5 56.5q-170 0 -256 -123v-649h-143v61h82v607q113 166 317 166q64 0 121.5 -16.5t101.5 -50.5t69.5 -84t25.5 -116v-874h-62z" />
    <glyph glyph-name="topatakthai" unicode="&#xaf;" horiz-adv-x="788" 
d="M655 -307l-123 123l-112 -133l-113 133l-123 -123h-204v61h190l137 135l113 -131l112 131l123 -118v778q0 110 -74.5 166.5t-181.5 56.5q-170 0 -256 -123v-649h-143v61h82v607q113 166 317 166q64 0 121.5 -16.5t101.5 -50.5t69.5 -84t25.5 -116v-874h-62z" />
    <glyph glyph-name="topatakthai" unicode="&#xe0f;" horiz-adv-x="788" 
d="M655 -307l-123 123l-112 -133l-113 133l-123 -123h-204v61h190l137 135l113 -131l112 131l123 -118v778q0 110 -74.5 166.5t-181.5 56.5q-170 0 -256 -123v-649h-143v61h82v607q113 166 317 166q64 0 121.5 -16.5t101.5 -50.5t69.5 -84t25.5 -116v-874h-62z" />
    <glyph glyph-name="thothanthai" unicode="&#xb0;" horiz-adv-x="752" 
d="M711 426q0 -96 -33 -178t-93.5 -141.5t-145.5 -90t-189 -22.5l-100 450h-82v52h133l98 -443q78 0 141.5 28t110.5 79t72.5 118.5t25.5 147.5q0 76 -22.5 139.5t-64.5 109.5t-99 71.5t-129 25.5q-94 0 -164 -33.5t-125 -89.5l-49 41q65 72 148 108t194 36t190 -50l80 97
l49 -37l-77 -94q63 -56 97 -139t34 -185zM651 -307l-123 123l-112 -133l-113 133l-123 -123h-184v61h170l137 135l113 -131l112 131l123 -118v123l-30 51h92v-252h-62z" />
    <glyph glyph-name="thothanthai" unicode="&#xe10;" horiz-adv-x="752" 
d="M711 426q0 -96 -33 -178t-93.5 -141.5t-145.5 -90t-189 -22.5l-100 450h-82v52h133l98 -443q78 0 141.5 28t110.5 79t72.5 118.5t25.5 147.5q0 76 -22.5 139.5t-64.5 109.5t-99 71.5t-129 25.5q-94 0 -164 -33.5t-125 -89.5l-49 41q65 72 148 108t194 36t190 -50l80 97
l49 -37l-77 -94q63 -56 97 -139t34 -185zM651 -307l-123 123l-112 -133l-113 133l-123 -123h-184v61h170l137 135l113 -131l112 131l123 -118v123l-30 51h92v-252h-62z" />
    <glyph glyph-name="thonangmonthothai" unicode="&#xb1;" horiz-adv-x="788" 
d="M655 0v598q0 66 -35.5 113t-82.5 47l-394 -758h-61v504q0 39 20.5 62.5t44 41t44 34.5t20.5 46v66l-96 -74q-13 18 -29 37q-14 16 -34.5 35.5t-49.5 35.5l37 41q20 -14 35.5 -27.5t25.5 -23.5q13 -12 21 -24l90 65h61v-145q0 -31 -20.5 -50.5t-44 -37t-44 -39
t-20.5 -55.5v-367l363 694q98 0 154.5 -62.5t56.5 -160.5v-596h-62z" />
    <glyph glyph-name="thonangmonthothai" unicode="&#xe11;" horiz-adv-x="788" 
d="M655 0v598q0 66 -35.5 113t-82.5 47l-394 -758h-61v504q0 39 20.5 62.5t44 41t44 34.5t20.5 46v66l-96 -74q-13 18 -29 37q-14 16 -34.5 35.5t-49.5 35.5l37 41q20 -14 35.5 -27.5t25.5 -23.5q13 -12 21 -24l90 65h61v-145q0 -31 -20.5 -50.5t-44 -37t-44 -39
t-20.5 -55.5v-367l363 694q98 0 154.5 -62.5t56.5 -160.5v-596h-62z" />
    <glyph glyph-name="dodekthai" unicode="&#xb4;" horiz-adv-x="782" 
d="M649 0v545q0 49 -17.5 90t-49 71.5t-74.5 48t-96 17.5q-70 0 -127.5 -31.5t-97.5 -86t-62.5 -124t-22.5 -143.5q0 -68 12.5 -128t40 -106.5t70.5 -74t101 -27.5q41 0 68.5 19.5t45.5 44.5l49 -37q-24 -35 -67 -61.5t-96 -26.5q-74 0 -127.5 29.5t-89 82t-52 126
t-16.5 159.5q0 88 27.5 169t77 142.5t117 98.5t149.5 37q67 0 122.5 -21.5t94.5 -60.5t60.5 -91.5t21.5 -111.5v-549h-62z" />
    <glyph glyph-name="dodekthai" unicode="&#xe14;" horiz-adv-x="782" 
d="M649 0v545q0 49 -17.5 90t-49 71.5t-74.5 48t-96 17.5q-70 0 -127.5 -31.5t-97.5 -86t-62.5 -124t-22.5 -143.5q0 -68 12.5 -128t40 -106.5t70.5 -74t101 -27.5q41 0 68.5 19.5t45.5 44.5l49 -37q-24 -35 -67 -61.5t-96 -26.5q-74 0 -127.5 29.5t-89 82t-52 126
t-16.5 159.5q0 88 27.5 169t77 142.5t117 98.5t149.5 37q67 0 122.5 -21.5t94.5 -60.5t60.5 -91.5t21.5 -111.5v-549h-62z" />
    <glyph glyph-name="totaothai" unicode="&#xb5;" horiz-adv-x="823" 
d="M690 0v573q0 72 -36 131.5t-95 67.5l-129 -158l-135 158q-27 -10 -59.5 -42t-62.5 -82t-50.5 -114.5t-20.5 -138.5q0 -67 12.5 -129.5t40 -111t69.5 -76t102 -27.5q41 0 68.5 19.5t45.5 44.5l49 -37q-24 -35 -67 -61.5t-96 -26.5q-72 0 -125.5 29.5t-89 83t-53 128
t-17.5 164.5q0 84 23.5 161t62.5 135.5t87 96t99 46.5l117 -134l109 129q49 0 89 -20.5t67.5 -55t42 -80.5t14.5 -100v-573h-62z" />
    <glyph glyph-name="totaothai" unicode="&#xe15;" horiz-adv-x="823" 
d="M690 0v573q0 72 -36 131.5t-95 67.5l-129 -158l-135 158q-27 -10 -59.5 -42t-62.5 -82t-50.5 -114.5t-20.5 -138.5q0 -67 12.5 -129.5t40 -111t69.5 -76t102 -27.5q41 0 68.5 19.5t45.5 44.5l49 -37q-24 -35 -67 -61.5t-96 -26.5q-72 0 -125.5 29.5t-89 83t-53 128
t-17.5 164.5q0 84 23.5 161t62.5 135.5t87 96t99 46.5l117 -134l109 129q49 0 89 -20.5t67.5 -55t42 -80.5t14.5 -100v-573h-62z" />
    <glyph glyph-name="thothungthai" unicode="&#xb6;" horiz-adv-x="778" 
d="M645 0v549q0 110 -74.5 166.5t-181.5 56.5q-170 0 -256 -123v-588h123v-61h-184v668q112 166 317 166q64 0 121 -16.5t101 -50.5t70 -84t26 -116v-567h-62z" />
    <glyph glyph-name="thothungthai" unicode="&#xe16;" horiz-adv-x="778" 
d="M645 0v549q0 110 -74.5 166.5t-181.5 56.5q-170 0 -256 -123v-588h123v-61h-184v668q112 166 317 166q64 0 121 -16.5t101 -50.5t70 -84t26 -116v-567h-62z" />
    <glyph glyph-name="thothahanthai" unicode="&#xb7;" horiz-adv-x="778" 
d="M645 0v543q0 104 -63.5 166.5t-167.5 62.5q-49 0 -99.5 -17.5t-90.5 -48t-65.5 -71.5t-25.5 -90v-545h-61v819h61v-114q21 28 51.5 52.5t68.5 41t80 26t81 9.5q61 0 114.5 -19.5t93.5 -54.5t62.5 -86t22.5 -115v-559h-62z" />
    <glyph glyph-name="thothahanthai" unicode="&#xe17;" horiz-adv-x="778" 
d="M645 0v543q0 104 -63.5 166.5t-167.5 62.5q-49 0 -99.5 -17.5t-90.5 -48t-65.5 -71.5t-25.5 -90v-545h-61v819h61v-114q21 28 51.5 52.5t68.5 41t80 26t81 9.5q61 0 114.5 -19.5t93.5 -54.5t62.5 -86t22.5 -115v-559h-62z" />
    <glyph glyph-name="thothongthai" unicode="&#xb8;" horiz-adv-x="713" 
d="M674 248q0 -68 -29 -116t-78 -81t-113.5 -48t-134.5 -15q-53 0 -100 6t-82 14q-41 8 -76 21v391l62 20v-360q24 -8 55 -17q27 -6 62.5 -11t78.5 -5q54 0 106 12.5t93 37t66.5 62.5t25.5 89t-22.5 88t-59 62.5t-82 41t-90.5 23.5l-112.5 20.5t-99.5 27.5t-70.5 47
t-26.5 77q0 45 26.5 82t68.5 62.5t95.5 38.5t106.5 13q55 0 107.5 -12t96.5 -38.5t76.5 -67.5t47.5 -99h-68q-14 39 -43 68t-66.5 48.5t-78.5 29.5t-80 10q-41 0 -81 -11t-70.5 -28.5t-50 -40t-19.5 -47.5q0 -31 23.5 -51.5t60.5 -33.5t82 -21.5t88 -14.5q55 -8 110.5 -26.5
t98.5 -50t69.5 -80t26.5 -117.5z" />
    <glyph glyph-name="thothongthai" unicode="&#xe18;" horiz-adv-x="713" 
d="M674 248q0 -68 -29 -116t-78 -81t-113.5 -48t-134.5 -15q-53 0 -100 6t-82 14q-41 8 -76 21v391l62 20v-360q24 -8 55 -17q27 -6 62.5 -11t78.5 -5q54 0 106 12.5t93 37t66.5 62.5t25.5 89t-22.5 88t-59 62.5t-82 41t-90.5 23.5l-112.5 20.5t-99.5 27.5t-70.5 47
t-26.5 77q0 45 26.5 82t68.5 62.5t95.5 38.5t106.5 13q55 0 107.5 -12t96.5 -38.5t76.5 -67.5t47.5 -99h-68q-14 39 -43 68t-66.5 48.5t-78.5 29.5t-80 10q-41 0 -81 -11t-70.5 -28.5t-50 -40t-19.5 -47.5q0 -31 23.5 -51.5t60.5 -33.5t82 -21.5t88 -14.5q55 -8 110.5 -26.5
t98.5 -50t69.5 -80t26.5 -117.5z" />
    <glyph glyph-name="bobaimaithai" unicode="&#xba;" horiz-adv-x="778" 
d="M707 256q0 -61 -27 -110.5t-71 -85t-101 -55t-119 -19.5q-61 0 -118.5 19.5t-101.5 55t-70.5 85t-26.5 110.5v563h61v-563q0 -49 21.5 -87t56.5 -65.5t82 -42t96 -14.5t96 14.5t82 42t56.5 65.5t21.5 87v563h62v-563z" />
    <glyph glyph-name="bobaimaithai" unicode="&#xe1a;" horiz-adv-x="778" 
d="M707 256q0 -61 -27 -110.5t-71 -85t-101 -55t-119 -19.5q-61 0 -118.5 19.5t-101.5 55t-70.5 85t-26.5 110.5v563h61v-563q0 -49 21.5 -87t56.5 -65.5t82 -42t96 -14.5t96 14.5t82 42t56.5 65.5t21.5 87v563h62v-563z" />
    <glyph glyph-name="poplathai" unicode="&#xbb;" horiz-adv-x="778" 
d="M707 256q0 -61 -27 -110.5t-71 -85t-101 -55t-119 -19.5q-61 0 -118.5 19.5t-101.5 55t-70.5 85t-26.5 110.5v563h61v-563q0 -49 21.5 -87t56.5 -65.5t82 -42t96 -14.5t96 14.5t82 42t56.5 65.5t21.5 87v768h62v-768z" />
    <glyph glyph-name="poplathai" unicode="&#xe1b;" horiz-adv-x="778" 
d="M707 256q0 -61 -27 -110.5t-71 -85t-101 -55t-119 -19.5q-61 0 -118.5 19.5t-101.5 55t-70.5 85t-26.5 110.5v563h61v-563q0 -49 21.5 -87t56.5 -65.5t82 -42t96 -14.5t96 14.5t82 42t56.5 65.5t21.5 87v768h62v-768z" />
    <glyph glyph-name="fofanthai" unicode="&#xbf;" horiz-adv-x="983" 
d="M770 0h-53l-228 717l-223 -717h-51l-215 819h59l185 -717l219 717h55l223 -717l234 922h59z" />
    <glyph glyph-name="fofanthai" unicode="&#xe1f;" horiz-adv-x="983" 
d="M770 0h-53l-228 717l-223 -717h-51l-215 819h59l185 -717l219 717h55l223 -717l234 922h59z" />
    <glyph glyph-name="phosamphaothai" unicode="&#xc0;" horiz-adv-x="788" 
d="M655 0v549q0 110 -74.5 166.5t-181.5 56.5q-170 0 -256 -123v-649h-143v61h82v607q113 166 317 166q64 0 121.5 -16.5t101.5 -50.5t69.5 -84t25.5 -116v-567h-62z" />
    <glyph glyph-name="phosamphaothai" unicode="&#xe20;" horiz-adv-x="788" 
d="M655 0v549q0 110 -74.5 166.5t-181.5 56.5q-170 0 -256 -123v-649h-143v61h82v607q113 166 317 166q64 0 121.5 -16.5t101.5 -50.5t69.5 -84t25.5 -116v-567h-62z" />
    <glyph glyph-name="momathai" unicode="&#xc1;" horiz-adv-x="778" 
d="M707 256q0 -61 -24 -110.5t-63.5 -85t-94 -55t-115.5 -19.5q-39 0 -80 9t-78 26.5t-67.5 41t-51.5 52.5v-115h-61v819h61v-545q0 -49 24.5 -90t63.5 -71.5t89 -48t100 -17.5q100 0 167.5 55.5t67.5 153.5v563h62v-563z" />
    <glyph glyph-name="momathai" unicode="&#xe21;" horiz-adv-x="778" 
d="M707 256q0 -61 -24 -110.5t-63.5 -85t-94 -55t-115.5 -19.5q-39 0 -80 9t-78 26.5t-67.5 41t-51.5 52.5v-115h-61v819h61v-545q0 -49 24.5 -90t63.5 -71.5t89 -48t100 -17.5q100 0 167.5 55.5t67.5 153.5v563h62v-563z" />
    <glyph glyph-name="yoyakthai" unicode="&#xc2;" horiz-adv-x="776" 
d="M705 113q-29 -35 -74 -62q-39 -22 -97.5 -42.5t-142.5 -20.5q-172 0 -261 76.5t-89 189.5q0 47 18.5 87t45 69.5t57.5 49t57 27.5q-61 5 -110.5 46.5t-49.5 113.5q0 39 18.5 73t49.5 58.5t73 37.5t89 13q39 0 63.5 -5t38.5 -9v-61q-14 4 -38.5 9t-61.5 5
q-66 0 -116 -30.5t-50 -90.5q0 -33 17.5 -57.5t45 -39.5t61.5 -22.5t66 -7.5h76v-61h-57q-39 0 -80 -14.5t-74 -41t-53.5 -63.5t-20.5 -84q0 -92 78 -149.5t207 -57.5q62 0 109 15.5t80 31.5q36 21 63 45v678h62v-706z" />
    <glyph glyph-name="yoyakthai" unicode="&#xe22;" horiz-adv-x="776" 
d="M705 113q-29 -35 -74 -62q-39 -22 -97.5 -42.5t-142.5 -20.5q-172 0 -261 76.5t-89 189.5q0 47 18.5 87t45 69.5t57.5 49t57 27.5q-61 5 -110.5 46.5t-49.5 113.5q0 39 18.5 73t49.5 58.5t73 37.5t89 13q39 0 63.5 -5t38.5 -9v-61q-14 4 -38.5 9t-61.5 5
q-66 0 -116 -30.5t-50 -90.5q0 -33 17.5 -57.5t45 -39.5t61.5 -22.5t66 -7.5h76v-61h-57q-39 0 -80 -14.5t-74 -41t-53.5 -63.5t-20.5 -84q0 -92 78 -149.5t207 -57.5q62 0 109 15.5t80 31.5q36 21 63 45v678h62v-706z" />
    <glyph glyph-name="roruathai" unicode="&#xc3;" horiz-adv-x="725" 
d="M684 250q0 -66 -26.5 -115t-71.5 -83t-103.5 -51t-120.5 -17q-61 0 -119.5 17t-103.5 51t-71.5 83t-26.5 115h61q0 -51 21.5 -90t58.5 -64.5t84 -38t96 -12.5q50 0 96 12.5t83 38t59.5 64.5t22.5 90q0 45 -21.5 74.5t-57.5 50t-80 33t-91 20.5q-56 10 -112 22.5t-100 32
t-73 51t-29 80.5q0 50 25 89.5t65.5 67.5t94 43t108.5 15q56 0 110 -13t97 -39.5t74 -66.5t41 -96h-66q-12 41 -38.5 70t-61.5 47.5t-75 27.5t-81 9q-39 0 -80 -10t-73.5 -28.5t-53 -45.5t-20.5 -61q0 -35 23.5 -56.5t61.5 -36t84 -23.5l91 -18q57 -10 110.5 -26.5t95.5 -44
t67.5 -68.5t25.5 -100z" />
    <glyph glyph-name="roruathai" unicode="&#xe23;" horiz-adv-x="725" 
d="M684 250q0 -66 -26.5 -115t-71.5 -83t-103.5 -51t-120.5 -17q-61 0 -119.5 17t-103.5 51t-71.5 83t-26.5 115h61q0 -51 21.5 -90t58.5 -64.5t84 -38t96 -12.5q50 0 96 12.5t83 38t59.5 64.5t22.5 90q0 45 -21.5 74.5t-57.5 50t-80 33t-91 20.5q-56 10 -112 22.5t-100 32
t-73 51t-29 80.5q0 50 25 89.5t65.5 67.5t94 43t108.5 15q56 0 110 -13t97 -39.5t74 -66.5t41 -96h-66q-12 41 -38.5 70t-61.5 47.5t-75 27.5t-81 9q-39 0 -80 -10t-73.5 -28.5t-53 -45.5t-20.5 -61q0 -35 23.5 -56.5t61.5 -36t84 -23.5l91 -18q57 -10 110.5 -26.5t95.5 -44
t67.5 -68.5t25.5 -100z" />
    <glyph glyph-name="ruthai" unicode="&#xc4;" horiz-adv-x="778" 
d="M645 -307v856q0 110 -74.5 166.5t-181.5 56.5q-170 0 -256 -123v-588h123v-61h-184v668q112 166 317 166q64 0 121 -16.5t101 -50.5t70 -84t26 -116v-874h-62z" />
    <glyph glyph-name="ruthai" unicode="&#xe24;" horiz-adv-x="778" 
d="M645 -307v856q0 110 -74.5 166.5t-181.5 56.5q-170 0 -256 -123v-588h123v-61h-184v668q112 166 317 166q64 0 121 -16.5t101 -50.5t70 -84t26 -116v-874h-62z" />
    <glyph glyph-name="lolingthai" unicode="&#xc5;" horiz-adv-x="797" 
d="M664 0v332q-33 69 -110 116.5t-175 47.5q-66 0 -117 -20.5t-87 -55.5t-54.5 -81t-18.5 -97q0 -37 12.5 -72t34 -60.5t51 -42t66.5 -16.5q33 0 56.5 6t48.5 23l37 -49q-35 -23 -66 -32t-76 -9q-51 0 -92 20.5t-70.5 56t-46 81t-16.5 94.5q0 61 22.5 117.5t65.5 100.5
t105.5 70.5t144.5 26.5q104 0 171.5 -36t113.5 -83v125q0 49 -23 87t-59.5 65.5t-83.5 42t-97 14.5q-86 0 -158.5 -44t-97.5 -114h-65q12 50 45 89.5t77 69.5t97 45.5t109 15.5q61 0 118.5 -19.5t101.5 -55.5t70.5 -85t26.5 -111v-563h-61z" />
    <glyph glyph-name="lolingthai" unicode="&#xe25;" horiz-adv-x="797" 
d="M664 0v332q-33 69 -110 116.5t-175 47.5q-66 0 -117 -20.5t-87 -55.5t-54.5 -81t-18.5 -97q0 -37 12.5 -72t34 -60.5t51 -42t66.5 -16.5q33 0 56.5 6t48.5 23l37 -49q-35 -23 -66 -32t-76 -9q-51 0 -92 20.5t-70.5 56t-46 81t-16.5 94.5q0 61 22.5 117.5t65.5 100.5
t105.5 70.5t144.5 26.5q104 0 171.5 -36t113.5 -83v125q0 49 -23 87t-59.5 65.5t-83.5 42t-97 14.5q-86 0 -158.5 -44t-97.5 -114h-65q12 50 45 89.5t77 69.5t97 45.5t109 15.5q61 0 118.5 -19.5t101.5 -55.5t70.5 -85t26.5 -111v-563h-61z" />
    <glyph glyph-name="luthai" unicode="&#xc6;" horiz-adv-x="788" 
d="M655 -307v856q0 110 -74.5 166.5t-181.5 56.5q-170 0 -256 -123v-649h-143v61h82v607q113 166 317 166q64 0 121.5 -16.5t101.5 -50.5t69.5 -84t25.5 -116v-874h-62z" />
    <glyph glyph-name="luthai" unicode="&#xe26;" horiz-adv-x="788" 
d="M655 -307v856q0 110 -74.5 166.5t-181.5 56.5q-170 0 -256 -123v-649h-143v61h82v607q113 166 317 166q64 0 121.5 -16.5t101.5 -50.5t69.5 -84t25.5 -116v-874h-62z" />
    <glyph glyph-name="wowaenthai" unicode="&#xc7;" horiz-adv-x="721" 
d="M680 410q0 -84 -21.5 -161t-64.5 -135.5t-105.5 -93t-146.5 -34.5q-51 0 -100 16t-90 46t-72 72t-43 93h63q29 -76 95.5 -121t146.5 -45q70 0 121 31t86 82t52 115.5t17 134.5q0 69 -17 134.5t-52 116t-86 81t-121 30.5q-78 0 -145.5 -45t-94.5 -121h-65q12 51 43 93
t72 72t90 46.5t100 16.5q84 0 146.5 -35t105.5 -93.5t64.5 -135t21.5 -160.5z" />
    <glyph glyph-name="wowaenthai" unicode="&#xe27;" horiz-adv-x="721" 
d="M680 410q0 -84 -21.5 -161t-64.5 -135.5t-105.5 -93t-146.5 -34.5q-51 0 -100 16t-90 46t-72 72t-43 93h63q29 -76 95.5 -121t146.5 -45q70 0 121 31t86 82t52 115.5t17 134.5q0 69 -17 134.5t-52 116t-86 81t-121 30.5q-78 0 -145.5 -45t-94.5 -121h-65q12 51 43 93
t72 72t90 46.5t100 16.5q84 0 146.5 -35t105.5 -93.5t64.5 -135t21.5 -160.5z" />
    <glyph glyph-name="sosalathai" unicode="&#xc8;" horiz-adv-x="778" 
d="M645 0v563q0 49 -21.5 87t-56.5 65.5t-82 42t-96 14.5t-96 -14.5t-82 -42t-56.5 -65.5t-21.5 -87v-117h258v-61h-258v-385h-61v563q0 62 26.5 111t70.5 85t101.5 55.5t118.5 19.5q82 0 156 -35l69 82l50 -37l-64 -76q47 -35 77 -87t30 -118v-563h-62z" />
    <glyph glyph-name="sosalathai" unicode="&#xe28;" horiz-adv-x="778" 
d="M645 0v563q0 49 -21.5 87t-56.5 65.5t-82 42t-96 14.5t-96 -14.5t-82 -42t-56.5 -65.5t-21.5 -87v-117h258v-61h-258v-385h-61v563q0 62 26.5 111t70.5 85t101.5 55.5t118.5 19.5q82 0 156 -35l69 82l50 -37l-64 -76q47 -35 77 -87t30 -118v-563h-62z" />
    <glyph glyph-name="sorusithai" unicode="&#xc9;" horiz-adv-x="788" 
d="M707 403v-147q0 -61 -27 -110.5t-71 -85t-101 -55t-119 -19.5q-61 0 -118.5 19.5t-101.5 55t-70.5 85t-26.5 110.5v563h61v-563q0 -49 21.5 -87t56.5 -65.5t82 -42t96 -14.5t96 14.5t82 42t56.5 65.5t21.5 87v147h-237v93l51 -31h186v354h62v-354h81v-62h-81z" />
    <glyph glyph-name="sorusithai" unicode="&#xe29;" horiz-adv-x="788" 
d="M707 403v-147q0 -61 -27 -110.5t-71 -85t-101 -55t-119 -19.5q-61 0 -118.5 19.5t-101.5 55t-70.5 85t-26.5 110.5v563h61v-563q0 -49 21.5 -87t56.5 -65.5t82 -42t96 -14.5t96 14.5t82 42t56.5 65.5t21.5 87v147h-237v93l51 -31h186v354h62v-354h81v-62h-81z" />
    <glyph glyph-name="sosuathai" unicode="&#xca;" horiz-adv-x="797" 
d="M664 0v332q-33 69 -110 116.5t-175 47.5q-66 0 -117 -20.5t-87 -55.5t-54.5 -81t-18.5 -97q0 -37 12.5 -72t34 -60.5t51 -42t66.5 -16.5q33 0 56.5 6t48.5 23l37 -49q-35 -23 -66 -32t-76 -9q-51 0 -92 20.5t-70.5 56t-46 81t-16.5 94.5q0 61 22.5 117.5t65.5 100.5
t105.5 70.5t144.5 26.5q104 0 171.5 -36t113.5 -83v125q0 49 -23 87t-59.5 65.5t-83.5 42t-97 14.5q-86 0 -158.5 -44t-97.5 -114h-65q12 50 45 89.5t77 69.5t97 45.5t109 15.5q81 0 157 -35l68 82l49 -37l-64 -76q48 -35 77.5 -87t29.5 -118v-563h-61z" />
    <glyph glyph-name="sosuathai" unicode="&#xe2a;" horiz-adv-x="797" 
d="M664 0v332q-33 69 -110 116.5t-175 47.5q-66 0 -117 -20.5t-87 -55.5t-54.5 -81t-18.5 -97q0 -37 12.5 -72t34 -60.5t51 -42t66.5 -16.5q33 0 56.5 6t48.5 23l37 -49q-35 -23 -66 -32t-76 -9q-51 0 -92 20.5t-70.5 56t-46 81t-16.5 94.5q0 61 22.5 117.5t65.5 100.5
t105.5 70.5t144.5 26.5q104 0 171.5 -36t113.5 -83v125q0 49 -23 87t-59.5 65.5t-83.5 42t-97 14.5q-86 0 -158.5 -44t-97.5 -114h-65q12 50 45 89.5t77 69.5t97 45.5t109 15.5q81 0 157 -35l68 82l49 -37l-64 -76q48 -35 77.5 -87t29.5 -118v-563h-61z" />
    <glyph glyph-name="hohipthai" unicode="&#xcb;" horiz-adv-x="788" 
d="M666 0v403q0 50 -25 89.5t-64.5 65.5t-89 37t-100.5 3l-254 -158v-440h-61v819h61v-309l508 309l47 -33l-215 -135q111 -12 182.5 -75.5t71.5 -169.5v-406h-61z" />
    <glyph glyph-name="hohipthai" unicode="&#xe2b;" horiz-adv-x="788" 
d="M666 0v403q0 50 -25 89.5t-64.5 65.5t-89 37t-100.5 3l-254 -158v-440h-61v819h61v-309l508 309l47 -33l-215 -135q111 -12 182.5 -75.5t71.5 -169.5v-406h-61z" />
    <glyph glyph-name="lochulathai" unicode="&#xcc;" horiz-adv-x="983" 
d="M1010 909q-21 -67 -59 -91.5t-85 -37.5q45 -28 60.5 -69t-0.5 -103l-156 -608h-53l-228 717l-223 -717h-51l-215 819h59l185 -717l219 717h55l223 -717l127 502q11 41 4.5 72t-24 51.5t-45 30.5t-60.5 10h-71v51h82q90 0 136 22.5t62 82.5l29 100h61z" />
    <glyph glyph-name="lochulathai" unicode="&#xe2c;" horiz-adv-x="983" 
d="M1010 909q-21 -67 -59 -91.5t-85 -37.5q45 -28 60.5 -69t-0.5 -103l-156 -608h-53l-228 717l-223 -717h-51l-215 819h59l185 -717l219 717h55l223 -717l127 502q11 41 4.5 72t-24 51.5t-45 30.5t-60.5 10h-71v51h82q90 0 136 22.5t62 82.5l29 100h61z" />
    <glyph glyph-name="oangthai" unicode="&#xcd;" horiz-adv-x="852" 
d="M811 410q0 -93 -27.5 -170.5t-78 -134t-122 -88t-157.5 -31.5t-157.5 31.5t-122 88t-78 134t-27.5 170.5q0 22 2 39.5t4 31.5h262v-61h-207v-10q0 -78 24 -144.5t67 -115t102 -76t131 -27.5t131 27.5t102 76t67 115t24 144.5q0 77 -22.5 144t-66 115t-102.5 75.5
t-133 27.5q-104 0 -180 -53t-113 -146h-65q38 119 131.5 190t226.5 71q86 0 157.5 -32t122 -88.5t78 -134t27.5 -169.5z" />
    <glyph glyph-name="oangthai" unicode="&#xe2d;" horiz-adv-x="852" 
d="M811 410q0 -93 -27.5 -170.5t-78 -134t-122 -88t-157.5 -31.5t-157.5 31.5t-122 88t-78 134t-27.5 170.5q0 22 2 39.5t4 31.5h262v-61h-207v-10q0 -78 24 -144.5t67 -115t102 -76t131 -27.5t131 27.5t102 76t67 115t24 144.5q0 77 -22.5 144t-66 115t-102.5 75.5
t-133 27.5q-104 0 -180 -53t-113 -146h-65q38 119 131.5 190t226.5 71q86 0 157.5 -32t122 -88.5t78 -134t27.5 -169.5z" />
    <glyph glyph-name="honokhukthai" unicode="&#xce;" horiz-adv-x="852" 
d="M811 410q0 -93 -27.5 -170.5t-78 -134t-122 -88t-157.5 -31.5t-157.5 31.5t-122 88t-78 134t-27.5 170.5q0 16 2 36.5t4 34.5h262v-61h-207v-10q0 -78 24 -144.5t67 -115t102 -76t131 -27.5t131 27.5t102 76t67 115t24 144.5q0 77 -22.5 144t-66 115t-102.5 75.5
t-133 27.5q-104 0 -180 -53t-113 -146h-65q38 119 131.5 190t226.5 71q90 0 172 -39l70 86l45 -33l-66 -82q78 -53 121 -146.5t43 -209.5z" />
    <glyph glyph-name="honokhukthai" unicode="&#xe2e;" horiz-adv-x="852" 
d="M811 410q0 -93 -27.5 -170.5t-78 -134t-122 -88t-157.5 -31.5t-157.5 31.5t-122 88t-78 134t-27.5 170.5q0 16 2 36.5t4 34.5h262v-61h-207v-10q0 -78 24 -144.5t67 -115t102 -76t131 -27.5t131 27.5t102 76t67 115t24 144.5q0 77 -22.5 144t-66 115t-102.5 75.5
t-133 27.5q-104 0 -180 -53t-113 -146h-65q38 119 131.5 190t226.5 71q90 0 172 -39l70 86l45 -33l-66 -82q78 -53 121 -146.5t43 -209.5z" />
    <glyph glyph-name="paiyannoithai" unicode="&#xcf;" horiz-adv-x="770" 
d="M637 0v598l-31.5 -30.5t-64.5 -44t-100.5 -39t-139.5 -17.5q-125 0 -192.5 54t-67.5 130q0 39 17.5 72t48 56.5t71.5 36.5t88 13q39 0 63.5 -5t39.5 -9v-61q-15 4 -39.5 10t-61.5 6q-65 0 -115.5 -29.5t-50.5 -89.5q0 -30 16.5 -54t44 -40t64.5 -25.5t76 -9.5
q80 0 139.5 19.5t99.5 46t63.5 54.5t31.5 42v135h61v-819h-61z" />
    <glyph glyph-name="paiyannoithai" unicode="&#xe2f;" horiz-adv-x="770" 
d="M637 0v598l-31.5 -30.5t-64.5 -44t-100.5 -39t-139.5 -17.5q-125 0 -192.5 54t-67.5 130q0 39 17.5 72t48 56.5t71.5 36.5t88 13q39 0 63.5 -5t39.5 -9v-61q-15 4 -39.5 10t-61.5 6q-65 0 -115.5 -29.5t-50.5 -89.5q0 -30 16.5 -54t44 -40t64.5 -25.5t76 -9.5
q80 0 139.5 19.5t99.5 46t63.5 54.5t31.5 42v135h61v-819h-61z" />
    <glyph glyph-name="maihanakatthai" unicode="&#xd1;" 
d="M-338 922v122h62v-61h471v-61h-533z" />
    <glyph glyph-name="maihanakatthai" unicode="&#xe31;" 
d="M-338 922v122h62v-61h471v-61h-533z" />
    <glyph glyph-name="saraaathai" unicode="&#xd2;" horiz-adv-x="539" 
d="M406 0v528q0 113 -56.5 180.5t-169.5 67.5q-53 0 -98 -18.5t-62 -30.5v64q17 10 62 26.5t100 16.5q74 0 127 -23t89 -62.5t52.5 -91t16.5 -110.5v-547h-61z" />
    <glyph glyph-name="saraaathai" unicode="&#xe32;" horiz-adv-x="539" 
d="M406 0v528q0 113 -56.5 180.5t-169.5 67.5q-53 0 -98 -18.5t-62 -30.5v64q17 10 62 26.5t100 16.5q74 0 127 -23t89 -62.5t52.5 -91t16.5 -110.5v-547h-61z" />
    <glyph glyph-name="saraamthai" unicode="&#xd3;" horiz-adv-x="657" 
d="M-276 961q0 -35 -27 -61t-62 -26q-34 0 -61 26t-27 61q0 34 27 61t61 27q35 0 62 -27t27 -61zM461 0v528q0 113 -56.5 180.5t-168.5 67.5q-54 0 -99 -18.5t-61 -30.5v64q16 10 61 26.5t101 16.5q73 0 126.5 -23t89 -62.5t52 -91t16.5 -110.5v-547h-61zM-324 961
q0 16 -13 29.5t-30 13.5q-16 0 -29.5 -13.5t-13.5 -29.5q0 -17 13.5 -30t29.5 -13q17 0 30 13t13 30z" />
    <glyph glyph-name="saraamthai" unicode="&#xe33;" horiz-adv-x="657" 
d="M-276 961q0 -35 -27 -61t-62 -26q-34 0 -61 26t-27 61q0 34 27 61t61 27q35 0 62 -27t27 -61zM461 0v528q0 113 -56.5 180.5t-168.5 67.5q-54 0 -99 -18.5t-61 -30.5v64q16 10 61 26.5t101 16.5q73 0 126.5 -23t89 -62.5t52 -91t16.5 -110.5v-547h-61zM-324 961
q0 16 -13 29.5t-30 13.5q-16 0 -29.5 -13.5t-13.5 -29.5q0 -17 13.5 -30t29.5 -13q17 0 30 13t13 30z" />
    <glyph glyph-name="saraithai" unicode="&#xd4;" 
d="M-666 922v61h594v-61h-594z" />
    <glyph glyph-name="saraithai" unicode="&#xe34;" 
d="M-666 922v61h594v-61h-594z" />
    <glyph glyph-name="saraiithai" unicode="&#xd5;" 
d="M-666 922v61h533v102h61v-163h-594z" />
    <glyph glyph-name="saraiithai" unicode="&#xe35;" 
d="M-666 922v61h533v102h61v-163h-594z" />
    <glyph glyph-name="sarauethai" unicode="&#xd6;" 
d="M-14 1008q0 -35 -27 -60.5t-61 -25.5h-564v61h480q-4 16 -4 25q0 34 26.5 61t61.5 27q34 0 61 -27t27 -61zM-61 1008q0 16 -13.5 29.5t-29.5 13.5q-17 0 -30 -13.5t-13 -29.5q0 -17 13 -30t30 -13q16 0 29.5 13t13.5 30z" />
    <glyph glyph-name="sarauethai" unicode="&#xe36;" 
d="M-14 1008q0 -35 -27 -60.5t-61 -25.5h-564v61h480q-4 16 -4 25q0 34 26.5 61t61.5 27q34 0 61 -27t27 -61zM-61 1008q0 16 -13.5 29.5t-29.5 13.5q-17 0 -30 -13.5t-13 -29.5q0 -17 13 -30t30 -13q16 0 29.5 13t13.5 30z" />
    <glyph glyph-name="sarauthai" unicode="&#xd8;" 
d="M-133 -307v164h-82v61h143v-225h-61z" />
    <glyph glyph-name="sarauthai" unicode="&#xe38;" 
d="M-133 -307v164h-82v61h143v-225h-61z" />
    <glyph glyph-name="sarauuthai" unicode="&#xd9;" 
d="M-72 -190q0 -56 -45 -89.5t-102 -33.5q-39 0 -78 16t-61 49v105h-62v61h123v-145q16 -21 41 -27t41 -6q31 0 56.5 19.5t25.5 52.5v106h61v-108z" />
    <glyph glyph-name="sarauuthai" unicode="&#xe39;" 
d="M-72 -190q0 -56 -45 -89.5t-102 -33.5q-39 0 -78 16t-61 49v105h-62v61h123v-145q16 -21 41 -27t41 -6q31 0 56.5 19.5t25.5 52.5v106h61v-108z" />
    <glyph glyph-name="phinthuthai" unicode="&#xda;" 
d="M-47 -137q0 -23 -16.5 -39.5t-38.5 -16.5q-23 0 -39.5 16.5t-16.5 39.5q0 22 16.5 38.5t39.5 16.5q22 0 38.5 -16.5t16.5 -38.5z" />
    <glyph glyph-name="phinthuthai" unicode="&#xe3a;" 
d="M-47 -137q0 -23 -16.5 -39.5t-38.5 -16.5q-23 0 -39.5 16.5t-16.5 39.5q0 22 16.5 38.5t39.5 16.5q22 0 38.5 -16.5t16.5 -38.5z" />
    <glyph glyph-name="PU2005.003" unicode="&#xdb;" 
 />
    <glyph glyph-name="PU2005.003" unicode="&#xe3b;" 
 />
    <glyph glyph-name="PU2005.002" unicode="&#xdc;" 
 />
    <glyph glyph-name="PU2005.002" unicode="&#xe3c;" 
 />
    <glyph glyph-name="bahtthai" unicode="&#xdf;" horiz-adv-x="768" 
d="M715 301q0 -65 -23.5 -122.5t-73.5 -100.5q-55 -49 -114.5 -63.5t-130.5 -14.5h-4v-174h-64v174h-201v1081h201v164h64v-166q45 -4 86 -16t77 -45q48 -43 68.5 -100.5t20.5 -122.5q0 -72 -28 -124.5t-93 -95.5q102 -28 158.5 -102t56.5 -172zM553 805q0 53 -20.5 100
t-65.5 76q-23 16 -47.5 22.5t-50.5 10.5v-422q28 4 54 11t52 28q45 35 61.5 76t16.5 98zM305 1018h-18h-117v-428h117h18v428zM647 299q0 59 -26.5 112.5t-79.5 80.5q-37 18 -82 25t-90 9v-465q47 0 92 8.5t86 36.5q47 33 73.5 82.5t26.5 110.5zM305 526h-135v-465h135v465z
" />
    <glyph glyph-name="bahtthai" unicode="&#xe3f;" horiz-adv-x="768" 
d="M715 301q0 -65 -23.5 -122.5t-73.5 -100.5q-55 -49 -114.5 -63.5t-130.5 -14.5h-4v-174h-64v174h-201v1081h201v164h64v-166q45 -4 86 -16t77 -45q48 -43 68.5 -100.5t20.5 -122.5q0 -72 -28 -124.5t-93 -95.5q102 -28 158.5 -102t56.5 -172zM553 805q0 53 -20.5 100
t-65.5 76q-23 16 -47.5 22.5t-50.5 10.5v-422q28 4 54 11t52 28q45 35 61.5 76t16.5 98zM305 1018h-18h-117v-428h117h18v428zM647 299q0 59 -26.5 112.5t-79.5 80.5q-37 18 -82 25t-90 9v-465q47 0 92 8.5t86 36.5q47 33 73.5 82.5t26.5 110.5zM305 526h-135v-465h135v465z
" />
    <glyph glyph-name="saraethai" unicode="&#xe0;" horiz-adv-x="246" 
d="M92 0v819h62v-819h-62z" />
    <glyph glyph-name="saraethai" unicode="&#xe40;" horiz-adv-x="246" 
d="M92 0v819h62v-819h-62z" />
    <glyph glyph-name="saraaethai" unicode="&#xe1;" horiz-adv-x="430" 
d="M276 0v819h62v-819h-62zM92 0v819h62v-819h-62z" />
    <glyph glyph-name="saraaethai" unicode="&#xe41;" horiz-adv-x="430" 
d="M276 0v819h62v-819h-62zM92 0v819h62v-819h-62z" />
    <glyph glyph-name="saraothai" unicode="&#xe2;" horiz-adv-x="266" 
d="M96 1208q-30 0 -53 -12t-23 -35q0 -26 24 -41.5l53.5 -35t53 -50t23.5 -90.5v-944h-61v946q0 45 -23.5 69.5t-53.5 44t-53.5 41t-23.5 60.5q0 53 45 81t105 28h251v-62h-264z" />
    <glyph glyph-name="saraothai" unicode="&#xe42;" horiz-adv-x="266" 
d="M96 1208q-30 0 -53 -12t-23 -35q0 -26 24 -41.5l53.5 -35t53 -50t23.5 -90.5v-944h-61v946q0 45 -23.5 69.5t-53.5 44t-53.5 41t-23.5 60.5q0 53 45 81t105 28h251v-62h-264z" />
    <glyph glyph-name="saraaimaimuanthai" unicode="&#xe3;" horiz-adv-x="266" 
d="M279 1124q0 -41 -16.5 -63.5t-36 -41t-36 -40t-16.5 -61.5v-918h-61v928q0 43 16 67.5t35.5 43t36 36t16.5 45.5q0 45 -35 75t-94 30t-98 -33t-39 -80h-62q0 70 57.5 119t141.5 49t137.5 -45t53.5 -111z" />
    <glyph glyph-name="saraaimaimuanthai" unicode="&#xe43;" horiz-adv-x="266" 
d="M279 1124q0 -41 -16.5 -63.5t-36 -41t-36 -40t-16.5 -61.5v-918h-61v928q0 43 16 67.5t35.5 43t36 36t16.5 45.5q0 45 -35 75t-94 30t-98 -33t-39 -80h-62q0 70 57.5 119t141.5 49t137.5 -45t53.5 -111z" />
    <glyph glyph-name="saraaimaimalaithai" unicode="&#xe4;" horiz-adv-x="266" 
d="M268 1133q-35 -29 -64.5 -77t-29.5 -108v-948h-61v934q0 70 31.5 118t58.5 68l-49 58l-103 -88l-176 141l37 43l139 -111l115 94z" />
    <glyph glyph-name="saraaimaimalaithai" unicode="&#xe44;" horiz-adv-x="266" 
d="M268 1133q-35 -29 -64.5 -77t-29.5 -108v-948h-61v934q0 70 31.5 118t58.5 68l-49 58l-103 -88l-176 141l37 43l139 -111l115 94z" />
    <glyph glyph-name="lakkhangyaothai" unicode="&#xe5;" horiz-adv-x="539" 
d="M406 -307v835q0 113 -56.5 180.5t-169.5 67.5q-53 0 -98 -18.5t-62 -30.5v64q17 10 62 26.5t100 16.5q74 0 127 -23t89 -62.5t52.5 -91t16.5 -110.5v-854h-61z" />
    <glyph glyph-name="lakkhangyaothai" unicode="&#xe45;" horiz-adv-x="539" 
d="M406 -307v835q0 113 -56.5 180.5t-169.5 67.5q-53 0 -98 -18.5t-62 -30.5v64q17 10 62 26.5t100 16.5q74 0 127 -23t89 -62.5t52.5 -91t16.5 -110.5v-854h-61z" />
    <glyph glyph-name="maiyamokthai" unicode="&#xe6;" horiz-adv-x="776" 
d="M643 -307v901q0 78 -39 125t-98 57l-133 -141l-133 141q-60 -10 -99 -57t-39 -125v-57h168v-62h-229v119q0 108 61.5 171.5t161.5 63.5l109 -112l108 112q101 0 162.5 -63.5t61.5 -171.5v-901h-62z" />
    <glyph glyph-name="maiyamokthai" unicode="&#xe46;" horiz-adv-x="776" 
d="M643 -307v901q0 78 -39 125t-98 57l-133 -141l-133 141q-60 -10 -99 -57t-39 -125v-57h168v-62h-229v119q0 108 61.5 171.5t161.5 63.5l109 -112l108 112q101 0 162.5 -63.5t61.5 -171.5v-901h-62z" />
    <glyph glyph-name="maitaikhuthai" unicode="&#xe7;" 
d="M-438 1079q-56 0 -89.5 -23.5t-33.5 -68.5v-8h88l113 68l106 -68h119v-57h-127l-98 65l-101 -65h-162v57q0 65 46.5 110.5t144.5 45.5h362v-56h-368z" />
    <glyph glyph-name="maitaikhuthai" unicode="&#xe47;" 
d="M-438 1079q-56 0 -89.5 -23.5t-33.5 -68.5v-8h88l113 68l106 -68h119v-57h-127l-98 65l-101 -65h-162v57q0 65 46.5 110.5t144.5 45.5h362v-56h-368z" />
    <glyph glyph-name="maiekthai" unicode="&#xe8;" 
d="M-133 1147v143h61v-143h-61z" />
    <glyph glyph-name="maiekthai" unicode="&#xe48;" 
d="M-133 1147v143h61v-143h-61z" />
    <glyph glyph-name="maithothai" unicode="&#xe9;" 
d="M-233 1147v37q0 18 -7.5 29.5t-29.5 11.5h-21v57h35q82 0 82 -61v-17h246v-57h-305z" />
    <glyph glyph-name="maithothai" unicode="&#xe49;" 
d="M-233 1147v37q0 18 -7.5 29.5t-29.5 11.5h-21v57h35q82 0 82 -61v-17h246v-57h-305z" />
    <glyph glyph-name="maitrithai" unicode="&#xea;" 
d="M45 1147v57q0 64 -65 64h-7l-77 -70l-78 70h-4q-66 0 -66 -64v-2h78v-55h-135v67q0 54 36.5 82.5t90.5 28.5h8l70 -63l71 63h6q56 0 92.5 -28.5t36.5 -82.5v-10h131v-57h-188z" />
    <glyph glyph-name="maitrithai" unicode="&#xe4a;" 
d="M45 1147v57q0 64 -65 64h-7l-77 -70l-78 70h-4q-66 0 -66 -64v-2h78v-55h-135v67q0 54 36.5 82.5t90.5 28.5h8l70 -63l71 63h6q56 0 92.5 -28.5t36.5 -82.5v-10h131v-57h-188z" />
    <glyph glyph-name="maichattawathai" unicode="&#xeb;" 
d="M-72 1212v-65h-61v65h-72v50h72v65h61v-65h72v-50h-72z" />
    <glyph glyph-name="maichattawathai" unicode="&#xe4b;" 
d="M-72 1212v-65h-61v65h-72v50h72v65h61v-65h72v-50h-72z" />
    <glyph glyph-name="thanthakhatthai" unicode="&#xec;" 
d="M-80 1139q-31 0 -47 -9.5t-16 -35.5v-29h-62v35q0 51 30 71.5t66 20.5h89v-53h-60z" />
    <glyph glyph-name="thanthakhatthai" unicode="&#xe4c;" 
d="M-80 1139q-31 0 -47 -9.5t-16 -35.5v-29h-62v35q0 51 30 71.5t66 20.5h89v-53h-60z" />
    <glyph glyph-name="nikhahitthai" unicode="&#xed;" 
d="M-14 1008q0 -35 -27 -60.5t-61 -25.5q-35 0 -61.5 25.5t-26.5 60.5q0 34 26.5 61t61.5 27q34 0 61 -27t27 -61zM-61 1008q0 16 -13.5 29.5t-29.5 13.5q-17 0 -30 -13.5t-13 -29.5q0 -17 13 -30t30 -13q16 0 29.5 13t13.5 30z" />
    <glyph glyph-name="nikhahitthai" unicode="&#xe4d;" 
d="M-14 1008q0 -35 -27 -60.5t-61 -25.5q-35 0 -61.5 25.5t-26.5 60.5q0 34 26.5 61t61.5 27q34 0 61 -27t27 -61zM-61 1008q0 16 -13.5 29.5t-29.5 13.5q-17 0 -30 -13.5t-13 -29.5q0 -17 13 -30t30 -13q16 0 29.5 13t13.5 30z" />
    <glyph glyph-name="yamakkanthai" unicode="&#xee;" 
d="M-326 1233q-30 24 -30 59q0 72 92 119q78 41 153 41q66 0 127 -20q23 -9 23 -29q0 -33 -31 -33q-6 0 -10 2q-53 19 -109 19q-47 0 -108 -27q-76 -33 -76 -72q0 -14 78 -43q22 -8 22 -28q0 -31 -30 -31q-4 0 -11.5 1t-11.5 1q-37 0 -80 -33t-43 -59q0 -33 29 -53.5
t72 -20.5q82 0 116 61q11 17 27 17q33 0 33 -31q0 -6 -4 -14q-54 -94 -172 -94q-60 0 -107 30q-55 39 -55 105q0 82 106 133z" />
    <glyph glyph-name="yamakkanthai" unicode="&#xe4e;" 
d="M-326 1233q-30 24 -30 59q0 72 92 119q78 41 153 41q66 0 127 -20q23 -9 23 -29q0 -33 -31 -33q-6 0 -10 2q-53 19 -109 19q-47 0 -108 -27q-76 -33 -76 -72q0 -14 78 -43q22 -8 22 -28q0 -31 -30 -31q-4 0 -11.5 1t-11.5 1q-37 0 -80 -33t-43 -59q0 -33 29 -53.5
t72 -20.5q82 0 116 61q11 17 27 17q33 0 33 -31q0 -6 -4 -14q-54 -94 -172 -94q-60 0 -107 30q-55 39 -55 105q0 82 106 133z" />
    <glyph glyph-name="fongmanthai" unicode="&#xef;" horiz-adv-x="963" 
d="M901 410q0 -86 -32.5 -163t-90 -134.5t-134.5 -90t-163 -32.5t-162.5 32.5t-134 90t-90.5 134.5t-33 163t33 162.5t90.5 134t134 90t162.5 32.5t163 -32.5t134.5 -90t90 -134t32.5 -162.5zM840 410q0 73 -29 138.5t-77 114t-113.5 77t-139.5 28.5q-73 0 -139 -28.5
t-114 -77t-76.5 -114t-28.5 -138.5q0 -74 28.5 -139.5t76.5 -113.5t114 -77t139 -29q74 0 139.5 29t113.5 77t77 113.5t29 139.5zM737 410q0 -54 -20.5 -100t-55 -80.5t-80.5 -55t-100 -20.5q-53 0 -99 20.5t-81 55t-55.5 80.5t-20.5 100q0 53 20.5 99t55.5 81t81 55.5
t99 20.5q54 0 100 -20.5t80.5 -55.5t55 -81t20.5 -99z" />
    <glyph glyph-name="fongmanthai" unicode="&#xe4f;" horiz-adv-x="963" 
d="M901 410q0 -86 -32.5 -163t-90 -134.5t-134.5 -90t-163 -32.5t-162.5 32.5t-134 90t-90.5 134.5t-33 163t33 162.5t90.5 134t134 90t162.5 32.5t163 -32.5t134.5 -90t90 -134t32.5 -162.5zM840 410q0 73 -29 138.5t-77 114t-113.5 77t-139.5 28.5q-73 0 -139 -28.5
t-114 -77t-76.5 -114t-28.5 -138.5q0 -74 28.5 -139.5t76.5 -113.5t114 -77t139 -29q74 0 139.5 29t113.5 77t77 113.5t29 139.5zM737 410q0 -54 -20.5 -100t-55 -80.5t-80.5 -55t-100 -20.5q-53 0 -99 20.5t-81 55t-55.5 80.5t-20.5 100q0 53 20.5 99t55.5 81t81 55.5
t99 20.5q54 0 100 -20.5t80.5 -55.5t55 -81t20.5 -99z" />
    <glyph glyph-name="onethai" unicode="&#xf1;" horiz-adv-x="770" 
d="M729 313q0 -82 -36 -150.5t-92 -120.5t-124.5 -85t-136.5 -41l-29 55q64 6 127.5 35t114.5 74t83 104.5t32 128.5q0 58 -22.5 105t-62.5 80.5t-92.5 52t-111.5 18.5q-55 0 -104.5 -17t-88.5 -49t-61.5 -76t-22.5 -97q0 -74 47.5 -129.5t124.5 -55.5q11 0 25 1t29 6
q-39 14 -62.5 46.5t-23.5 75.5q0 56 38.5 95t94.5 39q55 0 94 -39t39 -95q0 -41 -18.5 -75.5t-50 -61t-73.5 -41t-92 -14.5q-51 0 -94 19.5t-73.5 53t-48 79t-17.5 96.5q0 67 28.5 122.5t76 94.5t107.5 59.5t124 20.5q72 0 136.5 -21.5t112.5 -62.5t75.5 -98.5t27.5 -131.5z
M453 274q0 33 -22.5 55.5t-55.5 22.5t-55.5 -22.5t-22.5 -55.5q0 -32 22.5 -54.5t55.5 -22.5t55.5 22.5t22.5 54.5z" />
    <glyph glyph-name="onethai" unicode="&#xe51;" horiz-adv-x="770" 
d="M729 313q0 -82 -36 -150.5t-92 -120.5t-124.5 -85t-136.5 -41l-29 55q64 6 127.5 35t114.5 74t83 104.5t32 128.5q0 58 -22.5 105t-62.5 80.5t-92.5 52t-111.5 18.5q-55 0 -104.5 -17t-88.5 -49t-61.5 -76t-22.5 -97q0 -74 47.5 -129.5t124.5 -55.5q11 0 25 1t29 6
q-39 14 -62.5 46.5t-23.5 75.5q0 56 38.5 95t94.5 39q55 0 94 -39t39 -95q0 -41 -18.5 -75.5t-50 -61t-73.5 -41t-92 -14.5q-51 0 -94 19.5t-73.5 53t-48 79t-17.5 96.5q0 67 28.5 122.5t76 94.5t107.5 59.5t124 20.5q72 0 136.5 -21.5t112.5 -62.5t75.5 -98.5t27.5 -131.5z
M453 274q0 33 -22.5 55.5t-55.5 22.5t-55.5 -22.5t-22.5 -55.5q0 -32 22.5 -54.5t55.5 -22.5t55.5 22.5t22.5 54.5z" />
    <glyph glyph-name="twothai" unicode="&#xf2;" horiz-adv-x="1087" 
d="M154 0q-11 141 -29.5 260t-58.5 242q-35 104 -89.5 190t-113.5 144l49 41q61 -60 120.5 -156t92.5 -199q35 -114 53.5 -223t30.5 -238h745v375q0 62 -38.5 94.5t-86.5 32.5q-34 0 -69 -18.5t-62 -61.5v-329h-61v331q-29 41 -67 59.5t-76 18.5q-62 0 -109 -41t-47 -104
v-31q35 21 72 21q55 0 94 -39t39 -95q0 -55 -39 -93t-94 -38q-56 0 -95 38t-39 93v144q0 45 17.5 83t48.5 65.5t70 43t82 15.5q57 0 101 -21.5t73 -56.5q26 33 67 55.5t94 22.5q37 0 70 -12.5t59.5 -35t42 -56.5t15.5 -75v-446h-862zM487 274q0 33 -22.5 55.5t-54.5 22.5
q-33 0 -55.5 -22.5t-22.5 -55.5q0 -32 22.5 -54.5t55.5 -22.5q32 0 54.5 22.5t22.5 54.5z" />
    <glyph glyph-name="twothai" unicode="&#xe52;" horiz-adv-x="1087" 
d="M154 0q-11 141 -29.5 260t-58.5 242q-35 104 -89.5 190t-113.5 144l49 41q61 -60 120.5 -156t92.5 -199q35 -114 53.5 -223t30.5 -238h745v375q0 62 -38.5 94.5t-86.5 32.5q-34 0 -69 -18.5t-62 -61.5v-329h-61v331q-29 41 -67 59.5t-76 18.5q-62 0 -109 -41t-47 -104
v-31q35 21 72 21q55 0 94 -39t39 -95q0 -55 -39 -93t-94 -38q-56 0 -95 38t-39 93v144q0 45 17.5 83t48.5 65.5t70 43t82 15.5q57 0 101 -21.5t73 -56.5q26 33 67 55.5t94 22.5q37 0 70 -12.5t59.5 -35t42 -56.5t15.5 -75v-446h-862zM487 274q0 33 -22.5 55.5t-54.5 22.5
q-33 0 -55.5 -22.5t-22.5 -55.5q0 -32 22.5 -54.5t55.5 -22.5q32 0 54.5 22.5t22.5 54.5z" />
    <glyph glyph-name="threethai" unicode="&#xf3;" horiz-adv-x="924" 
d="M791 0v436q0 62 -43 94.5t-93 32.5q-37 0 -76.5 -19.5t-64.5 -60.5v-483h-61v485q-29 41 -70 59.5t-84 18.5q-31 0 -60.5 -11t-53 -30.5t-38 -46t-14.5 -57.5v-185q35 21 72 21q55 0 94 -39t39 -94t-39 -93t-94 -38t-94 38t-39 93v297q0 45 19.5 83t52 65.5t72.5 43
t83 15.5q66 0 111 -21.5t73 -56.5q27 33 73 55.5t99 22.5q37 0 72 -12.5t62.5 -35t45 -56.5t17.5 -75v-446h-61zM283 121q0 33 -22.5 55.5t-55.5 22.5t-55.5 -22.5t-22.5 -55.5t22.5 -55.5t55.5 -22.5t55.5 22.5t22.5 55.5z" />
    <glyph glyph-name="threethai" unicode="&#xe53;" horiz-adv-x="924" 
d="M791 0v436q0 62 -43 94.5t-93 32.5q-37 0 -76.5 -19.5t-64.5 -60.5v-483h-61v485q-29 41 -70 59.5t-84 18.5q-31 0 -60.5 -11t-53 -30.5t-38 -46t-14.5 -57.5v-185q35 21 72 21q55 0 94 -39t39 -94t-39 -93t-94 -38t-94 38t-39 93v297q0 45 19.5 83t52 65.5t72.5 43
t83 15.5q66 0 111 -21.5t73 -56.5q27 33 73 55.5t99 22.5q37 0 72 -12.5t62.5 -35t45 -56.5t17.5 -75v-446h-61zM283 121q0 33 -22.5 55.5t-55.5 22.5t-55.5 -22.5t-22.5 -55.5t22.5 -55.5t55.5 -22.5t55.5 22.5t22.5 55.5z" />
    <glyph glyph-name="fourthai" unicode="&#xf4;" horiz-adv-x="831" 
d="M831 860q0 -51 -7 -105.5t-27.5 -99.5t-54 -73.5t-87.5 -28.5h-282q-56 0 -105 -19.5t-87 -54.5t-59.5 -84t-19.5 -108q2 -60 25 -105t57.5 -74.5t79.5 -45t92 -15.5q37 0 66 5t52.5 11.5t45 10.5t41.5 4q-45 20 -83 67.5t-38 106.5t40 99t95 40q56 0 95 -39t39 -94
q0 -53 -36 -90t-89 -41q16 -18 48 -27.5t58 -13.5q33 -6 71 -15.5t60 -31.5l-39 -49q-43 26 -91 32.5t-73 6.5q-30 0 -58 -6.5l-58.5 -13.5t-67.5 -13t-86 -6q-57 0 -111.5 17.5t-97.5 54t-69.5 93t-28.5 132.5q-2 71 24.5 131.5t72.5 103.5t106.5 67.5t128.5 24.5h282
q35 0 57.5 25t35 61.5t17.5 79.5t5 80h61zM653 258q0 33 -22.5 55.5t-55.5 22.5q-32 0 -54.5 -22.5t-22.5 -55.5t22.5 -55.5t54.5 -22.5q33 0 55.5 22.5t22.5 55.5z" />
    <glyph glyph-name="fourthai" unicode="&#xe54;" horiz-adv-x="831" 
d="M831 860q0 -51 -7 -105.5t-27.5 -99.5t-54 -73.5t-87.5 -28.5h-282q-56 0 -105 -19.5t-87 -54.5t-59.5 -84t-19.5 -108q2 -60 25 -105t57.5 -74.5t79.5 -45t92 -15.5q37 0 66 5t52.5 11.5t45 10.5t41.5 4q-45 20 -83 67.5t-38 106.5t40 99t95 40q56 0 95 -39t39 -94
q0 -53 -36 -90t-89 -41q16 -18 48 -27.5t58 -13.5q33 -6 71 -15.5t60 -31.5l-39 -49q-43 26 -91 32.5t-73 6.5q-30 0 -58 -6.5l-58.5 -13.5t-67.5 -13t-86 -6q-57 0 -111.5 17.5t-97.5 54t-69.5 93t-28.5 132.5q-2 71 24.5 131.5t72.5 103.5t106.5 67.5t128.5 24.5h282
q35 0 57.5 25t35 61.5t17.5 79.5t5 80h61zM653 258q0 33 -22.5 55.5t-55.5 22.5q-32 0 -54.5 -22.5t-22.5 -55.5t22.5 -55.5t54.5 -22.5q33 0 55.5 22.5t22.5 55.5z" />
    <glyph glyph-name="fivethai" unicode="&#xf5;" horiz-adv-x="831" 
d="M831 860q0 -51 -7 -105.5t-27.5 -99.5t-54 -73.5t-87.5 -28.5h-282q-56 0 -105 -19.5t-87 -54.5t-59.5 -84t-19.5 -108q2 -60 25 -105t57.5 -74.5t79.5 -45t92 -15.5q37 0 66 5t52.5 11.5t45 10.5t41.5 4q-45 20 -83 67.5t-38 106.5t40 99t95 40q56 0 95 -39t39 -94
q0 -53 -36 -90t-89 -41q16 -18 48 -27.5t58 -13.5q33 -6 71 -15.5t60 -31.5l-39 -49q-43 26 -91 32.5t-73 6.5q-30 0 -58 -6.5l-58.5 -13.5t-67.5 -13t-86 -6q-57 0 -111.5 17.5t-97.5 54t-69.5 93t-28.5 132.5q-2 63 18.5 117.5t57.5 95.5t87 69.5t105 38.5q-33 33 -33 84
q0 60 42 98.5t100 38.5q57 0 99 -38.5t42 -98.5q0 -22 -7 -41.5t-17 -36.5h120q35 0 57.5 25t35 61.5t17.5 79.5t5 80h61zM500 692q0 35 -23.5 58.5t-58.5 23.5t-58.5 -23.5t-23.5 -58.5t23.5 -58.5t58.5 -23.5t58.5 23.5t23.5 58.5zM653 258q0 33 -22.5 55.5t-55.5 22.5
q-32 0 -54.5 -22.5t-22.5 -55.5t22.5 -55.5t54.5 -22.5q33 0 55.5 22.5t22.5 55.5z" />
    <glyph glyph-name="fivethai" unicode="&#xe55;" horiz-adv-x="831" 
d="M831 860q0 -51 -7 -105.5t-27.5 -99.5t-54 -73.5t-87.5 -28.5h-282q-56 0 -105 -19.5t-87 -54.5t-59.5 -84t-19.5 -108q2 -60 25 -105t57.5 -74.5t79.5 -45t92 -15.5q37 0 66 5t52.5 11.5t45 10.5t41.5 4q-45 20 -83 67.5t-38 106.5t40 99t95 40q56 0 95 -39t39 -94
q0 -53 -36 -90t-89 -41q16 -18 48 -27.5t58 -13.5q33 -6 71 -15.5t60 -31.5l-39 -49q-43 26 -91 32.5t-73 6.5q-30 0 -58 -6.5l-58.5 -13.5t-67.5 -13t-86 -6q-57 0 -111.5 17.5t-97.5 54t-69.5 93t-28.5 132.5q-2 63 18.5 117.5t57.5 95.5t87 69.5t105 38.5q-33 33 -33 84
q0 60 42 98.5t100 38.5q57 0 99 -38.5t42 -98.5q0 -22 -7 -41.5t-17 -36.5h120q35 0 57.5 25t35 61.5t17.5 79.5t5 80h61zM500 692q0 35 -23.5 58.5t-58.5 23.5t-58.5 -23.5t-23.5 -58.5t23.5 -58.5t58.5 -23.5t58.5 23.5t23.5 58.5zM653 258q0 33 -22.5 55.5t-55.5 22.5
q-32 0 -54.5 -22.5t-22.5 -55.5t22.5 -55.5t54.5 -22.5q33 0 55.5 22.5t22.5 55.5z" />
    <glyph glyph-name="sixthai" unicode="&#xf6;" horiz-adv-x="778" 
d="M737 311q0 -71 -27.5 -130.5t-75.5 -102.5t-112.5 -67.5t-138.5 -24.5q-70 0 -127 20.5t-99 54t-64.5 77.5t-22.5 89q0 60 40 97.5t95 37.5t94 -38.5t39 -94.5q0 -53 -35 -90t-88 -41q31 -24 75 -37.5t93 -13.5q59 0 112.5 19.5t93.5 54.5t63.5 83t23.5 107
q0 56 -22.5 102t-60.5 79.5t-88 52t-106 18.5q-59 0 -125.5 -23.5t-126.5 -80.5l-61 16q-18 107 -61 185.5t-109 142.5l47 39q82 -72 123 -150t55 -153q47 36 114 61t144 25q70 0 131.5 -22.5t107.5 -64.5t72.5 -99.5t26.5 -127.5zM283 229q0 33 -22.5 55.5t-55.5 22.5
t-55.5 -22.5t-22.5 -55.5q0 -32 22.5 -54.5t55.5 -22.5t55.5 22.5t22.5 54.5z" />
    <glyph glyph-name="sixthai" unicode="&#xe56;" horiz-adv-x="778" 
d="M737 311q0 -71 -27.5 -130.5t-75.5 -102.5t-112.5 -67.5t-138.5 -24.5q-70 0 -127 20.5t-99 54t-64.5 77.5t-22.5 89q0 60 40 97.5t95 37.5t94 -38.5t39 -94.5q0 -53 -35 -90t-88 -41q31 -24 75 -37.5t93 -13.5q59 0 112.5 19.5t93.5 54.5t63.5 83t23.5 107
q0 56 -22.5 102t-60.5 79.5t-88 52t-106 18.5q-59 0 -125.5 -23.5t-126.5 -80.5l-61 16q-18 107 -61 185.5t-109 142.5l47 39q82 -72 123 -150t55 -153q47 36 114 61t144 25q70 0 131.5 -22.5t107.5 -64.5t72.5 -99.5t26.5 -127.5zM283 229q0 33 -22.5 55.5t-55.5 22.5
t-55.5 -22.5t-22.5 -55.5q0 -32 22.5 -54.5t55.5 -22.5t55.5 22.5t22.5 54.5z" />
    <glyph glyph-name="seventhai" unicode="&#xf7;" horiz-adv-x="1116" 
d="M1133 807q-33 -25 -61 -71t-28 -105v-447q0 -98 -71.5 -147t-181.5 -45v444q0 62 -43 94.5t-93 32.5q-37 0 -76.5 -19.5t-64.5 -60.5v-483h-61v485q-29 41 -70 59.5t-84 18.5q-31 0 -60.5 -11t-53 -30.5t-38 -46t-14.5 -57.5v-185q35 21 72 21q55 0 94 -39t39 -94
t-39 -93t-94 -38t-94 38t-39 93v297q0 45 19.5 83t52 65.5t72.5 43t83 15.5q66 0 111 -21.5t73 -56.5q27 33 73 55.5t99 22.5q37 0 72 -12.5t62.5 -35t45 -56.5t17.5 -75v-395q47 0 89 33t42 92v463q0 41 11.5 72.5t27.5 57.5t32.5 44l28.5 31zM283 121q0 33 -22.5 55.5
t-55.5 22.5t-55.5 -22.5t-22.5 -55.5t22.5 -55.5t55.5 -22.5t55.5 22.5t22.5 55.5z" />
    <glyph glyph-name="seventhai" unicode="&#xe57;" horiz-adv-x="1116" 
d="M1133 807q-33 -25 -61 -71t-28 -105v-447q0 -98 -71.5 -147t-181.5 -45v444q0 62 -43 94.5t-93 32.5q-37 0 -76.5 -19.5t-64.5 -60.5v-483h-61v485q-29 41 -70 59.5t-84 18.5q-31 0 -60.5 -11t-53 -30.5t-38 -46t-14.5 -57.5v-185q35 21 72 21q55 0 94 -39t39 -94
t-39 -93t-94 -38t-94 38t-39 93v297q0 45 19.5 83t52 65.5t72.5 43t83 15.5q66 0 111 -21.5t73 -56.5q27 33 73 55.5t99 22.5q37 0 72 -12.5t62.5 -35t45 -56.5t17.5 -75v-395q47 0 89 33t42 92v463q0 41 11.5 72.5t27.5 57.5t32.5 44l28.5 31zM283 121q0 33 -22.5 55.5
t-55.5 22.5t-55.5 -22.5t-22.5 -55.5t22.5 -55.5t55.5 -22.5t55.5 22.5t22.5 55.5z" />
    <glyph glyph-name="eightthai" unicode="&#xf8;" horiz-adv-x="858" 
d="M825 838q-8 -99 -44 -179.5t-76 -136.5q-48 17 -110.5 29t-145.5 12q-72 0 -134.5 -19.5t-109.5 -54t-75 -83t-28 -103.5q0 -47 16.5 -88t41 -71.5t54.5 -51t56 -31.5l144 170l178 -168q22 11 50 31.5t38 30.5q-43 6 -71.5 39t-28.5 78q0 49 34.5 83.5t83.5 34.5
q50 0 84.5 -36.5t34.5 -85.5q0 -39 -19.5 -74t-53 -66.5t-77.5 -59.5t-92 -50l-157 149l-125 -149q-107 28 -179.5 110t-72.5 205q0 70 30.5 128t86 101t130 68t163.5 25q55 0 117.5 -7.5t111.5 -23.5q27 41 52.5 105.5t31.5 142.5zM762 242q0 26 -18.5 44.5t-45.5 18.5
q-26 0 -44.5 -18.5t-18.5 -44.5q0 -27 18.5 -45.5t44.5 -18.5q27 0 45.5 18.5t18.5 45.5z" />
    <glyph glyph-name="eightthai" unicode="&#xe58;" horiz-adv-x="858" 
d="M825 838q-8 -99 -44 -179.5t-76 -136.5q-48 17 -110.5 29t-145.5 12q-72 0 -134.5 -19.5t-109.5 -54t-75 -83t-28 -103.5q0 -47 16.5 -88t41 -71.5t54.5 -51t56 -31.5l144 170l178 -168q22 11 50 31.5t38 30.5q-43 6 -71.5 39t-28.5 78q0 49 34.5 83.5t83.5 34.5
q50 0 84.5 -36.5t34.5 -85.5q0 -39 -19.5 -74t-53 -66.5t-77.5 -59.5t-92 -50l-157 149l-125 -149q-107 28 -179.5 110t-72.5 205q0 70 30.5 128t86 101t130 68t163.5 25q55 0 117.5 -7.5t111.5 -23.5q27 41 52.5 105.5t31.5 142.5zM762 242q0 26 -18.5 44.5t-45.5 18.5
q-26 0 -44.5 -18.5t-18.5 -44.5q0 -27 18.5 -45.5t44.5 -18.5q27 0 45.5 18.5t18.5 45.5z" />
    <glyph glyph-name="ninethai" unicode="&#xf9;" horiz-adv-x="922" 
d="M950 848q15 -125 -20 -224.5t-88 -152.5q-17 55 -43.5 75.5t-53.5 20.5q-45 0 -71.5 -39t-30.5 -79q59 -95 94 -213.5t47 -231.5l-61 -8q-10 92 -34.5 192.5t-67.5 185.5t-109 139t-162 54q-51 0 -97 -19.5t-79 -54t-52.5 -81.5t-19.5 -103q0 -59 18.5 -107t47.5 -83
t63.5 -53.5t69.5 -18.5q-53 37 -53 105q0 55 39 94t94 39t94 -39t39 -94q0 -37 -16.5 -68t-44 -52.5t-62.5 -32.5t-69 -11q-72 0 -124.5 27.5t-87 72.5t-52 104.5t-17.5 120.5q0 68 24.5 125.5t65.5 100.5t98.5 66.5t120.5 23.5q78 0 138.5 -32t107.5 -85q16 47 56 82t93 35
q66 0 105 -51q22 43 34.5 115.5t4.5 154.5h61zM459 152q0 32 -22.5 54.5t-55.5 22.5t-55.5 -22.5t-22.5 -54.5q0 -33 22.5 -55.5t55.5 -22.5t55.5 22.5t22.5 55.5z" />
    <glyph glyph-name="ninethai" unicode="&#xe59;" horiz-adv-x="922" 
d="M950 848q15 -125 -20 -224.5t-88 -152.5q-17 55 -43.5 75.5t-53.5 20.5q-45 0 -71.5 -39t-30.5 -79q59 -95 94 -213.5t47 -231.5l-61 -8q-10 92 -34.5 192.5t-67.5 185.5t-109 139t-162 54q-51 0 -97 -19.5t-79 -54t-52.5 -81.5t-19.5 -103q0 -59 18.5 -107t47.5 -83
t63.5 -53.5t69.5 -18.5q-53 37 -53 105q0 55 39 94t94 39t94 -39t39 -94q0 -37 -16.5 -68t-44 -52.5t-62.5 -32.5t-69 -11q-72 0 -124.5 27.5t-87 72.5t-52 104.5t-17.5 120.5q0 68 24.5 125.5t65.5 100.5t98.5 66.5t120.5 23.5q78 0 138.5 -32t107.5 -85q16 47 56 82t93 35
q66 0 105 -51q22 43 34.5 115.5t4.5 154.5h61zM459 152q0 32 -22.5 54.5t-55.5 22.5t-55.5 -22.5t-22.5 -54.5q0 -33 22.5 -55.5t55.5 -22.5t55.5 22.5t22.5 55.5z" />
    <glyph glyph-name="angkhankhuthai" unicode="&#xfa;" horiz-adv-x="897" 
d="M487 0v684q0 14 -6 26.5t-22 10.5q-19 -2 -26 -17.5t-12 -42l-12.5 -63.5t-25.5 -80q-8 -20 -25.5 -48t-43 -50.5t-59.5 -36.5t-75 -10q-78 8 -108.5 56t-26.5 101q4 60 43 98t96 40q23 0 37.5 -2t24.5 -7q10 -4 18 -8v-86q0 -2 -16.5 9.5t-50.5 7.5q-25 -2 -40.5 -20.5
t-19.5 -40t3 -42t26 -28.5q53 -23 97 -1.5t79 119.5q23 66 28 122.5t40 94.5q18 23 44.5 28t59.5 5h90v-819h-117zM680 0v817h117v-817h-117z" />
    <glyph glyph-name="angkhankhuthai" unicode="&#xe5a;" horiz-adv-x="897" 
d="M487 0v684q0 14 -6 26.5t-22 10.5q-19 -2 -26 -17.5t-12 -42l-12.5 -63.5t-25.5 -80q-8 -20 -25.5 -48t-43 -50.5t-59.5 -36.5t-75 -10q-78 8 -108.5 56t-26.5 101q4 60 43 98t96 40q23 0 37.5 -2t24.5 -7q10 -4 18 -8v-86q0 -2 -16.5 9.5t-50.5 7.5q-25 -2 -40.5 -20.5
t-19.5 -40t3 -42t26 -28.5q53 -23 97 -1.5t79 119.5q23 66 28 122.5t40 94.5q18 23 44.5 28t59.5 5h90v-819h-117zM680 0v817h117v-817h-117z" />
    <glyph glyph-name="khomutthai" unicode="&#xfb;" horiz-adv-x="1352" 
d="M424 393q-33 -43 -80 -43q-43 0 -70 37q-24 33 -24 78t25.5 79t68.5 34q31 0 53 -21q0 61 -28.5 97t-71.5 36q-57 0 -98 -61q-45 -72 -41 -195q4 -125 57 -196q49 -68 123 -68q88 0 151 100q70 115 66 308q-2 36 29 36q18 0 28 -24l74 -164l43 137q10 27 31 27
q20 0 28 -27l41 -112q48 114 66 114q16 0 70 -112q49 88 63 88q16 0 64 -70q20 41 38 41h95q30 0 30 -31q0 -30 -30 -30h-74q-35 -76 -51 -76q-17 0 -68 74q-53 -99 -69 -99q-19 0 -66 103q-51 -129 -76 -129q-12 0 -22 26l-37 105q-49 -156 -74 -156q-12 0 -24 27l-56 123
q-20 -166 -102 -259q-74 -84 -168 -84q-96 0 -164 84q-74 91 -80 242q0 156 62 244q57 74 141 74q68 0 115 -50q51 -53 51 -139q6 -106 -39 -168zM301 465q0 -16 5 -29.5t15.5 -20.5t20.5 -7q12 0 22.5 7t15.5 20.5t5 29.5q0 14 -5 28.5t-15.5 21.5t-22.5 7q-10 0 -20.5 -7
t-15.5 -21.5t-5 -28.5z" />
    <glyph glyph-name="khomutthai" unicode="&#xe5b;" horiz-adv-x="1352" 
d="M424 393q-33 -43 -80 -43q-43 0 -70 37q-24 33 -24 78t25.5 79t68.5 34q31 0 53 -21q0 61 -28.5 97t-71.5 36q-57 0 -98 -61q-45 -72 -41 -195q4 -125 57 -196q49 -68 123 -68q88 0 151 100q70 115 66 308q-2 36 29 36q18 0 28 -24l74 -164l43 137q10 27 31 27
q20 0 28 -27l41 -112q48 114 66 114q16 0 70 -112q49 88 63 88q16 0 64 -70q20 41 38 41h95q30 0 30 -31q0 -30 -30 -30h-74q-35 -76 -51 -76q-17 0 -68 74q-53 -99 -69 -99q-19 0 -66 103q-51 -129 -76 -129q-12 0 -22 26l-37 105q-49 -156 -74 -156q-12 0 -24 27l-56 123
q-20 -166 -102 -259q-74 -84 -168 -84q-96 0 -164 84q-74 91 -80 242q0 156 62 244q57 74 141 74q68 0 115 -50q51 -53 51 -139q6 -106 -39 -168zM301 465q0 -16 5 -29.5t15.5 -20.5t20.5 -7q12 0 22.5 7t15.5 20.5t5 29.5q0 14 -5 28.5t-15.5 21.5t-22.5 7q-10 0 -20.5 -7
t-15.5 -21.5t-5 -28.5z" />
    <glyph glyph-name="saraulowthai" unicode="&#xfc;" 
d="M-133 -594v164h-82v61h143v-225h-61z" />
    <glyph glyph-name="saraulowthai" unicode="&#xf718;" 
d="M-133 -594v164h-82v61h143v-225h-61z" />
    <glyph glyph-name="Naipol" unicode="&#xff;" horiz-adv-x="1942" 
 />
    <glyph glyph-name=".null" 
 />
    <glyph glyph-name="nonmarkingreturn" horiz-adv-x="580" 
 />
    <glyph glyph-name="thothannobasethai" horiz-adv-x="752" 
d="M711 426q0 -96 -33 -178t-93.5 -141.5t-145.5 -90t-189 -22.5l-100 450h-82v52h133l98 -443q78 0 141.5 28t110.5 79t72.5 118.5t25.5 147.5q0 76 -22.5 139.5t-64.5 109.5t-99 71.5t-129 25.5q-94 0 -164 -33.5t-125 -89.5l-49 41q65 72 148 108t194 36t190 -50l80 97
l49 -37l-77 -94q63 -56 97 -139t34 -185z" />
    <glyph glyph-name="thothannobasethai" unicode="&#xf700;" horiz-adv-x="752" 
d="M711 426q0 -96 -33 -178t-93.5 -141.5t-145.5 -90t-189 -22.5l-100 450h-82v52h133l98 -443q78 0 141.5 28t110.5 79t72.5 118.5t25.5 147.5q0 76 -22.5 139.5t-64.5 109.5t-99 71.5t-129 25.5q-94 0 -164 -33.5t-125 -89.5l-49 41q65 72 148 108t194 36t190 -50l80 97
l49 -37l-77 -94q63 -56 97 -139t34 -185z" />
    <glyph glyph-name="thothannobasethai" unicode="&#x20ac;" horiz-adv-x="752" 
d="M711 426q0 -96 -33 -178t-93.5 -141.5t-145.5 -90t-189 -22.5l-100 450h-82v52h133l98 -443q78 0 141.5 28t110.5 79t72.5 118.5t25.5 147.5q0 76 -22.5 139.5t-64.5 109.5t-99 71.5t-129 25.5q-94 0 -164 -33.5t-125 -89.5l-49 41q65 72 148 108t194 36t190 -50l80 97
l49 -37l-77 -94q63 -56 97 -139t34 -185z" />
    <glyph glyph-name="saraileftthai" 
d="M-829 922v61h593v-61h-593z" />
    <glyph glyph-name="saraileftthai" unicode="&#xf701;" 
d="M-829 922v61h593v-61h-593z" />
    <glyph glyph-name="thanthakhatlowleftthai" 
d="M-213 1356q-2 -27 -10 -51q-8 -23 -26.5 -45.5t-51.5 -40.5q-31 -17 -58.5 -26t-50.5 -13q-24 -6 -49 -9q13 -10 23 -22q22 -25 24 -70q2 -59 -41 -102t-116 -33q-45 6 -72 33t-37 61.5t-3 71.5t32 61q26 29 58 39.5t67 16.5t70.5 14t70.5 33q27 18 41 45t20 51
q9 29 9 60zM-545 1008q33 0 50.5 21.5t16.5 46t-18.5 46t-50.5 21.5q-35 0 -51 -21.5t-15 -46t17 -46t51 -21.5z" />
    <glyph glyph-name="thanthakhatlowleftthai" unicode="&#xf709;" 
d="M-213 1356q-2 -27 -10 -51q-8 -23 -26.5 -45.5t-51.5 -40.5q-31 -17 -58.5 -26t-50.5 -13q-24 -6 -49 -9q13 -10 23 -22q22 -25 24 -70q2 -59 -41 -102t-116 -33q-45 6 -72 33t-37 61.5t-3 71.5t32 61q26 29 58 39.5t67 16.5t70.5 14t70.5 33q27 18 41 45t20 51
q9 29 9 60zM-545 1008q33 0 50.5 21.5t16.5 46t-18.5 46t-50.5 21.5q-35 0 -51 -21.5t-15 -46t17 -46t51 -21.5z" />
    <glyph glyph-name="thanthakhatlowleftthai" unicode="&#x160;" 
d="M-213 1356q-2 -27 -10 -51q-8 -23 -26.5 -45.5t-51.5 -40.5q-31 -17 -58.5 -26t-50.5 -13q-24 -6 -49 -9q13 -10 23 -22q22 -25 24 -70q2 -59 -41 -102t-116 -33q-45 6 -72 33t-37 61.5t-3 71.5t32 61q26 29 58 39.5t67 16.5t70.5 14t70.5 33q27 18 41 45t20 51
q9 29 9 60zM-545 1008q33 0 50.5 21.5t16.5 46t-18.5 46t-50.5 21.5q-35 0 -51 -21.5t-15 -46t17 -46t51 -21.5z" />
    <glyph glyph-name="maitrilowrightthai" 
d="M55 1262q-2 -31 -10 -64q-6 -29 -17.5 -60.5t-33.5 -60.5q-39 -49 -82 -76.5t-80 -41t-60.5 -15.5l-23.5 -2v41q0 2 18.5 27.5t22.5 85.5q0 24 -7 41.5t-18 29.5q-10 15 -24 23l-74 -64l-76 64q-10 -2 -18 -10q-8 -6 -15.5 -14.5t-13.5 -24.5q-10 -27 -10 -55.5t10 -53.5
q11 -24 28 -34.5t17 -8.5q2 -2 -7 12.5t1 40.5q8 23 35 28t49 -7q15 -8 22 -23.5t7 -31t-6 -29.5t-17 -23q-39 -28 -85 -17t-72 38q-39 39 -44.5 101.5t19.5 105.5q27 45 61.5 59t36.5 14l78 -71l78 69l11.5 -3t25.5 -10t29.5 -21.5t25.5 -38.5q17 -37 13.5 -71t-12.5 -58.5
t-18 -40l-9 -15.5l13 4.5t32.5 16.5t41 33.5t37.5 56.5q13 29 19 55.5t8 49t2 36v13.5h92z" />
    <glyph glyph-name="maitrilowrightthai" unicode="&#xf70c;" 
d="M55 1262q-2 -31 -10 -64q-6 -29 -17.5 -60.5t-33.5 -60.5q-39 -49 -82 -76.5t-80 -41t-60.5 -15.5l-23.5 -2v41q0 2 18.5 27.5t22.5 85.5q0 24 -7 41.5t-18 29.5q-10 15 -24 23l-74 -64l-76 64q-10 -2 -18 -10q-8 -6 -15.5 -14.5t-13.5 -24.5q-10 -27 -10 -55.5t10 -53.5
q11 -24 28 -34.5t17 -8.5q2 -2 -7 12.5t1 40.5q8 23 35 28t49 -7q15 -8 22 -23.5t7 -31t-6 -29.5t-17 -23q-39 -28 -85 -17t-72 38q-39 39 -44.5 101.5t19.5 105.5q27 45 61.5 59t36.5 14l78 -71l78 69l11.5 -3t25.5 -10t29.5 -21.5t25.5 -38.5q17 -37 13.5 -71t-12.5 -58.5
t-18 -40l-9 -15.5l13 4.5t32.5 16.5t41 33.5t37.5 56.5q13 29 19 55.5t8 49t2 36v13.5h92z" />
    <glyph glyph-name="maichattawalowrightthai" 
d="M-135 1067v-127h-115v127h-112v70h112v123h115v-123h112v-70h-112z" />
    <glyph glyph-name="maichattawalowrightthai" unicode="&#xf70d;" 
d="M-135 1067v-127h-115v127h-112v70h112v123h115v-123h112v-70h-112z" />
    <glyph glyph-name="maichattawalowrightthai" unicode="&#x17d;" 
d="M-135 1067v-127h-115v127h-112v70h112v123h115v-123h112v-70h-112z" />
    <glyph glyph-name="thanthakhatlowrightthai" 
d="M-319 922v39q0 20 -8.5 31.5t-30.5 11.5h-23v61h37q41 0 63.5 -16.5t22.5 -49.5v-16h258v-61h-319z" />
    <glyph glyph-name="thanthakhatlowrightthai" unicode="&#xf70e;" 
d="M-319 922v39q0 20 -8.5 31.5t-30.5 11.5h-23v61h37q41 0 63.5 -16.5t22.5 -49.5v-16h258v-61h-319z" />
    <glyph glyph-name="yoyingnobasethai" horiz-adv-x="1311" 
d="M1239 246q0 -62 -23.5 -110t-64.5 -82t-94 -51t-115 -17q-61 0 -114.5 17t-94.5 51t-64.5 82t-23.5 110v303q0 110 -74.5 166.5t-181.5 56.5q-170 0 -256 -123v-588h123v-61h-184v668q112 166 317 166q64 0 121 -16.5t101 -50.5t70 -84t26 -116v-321q0 -99 68.5 -149
t166.5 -50t167 50t69 149v573h61v-573z" />
    <glyph glyph-name="yoyingnobasethai" unicode="&#xf70f;" horiz-adv-x="1311" 
d="M1239 246q0 -62 -23.5 -110t-64.5 -82t-94 -51t-115 -17q-61 0 -114.5 17t-94.5 51t-64.5 82t-23.5 110v303q0 110 -74.5 166.5t-181.5 56.5q-170 0 -256 -123v-588h123v-61h-184v668q112 166 317 166q64 0 121 -16.5t101 -50.5t70 -84t26 -116v-321q0 -99 68.5 -149
t166.5 -50t167 50t69 149v573h61v-573z" />
    <glyph glyph-name="maitaikhuleftthai" 
d="M-500 1079q-55 0 -89 -23.5t-34 -68.5v-8h88l113 68l107 -68h118v-57h-127l-98 65l-100 -65h-162v57q0 65 46 110.5t144 45.5h363v-56h-369z" />
    <glyph glyph-name="maitaikhuleftthai" unicode="&#xf712;" 
d="M-500 1079q-55 0 -89 -23.5t-34 -68.5v-8h88l113 68l107 -68h118v-57h-127l-98 65l-100 -65h-162v57q0 65 46 110.5t144 45.5h363v-56h-369z" />
    <glyph glyph-name="maitaikhuleftthai" unicode="&#x161;" 
d="M-500 1079q-55 0 -89 -23.5t-34 -68.5v-8h88l113 68l107 -68h118v-57h-127l-98 65l-100 -65h-162v57q0 65 46 110.5t144 45.5h363v-56h-369z" />
    <glyph glyph-name="maitriupperleftthai" 
d="M-74 1147v57q0 64 -65 64h-6l-78 -70l-78 70h-4q-66 0 -66 -64v-2h78v-55h-135v67q0 54 37 82.5t90 28.5h8l70 -63l71 63h7q55 0 92 -28.5t37 -82.5v-10h131v-57h-189z" />
    <glyph glyph-name="maitriupperleftthai" unicode="&#xf715;" 
d="M-74 1147v57q0 64 -65 64h-6l-78 -70l-78 70h-4q-66 0 -66 -64v-2h78v-55h-135v67q0 54 37 82.5t90 28.5h8l70 -63l71 63h7q55 0 92 -28.5t37 -82.5v-10h131v-57h-189z" />
    <glyph glyph-name="maichattawaupperleftthai" 
d="M-236 1212v-65h-61v65h-72v50h72v65h61v-65h72v-50h-72z" />
    <glyph glyph-name="maichattawaupperleftthai" unicode="&#xf716;" 
d="M-236 1212v-65h-61v65h-72v50h72v65h61v-65h72v-50h-72z" />
    <glyph glyph-name="maichattawaupperleftthai" unicode="&#x17e;" 
d="M-236 1212v-65h-61v65h-72v50h72v65h61v-65h72v-50h-72z" />
    <glyph glyph-name="khorakhangthai" unicode="&#xa6;" horiz-adv-x="788" 
d="M717 256q0 -61 -23.5 -110.5t-63.5 -85t-94.5 -55t-115.5 -19.5q-39 0 -80 9t-78 26.5t-67.5 41t-51.5 52.5v-115h-61v504q0 39 20.5 62.5t44 41t44 34.5t20.5 46v66l-96 -74q-13 18 -29 37q-14 16 -34.5 35.5t-49.5 35.5l37 41q20 -14 35.5 -27.5t25.5 -23.5
q13 -12 21 -24l90 65h61v-145q0 -31 -20.5 -50.5t-44 -37t-44 -39t-20.5 -55.5v-218q0 -49 25 -90t63.5 -71.5t89 -48t99.5 -17.5q100 0 167.5 55.5t67.5 153.5v563h62v-563z" />
    <glyph glyph-name="khorakhangthai" unicode="&#xe06;" horiz-adv-x="788" 
d="M717 256q0 -61 -23.5 -110.5t-63.5 -85t-94.5 -55t-115.5 -19.5q-39 0 -80 9t-78 26.5t-67.5 41t-51.5 52.5v-115h-61v504q0 39 20.5 62.5t44 41t44 34.5t20.5 46v66l-96 -74q-13 18 -29 37q-14 16 -34.5 35.5t-49.5 35.5l37 41q20 -14 35.5 -27.5t25.5 -23.5
q13 -12 21 -24l90 65h61v-145q0 -31 -20.5 -50.5t-44 -37t-44 -39t-20.5 -55.5v-218q0 -49 25 -90t63.5 -71.5t89 -48t99.5 -17.5q100 0 167.5 55.5t67.5 153.5v563h62v-563z" />
    <glyph glyph-name="yoyingthai" unicode="&#xad;" horiz-adv-x="1311" 
d="M1239 256q0 -61 -24.5 -111.5t-67.5 -85t-99.5 -54t-119.5 -19.5q-86 0 -161 28.5t-122 87.5l45 43q92 -98 236 -98q49 0 95 14.5t81 42t55.5 65.5t20.5 87v23q-39 -46 -103.5 -76.5t-136.5 -30.5q-129 0 -211 63.5t-82 186.5v127q0 110 -74.5 166.5t-181.5 56.5
q-170 0 -256 -123v-588h123v-61h-184v668q112 166 317 166q64 0 121 -16.5t101 -50.5t70 -84t26 -116v-145q0 -96 68.5 -142.5t162.5 -46.5q49 0 92 15.5t76 43t52.5 66.5t19.5 88v373h61v-563z" />
    <glyph glyph-name="yoyingthai" unicode="&#xe0d;" horiz-adv-x="1311" 
d="M1239 256q0 -61 -24.5 -111.5t-67.5 -85t-99.5 -54t-119.5 -19.5q-86 0 -161 28.5t-122 87.5l45 43q92 -98 236 -98q49 0 95 14.5t81 42t55.5 65.5t20.5 87v23q-39 -46 -103.5 -76.5t-136.5 -30.5q-129 0 -211 63.5t-82 186.5v127q0 110 -74.5 166.5t-181.5 56.5
q-170 0 -256 -123v-588h123v-61h-184v668q112 166 317 166q64 0 121 -16.5t101 -50.5t70 -84t26 -116v-145q0 -96 68.5 -142.5t162.5 -46.5q49 0 92 15.5t76 43t52.5 66.5t19.5 88v373h61v-563z" />
    <glyph glyph-name="yoyingthai" unicode="&#xde;" horiz-adv-x="1311" 
d="M1239 256q0 -61 -24.5 -111.5t-67.5 -85t-99.5 -54t-119.5 -19.5q-86 0 -161 28.5t-122 87.5l45 43q92 -98 236 -98q49 0 95 14.5t81 42t55.5 65.5t20.5 87v23q-39 -46 -103.5 -76.5t-136.5 -30.5q-129 0 -211 63.5t-82 186.5v127q0 110 -74.5 166.5t-181.5 56.5
q-170 0 -256 -123v-588h123v-61h-184v668q112 166 317 166q64 0 121 -16.5t101 -50.5t70 -84t26 -116v-145q0 -96 68.5 -142.5t162.5 -46.5q49 0 92 15.5t76 43t52.5 66.5t19.5 88v373h61v-563z" />
    <glyph glyph-name="thophuthaothai" unicode="&#xb2;" horiz-adv-x="1356" 
d="M1284 256q0 -123 -77 -196.5t-199 -73.5q-78 0 -147.5 35.5t-108.5 93.5v-115h-62v573q0 72 -36 131.5t-95 67.5l-129 -158l-135 158q-27 -10 -59.5 -42t-62.5 -82t-50.5 -114.5t-20.5 -138.5q0 -65 13.5 -127.5t40 -110.5t69.5 -77t101 -29q41 0 68.5 19.5t45.5 44.5
l49 -37q-24 -35 -67 -61.5t-96 -26.5q-72 0 -125.5 29.5t-89 83t-53 128t-17.5 164.5q0 84 23.5 161t62.5 135.5t87 96t99 46.5l117 -134l109 129q49 0 89 -20.5t67.5 -55t42 -80.5t14.5 -100v-299q0 -49 22.5 -90t58 -71.5t82 -48t93.5 -17.5q98 0 156.5 55.5t58.5 153.5
v563h61v-563z" />
    <glyph glyph-name="thophuthaothai" unicode="&#xe12;" horiz-adv-x="1356" 
d="M1284 256q0 -123 -77 -196.5t-199 -73.5q-78 0 -147.5 35.5t-108.5 93.5v-115h-62v573q0 72 -36 131.5t-95 67.5l-129 -158l-135 158q-27 -10 -59.5 -42t-62.5 -82t-50.5 -114.5t-20.5 -138.5q0 -65 13.5 -127.5t40 -110.5t69.5 -77t101 -29q41 0 68.5 19.5t45.5 44.5
l49 -37q-24 -35 -67 -61.5t-96 -26.5q-72 0 -125.5 29.5t-89 83t-53 128t-17.5 164.5q0 84 23.5 161t62.5 135.5t87 96t99 46.5l117 -134l109 129q49 0 89 -20.5t67.5 -55t42 -80.5t14.5 -100v-299q0 -49 22.5 -90t58 -71.5t82 -48t93.5 -17.5q98 0 156.5 55.5t58.5 153.5
v563h61v-563z" />
    <glyph glyph-name="nonenthai" unicode="&#xb3;" horiz-adv-x="1311" 
d="M1178 0v115q-39 -58 -109 -93.5t-147 -35.5q-123 0 -200 73.5t-77 196.5v293q0 110 -74.5 166.5t-181.5 56.5q-170 0 -256 -123v-588h123v-61h-184v668q112 166 317 166q64 0 121 -16.5t101 -50.5t70 -84t26 -116v-311q0 -98 58 -153.5t157 -55.5q47 0 93 17.5t82 48
t58.5 71.5t22.5 90v545h61v-819h-61z" />
    <glyph glyph-name="nonenthai" unicode="&#xe13;" horiz-adv-x="1311" 
d="M1178 0v115q-39 -58 -109 -93.5t-147 -35.5q-123 0 -200 73.5t-77 196.5v293q0 110 -74.5 166.5t-181.5 56.5q-170 0 -256 -123v-588h123v-61h-184v668q112 166 317 166q64 0 121 -16.5t101 -50.5t70 -84t26 -116v-311q0 -98 58 -153.5t157 -55.5q47 0 93 17.5t82 48
t58.5 71.5t22.5 90v545h61v-819h-61z" />
    <glyph glyph-name="nonuthai" unicode="&#xb9;" horiz-adv-x="778" 
d="M645 0v115q-20 -29 -51 -52.5t-68 -41t-77.5 -26.5t-79.5 -9q-62 0 -116 19.5t-94 55t-63.5 85t-23.5 110.5v563h61v-563q0 -98 67.5 -153.5t168.5 -55.5q49 0 99 17.5t89 48t63.5 71.5t24.5 90v545h62v-819h-62z" />
    <glyph glyph-name="nonuthai" unicode="&#xe19;" horiz-adv-x="778" 
d="M645 0v115q-20 -29 -51 -52.5t-68 -41t-77.5 -26.5t-79.5 -9q-62 0 -116 19.5t-94 55t-63.5 85t-23.5 110.5v563h61v-563q0 -98 67.5 -153.5t168.5 -55.5q49 0 99 17.5t89 48t63.5 71.5t24.5 90v545h62v-819h-62z" />
    <glyph glyph-name="phophungthai" unicode="&#xbc;" horiz-adv-x="983" 
d="M770 0h-53l-228 717l-223 -717h-51l-215 819h201v-61h-123l166 -656l219 717h55l223 -717l181 717h59z" />
    <glyph glyph-name="phophungthai" unicode="&#xe1c;" horiz-adv-x="983" 
d="M770 0h-53l-228 717l-223 -717h-51l-215 819h201v-61h-123l166 -656l219 717h55l223 -717l181 717h59z" />
    <glyph glyph-name="fofathai" unicode="&#xbd;" horiz-adv-x="983" 
d="M770 0h-53l-228 717l-223 -717h-51l-215 819h201v-61h-123l166 -656l219 717h55l223 -717l234 922h59z" />
    <glyph glyph-name="fofathai" unicode="&#xe1d;" horiz-adv-x="983" 
d="M770 0h-53l-228 717l-223 -717h-51l-215 819h201v-61h-123l166 -656l219 717h55l223 -717l234 922h59z" />
    <glyph glyph-name="phophanthai" unicode="&#xbe;" horiz-adv-x="983" 
d="M770 0h-53l-228 717l-223 -717h-51l-215 819h59l185 -717l219 717h55l223 -717l181 717h59z" />
    <glyph glyph-name="phophanthai" unicode="&#xe1e;" horiz-adv-x="983" 
d="M770 0h-53l-228 717l-223 -717h-51l-215 819h59l185 -717l219 717h55l223 -717l181 717h59z" />
    <glyph glyph-name="saraathai" unicode="&#xd0;" horiz-adv-x="236" 
d="M41 602v115h61v-55h134v-60h-195zM41 102v115h61v-55h134v-60h-195z" />
    <glyph glyph-name="saraathai" unicode="&#xe30;" horiz-adv-x="236" 
d="M41 602v115h61v-55h134v-60h-195zM41 102v115h61v-55h134v-60h-195z" />
    <glyph glyph-name="saraueethai" unicode="&#xd7;" 
d="M-666 922v61h410v102h61v-102h62v102h61v-163h-594z" />
    <glyph glyph-name="saraueethai" unicode="&#xe37;" 
d="M-666 922v61h410v102h61v-102h62v102h61v-163h-594z" />
    <glyph glyph-name="PU2005.001" unicode="&#xdd;" 
 />
    <glyph glyph-name="PU2005.001" unicode="&#xe3d;" 
 />
    <glyph glyph-name="PU2005" unicode="&#xe3e;" 
 />
    <glyph glyph-name="zerothai" unicode="&#xf0;" horiz-adv-x="721" 
d="M680 307q0 -65 -25.5 -123.5t-68.5 -101.5t-101.5 -68.5t-124.5 -25.5q-65 0 -123.5 25.5t-101.5 68.5t-68.5 101.5t-25.5 123.5q0 66 25.5 124t68.5 101t101.5 69t123.5 26q66 0 124.5 -26t101.5 -69t68.5 -101t25.5 -124zM621 307q0 55 -20.5 102.5t-56.5 83t-83 56
t-103 20.5q-55 0 -102 -20.5t-83 -56t-56.5 -83t-20.5 -102.5t20.5 -102t56.5 -83t83 -56.5t102 -20.5q56 0 103 20.5t83 56.5t56.5 83t20.5 102z" />
    <glyph glyph-name="zerothai" unicode="&#xe50;" horiz-adv-x="721" 
d="M680 307q0 -65 -25.5 -123.5t-68.5 -101.5t-101.5 -68.5t-124.5 -25.5q-65 0 -123.5 25.5t-101.5 68.5t-68.5 101.5t-25.5 123.5q0 66 25.5 124t68.5 101t101.5 69t123.5 26q66 0 124.5 -26t101.5 -69t68.5 -101t25.5 -124zM621 307q0 55 -20.5 102.5t-56.5 83t-83 56
t-103 20.5q-55 0 -102 -20.5t-83 -56t-56.5 -83t-20.5 -102.5t20.5 -102t56.5 -83t83 -56.5t102 -20.5q56 0 103 20.5t83 56.5t56.5 83t20.5 102z" />
    <glyph glyph-name="sarauulowthai" unicode="&#xfd;" 
d="M-72 -477q0 -55 -45 -89t-102 -34q-39 0 -78 16.5t-61 48.5v105h-62v61h123v-145q16 -21 41 -27t41 -6q31 0 56.5 19.5t25.5 52.5v106h61v-108z" />
    <glyph glyph-name="sarauulowthai" unicode="&#xf719;" 
d="M-72 -477q0 -55 -45 -89t-102 -34q-39 0 -78 16.5t-61 48.5v105h-62v61h123v-145q16 -21 41 -27t41 -6q31 0 56.5 19.5t25.5 52.5v106h61v-108z" />
    <glyph glyph-name="phinthulowthai" unicode="&#xfe;" 
d="M-47 -424q0 -22 -16.5 -38.5t-38.5 -16.5q-23 0 -39.5 16.5t-16.5 38.5q0 23 16.5 39t39.5 16q22 0 38.5 -16t16.5 -39z" />
    <glyph glyph-name="phinthulowthai" unicode="&#xf71a;" 
d="M-47 -424q0 -22 -16.5 -38.5t-38.5 -16.5q-23 0 -39.5 16.5t-16.5 38.5q0 23 16.5 39t39.5 16q22 0 38.5 -16t16.5 -39z" />
    <glyph glyph-name="lochula.short" unicode="&#xf71d;" horiz-adv-x="1024" 
d="M1010 909q-21 -67 -59 -91.5t-85 -37.5q45 -28 60.5 -69t-0.5 -103l-156 -608h-53l-228 717l-223 -717h-51l-215 819h59l185 -717l219 717h55l223 -717l127 502q11 41 4.5 72t-24 51.5t-45 30.5t-60.5 10h-71v51h82q90 0 136 22.5t62 82.5l29 100h61z" />
    <glyph glyph-name="saraamthaileft" horiz-adv-x="629" 
d="M-430 961q0 -35 -27 -61t-62 -26q-34 0 -61 26t-27 61q0 34 27 61t61 27q35 0 62 -27t27 -61zM461 0v528q0 113 -56.5 180.5t-168.5 67.5q-54 0 -99 -18.5t-61 -30.5v64q16 10 61 26.5t101 16.5q73 0 126.5 -23t89 -62.5t52 -91t16.5 -110.5v-547h-61zM-478 961
q0 16 -13 29.5t-30 13.5q-16 0 -29.5 -13.5t-13.5 -29.5q0 -17 13.5 -30t29.5 -13q17 0 30 13t13 30z" />
    <glyph glyph-name="uni25CC" unicode="&#x25cc;" horiz-adv-x="1372" 
d="M426 221l-162 -53l58 162q43 -64 104 -109zM608 1020l78 154l76 -152q-37 4 -72 4q-41 0 -82 -6zM756 141l-70 -141l-72 141q37 -6 76 -6q35 0 66 6zM1128 657l146 -73l-144 -68q7 33 7 66q0 39 -9 75zM252 512l-152 78l152 74q-6 -41 -6 -82q0 -37 6 -70zM332 848
l-45 158l153 -56q-63 -41 -108 -102zM1044 309l41 -141l-139 47q58 41 98 94zM942 950l166 56l-57 -160q-45 61 -109 104z" />
    <glyph glyph-name="yamakkanleftthai" 
d="M-524 1233q-31 24 -31 59q0 72 90 119q78 41 156 41q63 0 127 -20q20 -9 20 -29q0 -33 -31 -33q-4 0 -10 2q-53 19 -106 19q-47 0 -111 -27q-74 -33 -74 -72q0 -14 76 -43q25 -8 25 -28q0 -31 -33 -31q-2 0 -9 1t-11 1q-39 0 -81 -33t-42 -59q0 -33 28.5 -53.5
t69.5 -20.5q84 0 119 61q8 17 24 17q33 0 33 -31q0 -6 -4 -14q-53 -94 -172 -94q-59 0 -107 30q-55 39 -55 105q0 82 109 133z" />
    <glyph glyph-name="dochadathai.short" unicode="&#x12a;" horiz-adv-x="823" 
d="M655 -280l-184 143l-184 -143h-287v61h276l195 148l184 -142v762q0 110 -74.5 166.5t-181.5 56.5q-170 0 -256 -123v-649h-143v61h82v607q113 166 317 166q64 0 121.5 -16.5t101.5 -50.5t69.5 -84t25.5 -116v-847h-62z" />
    <glyph glyph-name="dochadathai.short" unicode="&#xf71b;" horiz-adv-x="823" 
d="M655 -280l-184 143l-184 -143h-287v61h276l195 148l184 -142v762q0 110 -74.5 166.5t-181.5 56.5q-170 0 -256 -123v-649h-143v61h82v607q113 166 317 166q64 0 121.5 -16.5t101.5 -50.5t69.5 -84t25.5 -116v-847h-62z" />
    <glyph glyph-name="topatakthai.short" unicode="&#x12b;" horiz-adv-x="848" 
d="M655 -268l-123 123l-112 -133l-113 133l-123 -123h-204v61h190l137 135l113 -131l112 131l123 -118v739q0 110 -74.5 166.5t-181.5 56.5q-170 0 -256 -123v-649h-143v61h82v607q113 166 317 166q64 0 121.5 -16.5t101.5 -50.5t69.5 -84t25.5 -116v-835h-62z" />
    <glyph glyph-name="topatakthai.short" unicode="&#xf71c;" horiz-adv-x="848" 
d="M655 -268l-123 123l-112 -133l-113 133l-123 -123h-204v61h190l137 135l113 -131l112 131l123 -118v739q0 110 -74.5 166.5t-181.5 56.5q-170 0 -256 -123v-649h-143v61h82v607q113 166 317 166q64 0 121.5 -16.5t101.5 -50.5t69.5 -84t25.5 -116v-835h-62z" />
    <glyph glyph-name="ZWSP" unicode="&#x200b;" 
 />
    </font>
</defs>
</svg>
