<?xml version="1.0" encoding="UTF-8"?>
<svg viewBox="0 0 301 301" version="1.1" xmlns="http://www.w3.org/2000/svg" xmlns:xlink="http://www.w3.org/1999/xlink">
    <!-- Generator: Sketch 49.2 (51160) - http://www.bohemiancoding.com/sketch -->
    <title>chips50</title>
    <desc>Created with Sketch.</desc>
    <defs>
        <linearGradient x1="50%" y1="0%" x2="50%" y2="100%" id="linearGradient-1">
            <stop stop-color="#91C000" offset="0%"></stop>
            <stop stop-color="#7BA108" offset="100%"></stop>
        </linearGradient>
        <linearGradient x1="50%" y1="0%" x2="50%" y2="100%" id="linearGradient-2">
            <stop stop-color="#FFFFFF" offset="0%"></stop>
            <stop stop-color="#E8E8E8" offset="100%"></stop>
        </linearGradient>
    </defs>
    <g id="Page-1" stroke="none" stroke-width="1" fill="none" fill-rule="evenodd">
        <g id="chips50">
            <circle id="Oval-5" fill="url(#linearGradient-1)" cx="150.910032" cy="150.903811" r="150.025046"></circle>
            <circle id="Oval-5" fill="url(#linearGradient-2)" cx="151.099142" cy="150.092921" r="115.019202"></circle>
            <path d="M96.40299,245.293538 C44.269094,215.194019 26.4067021,148.530665 56.5062209,96.396769 C86.6057398,44.2628731 153.269094,26.4004811 205.40299,56.5 C257.536886,86.5995189 275.399278,153.262873 245.299759,205.396769 C215.20024,257.530665 148.536886,275.393057 96.40299,245.293538 Z M103.278634,233.044827 C148.716434,259.278352 206.817522,243.710213 233.051048,198.272413 C259.284573,152.834614 243.716434,94.7335256 198.278634,68.5 C152.840835,42.2664744 94.7397466,57.8346141 68.5062209,103.272413 C42.2726953,148.710213 57.8408351,206.811301 103.278634,233.044827 Z" id="Combined-Shape" fill="#172307"></path>
            <path d="M199.336348,66.160254 C196.944885,64.7795422 196.125509,61.7215901 197.506221,59.330127 C198.886933,56.9386639 201.944885,56.1192881 204.336348,57.5 C206.727811,58.8807119 207.547187,61.9386639 206.166475,64.330127 C204.785763,66.7215901 201.727811,67.5409659 199.336348,66.160254 Z M97.336348,243.160254 C94.9448849,241.779542 94.1255091,238.72159 95.5062209,236.330127 C96.8869328,233.938664 99.9448849,233.119288 102.336348,234.5 C104.727811,235.880712 105.547187,238.938664 104.166475,241.330127 C102.785763,243.72159 99.7278111,244.540966 97.336348,243.160254 Z M248.006221,151 C248.006221,148.238576 250.244797,146 253.006221,146 C255.767645,146 258.006221,148.238576 258.006221,151 C258.006221,153.761424 255.767645,156 253.006221,156 C250.244797,156 248.006221,153.761424 248.006221,151 Z M44.0062209,151 C44.0062209,148.238576 46.2447972,146 49.0062209,146 C51.7676447,146 54.0062209,148.238576 54.0062209,151 C54.0062209,153.761424 51.7676447,156 49.0062209,156 C46.2447972,156 44.0062209,153.761424 44.0062209,151 Z M199.336348,234.5 C201.727811,233.119288 204.785763,233.938664 206.166475,236.330127 C207.547187,238.72159 206.727811,241.779542 204.336348,243.160254 C201.944885,244.540966 198.886933,243.72159 197.506221,241.330127 C196.125509,238.938664 196.944885,235.880712 199.336348,234.5 Z M97.336348,57.5 C99.7278111,56.1192881 102.785763,56.9386639 104.166475,59.330127 C105.547187,61.7215901 104.727811,64.7795422 102.336348,66.160254 C99.9448849,67.5409659 96.8869328,66.7215901 95.5062209,64.330127 C94.1255091,61.9386639 94.9448849,58.8807119 97.336348,57.5 Z M150.506221,12.75 L158.441322,8.57827058 L156.925852,17.4141353 L163.345484,23.6717294 L154.473771,24.9608647 L150.506221,33 L146.53867,24.9608647 L137.666958,23.6717294 L144.086589,17.4141353 L142.57112,8.57827058 L150.506221,12.75 Z M150.506221,291.25 L142.57112,295.421729 L144.086589,286.585865 L137.666958,280.328271 L146.53867,279.039135 L150.506221,271 L154.473771,279.039135 L163.345484,280.328271 L156.925852,286.585865 L158.441322,295.421729 L150.506221,291.25 Z M271.293235,82.066343 L278.873609,86.8524772 L270.463791,89.9579745 L268.254372,98.6463356 L262.702092,91.6077748 L253.756221,92.191343 L258.734541,84.7357758 L255.415109,76.4080798 L264.04416,78.8388466 L270.938509,73.1084793 L271.293235,82.066343 Z M29.6018924,220.816343 L22.0215183,216.030209 L30.4313363,212.924711 L32.6407561,204.23635 L38.1930362,211.274911 L47.1389069,210.691343 L42.1605867,218.14691 L45.480019,226.474606 L36.8509678,224.043839 L29.9566192,229.774207 L29.6018924,220.816343 Z M271.293235,220.816343 L270.938509,229.774207 L264.04416,224.043839 L255.415109,226.474606 L258.734541,218.14691 L253.756221,210.691343 L262.702092,211.274911 L268.254372,204.23635 L270.463791,212.924711 L278.873609,216.030209 L271.293235,220.816343 Z M29.6018924,82.066343 L29.9566192,73.1084793 L36.8509678,78.8388466 L45.480019,76.4080798 L42.1605867,84.7357758 L47.1389069,92.191343 L38.1930362,91.6077748 L32.6407561,98.6463356 L30.4313363,89.9579745 L22.0215183,86.8524772 L29.6018924,82.066343 Z M188.418724,8.50666634 C200.965601,11.8323833 213.28467,16.8541383 225.064681,23.6553308 C236.637208,30.3367322 246.982622,38.3273245 256.021853,47.3320151 L245.170234,60.0571889 C242.780888,62.8590605 238.301693,63.6626591 235.165672,61.8520766 L186.332564,33.6582689 C183.196543,31.8476864 181.652883,27.5667904 182.884702,24.0966201 L188.418724,8.50666634 Z M114.122362,292.746386 C101.575485,289.420669 89.2564161,284.398914 77.4764051,277.597722 C65.9038785,270.916321 55.5584645,262.925728 46.5192329,253.921038 L57.3708522,241.195864 C59.7601983,238.393992 64.2393934,237.590394 67.3754144,239.400976 L116.208522,267.594784 C119.344543,269.405366 120.888203,273.686262 119.656384,277.156433 L114.122362,292.746386 Z M292.831228,112 C296.224511,124.528772 298.035078,137.708277 298.035078,151.310662 C298.035078,164.673464 296.287729,177.628152 293.009054,189.958701 L276.56292,186.92351 C272.941755,186.255212 270.006221,182.777914 270.006221,179.156749 L270.006221,122.769134 C270.006221,119.147969 272.941755,115.670671 276.56292,115.002373 L292.831228,112 Z M9.210071,189.958701 C5.81678818,177.429929 4.00622095,164.250425 4.00622095,150.64804 C4.00622095,137.285237 5.75356988,124.330549 9.03224492,112 L25.4783783,115.035191 C29.0995434,115.70349 32.0350778,119.180787 32.0350778,122.801952 L32.0350778,179.189567 C32.0350778,182.810733 29.0995434,186.28803 25.4783783,186.956329 L9.210071,189.958701 Z M255.93294,254.767036 C246.779347,263.970091 236.270845,272.12784 224.490834,278.929033 C212.918307,285.610434 200.825544,290.574529 188.507637,293.900388 L182.913123,278.140023 C181.681304,274.669853 183.224965,270.388957 186.360986,268.578375 L235.194093,240.384567 C238.330114,238.573984 242.809309,239.377583 245.198655,242.179455 L255.93294,254.767036 Z M46.608146,48.486017 C55.7617395,39.2829618 66.2702415,31.1252124 78.0502526,24.3240198 C89.6227792,17.6426185 101.715542,12.6785233 114.033449,9.35266444 L119.627963,25.1130293 C120.859782,28.5831996 119.316121,32.8640956 116.1801,34.6746782 L67.3469928,62.8684858 C64.2109718,64.6790684 59.7317768,63.8754698 57.3424306,61.0735981 L46.608146,48.486017 Z" id="Combined-Shape" fill="#FFFFFF" opacity="0.900000036"></path>
        </g>
    </g>
</svg>