<?xml version="1.0" standalone="no"?>
<!DOCTYPE svg PUBLIC "-//W3C//DTD SVG 1.1//EN" "http://www.w3.org/Graphics/SVG/1.1/DTD/svg11.dtd" >
<svg xmlns="http://www.w3.org/2000/svg">
<metadata>
This is a custom SVG webfont generated by Font Squirrel.
Copyright   : Copyright c Lao Script for Windows 2012 All rights reserved
Designer    : John M Durdin
Foundry     : Lao Script for Windows
Foundry URL : httpwwwlaoscriptnet
</metadata>
<defs>
<font id="SaysetthaMXRegular" horiz-adv-x="1139" >
<font-face units-per-em="2048" ascent="1638" descent="-410" />
<missing-glyph horiz-adv-x="512" />
<glyph unicode="&#xecd;&#xec8;" horiz-adv-x="0" d="M-839 1537q0 47 17.5 88t47.5 71.5t71 48t88 17.5q45 0 85 -16.5t71 -46t49 -71t18 -91.5q0 -43 -17.5 -83t-47.5 -70.5t-70.5 -49t-87.5 -18.5q-45 0 -85.5 16.5t-71 45.5t-49 70t-18.5 89zM-716 1541q0 -39 26.5 -69.5t74.5 -30.5q17 0 34.5 6.5t32 19t24 31t9.5 43.5 q0 21 -8 39t-21.5 31.5t-31.5 21t-39 7.5q-22 0 -40.5 -8.5t-32 -22t-21 -31.5t-7.5 -37zM-669 1874.95v387.011h109v-387.011h-109z" />
<glyph unicode="&#xeb1;&#xec8;" horiz-adv-x="0" d="M-1145 1583q0 39 13.5 72.5t37.5 58t57 39t72 14.5q34 0 69.5 -13t64.5 -36t47 -55t18 -70q0 -43 -13.5 -75.5t-44.5 -63.5q17 -8 38.5 -14t44 -10.5t44 -6.5t39.5 -2q79 0 154.5 17t134 55.5t94 101t35.5 154.5h137q1 -111 -44 -196t-120 -142.5t-171 -87t-197 -29.5 q-45 0 -100.5 5t-112 17.5t-110 34t-95.5 53.5t-67 76t-25 103zM-1041 1583q0 -37 26.5 -63.5t63.5 -26.5q19 0 35.5 7t28.5 19.5t19 29t7 34.5q0 38 -26 64t-64 26q-18 0 -34.5 -7t-29 -19t-19.5 -28.5t-7 -35.5zM-629 1874.95v387.011h109v-387.011h-109z" />
<glyph unicode="&#xeb4;&#xec8;" horiz-adv-x="0" d="M-1161 1571q14 255 484 278q470 -23 484 -278q-17 -185 -288 -256q-86 -1 -86 53q0 58 98 76q137 39 151 127q-10 134 -359 154q-349 -20 -359 -154q12 -88 151 -127q98 -18 98 -76q0 -54 -86 -53q-270 70 -288 256zM-729 1874.95v387.011h109v-387.011h-109z" />
<glyph unicode="&#xeb5;&#xec8;" horiz-adv-x="0" d="M-1161 1571q14 255 484 278q470 -23 484 -278q-4 -72 -33 -101l-28 -30q107 2 193 33q67 -44 24 -123q-191 -44 -444 -35q-86 -1 -86 53q0 58 98 76q137 39 151 127q-10 134 -359 154q-349 -20 -359 -154q12 -88 151 -127q98 -18 98 -76q0 -54 -86 -53q-270 70 -288 256z M-729 1874.95v387.011h109v-387.011h-109z" />
<glyph unicode="&#xeb6;&#xec8;" horiz-adv-x="0" d="M-1161 1571q14 255 484 278q470 -23 484 -278q-17 -185 -288 -256q-86 -1 -86 53q0 58 98 76q137 39 151 127q-10 134 -359 154q-349 -20 -359 -154q12 -88 151 -127q98 -18 98 -76q0 -54 -86 -53q-270 70 -288 256zM-784 1544q0 21 8.5 39t23 31.5t34 21.5t41.5 8 t41.5 -8t34 -21.5t23 -31.5t8.5 -39t-8.5 -39t-23 -31.5t-34 -21.5t-41.5 -8t-41.5 8t-34 21.5t-23 31.5t-8.5 39zM-729 1874.95v387.011h109v-387.011h-109z" />
<glyph unicode="&#xeb7;&#xec8;" horiz-adv-x="0" d="M-1161 1571q14 255 484 278q470 -23 484 -278q-4 -72 -33 -101l-28 -30q107 2 193 33q67 -44 24 -123q-191 -44 -444 -35q-86 -1 -86 53q0 58 98 76q137 39 151 127q-10 134 -359 154q-349 -20 -359 -154q12 -88 151 -127q98 -18 98 -76q0 -54 -86 -53q-270 70 -288 256z M-784 1544q0 21 8.5 39t23 31.5t34 21.5t41.5 8t41.5 -8t34 -21.5t23 -31.5t8.5 -39t-8.5 -39t-23 -31.5t-34 -21.5t-41.5 -8t-41.5 8t-34 21.5t-23 31.5t-8.5 39zM-729 1874.95v387.011h109v-387.011h-109z" />
<glyph unicode="&#xebb;&#xec8;" horiz-adv-x="0" d="M-1145 1504q0 59 25 104t67 77t95.5 53t110 33t112 17t100.5 5q101 0 197 -29t170.5 -86t119.5 -141.5t45 -195.5h-137q0 90 -35.5 152.5t-94 100.5t-134 55t-154.5 17q-18 0 -40.5 -2t-45 -5.5t-43.5 -10t-37 -15.5q31 -29 44.5 -61.5t13.5 -77.5q0 -38 -18 -69.5 t-47 -55t-64.5 -36.5t-69.5 -13q-39 0 -72 14.5t-57 39.5t-37.5 58.5t-13.5 71.5zM-1041 1504q0 -37 26.5 -63.5t63.5 -26.5q19 0 35.5 7t28.5 19.5t19 29t7 34.5q0 38 -26 64.5t-64 26.5q-18 0 -34.5 -7t-29 -19.5t-19.5 -29t-7 -35.5zM-679 1874.95v387.011h109v-387.011 h-109z" />
<glyph unicode="&#xecd;&#xec9;" horiz-adv-x="0" d="M-839 1537q0 47 17.5 88t47.5 71.5t71 48t88 17.5q45 0 85 -16.5t71 -46t49 -71t18 -91.5q0 -43 -17.5 -83t-47.5 -70.5t-70.5 -49t-87.5 -18.5q-45 0 -85.5 16.5t-71 45.5t-49 70t-18.5 89zM-716 1541q0 -39 26.5 -69.5t74.5 -30.5q17 0 34.5 6.5t32 19t24 31t9.5 43.5 q0 21 -8 39t-21.5 31.5t-31.5 21t-39 7.5q-22 0 -40.5 -8.5t-32 -22t-21 -31.5t-7.5 -37zM-774 1889q0 26 10.5 43t28 29t39 20.5t42.5 17.5q19 8 37.5 15.5t32.5 16t22.5 19.5t8.5 26q0 12 -9.5 23.5t-26.5 11.5q-11 0 -22.5 -9t-11.5 -19q0 -4 -1 -6t5 -11l-114 -37 q-2 14 -2.5 19t-0.5 12q0 31 11.5 57.5t32 45.5t49 29.5t61.5 10.5q30 0 57.5 -10.5t48.5 -28.5t33.5 -42.5t12.5 -52.5q0 -37 -21 -73q29 3 61 6.5t67.5 8.5t73.5 13t59 20q16 12 32 24.5t29 30t21.5 41t10.5 57.5l128 -61q-11 -54 -41 -93.5t-73 -66.5t-95 -44.5 t-122 -26.5t-125 -12.5t-103 -3.5h-246z" />
<glyph unicode="&#xeb1;&#xec9;" horiz-adv-x="0" d="M-1145 1583q0 39 13.5 72.5t37.5 58t57 39t72 14.5q34 0 69.5 -13t64.5 -36t47 -55t18 -70q0 -43 -13.5 -75.5t-44.5 -63.5q17 -8 38.5 -14t44 -10.5t44 -6.5t39.5 -2q79 0 154.5 17t134 55.5t94 101t35.5 154.5h137q1 -111 -44 -196t-120 -142.5t-171 -87t-197 -29.5 q-45 0 -100.5 5t-112 17.5t-110 34t-95.5 53.5t-67 76t-25 103zM-1041 1583q0 -37 26.5 -63.5t63.5 -26.5q19 0 35.5 7t28.5 19.5t19 29t7 34.5q0 38 -26 64t-64 26q-18 0 -34.5 -7t-29 -19t-19.5 -28.5t-7 -35.5zM-1023 1889q0 26 10.5 43t28 29t39 20.5t42.5 17.5 q19 8 37.5 15.5t32.5 16t22.5 19.5t8.5 26q0 12 -9.5 23.5t-26.5 11.5q-11 0 -22.5 -9t-11.5 -19q0 -4 -1 -6t5 -11l-114 -37q-2 14 -2.5 19t-0.5 12q0 31 11.5 57.5t32 45.5t49 29.5t61.5 10.5q30 0 57.5 -10.5t48.5 -28.5t33.5 -42.5t12.5 -52.5q0 -37 -21 -73 q29 3 61 6.5t67.5 8.5t73.5 13t59 20q16 12 32 24.5t29 30t21.5 41t10.5 57.5l128 -61q-11 -54 -41 -93.5t-73 -66.5t-95 -44.5t-122 -26.5t-125 -12.5t-103 -3.5h-246z" />
<glyph unicode="&#xeb4;&#xec9;" horiz-adv-x="0" d="M-1161 1571q14 255 484 278q470 -23 484 -278q-17 -185 -288 -256q-86 -1 -86 53q0 58 98 76q137 39 151 127q-10 134 -359 154q-349 -20 -359 -154q12 -88 151 -127q98 -18 98 -76q0 -54 -86 -53q-270 70 -288 256zM-824 1889q0 26 10.5 43t28 29t39 20.5t42.5 17.5 q19 8 37.5 15.5t32.5 16t22.5 19.5t8.5 26q0 12 -9.5 23.5t-26.5 11.5q-11 0 -22.5 -9t-11.5 -19q0 -4 -1 -6t5 -11l-114 -37q-2 14 -2.5 19t-0.5 12q0 31 11.5 57.5t32 45.5t49 29.5t61.5 10.5q30 0 57.5 -10.5t48.5 -28.5t33.5 -42.5t12.5 -52.5q0 -37 -21 -73 q29 3 61 6.5t67.5 8.5t73.5 13t59 20q16 12 32 24.5t29 30t21.5 41t10.5 57.5l128 -61q-11 -54 -41 -93.5t-73 -66.5t-95 -44.5t-122 -26.5t-125 -12.5t-103 -3.5h-246z" />
<glyph unicode="&#xeb5;&#xec9;" horiz-adv-x="0" d="M-1161 1571q14 255 484 278q470 -23 484 -278q-4 -72 -33 -101l-28 -30q107 2 193 33q67 -44 24 -123q-191 -44 -444 -35q-86 -1 -86 53q0 58 98 76q137 39 151 127q-10 134 -359 154q-349 -20 -359 -154q12 -88 151 -127q98 -18 98 -76q0 -54 -86 -53q-270 70 -288 256z M-824 1889q0 26 10.5 43t28 29t39 20.5t42.5 17.5q19 8 37.5 15.5t32.5 16t22.5 19.5t8.5 26q0 12 -9.5 23.5t-26.5 11.5q-11 0 -22.5 -9t-11.5 -19q0 -4 -1 -6t5 -11l-114 -37q-2 14 -2.5 19t-0.5 12q0 31 11.5 57.5t32 45.5t49 29.5t61.5 10.5q30 0 57.5 -10.5t48.5 -28.5 t33.5 -42.5t12.5 -52.5q0 -37 -21 -73q29 3 61 6.5t67.5 8.5t73.5 13t59 20q16 12 32 24.5t29 30t21.5 41t10.5 57.5l128 -61q-11 -54 -41 -93.5t-73 -66.5t-95 -44.5t-122 -26.5t-125 -12.5t-103 -3.5h-246z" />
<glyph unicode="&#xeb6;&#xec9;" horiz-adv-x="0" d="M-1161 1571q14 255 484 278q470 -23 484 -278q-17 -185 -288 -256q-86 -1 -86 53q0 58 98 76q137 39 151 127q-10 134 -359 154q-349 -20 -359 -154q12 -88 151 -127q98 -18 98 -76q0 -54 -86 -53q-270 70 -288 256zM-784 1544q0 21 8.5 39t23 31.5t34 21.5t41.5 8 t41.5 -8t34 -21.5t23 -31.5t8.5 -39t-8.5 -39t-23 -31.5t-34 -21.5t-41.5 -8t-41.5 8t-34 21.5t-23 31.5t-8.5 39zM-824 1889q0 26 10.5 43t28 29t39 20.5t42.5 17.5q19 8 37.5 15.5t32.5 16t22.5 19.5t8.5 26q0 12 -9.5 23.5t-26.5 11.5q-11 0 -22.5 -9t-11.5 -19 q0 -4 -1 -6t5 -11l-114 -37q-2 14 -2.5 19t-0.5 12q0 31 11.5 57.5t32 45.5t49 29.5t61.5 10.5q30 0 57.5 -10.5t48.5 -28.5t33.5 -42.5t12.5 -52.5q0 -37 -21 -73q29 3 61 6.5t67.5 8.5t73.5 13t59 20q16 12 32 24.5t29 30t21.5 41t10.5 57.5l128 -61q-11 -54 -41 -93.5 t-73 -66.5t-95 -44.5t-122 -26.5t-125 -12.5t-103 -3.5h-246z" />
<glyph unicode="&#xeb7;&#xec9;" horiz-adv-x="0" d="M-1161 1571q14 255 484 278q470 -23 484 -278q-4 -72 -33 -101l-28 -30q107 2 193 33q67 -44 24 -123q-191 -44 -444 -35q-86 -1 -86 53q0 58 98 76q137 39 151 127q-10 134 -359 154q-349 -20 -359 -154q12 -88 151 -127q98 -18 98 -76q0 -54 -86 -53q-270 70 -288 256z M-784 1544q0 21 8.5 39t23 31.5t34 21.5t41.5 8t41.5 -8t34 -21.5t23 -31.5t8.5 -39t-8.5 -39t-23 -31.5t-34 -21.5t-41.5 -8t-41.5 8t-34 21.5t-23 31.5t-8.5 39zM-824 1889q0 26 10.5 43t28 29t39 20.5t42.5 17.5q19 8 37.5 15.5t32.5 16t22.5 19.5t8.5 26q0 12 -9.5 23.5 t-26.5 11.5q-11 0 -22.5 -9t-11.5 -19q0 -4 -1 -6t5 -11l-114 -37q-2 14 -2.5 19t-0.5 12q0 31 11.5 57.5t32 45.5t49 29.5t61.5 10.5q30 0 57.5 -10.5t48.5 -28.5t33.5 -42.5t12.5 -52.5q0 -37 -21 -73q29 3 61 6.5t67.5 8.5t73.5 13t59 20q16 12 32 24.5t29 30t21.5 41 t10.5 57.5l128 -61q-11 -54 -41 -93.5t-73 -66.5t-95 -44.5t-122 -26.5t-125 -12.5t-103 -3.5h-246z" />
<glyph unicode="&#xebb;&#xec9;" horiz-adv-x="0" d="M-1145 1504q0 59 25 104t67 77t95.5 53t110 33t112 17t100.5 5q101 0 197 -29t170.5 -86t119.5 -141.5t45 -195.5h-137q0 90 -35.5 152.5t-94 100.5t-134 55t-154.5 17q-18 0 -40.5 -2t-45 -5.5t-43.5 -10t-37 -15.5q31 -29 44.5 -61.5t13.5 -77.5q0 -38 -18 -69.5 t-47 -55t-64.5 -36.5t-69.5 -13q-39 0 -72 14.5t-57 39.5t-37.5 58.5t-13.5 71.5zM-1041 1504q0 -37 26.5 -63.5t63.5 -26.5q19 0 35.5 7t28.5 19.5t19 29t7 34.5q0 38 -26 64.5t-64 26.5q-18 0 -34.5 -7t-29 -19.5t-19.5 -29t-7 -35.5zM-1023 1889q0 26 10.5 43t28 29 t39 20.5t42.5 17.5q19 8 37.5 15.5t32.5 16t22.5 19.5t8.5 26q0 12 -9.5 23.5t-26.5 11.5q-11 0 -22.5 -9t-11.5 -19q0 -4 -1 -6t5 -11l-114 -37q-2 14 -2.5 19t-0.5 12q0 31 11.5 57.5t32 45.5t49 29.5t61.5 10.5q30 0 57.5 -10.5t48.5 -28.5t33.5 -42.5t12.5 -52.5 q0 -37 -21 -73q29 3 61 6.5t67.5 8.5t73.5 13t59 20q16 12 32 24.5t29 30t21.5 41t10.5 57.5l128 -61q-11 -54 -41 -93.5t-73 -66.5t-95 -44.5t-122 -26.5t-125 -12.5t-103 -3.5h-246z" />
<glyph unicode="&#xeab;&#xebc;" horiz-adv-x="1400" d="M94 940q0 43 13.5 80t39 63.5t61.5 41.5t81 15q43 0 79.5 -13.5t63.5 -38.5t42.5 -61.5t15.5 -82.5q0 -45 -19 -96t-48 -106t-62.5 -112.5t-62.5 -115t-48 -113.5t-19 -108q0 -56 19 -91t51 -55t75 -27t91 -7q40 0 79 14t69 39t48.5 60.5t18.5 78.5v532q0 60 -20.5 118 t-71.5 112l120 88q16 -26 32.5 -50t36 -42t43 -28.5t53.5 -8.5q23 1 39.5 19t35.5 39t45.5 38.5t69.5 17.5q109 0 165 -56.5t56 -168.5v-731q0 -21 -2 -45.5t-6.5 -49t-11.5 -48t-17 -41.5h-158q15 21 26 46t18.5 52t11.5 54t4 53v663q0 22 -1.5 47t-9 45t-24 33.5 t-45.5 13.5q-16 0 -33.5 -18t-40 -39t-51.5 -39t-67 -18q-15 0 -36.5 4t-37.5 17q8 -45 10 -95t2 -92v-422q0 -78 -25 -139t-71 -102t-109.5 -62.5t-140.5 -21.5q-86 0 -155.5 16t-118 53.5t-75 99.5t-26.5 154q0 63 19 124.5t47.5 120t61.5 114t61 106.5q-33 0 -67 11 t-61.5 32.5t-45 53.5t-17.5 75zM191 955q0 -39 25 -64t62 -25q39 0 64 25t25 64q0 37 -25 62t-64 25q-37 0 -62 -25t-25 -62zM213 -234.5q9 39.5 31.5 70.5t56 51.5t72.5 26.5q50 9 97.5 2.5t92.5 -23.5t88 -39.5t85.5 -45t85.5 -41t87 -25.5q43 -11 83.5 4.5t77 43 t67.5 59.5t57 56l72 -121q-30 -33 -72 -69t-89.5 -63.5t-98 -42t-97.5 -3.5q-40 4 -82.5 16.5t-83 30.5t-77.5 39.5t-66 43.5q5 -37 -7 -72.5t-34.5 -65t-53.5 -49.5t-64 -26q-39 -6 -77.5 1t-70 26.5t-53 52t-27.5 78.5q-9 45 0 84.5zM317 -282q0 -37 25.5 -62.5 t62.5 -25.5t62.5 25.5t25.5 62.5t-25.5 62.5t-62.5 25.5t-62.5 -25.5t-25.5 -62.5z" />
<glyph unicode="&#xecd;&#xeb2;" horiz-adv-x="1030" d="M-134 1537q0 47 17.5 88t47.5 71.5t71 48t88 17.5q45 0 85 -16.5t71 -46t49 -71t18 -91.5q0 -43 -17.5 -83t-47.5 -70.5t-70.5 -49t-87.5 -18.5q-45 0 -85.5 16.5t-71 45.5t-49 70t-18.5 89zM-11 1541q0 -39 26.5 -69.5t74.5 -30.5q17 0 34.5 6.5t32 19t24 31t9.5 43.5 q0 21 -8 39t-21.5 31.5t-31.5 21t-39 7.5q-22 0 -40.5 -8.5t-32 -22t-21 -31.5t-7.5 -37zM106 815q0 61 32 119.5t84.5 104t120 73t138.5 27.5q79 0 156 -25t137 -71.5t97 -113t37 -150.5v-558q1 -6 -0.5 -22.5t-4.5 -39t-7 -48t-8 -48.5t-7.5 -40t-5.5 -23h-155 q3 6 11.5 34.5t18 65t16.5 75t7 65.5v561q0 45 -28.5 83t-72 65t-95.5 42t-98 15q-32 0 -65 -6.5t-62.5 -17t-52 -24.5t-32.5 -29q19 9 31.5 11.5t32.5 2.5q43 0 77 -14t57.5 -38.5t35.5 -58t12 -72.5q0 -41 -14 -75.5t-39 -60t-59 -39.5t-74 -14q-57 0 -99 17t-69 49 t-40 77t-13 101zM240 758q0 -39 26 -64t63 -25t62 25t25 64q0 37 -25 62t-62 25t-63 -25t-26 -62z" />
<glyph unicode="&#xec8;&#xecd;&#xeb2;" horiz-adv-x="1030" d="M32 1874.95v387.011h109v-387.011h-109zM-134 1537q0 47 17.5 88t47.5 71.5t71 48t88 17.5q45 0 85 -16.5t71 -46t49 -71t18 -91.5q0 -43 -17.5 -83t-47.5 -70.5t-70.5 -49t-87.5 -18.5q-45 0 -85.5 16.5t-71 45.5t-49 70t-18.5 89zM-11 1541q0 -39 26.5 -69.5 t74.5 -30.5q17 0 34.5 6.5t32 19t24 31t9.5 43.5q0 21 -8 39t-21.5 31.5t-31.5 21t-39 7.5q-22 0 -40.5 -8.5t-32 -22t-21 -31.5t-7.5 -37zM106 815q0 61 32 119.5t84.5 104t120 73t138.5 27.5q79 0 156 -25t137 -71.5t97 -113t37 -150.5v-558q1 -6 -0.5 -22.5t-4.5 -39 t-7 -48t-8 -48.5t-7.5 -40t-5.5 -23h-155q3 6 11.5 34.5t18 65t16.5 75t7 65.5v561q0 45 -28.5 83t-72 65t-95.5 42t-98 15q-32 0 -65 -6.5t-62.5 -17t-52 -24.5t-32.5 -29q19 9 31.5 11.5t32.5 2.5q43 0 77 -14t57.5 -38.5t35.5 -58t12 -72.5q0 -41 -14 -75.5t-39 -60 t-59 -39.5t-74 -14q-57 0 -99 17t-69 49t-40 77t-13 101zM240 758q0 -39 26 -64t63 -25t62 25t25 64q0 37 -25 62t-62 25t-63 -25t-26 -62z" />
<glyph unicode="&#xec9;&#xecd;&#xeb2;" horiz-adv-x="1030" d="M-134 1537q0 47 17.5 88t47.5 71.5t71 48t88 17.5q45 0 85 -16.5t71 -46t49 -71t18 -91.5q0 -43 -17.5 -83t-47.5 -70.5t-70.5 -49t-87.5 -18.5q-45 0 -85.5 16.5t-71 45.5t-49 70t-18.5 89zM-11 1541q0 -39 26.5 -69.5t74.5 -30.5q17 0 34.5 6.5t32 19t24 31t9.5 43.5 q0 21 -8 39t-21.5 31.5t-31.5 21t-39 7.5q-22 0 -40.5 -8.5t-32 -22t-21 -31.5t-7.5 -37zM106 815q0 61 32 119.5t84.5 104t120 73t138.5 27.5q79 0 156 -25t137 -71.5t97 -113t37 -150.5v-558q1 -6 -0.5 -22.5t-4.5 -39t-7 -48t-8 -48.5t-7.5 -40t-5.5 -23h-155 q3 6 11.5 34.5t18 65t16.5 75t7 65.5v561q0 45 -28.5 83t-72 65t-95.5 42t-98 15q-32 0 -65 -6.5t-62.5 -17t-52 -24.5t-32.5 -29q19 9 31.5 11.5t32.5 2.5q43 0 77 -14t57.5 -38.5t35.5 -58t12 -72.5q0 -41 -14 -75.5t-39 -60t-59 -39.5t-74 -14q-57 0 -99 17t-69 49 t-40 77t-13 101zM240 758q0 -39 26 -64t63 -25t62 25t25 64q0 37 -25 62t-62 25t-63 -25t-26 -62zM72 1889q0 26 10.5 43t28 29t39 20.5t42.5 17.5q19 8 37.5 15.5t32.5 16t22.5 19.5t8.5 26q0 12 -9.5 23.5t-26.5 11.5q-11 0 -22.5 -9t-11.5 -19q0 -4 -1 -6t5 -11l-114 -37 q-2 14 -2.5 19t-0.5 12q0 31 11.5 57.5t32 45.5t49 29.5t61.5 10.5q30 0 57.5 -10.5t48.5 -28.5t33.5 -42.5t12.5 -52.5q0 -37 -21 -73q29 3 61 6.5t67.5 8.5t73.5 13t59 20q16 12 32 24.5t29 30t21.5 41t10.5 57.5l128 -61q-11 -54 -41 -93.5t-73 -66.5t-95 -44.5 t-122 -26.5t-125 -12.5t-103 -3.5h-246z" />
<glyph unicode="&#xeca;&#xecd;&#xeb2;" horiz-adv-x="1030" d="M-134 1537q0 47 17.5 88t47.5 71.5t71 48t88 17.5q45 0 85 -16.5t71 -46t49 -71t18 -91.5q0 -43 -17.5 -83t-47.5 -70.5t-70.5 -49t-87.5 -18.5q-45 0 -85.5 16.5t-71 45.5t-49 70t-18.5 89zM-11 1541q0 -39 26.5 -69.5t74.5 -30.5q17 0 34.5 6.5t32 19t24 31t9.5 43.5 q0 21 -8 39t-21.5 31.5t-31.5 21t-39 7.5q-22 0 -40.5 -8.5t-32 -22t-21 -31.5t-7.5 -37zM106 815q0 61 32 119.5t84.5 104t120 73t138.5 27.5q79 0 156 -25t137 -71.5t97 -113t37 -150.5v-558q1 -6 -0.5 -22.5t-4.5 -39t-7 -48t-8 -48.5t-7.5 -40t-5.5 -23h-155 q3 6 11.5 34.5t18 65t16.5 75t7 65.5v561q0 45 -28.5 83t-72 65t-95.5 42t-98 15q-32 0 -65 -6.5t-62.5 -17t-52 -24.5t-32.5 -29q19 9 31.5 11.5t32.5 2.5q43 0 77 -14t57.5 -38.5t35.5 -58t12 -72.5q0 -41 -14 -75.5t-39 -60t-59 -39.5t-74 -14q-57 0 -99 17t-69 49 t-40 77t-13 101zM240 758q0 -39 26 -64t63 -25t62 25t25 64q0 37 -25 62t-62 25t-63 -25t-26 -62zM125 2031q0 36 17.5 65t45.5 48.5t64 30t74 10.5q17 0 37.5 -7.5t40 -18.5t37 -24.5t28.5 -25.5q24 30 61 54t82 24q34 0 69.5 -13t64.5 -32.5t47 -44t18 -46.5 q14 18 23.5 32t16 27.5t12 29t11.5 37.5q29 -3 45.5 -13t27.5 -31q-15 -49 -36.5 -89.5t-53.5 -73t-78.5 -57.5t-110.5 -42q-24 4 -38 19.5t-18 37.5q10 10 23.5 18.5t26 19.5t21 25.5t8.5 35.5q0 26 -22 40t-59 15q-27 0 -45.5 -17t-33.5 -37t-29 -37t-33 -17 q-17 0 -31.5 16.5t-30.5 37t-35 37t-46 16.5q-32 0 -55 -11t-23 -41q0 -22 10.5 -38.5t25.5 -29.5t30.5 -23.5t25.5 -20.5q-26 -44 -68 -51q-68 28 -108 67t-39 98z" />
<glyph unicode="&#xecb;&#xecd;&#xeb2;" horiz-adv-x="1030" d="M-134 1537q0 47 17.5 88t47.5 71.5t71 48t88 17.5q45 0 85 -16.5t71 -46t49 -71t18 -91.5q0 -43 -17.5 -83t-47.5 -70.5t-70.5 -49t-87.5 -18.5q-45 0 -85.5 16.5t-71 45.5t-49 70t-18.5 89zM-11 1541q0 -39 26.5 -69.5t74.5 -30.5q17 0 34.5 6.5t32 19t24 31t9.5 43.5 q0 21 -8 39t-21.5 31.5t-31.5 21t-39 7.5q-22 0 -40.5 -8.5t-32 -22t-21 -31.5t-7.5 -37zM106 815q0 61 32 119.5t84.5 104t120 73t138.5 27.5q79 0 156 -25t137 -71.5t97 -113t37 -150.5v-558q1 -6 -0.5 -22.5t-4.5 -39t-7 -48t-8 -48.5t-7.5 -40t-5.5 -23h-155 q3 6 11.5 34.5t18 65t16.5 75t7 65.5v561q0 45 -28.5 83t-72 65t-95.5 42t-98 15q-32 0 -65 -6.5t-62.5 -17t-52 -24.5t-32.5 -29q19 9 31.5 11.5t32.5 2.5q43 0 77 -14t57.5 -38.5t35.5 -58t12 -72.5q0 -41 -14 -75.5t-39 -60t-59 -39.5t-74 -14q-57 0 -99 17t-69 49 t-40 77t-13 101zM240 758q0 -39 26 -64t63 -25t62 25t25 64q0 37 -25 62t-62 25t-63 -25t-26 -62zM-91 2004v122h122l-1 130h121v-130h118v-122l-119 1l-1 -125h-119v125z" />
<glyph unicode="&#xeab;&#xe87;" horiz-adv-x="2331" d="M86 940q0 43 13.5 80t39 63.5t61.5 41.5t81 15q43 0 79.5 -13.5t63.5 -38.5t42.5 -61.5t15.5 -82.5q0 -45 -19 -96t-48 -106t-62.5 -112.5t-62.5 -115t-48 -113.5t-19 -108q0 -56 19 -91t51 -55t75 -27t91 -7q40 0 79 14t69 39t48.5 60.5t18.5 78.5v532q0 60 -20.5 118 t-71.5 112l120 88q16 -26 32.5 -50t36 -42t43 -28.5t53.5 -8.5q23 1 39.5 19t35.5 39t45.5 38.5t69.5 17.5q109 0 165 -56.5t56 -168.5v-731q0 -21 -2 -45.5t-6.5 -49t-11.5 -48t-17 -41.5h-158q15 21 26 46t18.5 52t11.5 54t4 53v663q0 22 -1.5 47t-9 45t-24 33.5 t-45.5 13.5q-16 0 -33.5 -18t-40 -39t-51.5 -39t-67 -18q-15 0 -36.5 4t-37.5 17q8 -45 10 -95t2 -92v-422q0 -78 -25 -139t-71 -102t-109.5 -62.5t-140.5 -21.5q-86 0 -155.5 16t-118 53.5t-75 99.5t-26.5 154q0 63 19 124.5t47.5 120t61.5 114t61 106.5q-33 0 -67 11 t-61.5 32.5t-45 53.5t-17.5 75zM183 955q0 -39 25 -64t62 -25q39 0 64 25t25 64q0 37 -25 62t-64 25q-37 0 -62 -25t-25 -62zM1456 815q0 61 32 119.5t84.5 104t120 73.5t138.5 28q79 0 156 -25t137 -72t97 -113.5t37 -150.5v-716q0 -83 -23 -149.5t-61 -117.5t-88 -88.5 t-104 -63.5q-48 -22 -115.5 -28.5t-138.5 0t-136 24.5t-107 45l54 118q35 -24 87 -39t108 -20.5t109.5 1t91.5 26.5q40 20 74.5 48.5t59.5 63.5t39.5 77.5t14.5 90.5v750q0 45 -28.5 83t-72 65.5t-95.5 42.5t-98 15q-32 0 -65.5 -6.5t-62.5 -17t-51.5 -25t-32.5 -29.5 q19 9 29.5 11.5t19.5 2.5h15q43 0 77 -14t57.5 -38.5t35.5 -58t12 -72.5q0 -41 -14 -75.5t-39 -60t-59 -39.5t-74 -14q-57 0 -99 17t-69 49t-40 77t-13 101zM1590 758q0 -39 26 -64t63 -25t62 25t25 64q0 37 -25 62t-62 25t-63 -25t-26 -62z" />
<glyph unicode="&#xeab;&#xe8d;" horiz-adv-x="2720" d="M86 940q0 43 13.5 80t39 63.5t61.5 41.5t81 15q43 0 79.5 -13.5t63.5 -38.5t42.5 -61.5t15.5 -82.5q0 -45 -19 -96t-48 -106t-62.5 -112.5t-62.5 -115t-48 -113.5t-19 -108q0 -56 19 -91t51 -55t75 -27t91 -7q40 0 79 14t69 39t48.5 60.5t18.5 78.5v532q0 60 -20.5 118 t-71.5 112l120 88q16 -26 32.5 -50t36 -42t43 -28.5t53.5 -8.5q23 1 39.5 19t35.5 39t45.5 38.5t69.5 17.5q109 0 165 -56.5t56 -168.5v-731q0 -21 -2 -45.5t-6.5 -49t-11.5 -48t-17 -41.5h-158q15 21 26 46t18.5 52t11.5 54t4 53v663q0 22 -1.5 47t-9 45t-24 33.5 t-45.5 13.5q-16 0 -33.5 -18t-40 -39t-51.5 -39t-67 -18q-15 0 -36.5 4t-37.5 17q8 -45 10 -95t2 -92v-422q0 -78 -25 -139t-71 -102t-109.5 -62.5t-140.5 -21.5q-86 0 -155.5 16t-118 53.5t-75 99.5t-26.5 154q0 63 19 124.5t47.5 120t61.5 114t61 106.5q-33 0 -67 11 t-61.5 32.5t-45 53.5t-17.5 75zM183 955q0 -39 25 -64t62 -25q39 0 64 25t25 64q0 37 -25 62t-64 25q-37 0 -62 -25t-25 -62zM1516 336q0 30 10 58t27.5 52t41.5 42t52 28q-29 18 -53.5 45t-41.5 58.5t-26.5 66.5t-9.5 69q0 100 32.5 173t82 120t107.5 69.5t109 22.5 q39 0 73 -15t59 -41.5t39.5 -61.5t14.5 -75q0 -29 -12.5 -60.5t-35 -58t-54 -43.5t-70.5 -17q-66 0 -115 31t-69 97q-10 -21 -15 -35.5t-7.5 -28.5t-3 -29t-0.5 -36q0 -53 25.5 -87.5t65 -55.5t86.5 -29t89 -7q26 1 47.5 2t49.5 5l14 -134q-18 -1 -53 -4t-77 -9t-85.5 -16 t-79.5 -24.5t-59 -34.5t-23 -47q0 -26 12.5 -49t32.5 -43.5t45 -37.5t50 -30q37 -19 78 -29.5t79.5 -16t71.5 -6.5t56 -1q58 0 119.5 14t111 45.5t81.5 81t32 121.5v495q0 28 -2 61.5t-8.5 68t-18 66t-29.5 54.5h155q8 -19 15.5 -41.5t13 -46t9 -46.5t3.5 -44v-637 q0 -56 -23.5 -102t-62 -82t-88.5 -62.5t-103.5 -44t-106 -26t-96.5 -8.5q-78 0 -168 13.5t-177 51.5q-45 20 -85 48t-69 64.5t-46 81t-17 97.5zM1761 956q0 -37 26.5 -63.5t65.5 -26.5q37 0 60 26.5t23 63.5q0 36 -23 61t-60 25q-39 0 -65.5 -23.5t-26.5 -62.5z" />
<glyph unicode="&#xeab;&#xe99;" horiz-adv-x="2720" d="M86 940q0 43 13.5 80t39 63.5t61.5 41.5t81 15q43 0 79.5 -13.5t63.5 -38.5t42.5 -61.5t15.5 -82.5q0 -45 -19 -96t-48 -106t-62.5 -112.5t-62.5 -115t-48 -113.5t-19 -108q0 -56 19 -91t51 -55t75 -27t91 -7q40 0 79 14t69 39t48.5 60.5t18.5 78.5v532q0 60 -20.5 118 t-71.5 112l120 88q16 -26 32.5 -50t36 -42t43 -28.5t53.5 -8.5q23 1 39.5 19t35.5 39t45.5 38.5t69.5 17.5q109 0 165 -56.5t56 -168.5v-731q0 -21 -2 -45.5t-6.5 -49t-11.5 -48t-17 -41.5h-158q15 21 26 46t18.5 52t11.5 54t4 53v663q0 22 -1.5 47t-9 45t-24 33.5 t-45.5 13.5q-16 0 -33.5 -18t-40 -39t-51.5 -39t-67 -18q-15 0 -36.5 4t-37.5 17q8 -45 10 -95t2 -92v-422q0 -78 -25 -139t-71 -102t-109.5 -62.5t-140.5 -21.5q-86 0 -155.5 16t-118 53.5t-75 99.5t-26.5 154q0 63 19 124.5t47.5 120t61.5 114t61 106.5q-33 0 -67 11 t-61.5 32.5t-45 53.5t-17.5 75zM183 955q0 -39 25 -64t62 -25q39 0 64 25t25 64q0 37 -25 62t-64 25q-37 0 -62 -25t-25 -62zM1476 956q0 91 50.5 138t141.5 47q45 0 84 -15.5t67.5 -43t45 -65.5t16.5 -83v-535q0 -69 31 -120t78.5 -85t103.5 -50.5t106 -16.5q39 0 82 8 t79 26.5t59.5 50t23.5 79.5v578q0 27 -3 60.5t-10 67.5t-19.5 66.5t-30.5 56.5h155q19 -45 31 -98.5t12 -101.5v-680q0 -38 -16 -71t-42.5 -60.5t-61 -49.5t-72 -36.5t-75 -22.5t-69.5 -8q-69 0 -121.5 8.5t-93 22t-71 30t-56 32t-47.5 28t-45 18.5q-21 -27 -45.5 -47.5 t-57 -37.5t-74.5 -30.5t-98 -25.5l-15 133q42 9 83 26t73 49.5t51.5 83t19.5 126.5v383q-17 -11 -41 -16.5t-41 -5.5q-85 0 -136.5 49.5t-51.5 137.5zM1573 955q0 -37 25 -62.5t64 -25.5q37 0 63.5 25.5t26.5 62.5q0 19 -7 35t-19.5 28t-29 18.5t-34.5 6.5q-38 0 -63.5 -25 t-25.5 -63z" />
<glyph unicode="&#xeab;&#xea1;" horiz-adv-x="2673" d="M86 940q0 43 13.5 80t39 63.5t61.5 41.5t81 15q43 0 79.5 -13.5t63.5 -38.5t42.5 -61.5t15.5 -82.5q0 -45 -19 -96t-48 -106t-62.5 -112.5t-62.5 -115t-48 -113.5t-19 -108q0 -56 19 -91t51 -55t75 -27t91 -7q40 0 79 14t69 39t48.5 60.5t18.5 78.5v532q0 60 -20.5 118 t-71.5 112l120 88q16 -26 32.5 -50t36 -42t43 -28.5t53.5 -8.5q23 1 39.5 19t35.5 39t45.5 38.5t69.5 17.5q109 0 165 -56.5t56 -168.5v-731q0 -21 -2 -45.5t-6.5 -49t-11.5 -48t-17 -41.5h-158q15 21 26 46t18.5 52t11.5 54t4 53v663q0 22 -1.5 47t-9 45t-24 33.5 t-45.5 13.5q-16 0 -33.5 -18t-40 -39t-51.5 -39t-67 -18q-15 0 -36.5 4t-37.5 17q8 -45 10 -95t2 -92v-422q0 -78 -25 -139t-71 -102t-109.5 -62.5t-140.5 -21.5q-86 0 -155.5 16t-118 53.5t-75 99.5t-26.5 154q0 63 19 124.5t47.5 120t61.5 114t61 106.5q-33 0 -67 11 t-61.5 32.5t-45 53.5t-17.5 75zM183 955q0 -39 25 -64t62 -25q39 0 64 25t25 64q0 37 -25 62t-64 25q-37 0 -62 -25t-25 -62zM1466 166q0 36 13 69.5t37.5 59.5t59 41.5t77.5 15.5q17 0 40.5 -3.5t46.5 -10.5v569q0 23 -5 52t-13.5 58.5t-20 56.5t-24.5 46h155 q12 -22 20 -49.5t13.5 -57t7.5 -58t2 -52.5v-612q0 -62 27.5 -97.5t70.5 -53.5t95 -22.5t100 -4.5q47 0 95 12t87 37t63.5 64t24.5 94v605q0 25 -6 52t-15.5 53t-20.5 49t-21 41h155q14 -19 22.5 -45t13 -53.5t6 -55t1.5 -49.5v-630q0 -75 -37 -132.5t-95 -96.5 t-127.5 -58.5t-135.5 -19.5q-40 0 -86 2.5t-91.5 11t-87.5 25t-74 44.5q-14 -22 -36.5 -37.5t-49 -25t-53 -14t-47.5 -4.5q-46 0 -81 14t-58.5 38.5t-35.5 58.5t-12 73zM1565 166q0 -37 25.5 -62.5t62.5 -25.5t62.5 25.5t25.5 62.5t-25.5 62.5t-62.5 25.5t-62.5 -25.5 t-25.5 -62.5z" />
<glyph unicode="&#xeab;&#xea3;" horiz-adv-x="2654" d="M86 940q0 43 13.5 80t39 63.5t61.5 41.5t81 15q43 0 79.5 -13.5t63.5 -38.5t42.5 -61.5t15.5 -82.5q0 -45 -19 -96t-48 -106t-62.5 -112.5t-62.5 -115t-48 -113.5t-19 -108q0 -56 19 -91t51 -55t75 -27t91 -7q40 0 79 14t69 39t48.5 60.5t18.5 78.5v532q0 60 -20.5 118 t-71.5 112l120 88q16 -26 32.5 -50t36 -42t43 -28.5t53.5 -8.5q23 1 39.5 19t35.5 39t45.5 38.5t69.5 17.5q109 0 165 -56.5t56 -168.5v-731q0 -21 -2 -45.5t-6.5 -49t-11.5 -48t-17 -41.5h-158q15 21 26 46t18.5 52t11.5 54t4 53v663q0 22 -1.5 47t-9 45t-24 33.5 t-45.5 13.5q-16 0 -33.5 -18t-40 -39t-51.5 -39t-67 -18q-15 0 -36.5 4t-37.5 17q8 -45 10 -95t2 -92v-422q0 -78 -25 -139t-71 -102t-109.5 -62.5t-140.5 -21.5q-86 0 -155.5 16t-118 53.5t-75 99.5t-26.5 154q0 63 19 124.5t47.5 120t61.5 114t61 106.5q-33 0 -67 11 t-61.5 32.5t-45 53.5t-17.5 75zM183 955q0 -39 25 -64t62 -25q39 0 64 25t25 64q0 37 -25 62t-64 25q-37 0 -62 -25t-25 -62zM1508 308q0 56 18 97t48 67.5t68.5 39.5t79.5 13q39 0 72 -14t56.5 -39t36.5 -59.5t13 -74.5q0 -35 -8.5 -67.5t-27 -57.5t-47 -40.5t-68.5 -15.5 q78 -29 142.5 -37t118.5 -8q34 0 75.5 3t84 11.5t82.5 23.5t71.5 39t50.5 57.5t19 79.5q0 74 -27 121t-77.5 77.5t-123.5 51t-165 41.5q-49 11 -104.5 20.5t-110 21.5t-104.5 29t-88.5 43.5t-61.5 64.5t-23 93q-1 63 22.5 106t64 71t92.5 43t108.5 22t112 8t102.5 1 q83 0 155.5 -6.5t132.5 -29t106.5 -66.5t78.5 -119l-118 -63q-21 59 -57.5 90t-83.5 44.5t-101.5 15t-112.5 1.5q-76 0 -143 -3.5t-117.5 -16t-79 -36t-27.5 -62.5q1 -24 18.5 -41t46.5 -30t67 -22.5t79.5 -17t84 -14.5t80.5 -15q99 -20 191.5 -49t163.5 -77t113 -122 t41 -184q0 -64 -24 -114t-64.5 -87.5t-93.5 -63t-110.5 -42t-116 -23.5t-109.5 -7q-52 0 -109.5 9t-113.5 27.5t-106.5 45.5t-89 63.5t-61 82t-22.5 100.5zM1628 339q0 -18 7 -34t19 -28t27.5 -19t33.5 -7t34 7t28.5 19t19.5 28t7 34q0 37 -26 62.5t-63 25.5q-18 0 -33.5 -7 t-27.5 -19t-19 -28t-7 -34z" />
<glyph unicode="&#xeab;&#xea5;" horiz-adv-x="2720" d="M86 940q0 43 13.5 80t39 63.5t61.5 41.5t81 15q43 0 79.5 -13.5t63.5 -38.5t42.5 -61.5t15.5 -82.5q0 -45 -19 -96t-48 -106t-62.5 -112.5t-62.5 -115t-48 -113.5t-19 -108q0 -56 19 -91t51 -55t75 -27t91 -7q40 0 79 14t69 39t48.5 60.5t18.5 78.5v532q0 60 -20.5 118 t-71.5 112l120 88q16 -26 32.5 -50t36 -42t43 -28.5t53.5 -8.5q23 1 39.5 19t35.5 39t45.5 38.5t69.5 17.5q109 0 165 -56.5t56 -168.5v-731q0 -21 -2 -45.5t-6.5 -49t-11.5 -48t-17 -41.5h-158q15 21 26 46t18.5 52t11.5 54t4 53v663q0 22 -1.5 47t-9 45t-24 33.5 t-45.5 13.5q-16 0 -33.5 -18t-40 -39t-51.5 -39t-67 -18q-15 0 -36.5 4t-37.5 17q8 -45 10 -95t2 -92v-422q0 -78 -25 -139t-71 -102t-109.5 -62.5t-140.5 -21.5q-86 0 -155.5 16t-118 53.5t-75 99.5t-26.5 154q0 63 19 124.5t47.5 120t61.5 114t61 106.5q-33 0 -67 11 t-61.5 32.5t-45 53.5t-17.5 75zM183 955q0 -39 25 -64t62 -25q39 0 64 25t25 64q0 37 -25 62t-64 25q-37 0 -62 -25t-25 -62zM1516 281q0 81 33.5 137.5t87.5 92t122 51.5t137 16t118 -22.5t85 -60t62.5 -86.5t50.5 -102q19 -41 33.5 -76.5t27.5 -61.5t26.5 -41t30.5 -15 q24 0 41.5 21.5t29.5 55.5t19 78t11 90t5.5 91.5t1.5 81.5q4 100 -7 171t-32.5 119.5t-50 78.5t-59.5 49q-24 15 -60 26t-75 18t-77 10.5t-66 3.5q-29 0 -53.5 -0.5t-47 -2t-44.5 -4.5t-47 -9q-23 -5 -52.5 -12.5t-55.5 -18t-43.5 -25t-16.5 -33.5q0 -12 7 -22.5t16.5 -19.5 t18.5 -15.5t13 -10.5l-80 -100q-48 24 -79 65.5t-31 98.5q0 54 26 92.5t66.5 65t90 42.5t97.5 25q20 4 48.5 7t59 5.5t59 3.5t48.5 1q38 0 87.5 -4t100 -14t97 -26.5t78.5 -40.5q63 -48 102 -106.5t60.5 -123t29 -132.5t7.5 -134q0 -91 -4 -175t-19 -157q-11 -55 -29 -100.5 t-44 -78t-61.5 -50.5t-81.5 -18q-59 0 -94.5 23.5t-59 60t-41 81.5t-39.5 88q-22 42 -40 81t-41.5 68.5t-58 47t-90.5 17.5q-41 0 -80.5 -10.5t-70.5 -32t-49.5 -54t-18.5 -76.5q12 17 29.5 31t38.5 24.5t42.5 16.5t41.5 6q38 0 72.5 -13.5t60.5 -38t41.5 -58.5t15.5 -74 q0 -41 -13.5 -75t-38.5 -59.5t-59 -39.5t-75 -14q-59 0 -111.5 15t-92.5 50.5t-63.5 93t-23.5 142.5zM1720 166q0 -37 25 -62.5t62 -25.5q38 0 63.5 25.5t25.5 62.5t-25.5 62.5t-63.5 25.5q-37 0 -62 -25.5t-25 -62.5z" />
<glyph unicode="&#xeab;&#xea7;" horiz-adv-x="2662" d="M86 940q0 43 13.5 80t39 63.5t61.5 41.5t81 15q43 0 79.5 -13.5t63.5 -38.5t42.5 -61.5t15.5 -82.5q0 -45 -19 -96t-48 -106t-62.5 -112.5t-62.5 -115t-48 -113.5t-19 -108q0 -56 19 -91t51 -55t75 -27t91 -7q40 0 79 14t69 39t48.5 60.5t18.5 78.5v532q0 60 -20.5 118 t-71.5 112l120 88q16 -26 32.5 -50t36 -42t43 -28.5t53.5 -8.5q23 1 39.5 19t35.5 39t45.5 38.5t69.5 17.5q109 0 165 -56.5t56 -168.5v-731q0 -21 -2 -45.5t-6.5 -49t-11.5 -48t-17 -41.5h-158q15 21 26 46t18.5 52t11.5 54t4 53v663q0 22 -1.5 47t-9 45t-24 33.5 t-45.5 13.5q-16 0 -33.5 -18t-40 -39t-51.5 -39t-67 -18q-15 0 -36.5 4t-37.5 17q8 -45 10 -95t2 -92v-422q0 -78 -25 -139t-71 -102t-109.5 -62.5t-140.5 -21.5q-86 0 -155.5 16t-118 53.5t-75 99.5t-26.5 154q0 63 19 124.5t47.5 120t61.5 114t61 106.5q-33 0 -67 11 t-61.5 32.5t-45 53.5t-17.5 75zM183 955q0 -39 25 -64t62 -25q39 0 64 25t25 64q0 37 -25 62t-64 25q-37 0 -62 -25t-25 -62zM1516 316q0 47 16 85.5t45 65.5t68.5 41.5t86.5 14.5q84 -1 130 -53t46 -134q0 -75 -35 -123t-105 -56q21 -12 51 -20.5t61 -14t61 -8t51 -2.5 q68 0 140 11t130.5 41t96 84t37.5 141v318q0 84 -35.5 141t-92.5 92.5t-128 51t-141 15.5q-29 0 -66 -3.5t-75.5 -12.5t-75.5 -23.5t-66 -36.5t-47 -51.5t-18 -68.5h-135q0 61 22.5 109t60 84.5t86.5 62.5t103 42t109.5 23.5t105.5 7.5q100 0 195 -24t169 -75t119 -131.5 t45 -192.5v-338q0 -111 -47 -187.5t-123 -123.5t-171 -67.5t-191 -20.5q-46 0 -99 8.5t-107 26t-104 45t-88.5 64.5t-61.5 85t-23 107zM1636 340q0 -39 25 -64t64 -25q37 0 62 25t25 64q0 37 -25 62t-62 25q-39 0 -64 -25t-25 -62z" />
<glyph horiz-adv-x="0" />
<glyph horiz-adv-x="0" />
<glyph unicode="&#xd;" horiz-adv-x="569" />
<glyph unicode=" "  horiz-adv-x="512" />
<glyph unicode="&#x09;" horiz-adv-x="512" />
<glyph unicode="&#xa0;" horiz-adv-x="512" />
<glyph unicode="!" horiz-adv-x="569" d="M186 1064v386h208v-386l-48 -704h-112zM194 0v192h192v-192h-192z" />
<glyph unicode="&#x22;" horiz-adv-x="727" d="M106 1204v248h192v-248l-44 -255h-104zM434 1204v248h192v-248l-44 -255h-104z" />
<glyph unicode="#" d="M34 412v139h201l71 360l-272 2v141h304l80 398h135l-87 -396h335l80 396h136l-88 -394h167v-139h-199l-72 -363h271v-140h-287l-96 -416h-128l80 414h-327l-80 -414h-136l80 412h-168zM370 559h319l72 352h-319z" />
<glyph unicode="$" d="M90 395l160 32q22 -298 264 -309v556q-189 46 -318 166q-126 151 -52 392q101 233 370 238v86h95v-86q171 0 268 -92q83 -85 116 -249q-10 0 -176 -24q-15 105 -73 160q-47 45 -135 62v-493q7 -4 206.5 -92.5t209.5 -334.5q-24 -400 -416 -428v-183h-95v183 q-361 -2 -424 416zM337 1231q-105 -153 14 -290q57 -57 163 -83v469q-123 -17 -177 -96zM609 120q250 59 250 275q-10 175 -250 255v-530z" />
<glyph unicode="%" horiz-adv-x="1821" d="M112 1094q1 369 299 376q298 -7 299 -376q-1 -376 -299 -383q-298 7 -299 383zM263 1094q2 -262 148 -264q146 2 148 264q-2 254 -148 256q-146 -2 -148 -256zM411 0l783 1450h175l-783 -1450h-175zM1070 363q1 369 299 376q298 -7 299 -376q-1 -376 -299 -383 q-298 7 -299 383zM1221 363q2 -262 148 -264q146 2 148 264q-2 254 -148 256q-146 -2 -148 -256z" />
<glyph unicode="&#x26;" horiz-adv-x="1366" d="M105 392q5 233 345 435q-167 201 -161 315q14 312 352 316q294 -8 328 -304q-1 -213 -273 -350q116 -172 265 -329q57 91 64 192l183 -32q-47 -179 -127 -307q109 -125 215 -212q-8 -12 -112 -136q-87 63 -216 192q-163 -185 -415 -192q-423 23 -448 412zM297 404 q26 -254 260 -272q132 -2 300 176q-152 174 -319 399q-241 -131 -241 -303zM473 1162q-11 -74 58 -155.5t77 -90.5q177 122 177 234q7 151 -152 164q-154 -10 -160 -152z" />
<glyph unicode="'" horiz-adv-x="391" d="M106 1195v256h192v-256q-4 -14 -11 -48.5t-13.5 -73.5t-11 -74.5t-4.5 -50.5h-112l-2 18q-3 18 -7.5 44.5t-9 57.5t-9 58t-8 46.5t-4.5 22.5z" />
<glyph unicode="(" horiz-adv-x="682" d="M137 526q0 123 21 238.5t63.5 228t107.5 226t153 233.5h119q-66 -118 -119.5 -233t-91 -230t-57.5 -232t-20 -239q0 -190 48.5 -384t143.5 -378q23 -44 48 -86t48 -87h-119q-92 126 -157.5 244t-107 233.5t-61 231t-19.5 234.5z" />
<glyph unicode=")" horiz-adv-x="682" d="M98 -418q34 64 66.5 125.5t61 121.5t52.5 120.5t42 122.5q65 225 65 449q0 100 -10.5 193.5t-32 183t-55.5 177.5t-82 178q-26 51 -53.5 99.5t-53.5 98.5h120q43 -71 86.5 -143t82.5 -143.5t71 -140.5t52 -133q26 -86 38 -179t13 -195q0 -198 -59 -396t-180 -386 q-26 -39 -52 -76.5t-52 -76.5h-120z" />
<glyph unicode="*" horiz-adv-x="797" d="M73 1171q15 70 48 136q102 -33 217 -96q5 38 -4 101.5t2 137.5h114q11 -74 2 -137.5t-4 -101.5q115 63 217 96q33 -66 48 -136l-244 -56q92 -97 163 -183q-48 -48 -107 -80l-132 199l-132 -199q-59 32 -107 80q71 86 163 183z" />
<glyph unicode="+" horiz-adv-x="1196" d="M130 604v160h392v391h159v-391h392v-160h-392v-391h-159v391h-392z" />
<glyph unicode="," horiz-adv-x="569" d="M186 -215q30 18 46 29.5t26 26.5t18 38t22 65v56h-96v192h192v-263q-14 -41 -23.5 -68.5t-18.5 -46t-18 -30.5t-22 -22t-32 -21t-46 -28q-8 15 -11.5 23t-8 14t-10.5 13.5t-18 21.5z" />
<glyph unicode="-" horiz-adv-x="818" d="M31 385v150h620v-150h-620z" />
<glyph unicode="." horiz-adv-x="569" d="M202 0v192h192v-192h-192z" />
<glyph unicode="/" horiz-adv-x="569" d="M18 0l416 1478h135l-415 -1478h-136z" />
<glyph unicode="0" d="M97 742q0 183 29.5 315.5t87.5 222.5t144 136t199 46q238 0 353 -186t115 -554q0 -370 -117.5 -556t-346.5 -186q-240 0 -352 189t-112 573zM265 722q0 -310 74.5 -463t221.5 -153q76 0 132 40.5t92.5 117.5t54 185t17.5 273q0 174 -20 289t-57.5 187t-93 105t-125.5 33 q-146 0 -221 -152t-75 -462z" />
<glyph unicode="1" d="M234 941v146q33 10 73 32t82 51.5t83.5 64.5t78 72t65.5 73.5t45 69.5h100v-1450h-162v1156q-62 -44 -104 -74t-72.5 -49.5t-52 -32t-41.5 -21.5t-42 -17.5t-53 -20.5z" />
<glyph unicode="2" d="M74 0q-2 171 174 351q168 153 310 273q301 225 300 446q1 255 -293 278q-265 -18 -299 -308q-160 14 -160 25q60 405 464 401q429 -12 447 -404q8 -270 -319 -512q-382 -322 -404 -400h723v-150h-943z" />
<glyph unicode="3" d="M98 374l136 7q75 -270 319 -283q291 16 312 314q-5 342 -411 294l18 122q295 1 328 261q-8 244 -251 255q-190 -24 -234.5 -150.5t-43.5 -126.5q-3 0 -154 29q93 370 423 366q372 -15 419 -377q3 -182 -206 -295q295 -134 280 -370q-28 -408 -480 -440q-380 1 -455 394z " />
<glyph unicode="4" d="M42 357v148l663 943h124v-958h196v-133h-196v-357h-151v357h-636zM184 498h486v701z" />
<glyph unicode="5" d="M110 354l148 20q11 -62 36.5 -113t63 -87t87 -56t108.5 -20q68 0 128 27.5t104.5 76.5t70.5 116.5t26 146.5q0 78 -25 141.5t-69 108t-92.5 69t-133.5 24.5q-93 0 -163.5 -26.5t-127.5 -111.5l-146 21l145 759h707v-142h-575l-95 -466q95 99 291 99q91 0 171.5 -32.5 t141 -92.5t95.5 -144t35 -187q0 -108 -35.5 -200.5t-100.5 -160t-155.5 -106t-200.5 -38.5q-80 0 -157.5 27t-139 76.5t-100.5 118.5t-42 152z" />
<glyph unicode="6" d="M89 690q14 766 509 772q301 20 402 -326q-69 -41 -133 -36q-49 250 -277 244q-345 -17 -339 -613q94 194 359 204q389 -23 415 -470q-29 -465 -443 -485q-489 -3 -493 710zM287 465q20 -317 304 -359q248 20 280 346q-6 331 -292 349q-281 -30 -292 -336z" />
<glyph unicode="7" d="M114 1311v142h919v-123q-77 -98 -147.5 -207t-132.5 -226.5t-112.5 -239.5t-86.5 -236t-56 -221t-20 -200h-160q12 178 56 353t112 343t156 320.5t188 294.5h-716z" />
<glyph unicode="8" d="M97 412q0 112 44 190.5t137 132.5q25 14 50 27.5t50 27.5q-61 28 -103.5 58t-69.5 64.5t-39 80t-12 96.5q0 75 31 146t85.5 120.5t130 78t164.5 28.5q87 0 162.5 -26t130.5 -74t86.5 -120.5t31.5 -156.5q0 -113 -49 -178q-22 -29 -174 -128q77 -36 130.5 -73t86.5 -81 t48 -97t15 -120q0 -93 -34 -171.5t-95.5 -135.5t-148 -89t-190.5 -32q-96 0 -181.5 31.5t-149 88.5t-100.5 136.5t-37 175.5zM265 416q0 -64 24.5 -120.5t66 -98.5t96.5 -66.5t117 -24.5q64 0 118 23.5t93.5 64t62 95.5t22.5 119q0 66 -24.5 123t-66.5 98.5t-97 65 t-116 23.5q-60 0 -113.5 -25t-94 -67t-64.5 -96.5t-24 -113.5zM322 1093q0 -48 19 -96t52 -81t77.5 -52.5t94.5 -19.5q49 0 93 18t77.5 50t53 79.5t19.5 97.5q0 48 -20 91t-53.5 80.5t-77.5 56.5t-92 19q-53 0 -97.5 -20t-76.5 -57.5t-50.5 -79.5t-18.5 -86z" />
<glyph unicode="9" d="M97 962q0 96 32 193t90 163t139.5 105t181.5 39q241 0 367 -184.5t126 -528.5q0 -186 -33.5 -329.5t-98.5 -241t-160.5 -148t-220.5 -50.5q-87 0 -148 17.5t-106 56.5t-78 102t-62 155q9 2 29.5 4.5t43 4.5t43.5 3.5t33 1.5q6 -51 26.5 -93t53 -72t76.5 -46t97 -16 q72 0 129 29.5t99 78.5t69.5 112t42 130t15 133.5t-10.5 121.5q-51 -105 -142.5 -154.5t-209.5 -49.5q-90 0 -167.5 34t-134.5 95t-89 146.5t-32 187.5zM265 959q0 -68 24 -127t64.5 -103.5t95 -70t116.5 -25.5q60 0 108.5 26.5t85 72t61.5 107t37 132.5q0 76 -22.5 139.5 t-61.5 119t-91.5 81t-112.5 25.5q-62 0 -117 -31.5t-96.5 -92t-66 -124.5t-24.5 -129z" />
<glyph unicode=":" horiz-adv-x="569" d="M194 0v192h192v-192h-192zM194 847v191h192v-191h-192z" />
<glyph unicode=";" horiz-adv-x="569" d="M186 -207q31 15 50 34.5t30.5 40t18 40.5t13.5 36v56h-96v192h192v-255q-14 -49 -24 -79t-25.5 -51.5t-41 -40t-69.5 -45.5q-10 18 -15.5 27.5t-10 16t-9.5 12t-13 16.5zM202 847v191h192v-191h-192z" />
<glyph unicode="&#x37e;" horiz-adv-x="569" d="M186 -207q31 15 50 34.5t30.5 40t18 40.5t13.5 36v56h-96v192h192v-255q-14 -49 -24 -79t-25.5 -51.5t-41 -40t-69.5 -45.5q-10 18 -15.5 27.5t-10 16t-9.5 12t-13 16.5zM202 847v191h192v-191h-192z" />
<glyph unicode="&#x3c;" horiz-adv-x="1196" d="M130 625v159l943 399v-168l-751 -311l751 -330v-157z" />
<glyph unicode="=" horiz-adv-x="1196" d="M130 409v159h935v-159h-935zM130 840v160h935v-160h-935z" />
<glyph unicode="&#x3e;" horiz-adv-x="1196" d="M129 217v157l751 330l-751 311v168l943 -399v-159z" />
<glyph unicode="?" d="M106 1083q43 125 86.5 200t96.5 114.5t121 52t159 12.5q96 0 179.5 -28t145 -78.5t96.5 -121.5t35 -158q0 -51 -11.5 -96t-37 -88.5t-67 -88.5t-101.5 -97q-38 -33 -63 -55.5t-40.5 -39t-24 -29t-13.5 -26t-8.5 -30t-9.5 -39.5q-17 -71 -17 -130h-142v108 q26 87 63.5 161.5t88.5 128.5q36 38 75.5 72.5t72.5 70.5t54.5 77t21.5 92q0 52 -23.5 101.5t-64 88.5t-94.5 63t-115 24q-59 0 -109.5 -20t-90 -57.5t-66.5 -91.5t-37 -123q-32 2 -53 4t-37.5 5t-32 8.5t-37.5 13.5zM482 0v174h175v-174h-175z" />
<glyph unicode="@" horiz-adv-x="2079" d="M121 464q0 71 12 146t34 149.5t54.5 146.5t72.5 137.5t88 123t102 102.5q241 201 600 201q111 0 216 -25.5t198 -73t170.5 -116t133 -154.5t86.5 -188t31 -217q0 -89 -22.5 -175.5t-63 -164t-96.5 -144t-121.5 -114.5t-139 -75t-149.5 -27q-104 0 -136 41 q-13 34 -24.5 63.5t-22.5 55.5q-47 -47 -85 -78t-72.5 -49t-68.5 -25.5t-73 -7.5q-74 0 -137.5 35t-110.5 95t-73.5 140t-26.5 170q0 79 19.5 156t54.5 146t82.5 127.5t103.5 101.5t118.5 67t125.5 24q84 0 147 -36q21 -12 148 -139q3 9 8 27.5t10 39.5t9 42t5 34h168 l-169 -802q10 -40 25.5 -54t46.5 -14q44 0 90 23.5t88.5 63.5t80 94.5t65.5 115.5t44 126.5t16 128.5q0 88 -26 169.5t-72.5 152t-112 128t-144.5 98.5t-169 63.5t-187 22.5q-117 0 -223.5 -31t-198 -87t-165.5 -135t-126.5 -176t-81 -208.5t-28.5 -232.5 q0 -176 56.5 -315.5t165.5 -237t268.5 -149.5t364.5 -52q130 0 223.5 14.5t170 48.5t147 90.5t154.5 140.5h168q-73 -109 -159 -188.5t-189 -131.5t-223 -77t-260 -25q-236 0 -424 60.5t-319 173.5t-201.5 275t-70.5 365zM681 432q0 -64 15.5 -119t43 -95t64.5 -63t81 -23 q46 0 89.5 20.5t82 56.5t70.5 84.5t55 104.5t36 117t13 121q0 65 -15.5 118t-44 91t-69 58.5t-89.5 20.5q-42 0 -83 -20t-78 -55t-68.5 -82.5t-54 -102.5t-35.5 -114t-13 -118z" />
<glyph unicode="A" horiz-adv-x="1366" d="M18 0l219 579l329 871h210l329 -871l219 -579h-184l-169 446h-600l-169 -446h-184zM422 579h498l-182 496q-14 40 -29 79t-38 105q-23 -66 -38 -105t-29 -79z" />
<glyph unicode="B" horiz-adv-x="1366" d="M162 0v1450h608q75 0 146.5 -28t127 -78t89 -118t33.5 -147q0 -107 -52 -181t-163 -130q82 -35 137.5 -69.5t89 -75.5t47.5 -92t14 -119q0 -96 -33.5 -172t-92.5 -129.5t-140.5 -82t-177.5 -28.5h-633zM337 150h450q55 0 104.5 19.5t86.5 54t58.5 81.5t21.5 103 q0 130 -74 197t-214 67h-433v-522zM337 830h409q61 0 110.5 15.5t83.5 44.5t52.5 72t18.5 98t-19.5 99.5t-54 76t-81 48t-100.5 16.5h-419v-470z" />
<glyph unicode="C" horiz-adv-x="1479" d="M113 736q20 717 678 734h4q433 0 549 -416l-159 -34q-87 303 -406 304q-491 -10 -499 -600v-12q0 -576 486 -598q344 0 421 365l157 -33q-89 -455 -565 -466q-662 17 -666 756z" />
<glyph unicode="D" horiz-adv-x="1479" d="M170 0v1450h607q133 0 239.5 -53t180.5 -149t114 -229.5t40 -294.5q0 -168 -40.5 -302t-116.5 -227.5t-185.5 -144t-247.5 -50.5h-591zM345 150h383q104 0 186 39.5t138.5 114.5t86 183t29.5 245q0 136 -26 242t-76 178.5t-125 110t-172 37.5h-424v-1150z" />
<glyph unicode="E" horiz-adv-x="1366" d="M178 0v1450h1029v-142h-862v-494h805v-142h-805v-530h895v-142h-1062z" />
<glyph unicode="F" horiz-adv-x="1251" d="M178 0v1450h958v-142h-791v-482h686v-142h-686v-684h-167z" />
<glyph unicode="G" horiz-adv-x="1593" d="M121 716q0 174 50.5 313.5t143.5 237t225.5 150t297.5 52.5q233 0 377 -101.5t208 -311.5l-145 -42q-23 57 -42 95t-38.5 65t-43 46.5t-56.5 39.5q-107 65 -264 65q-127 0 -227 -43.5t-169 -122.5t-105.5 -191t-36.5 -248q0 -141 38 -252t109.5 -188t173 -117.5 t229.5 -40.5q55 0 114.5 11.5t117 32t110 50t94.5 65.5v290h-389v142h547v-511q-59 -50 -127 -91t-143 -70t-155.5 -45t-164.5 -16q-172 0 -307.5 51.5t-229 147t-143 231.5t-49.5 306z" />
<glyph unicode="H" horiz-adv-x="1479" d="M178 0v1450h167v-611h784v611h167v-1450h-167v697h-784v-697h-167z" />
<glyph unicode="I" horiz-adv-x="569" d="M192 0v1450h184v-1450h-184z" />
<glyph unicode="J" horiz-adv-x="1024" d="M104 391l145 22q8 -80 22.5 -134t41 -86.5t67.5 -46.5t103 -14q56 0 100 17.5t74 50t46 77t16 98.5v1075h168v-1091q0 -86 -29.5 -156t-82 -119.5t-126.5 -76.5t-162 -27q-185 0 -284 103.5t-99 307.5z" />
<glyph unicode="K" horiz-adv-x="1366" d="M162 0v1450h175v-758l758 758h212l-595 -594l595 -856h-212l-510 729l-250 -250v-479h-173z" />
<glyph unicode="L" d="M162 0v1450h168v-1308h727v-142h-895z" />
<glyph unicode="M" horiz-adv-x="1706" d="M162 0v1450h276l411 -1281l411 1281h276v-1450h-166v1225l-20 3l-411 -1228h-180l-411 1228l-20 -3v-1225h-166z" />
<glyph unicode="N" horiz-adv-x="1479" d="M170 0v1450h175l787 -1180v1180h164v-1450h-175l-787 1180v-1180h-164z" />
<glyph unicode="O" horiz-adv-x="1593" d="M113 712q0 175 48 315.5t137.5 238.5t216 151t282.5 53q101 0 191 -25.5t165.5 -73t136 -115t102.5 -151t64.5 -181t22.5 -204.5q0 -171 -47 -308t-135.5 -233t-214.5 -147.5t-285 -51.5q-149 0 -274.5 54.5t-216.5 152t-142 232t-51 293.5zM296 704q0 -128 34.5 -234.5 t99.5 -184t158 -120.5t209 -43t208.5 43t157 121.5t99 189t34.5 244.5q0 132 -34.5 242.5t-99 190t-157 123.5t-208.5 44q-114 0 -207 -45t-158 -126t-100.5 -194.5t-35.5 -250.5z" />
<glyph unicode="P" horiz-adv-x="1366" d="M170 0v1448h584q247 0 374 -103t127 -304q0 -107 -32.5 -185t-91.5 -133.5t-140.5 -85.5t-179.5 -30h-474v-607h-167zM345 758h433q65 0 119.5 19t93.5 54t61 84.5t22 121.5q0 52 -11.5 91t-38 68.5t-70.5 52t-110 41.5h-499v-532z" />
<glyph unicode="Q" horiz-adv-x="1593" d="M105 719q0 172 48 311t137.5 236.5t216 150.5t283.5 53q152 0 277.5 -57t215.5 -158t140 -239t50 -301q0 -90 -13 -168.5t-40 -147.5t-69.5 -131.5t-101.5 -121.5q22 -20 53 -41t65 -40.5t67.5 -35.5t61.5 -26q-11 -31 -23.5 -59.5t-25.5 -50.5q-72 34 -128.5 65.5 t-95.5 56t-60 39t-22 14.5q-25 -17 -62 -33.5t-83 -29t-99.5 -20t-110.5 -7.5q-149 0 -274 55t-215.5 153.5t-141 234.5t-50.5 298zM288 715q0 -133 37.5 -242.5t104.5 -188t159 -121.5t201 -43q30 0 52.5 1t44.5 6t48.5 15t64.5 28q-11 12 -34.5 26.5t-51 28t-54 24.5 t-44.5 14l4 13q5 13 11 31.5t11.5 38.5t7.5 33q41 -12 80.5 -29t74.5 -36.5t64 -41.5t49 -45q49 58 82 112t53 111t28.5 120t8.5 141q0 132 -34 244t-98.5 193t-157 126.5t-210.5 45.5q-114 0 -206.5 -44.5t-158 -124.5t-101.5 -191t-36 -245z" />
<glyph unicode="R" horiz-adv-x="1479" d="M178 0v1450h734q91 0 167.5 -28t131 -80t85 -126t30.5 -165q0 -134 -63.5 -220t-202.5 -135l-142 -50q56 -34 97 -63.5t77.5 -67.5t73.5 -91t86 -134q66 -108 110.5 -180t69.5 -110h-212q-12 21 -33.5 56.5t-48 78t-56 88.5t-58 88.5t-54 79t-42.5 59.5q-49 66 -86 105 t-67.5 59.5t-58 27t-58.5 6.5h-312v-648h-168zM354 798h492q60 0 113.5 19.5t94 53.5t64 80.5t23.5 99.5q0 55 -9 92.5t-35 65.5t-74 50.5t-126 48.5h-543v-510z" />
<glyph unicode="S" horiz-adv-x="1366" d="M106 451l145 27q48 -358 422 -358q18 0 37 1q353 35 372 261v8q0 195 -407 277q-513 105 -513 396v7q29 382 507 400q493 -18 522 -424l-152 -13q-37 282 -374 295q-314 -10 -344 -246q3 -133 159 -188.5t353 -92.5q409 -115 406 -402q-31 -388 -537 -420 q-550 10 -596 472z" />
<glyph unicode="T" horiz-adv-x="1251" d="M66 1308v142h1126v-142h-480v-1308h-165v1308h-481z" />
<glyph unicode="U" horiz-adv-x="1479" d="M178 496v954h167v-946q0 -92 26 -163t76 -120t122 -74t164 -25q198 0 297 98.5t99 299.5v930h167v-946q0 -126 -39 -223.5t-112 -164t-176 -101.5t-232 -35q-135 0 -239 34t-175.5 100t-108 162t-36.5 220z" />
<glyph unicode="V" horiz-adv-x="1366" d="M26 1450h183l475 -1333l484 1333h168l-543 -1450h-214z" />
<glyph unicode="W" horiz-adv-x="1933" d="M42 1450h174l298 -1259l342 1259h210l342 -1259l298 1259h174l-357 -1450h-230l-332 1293l-332 -1293h-230z" />
<glyph unicode="X" horiz-adv-x="1366" d="M65 0l1023 1450h205l-1023 -1450h-205zM99 1450h205l1023 -1450h-205z" />
<glyph unicode="Y" horiz-adv-x="1366" d="M18 1450h207l448 -698l448 698h207l-568 -850v-600h-174v600z" />
<glyph unicode="Z" horiz-adv-x="1251" d="M58 0v165l906 1139h-816v146h1012v-156l-922 -1148h946v-146h-1126z" />
<glyph unicode="[" horiz-adv-x="569" d="M154 -409v1859h384v-117h-228v-1625h228v-117h-384z" />
<glyph unicode="\" horiz-adv-x="569" d="M18 1470h120l431 -1490h-119z" />
<glyph unicode="]" horiz-adv-x="569" d="M58 -293h228v1626h-228v117h384v-1860h-384v117z" />
<glyph unicode="^" horiz-adv-x="961" d="M66 703l336 765h143l344 -765h-168l-247 583l-232 -583h-176z" />
<glyph unicode="_" d="M0 -282h1139v-128h-1139v128z" />
<glyph unicode="`" horiz-adv-x="682" d="M109 1450h232l128 -272h-136z" />
<glyph unicode="a" d="M121 236q0 131 63 212t193 108q29 6 47 9.5t34 6.5t32.5 5.5t42 7.5t63.5 13t96 21q98 21 125 24v144q-38 84 -94 122.5t-146 38.5q-115 0 -199 -60.5t-120 -172.5l-22 5q-10 2 -22.5 5.5t-30 6.5t-45.5 7q5 42 26.5 83t54.5 78t75.5 69t90 55.5t97.5 36.5t99 13 q70 0 135.5 -21.5t116.5 -58.5t81.5 -86.5t30.5 -104.5v-479q5 -57 10.5 -101.5t12 -80.5t14.5 -65.5t19 -56.5q-29 -8 -60.5 -17.5t-59.5 -22.5q-32 69 -39 111.5t-9 48.5q-44 -44 -85 -74.5t-83 -49.5t-87 -27.5t-97 -8.5q-187 0 -273.5 62.5t-86.5 193.5zM257 248 q0 -66 56.5 -99t167.5 -33q54 0 98 15.5t82.5 40t74 56t73.5 64.5v223q-13 -5 -47 -12t-78 -15.5t-94.5 -18.5t-96.5 -20t-83 -20.5t-56 -20.5q-97 -52 -97 -160z" />
<glyph unicode="b" d="M170 0v1450h134v-511q38 38 71.5 64t67 41.5t69 22.5t77.5 7q92 0 171.5 -44.5t138.5 -120t92.5 -176.5t33.5 -213q0 -111 -33 -209.5t-91.5 -172t-138 -116t-173.5 -42.5q-41 0 -77.5 7.5t-70.5 24t-67.5 42.5t-69.5 62v-116h-134zM305 520q0 -83 21 -156.5t58.5 -128.5 t89.5 -87t115 -32q64 0 119 33t95.5 89t63 129t22.5 153q0 84 -23.5 160.5t-64 134t-95 91.5t-117.5 34q-60 0 -112 -36t-90.5 -94.5t-60 -134.5t-21.5 -155z" />
<glyph unicode="c" horiz-adv-x="1024" d="M113 516q0 113 33 214t90.5 177.5t136.5 121.5t172 45q66 0 128 -22t116 -63.5t98 -100.5t74 -133q-12 -9 -30.5 -17.5t-36 -15t-30.5 -10.5t-15 -5q-33 59 -65.5 104t-68 75.5t-76.5 46t-90 15.5q-66 0 -122.5 -35.5t-98 -95.5t-64.5 -138t-23 -163q0 -82 24 -156 t66.5 -130t100.5 -89t125 -33q106 0 181 70t119 202q10 -3 26.5 -8t34 -9.5t33.5 -8.5t26 -6q-51 -178 -160 -273t-264 -95q-94 0 -174.5 43t-139.5 116t-92.5 170.5t-33.5 206.5z" />
<glyph unicode="d" d="M105 521q0 111 33.5 211.5t92 176t138 120.5t172.5 45q42 0 77.5 -7t69 -23t67 -42t70.5 -63l1 511h135v-1450h-136v117q-41 -41 -74.5 -67.5t-65.5 -42t-66.5 -21.5t-77.5 -6q-62 0 -118 20t-104.5 56.5t-88 86.5t-67.5 110t-43 128t-15 140zM241 521q0 -83 24.5 -157 t65.5 -129t95.5 -87t114.5 -32q63 0 115.5 32.5t90 88t58 129t20.5 155.5q0 88 -20.5 164.5t-58 133t-89.5 89t-116 32.5q-63 0 -118 -36t-95.5 -94.5t-63.5 -134t-23 -154.5z" />
<glyph unicode="e" d="M113 537q0 92 33 194t92 178.5t141.5 120.5t185.5 44q97 0 182.5 -37.5t147 -101.5t96 -150t34.5 -182v-136h-775q0 -79 26.5 -145t72.5 -113.5t95 -74t121 -26.5q113 0 207 56.5t125 159.5q29 -10 56.5 -20t55.5 -20q-18 -66 -57.5 -122t-93.5 -96.5t-138 -63 t-155 -22.5q-101 0 -172 42t-137 114t-104.5 169t-38.5 232zM250 603h639q0 69 -24 130.5t-67 107t-102.5 72.5t-130.5 27q-65 0 -122.5 -28.5t-100 -75.5t-67.5 -108t-25 -125z" />
<glyph unicode="f" horiz-adv-x="569" d="M34 927v127h184q0 102 2.5 162t11 95.5t25 54t43.5 37.5q70 47 225 47q10 0 23.5 -0.5t28.5 -1t29 -0.5q15 0 27 2l-8 -128q-92 0 -147 -6t-84.5 -22t-38.5 -43t-9 -69v-128h223v-127h-223v-927h-128v927h-184z" />
<glyph unicode="g" d="M105 524q0 73 15.5 142t43.5 130t67.5 112.5t88 88t104.5 57t117 20.5q40 0 73.5 -6.5t66.5 -23t67.5 -44t76.5 -69.5v123h143l1 -914l1 -165q0 -90 -31 -161t-87.5 -121t-135 -76.5t-171.5 -26.5q-82 0 -151 20t-122 59t-88.5 97t-49.5 135l128 -18q10 -40 35 -72 t61 -54.5t82.5 -34.5t100.5 -12q64 0 115.5 17.5t88.5 49.5t57 77.5t21 101.5l2 176q-50 -50 -85 -80t-65.5 -46t-61 -21t-72.5 -5q-93 0 -173 43.5t-138.5 118t-91.5 173t-33 209.5zM241 524q0 -83 23.5 -157t64 -130t95 -88.5t117.5 -32.5t115 32.5t89.5 88t58.5 130 t21 157.5q0 88 -20.5 164t-58 132t-89.5 88t-116 32q-63 0 -118 -35t-95.5 -93.5t-63.5 -133.5t-23 -154z" />
<glyph unicode="h" d="M162 0v1450h134l1 -531q79 79 159 117t173 38q72 0 135 -23t110.5 -65t75 -100t27.5 -127v-759h-128v751q0 37 -17.5 72.5t-48 63.5t-72.5 44.5t-90 16.5q-60 0 -119.5 -23.5t-106.5 -61t-76 -84t-29 -92.5v-687h-128z" />
<glyph unicode="i" horiz-adv-x="455" d="M145 1278q0 20 5.5 38t15 32t23.5 22t32 8q34 0 55.5 -27t20.5 -69q0 -43 -19.5 -69.5t-56.5 -26.5q-33 0 -54.5 27.5t-21.5 64.5zM154 0v1054h128v-1054h-128z" />
<glyph unicode="j" horiz-adv-x="455" d="M-35 -385l52 124q21 -8 42.5 -13t40.5 -5q57 0 83.5 43t26.5 129v1161h128v-1193q0 -271 -233 -271q-27 0 -58.5 6t-81.5 19zM198 1278q0 20 5.5 38t15 32t23.5 22t32 8q30 0 53 -23.5t23 -69.5v-3q0 -43 -19.5 -69.5t-56.5 -26.5q-34 0 -55 27.5t-21 64.5z" />
<glyph unicode="k" horiz-adv-x="1024" d="M170 0v1450h133v-851l498 475l88 -87l-352 -343l400 -585l-104 -80l-391 566l-144 -131v-414h-128z" />
<glyph unicode="l" horiz-adv-x="455" d="M162 0v1450h128v-1450h-128z" />
<glyph unicode="m" horiz-adv-x="1706" d="M162 0v1054h134v-139q36 36 61 60.5t45 40t37 24t37.5 14t47 10t65.5 10.5q52 0 93 -8.5t75.5 -29t64.5 -54t59 -83.5q34 34 64.5 65.5t66.5 56t81.5 39t109.5 14.5t124.5 -31t106.5 -80.5t74 -111.5t28 -124v-727h-128v711q0 42 -20.5 84t-51 76t-67.5 55.5t-70 21.5 q-9 2 -18 2q-31 0 -65 -18q-44 -24 -83 -65t-71 -92t-49 -100v-675h-128v719q0 40 -17 81t-44.5 74t-63 53.5t-71.5 20.5q-29 0 -62.5 -13.5t-66.5 -35t-64 -50t-54.5 -58t-37.5 -59t-14 -53.5v-679h-128z" />
<glyph unicode="n" d="M162 0v1054h134v-135q80 80 156 117.5t161 37.5q47 0 92.5 -15t86 -41t74.5 -61.5t58.5 -75.5t38.5 -83.5t14 -86.5v-711h-128v703q0 46 -22 90t-56 78.5t-76 55.5t-82 21q-7 1 -14 1q-39 0 -81 -22q-50 -26 -96 -69.5t-82 -97.5t-50 -105v-655h-128z" />
<glyph unicode="o" d="M105 512q0 111 35 212.5t96 179.5t144.5 124t180.5 46q64 0 123.5 -21t111.5 -58.5t94 -89.5t72 -114.5t46.5 -133t16.5 -145.5q0 -109 -35.5 -206t-98 -169.5t-147 -114.5t-183.5 -42q-96 0 -179.5 42.5t-145 115t-96.5 169t-35 205.5zM241 512q0 -82 27 -154t72 -126 t102.5 -85t118.5 -31q68 0 128 32t104.5 86.5t70 126.5t25.5 151q0 85 -26 162.5t-70.5 136.5t-104.5 94t-127 35q-65 0 -123 -36.5t-101.5 -96.5t-69.5 -137t-26 -158z" />
<glyph unicode="p" d="M170 -409v1463h134v-119q39 39 73 66t67.5 43t68.5 23t76 7q93 0 173 -45t138.5 -121t91.5 -176.5t33 -210.5t-33 -208.5t-91 -172.5t-138 -117t-174 -43q-39 0 -75 7.5t-70.5 24t-68.5 42.5t-71 63v-526h-134zM305 521q0 -82 20.5 -155.5t58 -129t90 -88t115.5 -32.5 q64 0 118.5 33t95 89t63.5 129t23 154q0 85 -23.5 161.5t-64 133.5t-95 90.5t-117.5 33.5q-60 0 -112 -35t-90 -93t-60 -134t-22 -157z" />
<glyph unicode="q" d="M105 520q0 110 34 210.5t92.5 177t138 121.5t171.5 45q85 0 159 -38.5t125 -106.5v125h136v-1464h-136v518q-61 -61 -131.5 -94.5t-152.5 -33.5q-94 0 -174 43.5t-138 118t-91 172.5t-33 206zM241 520q0 -81 24.5 -154.5t66 -129t96 -88t113.5 -32.5q63 0 115 32.5 t89.5 88t58.5 129t21 154.5q0 88 -20.5 164.5t-58 133.5t-89.5 89.5t-116 32.5q-63 0 -118 -35.5t-95.5 -94.5t-63.5 -134.5t-23 -155.5z" />
<glyph unicode="r" horiz-adv-x="682" d="M154 0v1054h134v-119q27 40 50.5 67t49 43t55 22.5t66.5 6.5t71.5 -10.5t63 -24.5t49 -27t28.5 -17q-3 -7 -13.5 -22.5t-23.5 -31.5t-25 -28.5t-18 -12.5q-27 20 -66.5 34t-73.5 14q-33 0 -62 -18t-53.5 -48t-43.5 -68t-32.5 -77.5t-20.5 -77.5t-7 -68v-591h-128z" />
<glyph unicode="s" horiz-adv-x="1024" d="M98 284l122 32q26 -62 53 -102t61 -63.5t77 -33t102 -9.5q50 0 100 16t90 42t65 60t25 70q0 96 -172 148q-152 46 -231.5 70.5t-88.5 29.5q-172 85 -172 264q0 51 29.5 99t80.5 85t120.5 59.5t149.5 22.5q69 0 134.5 -24.5t116.5 -63.5t82 -87.5t31 -95.5l-128 -24 q-6 38 -28.5 69.5t-56 53.5t-75 34t-84.5 12q-49 0 -93 -10t-77.5 -28.5t-53.5 -44.5t-20 -57q0 -44 12 -74t47.5 -55t99.5 -48t169 -52q109 -30 175.5 -61t102 -65.5t47 -74t11.5 -86.5q0 -60 -32.5 -116t-88 -99.5t-129.5 -70t-158 -26.5q-161 0 -262.5 75t-152.5 229z " />
<glyph unicode="t" horiz-adv-x="569" d="M58 927v127h144v276h128v-276h200v-127h-200v-723q0 -48 26 -70.5t74 -22.5q28 0 52 5t56 16q20 -82 39 -128q-40 -8 -81 -16t-79 -8q-215 0 -215 208v739h-144z" />
<glyph unicode="u" d="M154 332v722h128v-706q0 -43 19.5 -85.5t52 -77t74 -56t85.5 -21.5q9 -1 18 -1q40 1 81 19q50 22 94.5 62.5t80 93t54.5 106.5v666h128v-1050h-136q9 31 9 67q0 32 -9 61q-78 -78 -154.5 -115t-161.5 -37q-71 0 -136.5 31t-116 81t-80.5 113t-30 127z" />
<glyph unicode="v" horiz-adv-x="1024" d="M74 1054h136l304 -822l303 822h136l-369 -1054h-127z" />
<glyph unicode="w" horiz-adv-x="1479" d="M42 1054h144l240 -846l237 846h146l224 -862l263 862h128l-312 -1054h-159l-224 815l-223 -815h-160z" />
<glyph unicode="x" horiz-adv-x="1024" d="M58 0l376 543l-352 511h176l248 -391l271 391h168l-344 -494l376 -560h-176l-279 440l-304 -440h-160z" />
<glyph unicode="y" horiz-adv-x="1024" d="M33 -318l96 84q15 -11 27.5 -20t25.5 -15t28 -9.5t35 -3.5q25 -8 47.5 6t42 41.5t37 64.5t31.5 76t26 75.5t20 62.5l-367 1010h136l304 -818l295 818h144l-378 -1016q-36 -96 -67 -178t-68.5 -142t-86.5 -94t-120 -34q-30 0 -64.5 8t-65 21.5t-52.5 29.5t-26 33z" />
<glyph unicode="z" horiz-adv-x="1024" d="M66 0v136l679 798h-639v119h823v-106l-679 -819h711v-128h-895z" />
<glyph unicode="{" horiz-adv-x="684" d="M74 467v135q44 0 82 19.5t65.5 51t43.5 72.5t16 84v331q0 64 11 112.5t36.5 84.5t66 62t100.5 46h138v-125q-57 0 -96 -8t-63.5 -26.5t-35.5 -48.5t-11 -73v-306q0 -59 -11 -106t-36.5 -86.5t-66 -74.5t-100.5 -70q51 -39 91 -74t67 -75.5t41.5 -90.5t14.5 -118v-330 q0 -70 47.5 -101t158.5 -31v-125h-127q-62 18 -105 43.5t-69.5 64.5t-38.5 93t-12 129v314q0 46 -14.5 85t-41.5 68.5t-65.5 48.5t-85.5 25z" />
<glyph unicode="|" horiz-adv-x="532" d="M202 -404v1869h144v-1869h-144z" />
<glyph unicode="}" horiz-adv-x="684" d="M66 -279q57 0 96.5 8t64 27.5t35.5 50.5t11 78v242q0 82 7.5 140t29.5 103t63 82t107 76q-49 37 -87.5 70t-65 71.5t-40.5 88t-14 120.5v306q0 43 -10 72.5t-33.5 48t-63.5 27t-100 8.5v125h131q65 -22 107.5 -50t68 -73t36 -112t10.5 -167v-258q0 -39 15.5 -73t43.5 -61 t65.5 -45t81.5 -24v-135q-48 0 -86 -17.5t-65 -49t-41 -74.5t-14 -94v-339q0 -61 -11 -107.5t-36.5 -81.5t-68.5 -61t-106 -47h-131v125z" />
<glyph unicode="~" horiz-adv-x="1196" d="M98 577v171q0 16 20 38t55 42t83 33.5t104 13.5q34 0 75 -11.5t84.5 -28.5t88.5 -37t87.5 -37t81 -28.5t69.5 -11.5q26 0 58.5 10.5t65.5 28.5t63.5 42.5t54.5 52.5v-188q-34 -34 -62 -55.5t-58 -34t-65.5 -17.5t-84.5 -5q-65 0 -124.5 24t-117 53t-115.5 53t-121 24 q-31 0 -59.5 -7t-57 -22.5t-59 -40.5t-66.5 -62z" />
<glyph horiz-adv-x="1251" d="M41 0v180l751 939q80 100 152 174h-818v173h1050v-173l-823 -1017l-89 -103h936v-173h-1159zM316 1830h206l113 -170l110 170h204l-225 -280h-192z" />
<glyph unicode="&#x17d;" horiz-adv-x="1251" d="M41 0v180l751 939q80 100 152 174h-818v173h1050v-173l-823 -1017l-89 -103h936v-173h-1159zM316 1830h206l113 -170l110 170h204l-225 -280h-192z" />
<glyph horiz-adv-x="1024" d="M40 0v146l676 776q-115 -6 -203 -6h-433v146h868v-119l-575 -674l-111 -123q121 9 227 9h491v-155h-940zM224 1474h206l113 -170l110 170h204l-225 -280h-192z" />
<glyph unicode="&#x17e;" horiz-adv-x="1024" d="M40 0v146l676 776q-115 -6 -203 -6h-433v146h868v-119l-575 -674l-111 -123q121 9 227 9h491v-155h-940zM224 1474h206l113 -170l110 170h204l-225 -280h-192z" />
<glyph unicode="&#xa1;" horiz-adv-x="569" d="M186 0v368l56 710h104l48 -702v-376h-208zM194 1246v192h192v-192h-192z" />
<glyph unicode="&#xa2;" d="M107 526q0 141 37 246.5t100 175.5t148 104.5t181 34.5h5q18 0 43 -2t57 -6l113 387l110 -32l-112 -387q99 -43 152 -115.5t74 -181.5l-175 -27q-26 112 -96 171l-222 -766q33 -9 61 -9q51 0 97 18.5t82 53t60.5 84.5t32.5 114l179 -20q-16 -91 -56.5 -164t-99 -124.5 t-133 -79.5t-159.5 -28q-23 0 -48.5 3.5t-54.5 10.5l-118 -395l-112 32l115 397q-57 28 -105 74t-82.5 109.5t-54 144t-19.5 177.5zM292 535q0 -139 31.5 -226t91.5 -132l223 763q-32 3 -50 3q-71 0 -126 -28.5t-92.5 -81.5t-57.5 -128.5t-20 -169.5z" />
<glyph unicode="&#xa3;" d="M27 145q48 26 89.5 64t73 87t49.5 109.5t18 131.5q0 27 -4.5 58t-12.5 66h-196v148h154q-17 59 -27.5 97.5t-15.5 66.5t-6.5 50.5t-1.5 49.5q0 93 33.5 169.5t93.5 132t143.5 86t183.5 30.5q90 0 165.5 -26t132.5 -74.5t94 -119t51 -159.5l-179 -27q-8 59 -31 107 t-58.5 81.5t-81 51.5t-97.5 18q-55 0 -102 -19t-81.5 -52t-54.5 -77.5t-20 -95.5q0 -112 57 -290h315v-148h-284q19 -37 19 -88q0 -88 -41 -184t-137 -198q63 22 144 22q51 0 96.5 -7t90.5 -18q88 -22 145 -30.5t88 -10.5q57 0 192 56l58 -165q-49 -19 -83 -31t-60.5 -19 t-49.5 -9.5t-50 -2.5q-24 0 -36.5 -0.5t-30.5 3t-51 12.5t-97 29q-63 19 -97 28.5t-54 13.5t-35 3.5t-40 -0.5q-36 0 -75 -6.5t-78.5 -18.5t-77.5 -29t-71 -38z" />
<glyph unicode="&#xa4;" d="M74 354l139 136q-71 110 -71 236q0 125 71 235l-139 136l115 119l139 -139q106 72 237 72q132 0 237 -72l139 139l116 -119l-139 -136q71 -110 71 -235q0 -126 -71 -236l139 -136l-116 -119l-139 140q-103 -73 -237 -73q-131 0 -237 73l-139 -140zM305 726 q0 -53 20.5 -100.5t55.5 -83t82.5 -56t100.5 -20.5t100 20.5t82.5 56t56 83t20.5 100.5t-20.5 100t-55.5 82.5t-82 56t-101 20.5q-53 0 -100 -20.5t-82.5 -56t-56 -82.5t-20.5 -100z" />
<glyph unicode="&#xa5;" d="M-2 1466h199l290 -516q24 -43 42.5 -81t33.5 -73q11 26 32 67t50 96l274 507h214l-405 -711h341v-148h-412v-143h412v-139h-412v-325h-180v325h-415v139h415v143h-415v148h341z" />
<glyph unicode="&#xa6;" horiz-adv-x="570" d="M206 360h157v-790h-157v790zM206 701v790h157v-790h-157z" />
<glyph unicode="&#xa7;" horiz-adv-x="1024" d="M121 484v18q0 47 13 90t40 84q29 41 61.5 76.5t71.5 62.5q-20 23 -38.5 48.5t-30.5 51.5q-13 29 -20 56.5t-11 54.5q-2 6 -3 12t-1 13v12v12q0 55 15 107.5t48 101.5t77 84t101 55q17 7 34.5 12t37.5 7q21 4 41.5 5t40.5 1q27 0 52.5 -3t51.5 -9q25 -6 47.5 -14.5 t43.5 -20.5q6 -4 10 -10.5t6 -16.5q2 -8 3 -19.5t1 -21.5v-3v-2v-2v-3v-4v-4q-2 -6 -3 -12.5t-1 -12.5v-10v-8q-2 -6 -3 -10.5t-1 -8.5v-7v-7l-57 -2q-9 35 -23 63.5t-37 47.5q-22 18 -56 27t-77 9q-51 0 -94 -18t-78 -55t-52.5 -80t-17.5 -92v-9v-10v-10q0 -4 2 -8 q0 -6 1 -11.5t3 -9.5q0 -4 1.5 -9t3.5 -9q12 -39 37.5 -73t64.5 -62q39 -27 82 -54.5t90 -52.5q2 -2 4 -3t4 -1q2 -2 4 -3t4 -3q4 -2 8.5 -4t8.5 -4q41 -25 82 -49.5t80 -48.5q38 -27 68 -57t50 -64q13 -21 21 -39.5t14 -36.5q4 -19 7 -37t5 -35q0 -47 -15 -91t-46 -85 q-31 -39 -64.5 -76t-72.5 -67q26 -25 45.5 -51.5t32.5 -55.5q12 -26 18 -57t6 -64v-4v-4q-2 -55 -19.5 -106t-51.5 -101q-35 -49 -81 -82.5t-106 -52.5q-16 -4 -33.5 -7t-35.5 -5q-9 -2 -18 -3t-17 -1q-11 -2 -19 -2h-18h-11h-10h-4h-4q-4 2 -6 2h-4q-35 2 -68.5 9t-68.5 19 q-33 13 -60.5 29.5t-50.5 38.5q-6 4 -9 9t-5 12q-2 2 -3 6t-1 6q-2 4 -2 7v7v5v5q0 5 1 7t1 6v5q0 3 2 5q0 4 1 6l3 6q2 6 5 12.5t5 12.5q2 2 3 5t3 5q0 4 1 6t3 4q2 4 4 7.5t5 7.5q0 2 2 5t4 7q2 2 3 5t3 7q0 2 1 4t3 4l39 -8v-3v-3v-3v-3q-2 -47 15.5 -82t51.5 -61 q35 -25 76 -38.5t86 -13.5h2h4h4q54 0 99 16.5t84 49.5t58.5 73t19.5 89q0 12 -1.5 24.5t-5.5 24.5q-2 6 -3 12t-3 12q-2 9 -4 15t-6 12q-18 39 -47 68.5t-66 54.5q-37 24 -76.5 48t-80.5 46q-2 0 -5.5 1t-5.5 3h-3q-1 0 -1 2q-2 0 -3 1t-3 1q-39 21 -77 42.5t-74 45.5 q-37 25 -67 55.5t-52 67.5q-6 10 -11.5 19.5t-9.5 17.5q-4 10 -7 19.5t-5 19.5t-5 19.5t-3 17.5q-2 10 -2 19zM227 584q-2 -49 21.5 -92t68.5 -82q48 -39 98 -75t105 -69q27 -14 52.5 -29.5t52.5 -29.5q24 -14 47.5 -28.5t44.5 -26.5v4q24 14 45.5 36.5t36.5 49.5 q16 28 23 56t7 56q0 8 -1 16.5t-1 16.5q-2 6 -4 14.5t-4 16.5q-4 16 -12 29.5t-19 27.5q-22 31 -51.5 59.5t-64.5 53.5q-37 24 -74 47.5t-74 44.5q-16 10 -32.5 19.5t-32.5 17.5q-8 4 -15.5 8t-15.5 10q-8 4 -15 8.5t-14 8.5q-8 4 -16 9t-14 9q-9 4 -16 9t-13 9 q-31 -28 -52.5 -55.5t-33.5 -52.5q-14 -25 -20.5 -49.5t-6.5 -46.5z" />
<glyph unicode="&#xa8;" horiz-adv-x="569" d="M-23 1426v192h192v-192h-192zM400 1426v192h192v-192h-192z" />
<glyph unicode="&#xa9;" horiz-adv-x="1509" d="M3 736q0 99 26 193.5t74.5 178.5t116.5 154t152 121t181.5 79.5t204.5 28.5q94 0 186.5 -25t176 -71.5t155.5 -113.5t124.5 -150.5t82 -183t29.5 -211.5q0 -99 -26 -193.5t-74 -178t-116 -153.5t-151.5 -121t-181 -79t-205.5 -28q-97 0 -190.5 25t-177.5 72t-155 114.5 t-122.5 151t-80.5 182t-29 208.5zM128 736q0 -79 21 -156t60 -147t94.5 -129.5t125.5 -103.5t153 -68.5t176 -24.5q81 0 159 21.5t148 61t129 96t102 126t67 151.5t24 173q0 84 -22.5 163.5t-63.5 149.5t-98 128.5t-126.5 100t-149 65t-164.5 23.5h-5q-76 0 -152.5 -20 t-146.5 -58.5t-130.5 -93.5t-105 -125t-70 -154t-25.5 -179zM363 734q0 101 29 180t82.5 134t128 83.5t164.5 28.5q133 0 221 -63.5t120 -172.5l-119 -29q-30 75 -88.5 114t-137.5 39q-57 0 -105.5 -21t-84 -61.5t-55 -99.5t-19.5 -135t18 -134t51.5 -97t80 -59t103.5 -20 q45 0 85.5 13.5t72.5 39t55.5 61t34.5 79.5l123 -36q-15 -62 -48 -112.5t-80 -86.5t-107 -55.5t-129 -19.5q-89 0 -162 30t-125 86t-80.5 135.5t-28.5 178.5z" />
<glyph unicode="&#xaa;" horiz-adv-x="756" d="M68 856v4v4q0 45 19 77t58 52q41 21 84 37.5t90 30.5h4q1 0 3 2h4q2 0 5 1t5 3q10 2 19.5 5t19.5 5q8 4 18.5 7t18.5 6q18 6 35.5 12t31.5 14v8v11v5q0 3 2 5v7v5v13v12v7q0 3 2 7v6v8q0 17 -1 32t-5 30q-2 16 -7 28.5t-13 22.5t-17.5 17.5t-19.5 11.5l-12 4q-6 2 -11 4 q-6 0 -12 1t-12 1h-5h-7h-5h-4q-2 0 -3 -1l-2 -2q-1 -1 -2 -1h-3h-3q-1 0 -2 -1t-2 -1h-3q-27 -8 -43.5 -22.5t-24.5 -33.5q-8 -18 -12 -36.5t-4 -40.5v-3v-3v-5v-3v-3v-4v-3v-3q-2 0 -5 -1t-5 -1q-4 -2 -6 -2h-7q-6 -2 -11 -3t-9 -1q-10 -2 -20.5 -3t-20.5 -3q-4 -2 -9 -3 t-9 -1q-7 -2 -12 -3t-9 -4q0 3 -1 5t-1 4v6v8v8v10v11v4q0 2 2 6v5v5v4q0 2 2 6v5v6q0 4 1 9t3 11q8 4 15.5 9t15.5 10q8 4 16 9t17 11q12 8 23 15.5t24 15.5q12 6 24.5 13t24.5 15q24 15 51 26t53 19q7 3 13 4t12 1h7q3 0 5 2h7h6h9h11h4h6q2 -2 4 -2h4q41 -13 67 -33.5 t34 -50.5q10 -31 15 -64t5 -67v-381l131 -17v-35q-8 -4 -16 -7t-14 -5q-9 -2 -17 -4l-16 -4q-8 -2 -16.5 -4t-16.5 -2q-8 -2 -15 -4t-16 -4q-16 -5 -32.5 -9t-32.5 -8q-17 -2 -32 -5t-32 -7v4v102q-8 -8 -15 -13t-13 -9q-9 -4 -16 -8t-13 -9q-18 -12 -37.5 -23t-42.5 -22 q-20 -10 -41.5 -16t-44.5 -6h-3h-3h-4h-4q-33 0 -63.5 8t-57.5 23q-27 16 -40 41.5t-17 62.5zM199 887q0 -8 5 -23.5t17 -29.5q10 -15 26.5 -23t37.5 -10q4 -2 7 -2h5h7h5q23 0 42.5 5t39.5 13q10 4 19.5 9t19.5 10q8 6 18.5 11t18.5 11q2 0 4 1t4 3t4 3t4 3v4v207 q-12 -8 -25.5 -14t-29.5 -10q-16 -6 -32.5 -12.5t-33.5 -12.5q-26 -12 -52.5 -24.5t-51.5 -26.5t-39 -31.5t-18 -36.5v-3v-2v-2q0 -1 -1 -2t-1 -2v-2v-2v-9z" />
<glyph unicode="&#xab;" d="M134 528l319 456h148l-261 -456l259 -456h-146zM526 528l313 456h152l-264 -456l264 -456h-152z" />
<glyph unicode="&#xac;" horiz-adv-x="750" d="M90 483v107h569v-107h-569z" />
<glyph unicode="&#xad;" horiz-adv-x="818" d="M31 385v150h620v-150h-620z" />
<glyph unicode="&#xae;" horiz-adv-x="1509" d="M3 736q0 99 26 193.5t74.5 178.5t116.5 154t152 121t181.5 79.5t204.5 28.5q94 0 186.5 -25t176 -71.5t155.5 -113.5t124.5 -150.5t82 -183t29.5 -211.5q0 -99 -26 -193.5t-74 -178t-116 -153.5t-151.5 -121t-181 -79t-205.5 -28q-97 0 -190.5 25t-177.5 72t-155 114.5 t-122.5 151t-80.5 182t-29 208.5zM128 736q0 -79 21 -156t60 -147t94.5 -129.5t125.5 -103.5t153 -68.5t176 -24.5q81 0 159 21.5t148 61t129 96t102 126t67 151.5t24 173q0 84 -22.5 163.5t-63.5 149.5t-98 128.5t-126.5 100t-149 65t-164.5 23.5h-5q-76 0 -152.5 -20 t-146.5 -58.5t-130.5 -93.5t-105 -125t-70 -154t-25.5 -179zM427 319v812h279q77 0 141 -10.5t109.5 -35.5t71 -67.5t25.5 -106.5q0 -45 -17 -85t-47.5 -71t-73.5 -50t-94 -23q28 -12 50 -27.5t43.5 -39.5t44 -57.5t51.5 -79.5l99 -159h-160l-72 128q-38 67 -65.5 109.5 t-53.5 66.5t-54.5 32.5t-68.5 8.5h-77v-345h-131zM558 776h159q59 0 97 9.5t60.5 26t31 39t8.5 49.5q0 66 -52 93.5t-155 27.5h-149v-245z" />
<glyph unicode="&#xaf;" horiz-adv-x="1140" d="M-13 1427v56h1165v-56h-1165z" />
<glyph unicode="&#xb0;" horiz-adv-x="819" d="M128 1214q0 57 22 107.5t60 88t88 59.5t107 22t108 -22t88.5 -59.5t59.5 -88t22 -107.5t-22 -107.5t-59.5 -88.5t-88.5 -60t-108 -22t-107 22t-88 59.5t-60 88t-22 108.5zM237 1214q0 -35 13 -66t36 -54t54 -36t66 -13q34 0 65 13.5t53.5 36.5t36 53.5t13.5 65.5 q0 34 -13.5 64.5t-36.5 54t-53.5 37t-64.5 13.5q-35 0 -65.5 -13.5t-53.5 -36.5t-36.5 -53.5t-13.5 -65.5z" />
<glyph unicode="&#xb1;" horiz-adv-x="1704" d="M252 41v115h1200v-115h-1200zM252 721v115h545v344h114v-344h541v-115h-541v-344h-114v344h-545z" />
<glyph unicode="&#xb2;" horiz-adv-x="864" d="M27 1345q1 2 6 13t6 13l-1 -2q2 6 4 10l2 8q2 4 4.5 9.5t7.5 13.5v2q11 17 20.5 29t19.5 21.5t21 17t26 16.5h-1q29 20 67 29.5t89 9.5q55 0 99 -15t78 -42q13 -11 26.5 -25t25 -32t18.5 -40.5t7 -52.5v-2q0 -29 -6 -51t-16.5 -41t-26.5 -37.5t-35 -40.5q-17 -18 -55 -52 t-104 -87q-22 -18 -44 -40t-41.5 -45t-34.5 -45.5t-23 -41.5h381v-65h-515q2 27 13 59t29.5 64.5t44 64t56.5 57.5q15 13 24.5 21.5t15.5 13.5t10 8l8 6l-1 -1l103 87v1q97 90 97 169q0 23 -7.5 47.5t-22.5 45.5q-41 47 -105 47q-30 0 -56 -9t-49 -31q-20 -20 -28 -51 t-11 -57h-28q-20 0 -44 6t-54 17z" />
<glyph unicode="&#xb3;" horiz-adv-x="866" d="M25 973q20 4 36.5 6.5t30.5 2.5q10 0 22.5 -1.5t27.5 -3.5q7 -35 19 -61t18 -32q8 -12 17.5 -19.5t14.5 -10.5q17 -11 33.5 -15t33.5 -4q56 0 102 46q41 41 41 114q0 83 -44 119v-1q-42 33 -101 33q-8 0 -16 -0.5t-16 -1.5h-6q-4 0 -9 -0.5t-9 -0.5h-6v64q82 0 127 33 q25 18 35.5 42.5t10.5 59.5q0 62 -32 91q-37 37 -79 37q-13 0 -28.5 -5.5t-32.5 -14.5q-16 -8 -31 -29q-16 -22 -23 -55v1l-6 -42q-14 -2 -21.5 -2.5t-13.5 -0.5q-20 0 -39.5 8t-42.5 22q29 90 87 137q24 21 63 33.5t88 12.5q50 0 88 -15t70 -41q73 -61 73 -139 q0 -41 -26 -82v1q-5 -8 -10 -15t-12.5 -14.5t-19 -16t-28.5 -18.5l-5 -5q-3 -3 -8 -5q5 -3 10 -5t9 -4l22 -12q11 -6 20 -11t15 -9t7 -5l-1 1q16 -14 27 -27t18 -29t10.5 -36t5.5 -46v-2q0 -48 -17.5 -88.5t-57.5 -75.5q-72 -66 -188 -66q-46 0 -80 8t-59 22t-43 32.5 t-31 39.5q-9 14 -19 42t-21 59z" />
<glyph unicode="&#xb4;" horiz-adv-x="0" d="M-469 1178l128 272h232l-224 -272h-136z" />
<glyph unicode="&#xb5;" horiz-adv-x="1120" d="M-72 -326q2 2 2 4v5v8v8q0 2 1 5t1 5q2 4 2 6v6q3 7 4 12t1 9q2 4 3 7t1 7v3v3q2 2 2 4v3q2 6 3 11t1 9q2 6 3 11t3 12q2 10 5 21t5 22q6 24 12.5 47.5t12.5 46.5q2 12 5 23.5t5 23.5q0 4 1 6t1 6q2 8 4 15.5t4 15.5q10 41 21.5 82t21.5 82q4 20 9.5 40.5t11.5 41.5 q4 20 9 41.5t9 42.5l109 516h147l-108 -494q-2 -8 -3 -14t-1 -12q-3 -9 -4 -15t-1 -12t-1 -12.5t-1 -12.5v-14v-12q-2 -35 6.5 -66t24.5 -59q16 -27 46 -42.5t75 -15.5h3h3h3h3q56 0 99 20.5t71 61.5q29 41 49.5 86t32.5 95v2l2 2q0 2 109 514h151l-114 -529l-3 -14l-4 -12 q0 -2 -1 -6.5t-1 -6.5q-2 -4 -2 -7v-7q0 -2 -1 -5t-1 -5q-2 -4 -2 -6v-6q0 -2 -1 -5.5t-1 -5.5q-2 -4 -2 -6v-6q-2 -6 -3 -11t-1 -9v-10v-9q0 -14 2 -26.5t4 -24.5q4 -12 11.5 -21.5t17.5 -19.5q4 -6 10 -9l14 -7q9 -2 16 -3.5t15 -1.5h3h3h4h8q5 0 9 3q4 0 8 1t8 3 q10 4 20.5 8t20.5 10q14 12 24.5 26.5t18.5 28.5q8 17 15.5 33.5t15.5 34.5q2 4 3 9t3 9t4 9.5t4 11.5q0 4 2 6q0 2 1 3l3 3q0 2 1 4t3 4q2 0 3.5 2t3.5 4q4 5 7 6t7 3h3q1 0 3 -2t4 -2t3 -1t3 -4q0 -2 1 -4t3 -4v-3q0 -1 2 -3v-3v-3v-3q0 -1 2 -3v-3v-3v-5v-8v-3 q0 -1 -1 -2t-1 -2v-3q-2 -8 -3 -16t-5 -17q-2 -4 -3 -7t-1 -7q-2 -2 -3 -5t-3 -7q-8 -33 -22.5 -64.5t-34.5 -60.5q-21 -31 -47.5 -52.5t-59.5 -31.5q-4 -2 -9 -3t-9 -3q-4 0 -9.5 -1t-9.5 -3q-4 0 -9 -1t-9 -1q-6 -2 -12 -2h-9q-18 0 -35.5 3t-33.5 9q-15 6 -29 16t-24 27 q-15 16 -22 33.5t-11 38.5q-2 20 -3 41.5t-1 42.5q-19 -41 -41.5 -77t-51.5 -67q-28 -31 -66 -46t-85 -19h-7q-3 0 -7 -2h-6h-7h-5q-3 0 -7 -2h-5h-5q-47 0 -83 14t-61 41q-24 28 -40.5 66t-26.5 87v5q-8 -41 -14.5 -79t-12.5 -75t-11 -73t-9 -75q-2 -10 -4 -21t-2 -22 q-2 -10 -3.5 -21t-3.5 -22q-2 -14 -3 -28.5t-3 -28.5q-2 -6 -3 -13t-1 -16q-2 -6 -3 -13t-3 -13q-4 -21 -11 -39.5t-18 -34.5q-8 -16 -23.5 -24.5t-33.5 -8.5h-4q-2 2 -4 2h-4q-4 0 -9.5 1t-9.5 3q-12 5 -20 12t-12 17q-5 10 -8 21.5t-3 23.5v4v4z" />
<glyph unicode="&#xb6;" horiz-adv-x="980" d="M10 930q0 164 103 264q102 102 309 102h553v-133h-127v-1515h-131v1515h-219v-1515h-127v932q-92 0 -152 26q-8 2 -16.5 6.5t-17.5 9.5q-10 5 -18.5 10.5t-18 13t-20.5 16.5t-26 22q-48 51 -70 109.5t-22 136.5zM150 934q0 -92 66 -156q67 -65 155 -65v450 q-93 0 -158 -68q-63 -68 -63 -161z" />
<glyph unicode="&#xb7;" horiz-adv-x="626" d="M205 682v223h223v-223h-223z" />
<glyph unicode="&#xb8;" horiz-adv-x="1024" d="M276 -369l31 76q35 -13 68.5 -27.5t70.5 -25.5q36 -8 75 -14t75 6q19 4 32 16t20 28t7.5 34.5t-6.5 35.5q-8 28 -27.5 41t-44 17t-50.5 1t-48 -7v188h66v-113q30 6 60.5 6.5t59 -7t53 -23.5t42.5 -43q24 -32 27.5 -71t-9.5 -76t-40.5 -65.5t-65.5 -39.5 q-32 -12 -64 -14.5t-63.5 0.5t-63.5 10.5t-63 15.5q-37 11 -72 23.5t-70 27.5z" />
<glyph unicode="&#xb9;" horiz-adv-x="860" d="M133 1255v82q50 16 123 74q32 25 54.5 53.5t39.5 60.5h85v-745h-120v558q-45 -28 -95 -50t-87 -33z" />
<glyph unicode="&#xba;" horiz-adv-x="815" d="M51 1075q0 78 21.5 139.5t64.5 110.5t105.5 77t144.5 34h4h4h4q2 0 4 2h7h4h4q82 0 145.5 -27t108.5 -80q47 -51 69.5 -115.5t22.5 -140.5t-22.5 -139.5t-65.5 -114.5q-45 -51 -108.5 -76.5t-147.5 -27.5v4q-90 -4 -158.5 19.5t-116.5 72.5q-47 49 -70.5 114.5 t-23.5 147.5zM190 1100q0 -2 3 -4v-3v-2v-3v-3v-3v-2v-2v-3q0 -12 2 -24.5t4 -24.5q2 -14 5 -26.5t5 -24.5q10 -41 25.5 -78t39.5 -72q25 -32 61 -48.5t85 -16.5h4h4h4h4v4q47 2 80 18.5t53 48.5q21 33 33 69t19 75v9q0 5 2 9v9v10v9q0 5 2 11v10v9v7v5v7v5v9v12q-2 4 -2 10 v12q-2 10 -3.5 21.5t-3.5 23.5q-8 43 -23 82t-40 76q-25 35 -61.5 53.5t-90.5 18.5h-3h-2q-1 0 -28.5 -1t-66.5 -20.5t-61 -56.5q-21 -37 -33 -78t-14 -84q-3 -6 -3 -11v-9v-9v-8v-5v-7v-4z" />
<glyph unicode="&#xbb;" d="M140 72l264 456l-264 456h151l314 -456l-314 -456h-151zM530 984h148l319 -456l-319 -456h-147l260 456z" />
<glyph unicode="&#xbc;" horiz-adv-x="1708" d="M107 1174v123q30 9 66 28.5t72 45t68.5 55t54.5 58.5h108v-751h-145v554q-103 -82 -224 -113zM252 -56l1102 1547h156l-1107 -1547h-151zM1047 123v123l405 474h122v-489h104v-108h-104v-153h-144v153h-383zM1200 231h230v263z" />
<glyph unicode="&#xbd;" horiz-adv-x="1708" d="M107 1174v123q30 9 66 28.5t72 45t68.5 55t54.5 58.5h108v-751h-145v554q-103 -82 -224 -113zM228 -56l1101 1547h157l-1105 -1547h-153zM1049 -30q8 69 71 143t183 160q80 57 122.5 90.5t61.5 54.5t21.5 36.5t2.5 37.5q0 48 -34.5 78.5t-103.5 30.5q-33 0 -57 -5 t-41.5 -18t-30.5 -35t-23 -55l-151 15q15 56 39.5 97t61.5 67.5t87.5 39.5t117.5 13q75 0 130 -16t91 -43.5t53.5 -64.5t17.5 -79q0 -40 -7.5 -72t-34.5 -67.5t-79.5 -80.5t-141.5 -111q-47 -35 -75.5 -58.5t-43.5 -37.5h386v-120h-623z" />
<glyph unicode="&#xbe;" horiz-adv-x="1708" d="M33 929l146 15q22 -65 61.5 -88.5t92.5 -23.5q35 0 64 10.5t49.5 28.5t32 42t11.5 52q0 50 -36 80t-120 30q-50 -3 -58 -3l22 110q81 0 118.5 28.5t37.5 73.5q0 37 -29.5 63t-89.5 26q-56 0 -87.5 -22t-54.5 -80l-143 23q21 53 45.5 89.5t58 59t78 32t104.5 9.5 q72 0 124 -14.5t85.5 -39.5t49.5 -59.5t16 -73.5q0 -55 -35.5 -98t-102.5 -62q91 -22 132 -72t41 -119q0 -47 -20.5 -88.5t-59.5 -73.5t-95.5 -50.5t-128.5 -18.5q-140 0 -214 55.5t-95 158.5zM252 -56l1101 1547h157l-1101 -1547h-157zM1047 123v123l404 474h123v-489h104 v-108h-104v-153h-145v153h-382zM1200 231h229v263z" />
<glyph unicode="&#xbf;" d="M106 379q22 8 37.5 13.5t32 8.5t37.5 5t53 4q10 -69 37 -123t66.5 -91.5t90 -57.5t109.5 -20q61 0 115 24t94.5 63t64 88.5t23.5 101.5q0 51 -21.5 92t-54.5 77t-72.5 70.5t-75.5 72.5q-51 54 -88.5 128.5t-63.5 161.5v108h142q0 -59 17 -130q6 -23 9.5 -39.5t8.5 -30 t13.5 -26t24 -29t40.5 -39t63 -55.5q60 -52 101.5 -97t67 -88.5t37 -88.5t11.5 -96q0 -87 -35 -158t-96.5 -121.5t-145 -78.5t-179.5 -28q-91 0 -159 12.5t-121 52t-96.5 114.5t-86.5 200zM482 1288v174h175v-174h-175z" />
<glyph unicode="&#xc0;" horiz-adv-x="1366" d="M18 0l219 579l329 871h210l329 -871l219 -579h-184l-169 446h-600l-169 -446h-184zM422 579h498l-182 496q-14 40 -29 79t-38 105q-23 -66 -38 -105t-29 -79zM495 1802h240l132 -280h-141z" />
<glyph unicode="&#xc1;" horiz-adv-x="1366" d="M18 0l219 579l329 871h210l329 -871l219 -579h-184l-169 446h-600l-169 -446h-184zM422 579h498l-182 496q-14 40 -29 79t-38 105q-23 -66 -38 -105t-29 -79zM495 1522l132 280h240l-231 -280h-141z" />
<glyph unicode="&#xc2;" horiz-adv-x="1366" d="M18 0l219 579l329 871h210l329 -871l219 -579h-184l-169 446h-600l-169 -446h-184zM366 1522l216 280h192l225 -280h-204l-110 170l-113 -170h-206zM422 579h498l-182 496q-14 40 -29 79t-38 105q-23 -66 -38 -105t-29 -79z" />
<glyph unicode="&#xc3;" horiz-adv-x="1366" d="M18 0l219 579l329 871h210l329 -871l219 -579h-184l-169 446h-600l-169 -446h-184zM328 1523q-1 104 57 166q57 62 146 62q62 0 169 -54q59 -30 94 -30q32 0 49 17.5t24 69.5h130q-3 -114 -57.5 -171t-138.5 -57q-63 0 -166 56q-67 36 -98 36q-34 0 -55 -24 q-22 -24 -21 -71h-133zM422 579h498l-182 496q-14 40 -29 79t-38 105q-23 -66 -38 -105t-29 -79z" />
<glyph unicode="&#xc4;" horiz-adv-x="1366" d="M18 0l219 579l329 871h210l329 -871l219 -579h-184l-169 446h-600l-169 -446h-184zM416 1522v166h166v-166h-166zM422 579h498l-182 496q-14 40 -29 79t-38 105q-23 -66 -38 -105t-29 -79zM781 1522v166h166v-166h-166z" />
<glyph unicode="&#xc5;" horiz-adv-x="1366" d="M18 0l219 579l329 871h210l329 -871l219 -579h-184l-169 446h-600l-169 -446h-184zM422 579h498l-182 496q-14 40 -29 79t-38 105q-23 -66 -38 -105t-29 -79zM495 1709q0 38 15 71.5t40.5 59t59 40t71.5 14.5t72 -14.5t59.5 -40t40 -59t14.5 -71.5q0 -39 -14.5 -72.5 t-40 -59t-59.5 -40.5t-72 -15t-71.5 15t-59 40t-40.5 59t-15 73zM568 1709q0 -24 9 -44.5t24.5 -36t36 -24.5t44.5 -9q22 0 43 9.5t36 24.5t24 35.5t9 44.5q0 22 -9 42.5t-24.5 36.5t-36 25t-42.5 9q-24 0 -44.5 -9t-35.5 -24.5t-24.5 -36t-9.5 -43.5z" />
<glyph unicode="&#xc6;" horiz-adv-x="1753" d="M18 0l728 1450h901v-142h-612v-494h505v-142h-505v-530h645v-142h-812v672h-328l-327 -672h-195zM609 814h259v523l-12 -17z" />
<glyph unicode="&#xc7;" horiz-adv-x="1479" d="M113 736q20 717 678 734h4q433 0 549 -416l-159 -34q-87 303 -406 304q-491 -10 -499 -600v-12q0 -576 486 -598q344 0 421 365l157 -33q-89 -455 -565 -466q-662 17 -666 756zM533 -365l31 76q35 -13 68.5 -27.5t70.5 -25.5q36 -8 75 -14t75 6q19 4 32 16t20 28 t7.5 34.5t-6.5 35.5q-8 28 -27.5 41t-44 17t-50.5 1t-48 -7v188h66v-113q30 6 60.5 6.5t59 -7t53 -23.5t42.5 -43q24 -32 27.5 -71t-9.5 -76t-40.5 -65.5t-65.5 -39.5q-32 -12 -64 -14.5t-63.5 0.5t-63.5 10.5t-63 15.5q-37 11 -72 23.5t-70 27.5z" />
<glyph unicode="&#xc8;" horiz-adv-x="1366" d="M178 0v1450h1029v-142h-862v-494h805v-142h-805v-530h895v-142h-1062zM523 1802h240l132 -280h-141z" />
<glyph unicode="&#xc9;" horiz-adv-x="1366" d="M178 0v1450h1029v-142h-862v-494h805v-142h-805v-530h895v-142h-1062zM523 1522l132 280h240l-231 -280h-141z" />
<glyph unicode="&#xca;" horiz-adv-x="1366" d="M178 0v1450h1029v-142h-862v-494h805v-142h-805v-530h895v-142h-1062zM394 1522l216 280h192l225 -280h-204l-110 170l-113 -170h-206z" />
<glyph unicode="&#xcb;" horiz-adv-x="1366" d="M178 0v1450h1029v-142h-862v-494h805v-142h-805v-530h895v-142h-1062zM444 1522v166h166v-166h-166zM809 1522v166h166v-166h-166z" />
<glyph unicode="&#xcc;" horiz-adv-x="569" d="M98 1802h240l132 -280h-141zM192 0v1450h184v-1450h-184z" />
<glyph unicode="&#xcd;" horiz-adv-x="569" d="M98 1522l132 280h240l-231 -280h-141zM192 0v1450h184v-1450h-184z" />
<glyph unicode="&#xce;" horiz-adv-x="569" d="M-31 1522l216 280h192l225 -280h-204l-110 170l-113 -170h-206zM192 0v1450h184v-1450h-184z" />
<glyph unicode="&#xcf;" horiz-adv-x="569" d="M19 1522v166h166v-166h-166zM192 0v1450h184v-1450h-184zM384 1522v166h166v-166h-166z" />
<glyph unicode="&#xd0;" horiz-adv-x="1479" d="M170 0v1450h607q133 0 239.5 -53t180.5 -149t114 -229.5t40 -294.5q0 -168 -40.5 -302t-116.5 -227.5t-185.5 -144t-247.5 -50.5h-591zM345 150h383q104 0 186 39.5t138.5 114.5t86 183t29.5 245q0 136 -26 242t-76 178.5t-125 110t-172 37.5h-424v-1150zM45 650v150h620 v-150h-620z" />
<glyph unicode="&#xd1;" horiz-adv-x="1479" d="M170 0v1450h175l787 -1180v1180h164v-1450h-175l-787 1180v-1180h-164zM380 1523q-1 104 57 166q57 62 146 62q62 0 169 -54q59 -30 94 -30q32 0 49 17.5t24 69.5h130q-3 -114 -57.5 -171t-138.5 -57q-63 0 -166 56q-67 36 -98 36q-34 0 -55 -24q-22 -24 -21 -71h-133z " />
<glyph unicode="&#xd2;" horiz-adv-x="1593" d="M113 712q0 175 48 315.5t137.5 238.5t216 151t282.5 53q101 0 191 -25.5t165.5 -73t136 -115t102.5 -151t64.5 -181t22.5 -204.5q0 -171 -47 -308t-135.5 -233t-214.5 -147.5t-285 -51.5q-149 0 -274.5 54.5t-216.5 152t-142 232t-51 293.5zM296 704q0 -128 34.5 -234.5 t99.5 -184t158 -120.5t209 -43t208.5 43t157 121.5t99 189t34.5 244.5q0 132 -34.5 242.5t-99 190t-157 123.5t-208.5 44q-114 0 -207 -45t-158 -126t-100.5 -194.5t-35.5 -250.5zM610 1802h240l132 -280h-141z" />
<glyph unicode="&#xd3;" horiz-adv-x="1593" d="M113 712q0 175 48 315.5t137.5 238.5t216 151t282.5 53q101 0 191 -25.5t165.5 -73t136 -115t102.5 -151t64.5 -181t22.5 -204.5q0 -171 -47 -308t-135.5 -233t-214.5 -147.5t-285 -51.5q-149 0 -274.5 54.5t-216.5 152t-142 232t-51 293.5zM296 704q0 -128 34.5 -234.5 t99.5 -184t158 -120.5t209 -43t208.5 43t157 121.5t99 189t34.5 244.5q0 132 -34.5 242.5t-99 190t-157 123.5t-208.5 44q-114 0 -207 -45t-158 -126t-100.5 -194.5t-35.5 -250.5zM610 1522l132 280h240l-231 -280h-141z" />
<glyph unicode="&#xd4;" horiz-adv-x="1593" d="M113 712q0 175 48 315.5t137.5 238.5t216 151t282.5 53q101 0 191 -25.5t165.5 -73t136 -115t102.5 -151t64.5 -181t22.5 -204.5q0 -171 -47 -308t-135.5 -233t-214.5 -147.5t-285 -51.5q-149 0 -274.5 54.5t-216.5 152t-142 232t-51 293.5zM296 704q0 -128 34.5 -234.5 t99.5 -184t158 -120.5t209 -43t208.5 43t157 121.5t99 189t34.5 244.5q0 132 -34.5 242.5t-99 190t-157 123.5t-208.5 44q-114 0 -207 -45t-158 -126t-100.5 -194.5t-35.5 -250.5zM481 1522l216 280h192l225 -280h-204l-110 170l-113 -170h-206z" />
<glyph unicode="&#xd5;" horiz-adv-x="1593" d="M113 712q0 175 48 315.5t137.5 238.5t216 151t282.5 53q101 0 191 -25.5t165.5 -73t136 -115t102.5 -151t64.5 -181t22.5 -204.5q0 -171 -47 -308t-135.5 -233t-214.5 -147.5t-285 -51.5q-149 0 -274.5 54.5t-216.5 152t-142 232t-51 293.5zM296 704q0 -128 34.5 -234.5 t99.5 -184t158 -120.5t209 -43t208.5 43t157 121.5t99 189t34.5 244.5q0 132 -34.5 242.5t-99 190t-157 123.5t-208.5 44q-114 0 -207 -45t-158 -126t-100.5 -194.5t-35.5 -250.5zM443 1523q-1 104 57 166q57 62 146 62q62 0 169 -54q59 -30 94 -30q32 0 49 17.5t24 69.5 h130q-3 -114 -57.5 -171t-138.5 -57q-63 0 -166 56q-67 36 -98 36q-34 0 -55 -24q-22 -24 -21 -71h-133z" />
<glyph unicode="&#xd6;" horiz-adv-x="1593" d="M113 712q0 175 48 315.5t137.5 238.5t216 151t282.5 53q101 0 191 -25.5t165.5 -73t136 -115t102.5 -151t64.5 -181t22.5 -204.5q0 -171 -47 -308t-135.5 -233t-214.5 -147.5t-285 -51.5q-149 0 -274.5 54.5t-216.5 152t-142 232t-51 293.5zM296 704q0 -128 34.5 -234.5 t99.5 -184t158 -120.5t209 -43t208.5 43t157 121.5t99 189t34.5 244.5q0 132 -34.5 242.5t-99 190t-157 123.5t-208.5 44q-114 0 -207 -45t-158 -126t-100.5 -194.5t-35.5 -250.5zM531 1522v166h166v-166h-166zM896 1522v166h166v-166h-166z" />
<glyph unicode="&#xd7;" horiz-adv-x="1196" d="M161 409l315 315l-314 314l122 122l314 -314l313 313l120 -121l-312 -313l314 -314l-122 -122l-314 314l-315 -315z" />
<glyph unicode="&#xd8;" horiz-adv-x="1593" d="M113 712q0 175 48 315.5t137.5 238.5t216 151t282.5 53q101 0 191 -25.5t165.5 -73t136 -115t102.5 -151t64.5 -181t22.5 -204.5q0 -171 -47 -308t-135.5 -233t-214.5 -147.5t-285 -51.5q-149 0 -274.5 54.5t-216.5 152t-142 232t-51 293.5zM150 0l1059 1465h237 l-1056 -1465h-240zM296 704q0 -128 34.5 -234.5t99.5 -184t158 -120.5t209 -43t208.5 43t157 121.5t99 189t34.5 244.5q0 132 -34.5 242.5t-99 190t-157 123.5t-208.5 44q-114 0 -207 -45t-158 -126t-100.5 -194.5t-35.5 -250.5z" />
<glyph unicode="&#xd9;" horiz-adv-x="1479" d="M178 496v954h167v-946q0 -92 26 -163t76 -120t122 -74t164 -25q198 0 297 98.5t99 299.5v930h167v-946q0 -126 -39 -223.5t-112 -164t-176 -101.5t-232 -35q-135 0 -239 34t-175.5 100t-108 162t-36.5 220zM551 1802h240l132 -280h-141z" />
<glyph unicode="&#xda;" horiz-adv-x="1479" d="M178 496v954h167v-946q0 -92 26 -163t76 -120t122 -74t164 -25q198 0 297 98.5t99 299.5v930h167v-946q0 -126 -39 -223.5t-112 -164t-176 -101.5t-232 -35q-135 0 -239 34t-175.5 100t-108 162t-36.5 220zM551 1522l132 280h240l-231 -280h-141z" />
<glyph unicode="&#xdb;" horiz-adv-x="1479" d="M178 496v954h167v-946q0 -92 26 -163t76 -120t122 -74t164 -25q198 0 297 98.5t99 299.5v930h167v-946q0 -126 -39 -223.5t-112 -164t-176 -101.5t-232 -35q-135 0 -239 34t-175.5 100t-108 162t-36.5 220zM422 1522l216 280h192l225 -280h-204l-110 170l-113 -170h-206z " />
<glyph unicode="&#xdc;" horiz-adv-x="1479" d="M178 496v954h167v-946q0 -92 26 -163t76 -120t122 -74t164 -25q198 0 297 98.5t99 299.5v930h167v-946q0 -126 -39 -223.5t-112 -164t-176 -101.5t-232 -35q-135 0 -239 34t-175.5 100t-108 162t-36.5 220zM472 1522v166h166v-166h-166zM837 1522v166h166v-166h-166z" />
<glyph unicode="&#xdd;" horiz-adv-x="1366" d="M18 1450h207l448 -698l448 698h207l-568 -850v-600h-174v600zM487 1522l132 280h240l-231 -280h-141z" />
<glyph unicode="&#xde;" horiz-adv-x="1180" d="M66 0v74l196 36v1168l-196 34v74h570v-74l-190 -34v-114h210l96 -8q48 -4 94 -12t87 -30t79 -56q24 -24 43 -53t33 -63q12 -32 19 -67t9 -71v-4v-4v-4v-4q0 -30 -4 -59t-10 -57q-8 -28 -18 -54t-26 -48q-34 -58 -79 -99t-99 -65t-112 -36t-118 -12h-32q-16 0 -32 2 q-8 0 -16 1t-14 3q-8 0 -16 1t-16 3l-8 74q14 -8 27 -11t27 -5t27 -2h27q62 0 113 19t93 57q40 38 61 93t23 129v7v5v7v7v8v8v4v6q-2 2 -2 4v4q-2 42 -14 84t-34 80q-20 40 -52 69t-74 47q-20 8 -39 14t-41 8q-10 2 -21 3t-21 1q-12 2 -23 2h-21h-5h-5h-6h-6h-11h-9 q-12 -2 -23 -2h-21h-11h-9q-6 -2 -11 -2h-9v-976l210 -36v-74h-590z" />
<glyph unicode="&#xdf;" horiz-adv-x="1192" d="M50 0v66l160 28v746q2 77 2.5 159t12.5 161.5t42.5 151.5t92.5 130q27 26 61 46t71.5 33.5t76.5 20t77 6.5q58 3 117 -16.5t106 -56.5t75.5 -90t27.5 -117q1 -36 -8.5 -69t-26 -63.5t-38.5 -58t-45 -51.5q-15 -17 -33 -35.5t-34 -38.5t-26.5 -42.5t-10.5 -47.5 q0 -22 7.5 -41t20 -36t27.5 -32l29 -29q50 -45 101 -84.5t97 -89.5q22 -24 42 -53.5t35.5 -62t24.5 -67.5t8 -69q1 -56 -18.5 -111t-55 -99t-85 -74t-107.5 -36q-49 -7 -100 0t-93.5 29t-73 59.5t-39.5 93.5l44 28q6 -35 24 -63.5t43.5 -49t56 -32.5t62.5 -15q39 -5 73 10.5 t59.5 43.5t40 64t13.5 72q0 30 -8 61t-22 60.5t-32 56.5t-38 50q-50 50 -109.5 96.5t-108.5 97.5q-47 45 -56 103t26 111q22 31 48 60l50 56q26 29 48.5 59.5t37.5 66.5q22 48 31.5 95.5t4.5 98.5q-5 41 -25.5 77t-51 62.5t-69 41t-80.5 13.5q-36 1 -71.5 -10t-65 -31.5 t-52 -49t-33.5 -63.5q-23 -63 -28.5 -131t-3.5 -135v-3v-2v-965l146 -28v-66h-474z" />
<glyph unicode="&#xe0;" d="M121 236q0 131 63 212t193 108q29 6 47 9.5t34 6.5t32.5 5.5t42 7.5t63.5 13t96 21q98 21 125 24v144q-38 84 -94 122.5t-146 38.5q-115 0 -199 -60.5t-120 -172.5l-22 5q-10 3 -22.5 6t-30 6t-45.5 7q5 42 26.5 83t54.5 78t75.5 69t90 55.5t97.5 36.5t99 13 q70 0 135.5 -21.5t116.5 -58.5t81.5 -86.5t30.5 -104.5v-479q5 -57 10.5 -101.5t12 -80.5t14.5 -65.5t19 -56.5q-29 -8 -60.5 -17.5t-59.5 -22.5q-32 69 -39 111.5t-9 48.5q-44 -44 -85 -74.5t-83 -49.5t-87 -27.5t-97 -8.5q-187 0 -273.5 62.5t-86.5 193.5zM257 248 q0 -66 56.5 -99t167.5 -33q54 0 98 15.5t82.5 40t74 56t73.5 64.5v223q-13 -5 -47 -12t-78 -15.5t-94.5 -18.5t-96.5 -20t-83 -20.5t-56 -20.5q-97 -52 -97 -160zM375 1426h240l132 -280h-141z" />
<glyph unicode="&#xe1;" d="M121 236q0 131 63 212t193 108q29 6 47 9.5t34 6.5t32.5 5.5t42 7.5t63.5 13t96 21q98 21 125 24v144q-38 84 -94 122.5t-146 38.5q-115 0 -199 -60.5t-120 -172.5l-22 5q-10 3 -22.5 6t-30 6t-45.5 7q5 42 26.5 83t54.5 78t75.5 69t90 55.5t97.5 36.5t99 13 q70 0 135.5 -21.5t116.5 -58.5t81.5 -86.5t30.5 -104.5v-479q5 -57 10.5 -101.5t12 -80.5t14.5 -65.5t19 -56.5q-29 -8 -60.5 -17.5t-59.5 -22.5q-32 69 -39 111.5t-9 48.5q-44 -44 -85 -74.5t-83 -49.5t-87 -27.5t-97 -8.5q-187 0 -273.5 62.5t-86.5 193.5zM257 248 q0 -66 56.5 -99t167.5 -33q54 0 98 15.5t82.5 40t74 56t73.5 64.5v223q-13 -5 -47 -12t-78 -15.5t-94.5 -18.5t-96.5 -20t-83 -20.5t-56 -20.5q-97 -52 -97 -160zM375 1146l132 280h240l-231 -280h-141z" />
<glyph unicode="&#xe2;" d="M121 236q0 131 63 212t193 108q29 6 47 9.5t34 6.5t32.5 5.5t42 7.5t63.5 13t96 21q98 21 125 24v144q-38 84 -94 122.5t-146 38.5q-115 0 -199 -60.5t-120 -172.5l-22 5q-10 3 -22.5 6t-30 6t-45.5 7q5 42 26.5 83t54.5 78t75.5 69t90 55.5t97.5 36.5t99 13 q70 0 135.5 -21.5t116.5 -58.5t81.5 -86.5t30.5 -104.5v-479q5 -57 10.5 -101.5t12 -80.5t14.5 -65.5t19 -56.5q-29 -8 -60.5 -17.5t-59.5 -22.5q-32 69 -39 111.5t-9 48.5q-44 -44 -85 -74.5t-83 -49.5t-87 -27.5t-97 -8.5q-187 0 -273.5 62.5t-86.5 193.5zM246 1146 l216 280h192l225 -280h-204l-110 170l-113 -170h-206zM257 248q0 -66 56.5 -99t167.5 -33q54 0 98 15.5t82.5 40t74 56t73.5 64.5v223q-13 -5 -47 -12t-78 -15.5t-94.5 -18.5t-96.5 -20t-83 -20.5t-56 -20.5q-97 -52 -97 -160z" />
<glyph unicode="&#xe3;" d="M121 236q0 131 63 212t193 108q29 6 47 9.5t34 6.5t32.5 5.5t42 7.5t63.5 13t96 21q98 21 125 24v144q-38 84 -94 122.5t-146 38.5q-115 0 -199 -60.5t-120 -172.5l-22 5q-10 3 -22.5 6t-30 6t-45.5 7q5 42 26.5 83t54.5 78t75.5 69t90 55.5t97.5 36.5t99 13 q70 0 135.5 -21.5t116.5 -58.5t81.5 -86.5t30.5 -104.5v-479q5 -57 10.5 -101.5t12 -80.5t14.5 -65.5t19 -56.5q-29 -8 -60.5 -17.5t-59.5 -22.5q-32 69 -39 111.5t-9 48.5q-44 -44 -85 -74.5t-83 -49.5t-87 -27.5t-97 -8.5q-187 0 -273.5 62.5t-86.5 193.5zM208 1147 q-1 104 57 166q57 62 146 62q62 0 169 -54q59 -30 94 -30q32 0 49 17.5t24 69.5h130q-3 -114 -57.5 -171t-138.5 -57q-63 0 -166 56q-67 36 -98 36q-34 0 -55 -24q-22 -24 -21 -71h-133zM257 248q0 -66 56.5 -99t167.5 -33q54 0 98 15.5t82.5 40t74 56t73.5 64.5v223 q-13 -5 -47 -12t-78 -15.5t-94.5 -18.5t-96.5 -20t-83 -20.5t-56 -20.5q-97 -52 -97 -160z" />
<glyph unicode="&#xe4;" d="M121 236q0 131 63 212t193 108q29 6 47 9.5t34 6.5t32.5 5.5t42 7.5t63.5 13t96 21q98 21 125 24v144q-38 84 -94 122.5t-146 38.5q-115 0 -199 -60.5t-120 -172.5l-22 5q-10 3 -22.5 6t-30 6t-45.5 7q5 42 26.5 83t54.5 78t75.5 69t90 55.5t97.5 36.5t99 13 q70 0 135.5 -21.5t116.5 -58.5t81.5 -86.5t30.5 -104.5v-479q5 -57 10.5 -101.5t12 -80.5t14.5 -65.5t19 -56.5q-29 -8 -60.5 -17.5t-59.5 -22.5q-32 69 -39 111.5t-9 48.5q-44 -44 -85 -74.5t-83 -49.5t-87 -27.5t-97 -8.5q-187 0 -273.5 62.5t-86.5 193.5zM257 248 q0 -66 56.5 -99t167.5 -33q54 0 98 15.5t82.5 40t74 56t73.5 64.5v223q-13 -5 -47 -12t-78 -15.5t-94.5 -18.5t-96.5 -20t-83 -20.5t-56 -20.5q-97 -52 -97 -160zM296 1146v166h166v-166h-166zM661 1146v166h166v-166h-166z" />
<glyph unicode="&#xe5;" d="M121 236q0 131 63 212t193 108q29 6 47 9.5t34 6.5t32.5 5.5t42 7.5t63.5 13t96 21q98 21 125 24v144q-38 84 -94 122.5t-146 38.5q-115 0 -199 -60.5t-120 -172.5l-22 5q-10 3 -22.5 6t-30 6t-45.5 7q5 42 26.5 83t54.5 78t75.5 69t90 55.5t97.5 36.5t99 13 q70 0 135.5 -21.5t116.5 -58.5t81.5 -86.5t30.5 -104.5v-479q5 -57 10.5 -101.5t12 -80.5t14.5 -65.5t19 -56.5q-29 -8 -60.5 -17.5t-59.5 -22.5q-32 69 -39 111.5t-9 48.5q-44 -44 -85 -74.5t-83 -49.5t-87 -27.5t-97 -8.5q-187 0 -273.5 62.5t-86.5 193.5zM257 248 q0 -66 56.5 -99t167.5 -33q54 0 98 15.5t82.5 40t74 56t73.5 64.5v223q-13 -5 -47 -12t-78 -15.5t-94.5 -18.5t-96.5 -20t-83 -20.5t-56 -20.5q-97 -52 -97 -160zM375 1333q0 38 15 71.5t40.5 59t59 40t71.5 14.5t72 -14.5t59.5 -40t40 -59t14.5 -71.5q0 -39 -14.5 -72.5 t-40 -59t-59.5 -40.5t-72 -15t-71.5 15t-59 40t-40.5 59t-15 73zM448 1333q0 -24 9 -44.5t24.5 -36t36 -24.5t44.5 -9q22 0 43 9.5t36 24.5t24 35.5t9 44.5q0 22 -9 42.5t-24.5 36.5t-36 25t-42.5 9q-24 0 -44.5 -9t-35.5 -24.5t-24.5 -36t-9.5 -43.5z" />
<glyph unicode="&#xe6;" horiz-adv-x="1546" d="M49 236q0 132 56 212.5t174 107.5q26 6 42.5 9.5t30.5 6t29 5.5t38 8t57 13t87 21q42 10 68.5 15.5t39.5 7.5l4 18v127q-34 84 -84.5 122.5t-131.5 38.5q-103 0 -178.5 -60.5t-108.5 -172.5q-11 3 -20 5.5t-20 5.5t-27 6t-41 7q5 42 24.5 83t49 78t67.5 69t80.5 55.5 t88 36.5t89.5 13q49 0 95.5 -13t86.5 -36.5t71.5 -55.5t50.5 -70l7 10q53 77 127.5 121t163.5 44q91 0 168 -37.5t132 -101.5t86 -150t31 -182v-136h-692v-69q6 -40 19 -76q24 -66 65 -113.5t98 -74t122 -26.5q101 0 173 56.5t100 159.5q26 -10 51 -20l50 -20 q-16 -66 -51.5 -122t-84 -96.5t-108 -63t-123.5 -22.5q-91 0 -171 42t-140 114q-32 38 -57 84l-43 -80q-40 -44 -77 -74.5t-74.5 -49.5t-78 -27.5t-87.5 -8.5q-168 0 -246 62.5t-78 193.5zM171 248q0 -132 202 -132q48 0 87.5 15.5t74.5 40t67 56t66 64.5v128q-6 45 -6 92v1 q-16 -5 -47 -12.5t-70.5 -16t-83 -18t-83 -19.5t-71.5 -20t-48 -19q-88 -52 -88 -160zM790 603h570q0 69 -21.5 130.5t-60.5 107t-92.5 72.5t-117.5 27q-58 0 -110 -28.5t-90 -75.5t-61 -108q-12 -32 -17 -65v-60z" />
<glyph unicode="&#xe7;" horiz-adv-x="1024" d="M113 516q0 113 33 214t90.5 177.5t136.5 121.5t172 45q66 0 128 -22t116 -63.5t98 -100.5t74 -133q-12 -9 -30.5 -17.5t-36 -15t-30.5 -10.5t-15 -5q-33 59 -65.5 104t-68 75.5t-76.5 46t-90 15.5q-66 0 -122.5 -35.5t-98 -95.5t-64.5 -138t-23 -163q0 -82 24 -156 t66.5 -130t100.5 -89t125 -33q106 0 181 70t119 202q10 -3 26.5 -8t34 -9.5t33.5 -8.5t26 -6q-51 -178 -160 -273t-264 -95q-94 0 -174.5 43t-139.5 116t-92.5 170.5t-33.5 206.5zM337 -365l31 76q35 -13 68.5 -27.5t70.5 -25.5q36 -8 75 -14t75 6q19 4 32 16t20 28 t7.5 34.5t-6.5 35.5q-8 28 -27.5 41t-44 17t-50.5 1t-48 -7v188h66v-113q30 6 60.5 6.5t59 -7t53 -23.5t42.5 -43q24 -32 27.5 -71t-9.5 -76t-40.5 -65.5t-65.5 -39.5q-32 -12 -64 -14.5t-63.5 0.5t-63.5 10.5t-63 15.5q-37 11 -72 23.5t-70 27.5z" />
<glyph unicode="&#xe8;" d="M113 537q0 92 33 194t92 178.5t141.5 120.5t185.5 44q97 0 182.5 -37.5t147 -101.5t96 -150t34.5 -182v-136h-775q0 -79 26.5 -145t72.5 -113.5t95 -74t121 -26.5q113 0 207 56.5t125 159.5q29 -10 56.5 -20t55.5 -20q-18 -66 -57.5 -122t-93.5 -96.5t-138 -63 t-155 -22.5q-101 0 -172 42t-137 114t-104.5 169t-38.5 232zM250 603h639q0 69 -24 130.5t-67 107t-102.5 72.5t-130.5 27q-65 0 -122.5 -28.5t-100 -75.5t-67.5 -108t-25 -125zM383 1426h240l132 -280h-141z" />
<glyph unicode="&#xe9;" d="M113 537q0 92 33 194t92 178.5t141.5 120.5t185.5 44q97 0 182.5 -37.5t147 -101.5t96 -150t34.5 -182v-136h-775q0 -79 26.5 -145t72.5 -113.5t95 -74t121 -26.5q113 0 207 56.5t125 159.5q29 -10 56.5 -20t55.5 -20q-18 -66 -57.5 -122t-93.5 -96.5t-138 -63 t-155 -22.5q-101 0 -172 42t-137 114t-104.5 169t-38.5 232zM250 603h639q0 69 -24 130.5t-67 107t-102.5 72.5t-130.5 27q-65 0 -122.5 -28.5t-100 -75.5t-67.5 -108t-25 -125zM383 1146l132 280h240l-231 -280h-141z" />
<glyph unicode="&#xea;" d="M113 537q0 92 33 194t92 178.5t141.5 120.5t185.5 44q97 0 182.5 -37.5t147 -101.5t96 -150t34.5 -182v-136h-775q0 -79 26.5 -145t72.5 -113.5t95 -74t121 -26.5q113 0 207 56.5t125 159.5q29 -10 56.5 -20t55.5 -20q-18 -66 -57.5 -122t-93.5 -96.5t-138 -63 t-155 -22.5q-101 0 -172 42t-137 114t-104.5 169t-38.5 232zM250 603h639q0 69 -24 130.5t-67 107t-102.5 72.5t-130.5 27q-65 0 -122.5 -28.5t-100 -75.5t-67.5 -108t-25 -125zM254 1146l216 280h192l225 -280h-204l-110 170l-113 -170h-206z" />
<glyph unicode="&#xeb;" d="M113 537q0 92 33 194t92 178.5t141.5 120.5t185.5 44q97 0 182.5 -37.5t147 -101.5t96 -150t34.5 -182v-136h-775q0 -79 26.5 -145t72.5 -113.5t95 -74t121 -26.5q113 0 207 56.5t125 159.5q29 -10 56.5 -20t55.5 -20q-18 -66 -57.5 -122t-93.5 -96.5t-138 -63 t-155 -22.5q-101 0 -172 42t-137 114t-104.5 169t-38.5 232zM250 603h639q0 69 -24 130.5t-67 107t-102.5 72.5t-130.5 27q-65 0 -122.5 -28.5t-100 -75.5t-67.5 -108t-25 -125zM304 1146v166h166v-166h-166zM669 1146v166h166v-166h-166z" />
<glyph unicode="&#xec;" horiz-adv-x="455" d="M32 1426h240l132 -280h-141zM154 0v1054h128v-1054h-128z" />
<glyph unicode="&#xed;" horiz-adv-x="455" d="M32 1146l132 280h240l-231 -280h-141zM154 0v1054h128v-1054h-128z" />
<glyph unicode="&#xee;" horiz-adv-x="455" d="M-97 1146l216 280h192l225 -280h-204l-110 170l-113 -170h-206zM154 0v1054h128v-1054h-128z" />
<glyph unicode="&#xef;" horiz-adv-x="455" d="M-47 1146v166h166v-166h-166zM154 0v1054h128v-1054h-128zM318 1146v166h166v-166h-166z" />
<glyph unicode="&#xf0;" horiz-adv-x="1062" d="M68 468q-2 64 10 125t36 119t61 104t87 78q30 20 63 35t67 23q34 10 69 15t71 5q14 0 28 -1t28 -1q12 -2 26 -4l28 -4q28 -6 55 -14t53 -18v4q-2 2 -4 5t-4 7t-3 9t-3 11q-14 34 -27 69t-27 69q-8 16 -15 33t-15 35q-8 16 -16 33t-18 33l-246 -124l-36 74l234 120 q-4 6 -9 13t-9 15q-6 6 -11 13t-9 15q-6 8 -11 15t-9 15q-6 6 -11 13t-11 15l-12 16l-12 16q-2 4 -5 8t-7 10q-2 4 -5 8t-7 8l62 62q22 -26 45 -49l45 -45l44 -48q22 -24 42 -48l214 108l32 -74l-192 -98q46 -76 87 -159t79 -171q38 -90 62 -180t34 -182v-12q0 -6 2 -10v-12 v-12v-12q0 -6 2 -12v-12v-12q0 -30 -2 -59t-6 -57t-10 -56t-14 -56q-14 -50 -38 -94t-58 -84q-34 -38 -76 -64t-92 -40q-14 -4 -29 -9t-31 -7q-14 -4 -29 -5t-31 -3h-8q-4 0 -6 -2h-8h-8h-8q-4 0 -6 -2h-8h-8q-30 0 -58 3t-56 9t-55 13t-51 19q-60 28 -104 75t-74 109 q-30 64 -44 131t-14 137zM250 508q0 -8 1 -17t3 -19q0 -16 2 -33t4 -35t5 -35t7 -33q10 -56 31 -109t53 -101q30 -48 77 -72t109 -24h3h3h3q1 0 3 2h3h3h3h3v4q64 2 108 26t70 72t42 99t22 107v12q0 6 2 14v13v13v12q0 6 2 14v12v12v4v4v6v8v8q-2 16 -3 31t-1 31 q-2 16 -3 32t-5 32q-8 58 -28 112t-50 104t-79 75t-115 25h-3h-3h-3h-3q-72 -2 -123 -29t-79 -79q-28 -50 -43 -107t-19 -117q-2 -6 -2 -11v-9v-9v-9v-17v-19z" />
<glyph unicode="&#xf1;" d="M162 0v1054h134v-135q80 80 156 117.5t161 37.5q47 0 92.5 -15t86 -41t74.5 -61.5t58.5 -75.5t38.5 -83.5t14 -86.5v-711h-128v703q0 46 -22 90t-56 78.5t-76 55.5t-82 21q-44 5 -94.5 -21t-96.5 -69.5t-82 -97.5t-50 -105v-655h-128zM216 1147q-1 104 57 166 q57 62 146 62q62 0 169 -54q59 -30 94 -30q32 0 49 17.5t24 69.5h130q-3 -114 -57.5 -171t-138.5 -57q-63 0 -166 56q-67 36 -98 36q-34 0 -55 -24q-22 -24 -21 -71h-133z" />
<glyph unicode="&#xf2;" d="M105 512q0 111 35 212.5t96 179.5t144.5 124t180.5 46q64 0 123.5 -21t111.5 -58.5t94 -89.5t72 -114.5t46.5 -133t16.5 -145.5q0 -109 -35.5 -206t-98 -169.5t-147 -114.5t-183.5 -42q-96 0 -179.5 42.5t-145 115t-96.5 169t-35 205.5zM241 512q0 -82 27 -154t72 -126 t102.5 -85t118.5 -31q68 0 128 32t104.5 86.5t70 126.5t25.5 151q0 85 -26 162.5t-70.5 136.5t-104.5 94t-127 35q-65 0 -123 -36.5t-101.5 -96.5t-69.5 -137t-26 -158zM379 1426h240l132 -280h-141z" />
<glyph unicode="&#xf3;" d="M105 512q0 111 35 212.5t96 179.5t144.5 124t180.5 46q64 0 123.5 -21t111.5 -58.5t94 -89.5t72 -114.5t46.5 -133t16.5 -145.5q0 -109 -35.5 -206t-98 -169.5t-147 -114.5t-183.5 -42q-96 0 -179.5 42.5t-145 115t-96.5 169t-35 205.5zM241 512q0 -82 27 -154t72 -126 t102.5 -85t118.5 -31q68 0 128 32t104.5 86.5t70 126.5t25.5 151q0 85 -26 162.5t-70.5 136.5t-104.5 94t-127 35q-65 0 -123 -36.5t-101.5 -96.5t-69.5 -137t-26 -158zM379 1146l132 280h240l-231 -280h-141z" />
<glyph unicode="&#xf4;" d="M105 512q0 111 35 212.5t96 179.5t144.5 124t180.5 46q64 0 123.5 -21t111.5 -58.5t94 -89.5t72 -114.5t46.5 -133t16.5 -145.5q0 -109 -35.5 -206t-98 -169.5t-147 -114.5t-183.5 -42q-96 0 -179.5 42.5t-145 115t-96.5 169t-35 205.5zM241 512q0 -82 27 -154t72 -126 t102.5 -85t118.5 -31q68 0 128 32t104.5 86.5t70 126.5t25.5 151q0 85 -26 162.5t-70.5 136.5t-104.5 94t-127 35q-65 0 -123 -36.5t-101.5 -96.5t-69.5 -137t-26 -158zM250 1146l216 280h192l225 -280h-204l-110 170l-113 -170h-206z" />
<glyph unicode="&#xf5;" d="M105 512q0 111 35 212.5t96 179.5t144.5 124t180.5 46q64 0 123.5 -21t111.5 -58.5t94 -89.5t72 -114.5t46.5 -133t16.5 -145.5q0 -109 -35.5 -206t-98 -169.5t-147 -114.5t-183.5 -42q-96 0 -179.5 42.5t-145 115t-96.5 169t-35 205.5zM212 1147q-1 104 57 166 q57 62 146 62q62 0 169 -54q59 -30 94 -30q32 0 49 17.5t24 69.5h130q-3 -114 -57.5 -171t-138.5 -57q-63 0 -166 56q-67 36 -98 36q-34 0 -55 -24q-22 -24 -21 -71h-133zM241 512q0 -82 27 -154t72 -126t102.5 -85t118.5 -31q68 0 128 32t104.5 86.5t70 126.5t25.5 151 q0 85 -26 162.5t-70.5 136.5t-104.5 94t-127 35q-65 0 -123 -36.5t-101.5 -96.5t-69.5 -137t-26 -158z" />
<glyph unicode="&#xf6;" d="M105 512q0 111 35 212.5t96 179.5t144.5 124t180.5 46q64 0 123.5 -21t111.5 -58.5t94 -89.5t72 -114.5t46.5 -133t16.5 -145.5q0 -109 -35.5 -206t-98 -169.5t-147 -114.5t-183.5 -42q-96 0 -179.5 42.5t-145 115t-96.5 169t-35 205.5zM241 512q0 -82 27 -154t72 -126 t102.5 -85t118.5 -31q68 0 128 32t104.5 86.5t70 126.5t25.5 151q0 85 -26 162.5t-70.5 136.5t-104.5 94t-127 35q-65 0 -123 -36.5t-101.5 -96.5t-69.5 -137t-26 -158zM300 1146v166h166v-166h-166zM665 1146v166h166v-166h-166z" />
<glyph unicode="&#xf7;" horiz-adv-x="818" d="M31 385v150h620v-150h-620zM245 -58v192h192v-192h-192zM245 789v191h192v-191h-192z" />
<glyph unicode="&#xf8;" d="M105 512q0 111 35 212.5t96 179.5t144.5 124t180.5 46q64 0 123.5 -21t111.5 -58.5t94 -89.5t72 -114.5t46.5 -133t16.5 -145.5q0 -109 -35.5 -206t-98 -169.5t-147 -114.5t-183.5 -42q-96 0 -179.5 42.5t-145 115t-96.5 169t-35 205.5zM241 512q0 -82 27 -154t72 -126 t102.5 -85t118.5 -31q68 0 128 32t104.5 86.5t70 126.5t25.5 151q0 85 -26 162.5t-70.5 136.5t-104.5 94t-127 35q-65 0 -123 -36.5t-101.5 -96.5t-69.5 -137t-26 -158zM289 -211l416 1478h135l-415 -1478h-136z" />
<glyph unicode="&#xf9;" d="M154 332v722h128v-706q0 -43 19.5 -85.5t52 -77t74 -56t85.5 -21.5q49 -5 99 17.5t94.5 63t80 93t54.5 106.5v666h128v-1050h-136q9 31 9 67q0 32 -9 61q-78 -78 -154.5 -115t-161.5 -37q-71 0 -136.5 31t-116 81t-80.5 113t-30 127zM375 1426h240l132 -280h-141z" />
<glyph unicode="&#xfa;" d="M154 332v722h128v-706q0 -43 19.5 -85.5t52 -77t74 -56t85.5 -21.5q49 -5 99 17.5t94.5 63t80 93t54.5 106.5v666h128v-1050h-136q9 31 9 67q0 32 -9 61q-78 -78 -154.5 -115t-161.5 -37q-71 0 -136.5 31t-116 81t-80.5 113t-30 127zM375 1146l132 280h240l-231 -280 h-141z" />
<glyph unicode="&#xfb;" d="M154 332v722h128v-706q0 -43 19.5 -85.5t52 -77t74 -56t85.5 -21.5q49 -5 99 17.5t94.5 63t80 93t54.5 106.5v666h128v-1050h-136q9 31 9 67q0 32 -9 61q-78 -78 -154.5 -115t-161.5 -37q-71 0 -136.5 31t-116 81t-80.5 113t-30 127zM246 1146l216 280h192l225 -280h-204 l-110 170l-113 -170h-206z" />
<glyph unicode="&#xfc;" d="M154 332v722h128v-706q0 -43 19.5 -85.5t52 -77t74 -56t85.5 -21.5q49 -5 99 17.5t94.5 63t80 93t54.5 106.5v666h128v-1050h-136q9 31 9 67q0 32 -9 61q-78 -78 -154.5 -115t-161.5 -37q-71 0 -136.5 31t-116 81t-80.5 113t-30 127zM296 1146v166h166v-166h-166z M661 1146v166h166v-166h-166z" />
<glyph unicode="&#xfd;" horiz-adv-x="1024" d="M33 -318l96 84q15 -11 27.5 -20t25.5 -15t28 -9.5t35 -3.5q25 -8 47.5 6t42 41.5t37 64.5t31.5 76t26 75.5t20 62.5l-367 1010h136l304 -818l295 818h144l-378 -1016q-36 -96 -67 -178t-68.5 -142t-86.5 -94t-120 -34q-30 0 -64.5 8t-65 21.5t-52.5 29.5t-26 33z M311 1146l132 280h240l-231 -280h-141z" />
<glyph unicode="&#xfe;" horiz-adv-x="1062" d="M-12 -316l176 26v1688l-156 24v54q10 0 20 1t22 3l20 4l20 4l20 4q10 2 22 6l20 4l20 4q12 4 24 7t24 5q6 2 12 3t14 3q6 2 12 3t12 3l16 4l16 4q4 0 8 1t10 3q4 0 8 1t8 3v-8v-6q-2 -4 -2 -8v-8v-15v-15v-4v-4q-2 -2 -2 -4v-4v-8v-8v-8v-8v-8v-8v-606q6 2 13 8t15 12 q4 4 8 7t8 7l6 6q4 4 8 6q22 18 47 36t51 34t53 25t53 11h4h4h4q2 0 4 2h6h4h4q56 0 107 -18t97 -52q46 -36 78 -79t52 -95q6 -20 12 -41t10 -43q4 -20 7 -41t5 -43v-5q0 -3 2 -7v-5v-7v-11v-9v-4v-4v-4v-4q-2 -80 -22 -153t-60 -143q-38 -68 -97 -116t-135 -74 q-16 -6 -31 -9t-31 -3q-14 -2 -29 -3t-31 -1q-14 0 -28 1t-28 3q-14 0 -28 2l-28 4q-14 4 -29 8t-29 8t-28 9t-28 11v-332l200 -26v-70h-544v70zM332 180q16 -18 32 -31t34 -25q16 -12 32 -21t32 -17q34 -14 64 -22t60 -8q52 0 96 22t78 66q34 46 52 110t20 148 q0 88 -19 163t-59 141q-38 66 -90 99t-118 33q-24 0 -49 -6t-53 -16q-26 -10 -55 -27t-57 -39v-570z" />
<glyph unicode="&#xff;" horiz-adv-x="1024" d="M33 -318l96 84q15 -11 27.5 -20t25.5 -15t28 -9.5t35 -3.5q25 -8 47.5 6t42 41.5t37 64.5t31.5 76t26 75.5t20 62.5l-367 1010h136l304 -818l295 818h144l-378 -1016q-36 -96 -67 -178t-68.5 -142t-86.5 -94t-120 -34q-30 0 -64.5 8t-65 21.5t-52.5 29.5t-26 33z M232 1146v166h166v-166h-166zM597 1146v166h166v-166h-166z" />
<glyph unicode="&#x131;" horiz-adv-x="455" d="M154 0v1054h128v-1054h-128z" />
<glyph unicode="&#x152;" horiz-adv-x="2048" d="M129 735q0 322 142 539t450 217q264 0 400 -223v198h831v-173h-650v-448h599v-172h-599v-500h681v-173h-862v212q-135 -237 -400 -237q-301 0 -456 232q-136 205 -136 528zM329 720q0 -303 115.5 -446t275.5 -143q161 0 275.5 142.5t114.5 471.5q0 306 -115.5 447.5 t-274.5 141.5q-101 0 -197 -65t-145 -197.5t-49 -351.5z" />
<glyph unicode="&#x153;" horiz-adv-x="1933" d="M82 518q0 169 58.5 302.5t178 199.5t265.5 66q138 0 240.5 -57.5t153.5 -145.5q64 93 164.5 148t224.5 55q220 0 356 -151t134 -452h-784q3 -166 92.5 -262.5t223.5 -96.5q99 0 170.5 55.5t103.5 166.5l180 -26q-43 -165 -160.5 -254.5t-296.5 -89.5q-134 0 -240 52.5 t-168 146.5q-76 -99 -175 -149t-221 -50q-225 0 -362.5 143t-137.5 399zM267 533q0 -186 71 -283q92 -126 239 -126q129 0 221 106t92 305q0 198 -90.5 300.5t-222.5 102.5q-87 0 -160 -49t-111.5 -145t-38.5 -211zM1080 631h587q-12 151 -91.5 229t-197.5 78 q-120 0 -203.5 -82t-94.5 -225z" />
<glyph unicode="&#x160;" horiz-adv-x="1366" d="M92 471l183 16q13 -110 60.5 -180.5t147.5 -114t225 -43.5q111 0 196 33t126.5 90.5t41.5 125.5q0 69 -40 120.5t-132 86.5q-59 23 -261 71.5t-283 91.5q-105 55 -156.5 136.5t-51.5 182.5q0 111 63 207.5t184 146.5t269 50q163 0 287.5 -52.5t191.5 -154.5t72 -231 l-186 -14q-15 139 -101.5 210t-255.5 71q-176 0 -256.5 -64.5t-80.5 -155.5q0 -79 57 -130q56 -51 292.5 -104.5t324.5 -93.5q128 -59 189 -149.5t61 -208.5q0 -117 -67 -220.5t-192.5 -161t-282.5 -57.5q-199 0 -333.5 58t-211 174.5t-80.5 263.5zM336 1830h206l113 -170 l110 170h204l-225 -280h-192z" />
<glyph unicode="&#x161;" horiz-adv-x="1024" d="M63 317l178 28q15 -107 83.5 -164t191.5 -57q124 0 184 50.5t60 118.5q0 61 -53 96q-37 24 -184 61q-198 50 -274.5 86.5t-116 101t-39.5 142.5q0 71 32.5 131.5t88.5 100.5q42 31 114.5 52.5t155.5 21.5q125 0 219.5 -36t139.5 -97.5t62 -164.5l-176 -24 q-12 82 -69.5 128t-162.5 46q-124 0 -177 -41t-53 -96q0 -35 22 -63q22 -29 69 -48q27 -10 159 -46q191 -51 266.5 -83.5t118.5 -94.5t43 -154q0 -90 -52.5 -169.5t-151.5 -123t-224 -43.5q-207 0 -315.5 86t-138.5 255zM188 1474h206l113 -170l110 170h204l-225 -280h-192z " />
<glyph unicode="&#x178;" horiz-adv-x="1453" d="M18 1450h207l449 -708l456 708h198l-581 -850l-1 -600h-169l-1 600zM220 263v2h2v-2h-2zM367 1426v192h192v-192h-192zM790 1426v192h192v-192h-192z" />
<glyph unicode="&#x192;" d="M46 -405l35 155q51 -11 88.5 -16.5t63.5 -5.5q55 0 83 28q29 29 45 124l177 1042h-201l24 140h201l24 133q22 120 45 165q31 63 88 97.5t151 34.5q78 0 215 -38l-35 -153q-104 24 -154 24q-56 0 -84 -28q-27 -26 -47 -132l-19 -103h204l-25 -140h-204l-191 -1092 q-26 -149 -87 -204q-62 -57 -173 -57q-48 0 -103 6.5t-121 19.5z" />
<glyph unicode="&#x2c6;" horiz-adv-x="682" d="M25 1194l216 280h192l225 -280h-204l-110 170l-113 -170h-206z" />
<glyph unicode="&#x2da;" d="M383 1333q0 38 15 71.5t40.5 59t59 40t71.5 14.5t72 -14.5t59.5 -40t40 -59t14.5 -71.5q0 -39 -14.5 -72.5t-40 -59t-59.5 -40.5t-72 -15t-71.5 15t-59 40t-40.5 59t-15 73zM456 1333q0 -24 9 -44.5t24.5 -36t36 -24.5t44.5 -9q22 0 43 9.5t36 24.5t24 35.5t9 44.5 q0 22 -9 42.5t-24.5 36.5t-36 25t-42.5 9q-24 0 -44.5 -9t-35.5 -24.5t-24.5 -36t-9.5 -43.5z" />
<glyph unicode="&#x2dc;" horiz-adv-x="682" d="M7 1219q-1 104 57 166q57 62 146 62q62 0 169 -54q59 -30 94 -30q32 0 49 17.5t24 69.5h130q-3 -114 -57.5 -171t-138.5 -57q-63 0 -166 56q-67 36 -98 36q-34 0 -55 -24q-22 -24 -21 -71h-133z" />
<glyph unicode="&#xe01;" horiz-adv-x="1055" d="M0 874q42 48 154 125q55 39 125 58.5t155 19.5q113 0 203 -33.5t147 -89.5q50 -45 50 -84v-870h-107v797q0 66 -92 125q-91 59 -201 59q-63 0 -90 -6q-23 -5 -43 -11t-37 -16l-31 -14q-26 -14 -42.5 -23.5t-24.5 -17.5l162 -74l-135 -168v-651h-95v700l90 91z" />
<glyph unicode="&#xe02;" horiz-adv-x="993" d="M0 797q0 101 63 170q99 106 252 106q39 0 77 -9.5t75 -29.5q65 -33 92 -121l6 -47v-26q0 -11 -2 -19l-12 -37l-16 -45l-25 -47l-27 -61v-537h199v979h96v-1073h-510v94h121v578q5 2 11.5 11t17.5 26q12 20 19 34.5t18 40.5q8 22 11 42t3 38q0 41 -20 68q-37 49 -127 49 h-26q-12 0 -20 -2l-24 -6l22 -25q18 -10 41 -49q13 -19 21 -42t8 -58q0 -68 -57 -125q-56 -56 -119 -56t-115 58q-53 59 -53 121zM88 797q0 -14 2 -19t8 -16q2 -8 5.5 -14.5t11.5 -14.5q11 -11 25 -18t34 -10q31 0 59 22q17 19 23 70q0 19 -5.5 38.5t-16.5 35.5t-27 26 t-37 10q-40 0 -61 -37q-8 -14 -13 -32t-8 -41z" />
<glyph unicode="&#xe03;" horiz-adv-x="1020" d="M2 731q0 147 86 244q19 22 43 38.5t53 30.5q63 29 76 29l113 -86l102 86l184 -188l-174 -254v-537h201v979h94v-1073h-510v94h121v582l146 203l-62 61l-102 -70l-127 84q-23 0 -45 -22l-25 -25q17 -3 35 -7.5t37 -12.5q47 -20 65 -53l17 -48q9 -21 12 -49 q0 -36 -14 -67.5t-38 -54.5t-55 -36.5t-65 -13.5t-64.5 14t-53.5 37.5t-36.5 53t-13.5 61.5zM90 731q0 -80 76 -80q80 0 80 80q0 82 -80 82q-33 0 -53 -20q-17 -24 -23 -62z" />
<glyph unicode="&#xe04;" horiz-adv-x="1032" d="M0 0v739q9 47 29 87t49 75q62 81 150 126.5t194 45.5q99 0 190 -49q90 -46 152 -133q55 -79 55 -152v-739h-94v692q0 60 -22.5 111t-67.5 96q-83 80 -213 80q-62 3 -121 -23t-105 -68t-74 -93t-28 -99v-415l162 419q6 14 21 31t38 37q41 35 82 41l66 -4l41 -19 q17 -8 32 -23t27 -40q14 -23 20.5 -43t6.5 -39q0 -13 -4 -33.5t-11.5 -42t-17.5 -40t-22 -27.5l-11 -9l-49 -22q-17 -10 -74 -16q-32 0 -62 14t-56 43l-193 -508h-90zM328 631q0 -20 5.5 -37.5t16.5 -34.5q22 -21 64 -24q90 0 90 102q0 42 -29 68q-26 20 -67 20 q-31 0 -58 -27q-16 -23 -22 -67z" />
<glyph unicode="&#xe05;" horiz-adv-x="1032" d="M0 0v938q56 108 184 135q36 0 71 -8t66 -20t56 -26t41 -26l94 51q60 29 119 29q26 0 54.5 -11t57.5 -34q26 -20 45.5 -42.5t30.5 -45.5v-940h-94v911q-38 56 -100 68q-65 0 -123 -31q-11 -5 -17.5 -7.5t-9.5 -4.5q-8 -5 -12.5 -7.5t-7.5 -4.5l-37 -25q-14 14 -84 47 q-68 35 -139 35q-23 -5 -41.5 -11t-32.5 -16q-21 -8 -27 -43v-704l160 452q6 59 55 105q44 41 99 41h53q5 -2 9.5 -1.5t12.5 -4.5l29 -15q38 -15 59 -59q25 -40 25 -68q0 -49 -15 -88.5t-44 -70.5l-29 -15l-37 -14q-19 -8 -63 -8q-46 0 -111 47l-178 -508h-119zM336 637 q0 -20 5.5 -37.5t16.5 -34.5q10 -11 24 -17.5t34 -8.5q34 0 67 24q27 27 27 72q0 48 -31 70q-12 11 -28.5 15.5t-36.5 4.5q-37 0 -55 -25.5t-23 -62.5z" />
<glyph unicode="&#xe06;" horiz-adv-x="1294" d="M2 731q0 147 86 244q19 22 43 38.5t53 30.5q63 29 76 29l113 -86l129 86l121 -98q3 -2 5.5 -4t4.5 -4q5 -5 11 -12.5t15 -16.5q7 -6 14.5 -17.5t18.5 -23.5l-164 -201v-266q5 0 28.5 -6.5t68.5 -20.5q49 -14 95 -38t91 -56q43 -32 73.5 -58.5t47.5 -49.5q20 -20 33 -37.5 t18 -34.5v944h94v-1073h-94l-63 88q-42 47 -79.5 83t-72.5 62q-139 103 -240 103v-254q0 -82 -106 -82q-63 0 -117 23q-54 26 -92 75q-17 20 -27 47.5t-10 65.5q5 51 22 87t42.5 60t57.5 39t67 25l65 8l4 309l135 160l-77 53l-119 -82l-127 91q-21 0 -45 -27l-25 -27 q26 -5 39.5 -9t32.5 -11q49 -19 67 -53q14 -23 20.5 -48t6.5 -53q0 -34 -14 -65.5t-38 -56t-55 -39.5t-65 -15q-66 0 -117 51q-51 54 -51 123zM98 731q0 -82 70 -82q84 0 84 82q0 80 -84 80q-29 0 -49 -20q-15 -20 -21 -60zM270 211q0 -113 164 -113v238l-12 6 q-36 0 -94 -37q-58 -39 -58 -94z" />
<glyph unicode="&#xe07;" horiz-adv-x="858" d="M0 563l74 55l477 -471v607q-44 -29 -102 -29q-31 0 -62 13t-55.5 36t-40 55.5t-15.5 71.5q0 63 54 117q55 55 127 55l51 -4l22 -4l29 -18q29 -10 57 -52q7 -8 10 -13t5 -7q10 -17 10 -27v-948h-90zM373 901q0 -18 6 -34.5t17.5 -29t27 -20.5t33.5 -8q94 0 94 96 q0 86 -94 86q-31 0 -62 -24q-22 -30 -22 -66z" />
<glyph unicode="&#xe08;" horiz-adv-x="1020" d="M0 539v252q0 24 49 94q135 188 354 188q53 0 101.5 -11t93.5 -34q86 -41 143 -117q62 -83 62 -172v-739h-94l-172 502l-54 -25q-9 -5 -27.5 -8t-47.5 -6q-32 0 -60 13.5t-49.5 36.5t-34 54.5t-12.5 67.5q0 62 47 115q51 53 109 53q24 0 37 -0.5t24 -5.5l41 -19 q48 -26 86 -133l113 -328v394q0 63 -23 111t-68 83q-20 17 -45.5 31t-54.5 25q-47 18 -110 18q-43 0 -82.5 -10.5t-74 -28.5t-63 -41.5t-49.5 -48.5q-45 -59 -45 -96v-215h-94zM334 635q0 -84 74 -84q84 0 84 84q0 78 -84 78q-74 0 -74 -78z" />
<glyph unicode="&#xe09;" horiz-adv-x="1155" d="M0 463v328q0 24 49 94q135 188 354 188q53 0 101.5 -11t93.5 -34q86 -41 143 -117q62 -83 62 -172v-397l35 -12q14 -5 30 -16t33 -31q16 -16 25 -38.5t14 -51.5q0 -42 -14 -77.5t-38 -61t-56 -40t-68 -14.5q-60 0 -99 24.5t-59 73.5l-14 37l-191 -135h-92v463l-39 14 q-17 6 -33 19.5t-34 33.5q-27 33 -27 95q0 69 51 120q45 54 121 54q72 0 123 -49q45 -45 45 -127q0 -71 -41 -115q-25 -20 -43 -31t-31 -14v-344l308 217v375q0 63 -23 111t-68 83q-20 17 -45.5 31t-54.5 25q-47 18 -110 18q-43 0 -82.5 -10.5t-74 -28.5t-63 -41.5 t-49.5 -48.5q-45 -59 -45 -96v-291h-94zM264 631q0 -32 25 -60q20 -16 55 -22q37 0 59 22q23 32 23 60q0 32 -23.5 56t-58.5 24q-33 0 -55 -25q-19 -14 -25 -55zM682 180q0 -38 23 -59q14 -21 59 -27q37 0 61.5 24t24.5 62q0 31 -29 60q-28 22 -57 22q-31 0 -59 -22 q-23 -29 -23 -60z" />
<glyph unicode="&#xe0a;" horiz-adv-x="1034" d="M0 797q0 26 2.5 47t7.5 35q12 30 58 88q20 24 46.5 44t61.5 36q62 26 141 26q112 0 263 -100l8 -2l166 176l65 -66l-160 -170l119 -92v-819h-510v94h121v674l80 82q5 5 13.5 14t21.5 23l12 12q-11 11 -86 49q-78 35 -135 35l-43 -4l24 -31l19 -22q9 -10 15 -21t9 -20 q7 -11 15 -31t8 -55q0 -34 -14.5 -65.5t-38.5 -56t-55.5 -39.5t-65.5 -15q-33 0 -63.5 14t-53.5 38t-37 55.5t-14 66.5zM100 797q0 -80 70 -80q84 0 84 80q0 82 -84 82q-31 0 -47 -20t-23 -62zM483 94h199v672l-92 78l-107 -121v-629z" />
<glyph unicode="&#xe0b;" horiz-adv-x="1090" d="M2 731q0 147 86 244q19 22 43 38.5t53 30.5q63 29 76 29l113 -86l129 86l139 -102l170 176l68 -66l-166 -174l121 -88v-819h-510v94h120v674l125 129l-77 55l-119 -82l-127 91q-21 0 -45 -27l-25 -27q26 -5 39.5 -9t32.5 -11q49 -19 67 -53q14 -23 20.5 -48t6.5 -53 q0 -34 -14 -65.5t-38 -56t-55 -39.5t-65 -15q-66 0 -117 51q-51 54 -51 123zM98 731q0 -82 70 -82q84 0 84 82q0 80 -84 80q-29 0 -49 -20q-15 -20 -21 -60zM539 94h200v672l-94 72l-106 -115v-629z" />
<glyph unicode="&#xe0c;" horiz-adv-x="1565" d="M0 874q22 26 60.5 58t95.5 67q118 74 286 74q57 0 106.5 -9.5t92.5 -29.5q46 -21 81.5 -44.5t59.5 -47.5t36.5 -47t12.5 -41v-424q63 -14 126 -42.5t128 -70.5q66 -40 111 -88l37 -36l22 -27v907h95v-1073h-95l-67 98q-64 92 -141 142q-47 27 -123 63l-64 21 q-21 12 -35 12v-254q0 -48 -67 -76l-22 -4q-11 -2 -17 -2q-89 0 -152 66q-59 65 -59 151q0 103 59 158t170 55v367q0 40 -41 84q-18 18 -47 36t-63 31.5t-71 22t-71 8.5q-49 0 -90.5 -8t-77.5 -25q-17 -8 -41.5 -20.5t-58.5 -32.5l164 -74l-139 -168v-309l47 8q30 6 55 6 q66 -9 115 -55q45 -42 45 -108q0 -40 -13.5 -75t-37 -61.5t-56 -41.5t-69.5 -15q-74 0 -127 47q-46 40 -54 94v559l91 91zM197 180q0 -35 26 -67q28 -28 64 -31q20 0 36 7.5t27 23.5q19 16 25 63q0 94 -88 94q-22 0 -38.5 -7.5t-28 -20t-17.5 -28.5t-6 -34zM596 217 q0 -119 135 -119v238q-3 6 -12 6q-17 0 -37 -8t-43 -25q-43 -30 -43 -92z" />
<glyph unicode="&#xe0d;" horiz-adv-x="1563" d="M0 874q22 26 60.5 58t95.5 67q118 74 286 74q57 0 106.5 -9.5t92.5 -29.5q46 -21 81.5 -44.5t59.5 -47.5t36.5 -47t12.5 -41v-760h420v979h97v-1073h-611v797q0 40 -41 84q-18 18 -47 36t-63 31.5t-71 22t-71 8.5q-49 0 -90.5 -8t-77.5 -25q-17 -8 -41.5 -20.5 t-58.5 -32.5l164 -74l-139 -168v-309l47 8q30 6 55 6q66 -9 115 -55q45 -42 45 -108q0 -40 -13.5 -75t-37 -61.5t-54.5 -41.5t-65 -15q-75 0 -131 47t-56 94v559l91 91zM195 180q0 -21 6 -37q1 -3 7 -11.5t17.5 -18t27 -17.5t34.5 -10q20 0 36 7.5t27 21.5q19 16 25 65 q0 40 -25 62q-28 22 -63 22q-37 0 -64.5 -23t-27.5 -61zM678 -231q0 32 14 63q11 17 20 28.5t21 22.5q50 56 117 56q134 0 178 -129l4 -60v-24q0 -17 2 -19q13 0 29.5 7t42.5 26q47 30 70 61q14 17 25.5 38t21.5 44l14 45h94l-3 -24q-2 -11 -5 -19l-14 -43q-2 -8 -8 -21.5 t-17 -33.5q-3 -13 -33 -45q-55 -62 -113 -100.5t-118 -55.5q-20 -5 -52 -10t-77 -10q-23 0 -42 2.5t-36 7.5q-135 46 -135 193zM774 -246q0 -14 6 -28.5t19 -28.5q15 -29 53 -29q86 0 86 86q0 88 -86 88q-37 0 -57.5 -21.5t-20.5 -66.5z" />
<glyph unicode="&#xe0e;" horiz-adv-x="1202" d="M6 184q0 32 12 61.5t35 55.5q47 53 113 53h18q16 0 37 -6l41 -8v358l92 88l-188 84q20 23 58.5 55t97.5 70q115 78 288 78q29 0 50.5 -3t52.5 -9q142 -29 227 -123q47 -53 47 -88v-1157l-264 -268l-256 159q-18 -166 -180 -166q-70 0 -121 54q-26 26 -38.5 56.5 t-12.5 72.5q0 128 161 168q20 0 52 -7l45 -8v160h94v-217l244 -150l182 187v1057q0 66 -96 124q-48 29 -97 44.5t-100 15.5q-89 0 -170 -35q-29 -12 -53.5 -25.5t-42.5 -27.5l158 -74l-130 -168v-510q0 -26 -53 -82q-53 -53 -133 -53q-38 0 -69 15t-53.5 40.5t-35 58.5 t-12.5 70zM90 180q0 -37 27 -62t65 -30q33 0 64 25q22 22 22 67q0 49 -22 68q-22 26 -64 26q-18 0 -35 -8t-29.5 -21.5t-20 -30t-7.5 -34.5zM211 -401q0 -34 22 -64q16 -24 60 -24q73 0 82 88q0 33 -25 59q-11 11 -25.5 17t-31.5 6t-32 -6t-28 -17q-11 -11 -15.5 -26 t-6.5 -33z" />
<glyph unicode="&#xe0f;" horiz-adv-x="1202" d="M6 184q0 145 160 166l51 -2l45 -8v358l92 88l-188 84q20 23 58.5 55t97.5 70q115 78 288 78q29 0 50.5 -3t52.5 -9q142 -29 227 -123q47 -53 47 -88v-1223l-213 -174l-104 86l-111 -86l-102 101q-6 -27 -54 -86q-39 -50 -122 -50q-37 0 -69.5 14.5t-57 39.5t-38.5 58.5 t-14 70.5q0 61 50 108q36 41 112 60q28 0 53 -7l45 -8v160h95v-240l102 -106l111 78l104 -78l119 100v1123q0 66 -96 124q-48 29 -97 44.5t-100 15.5q-89 0 -170 -35q-29 -12 -53.5 -25.5t-42.5 -27.5l158 -74l-130 -168v-510q0 -34 -61 -86l-31 -22q-40 -27 -94 -27 q-38 0 -69 15t-53.5 40.5t-35 58.5t-12.5 70zM98 180q0 -35 23 -61t61 -31q34 0 64 27q22 28 22 65q0 38 -24 63t-62 25q-72 0 -84 -88zM197 -401q0 -88 86 -88q35 0 58.5 23t23.5 65q0 16 -7 31t-18 26t-26 18t-31 7q-17 0 -32 -6t-28 -17q-14 -14 -20 -29t-6 -30z" />
<glyph unicode="&#xe10;" horiz-adv-x="993" d="M-113 -477q0 60 47 110q41 44 109 56h35q5 0 9.5 -1t10.5 -3l43 -11v220h95v-300l106 -108l107 80l106 -80l102 100l-47 -10l-73 -8q-69 18 -102.5 66t-33.5 114q0 17 3.5 32.5t9.5 29.5q5 8 14 21t23 32q23 23 50 36t64 13q16 0 27.5 -1t19.5 -3q21 0 29 -4l29 -8 l26 -21q22 -18 41 -49l15 -39v-221l-197 -193l-106 86l-107 -86l-106 101q-8 -33 -50 -84q-42 -56 -127 -56q-37 0 -68.5 15t-54.5 40.5t-36 60t-13 73.5zM-18 -483q0 -37 20.5 -61.5t58.5 -24.5q17 0 31 5.5t27 16.5q24 22 24 64q0 34 -22 59q-24 22 -60 25q-33 0 -61 -25 q-18 -27 -18 -59zM27 709q5 18 12.5 44t19.5 60q13 34 28 59.5t34 42.5q54 57 119 72q34 9 73 14t84 5q31 0 49.5 -1t35 -4t37.5 -8t59 -12l104 -20v112h96q13 0 13 -74q0 -141 -78 -141q-29 0 -71.5 7.5t-102.5 21.5t-105 21t-76 7q-48 0 -81 -9t-64 -34q-6 -5 -14.5 -13.5 t-16.5 -20.5l-16 -35l127 -4q167 0 267.5 -15.5t129.5 -40.5q35 -33 35 -108l-100 -635h-95l-139 348l-51 -24q-39 -11 -78 -11q-63 0 -108 45q-20 20 -32.5 51.5t-19.5 73.5q0 64 50 117q26 26 55 38.5t55 12.5l51 -2q8 -2 15 -3.5t12 -4.5l25 -12q36 -17 57 -49l29 -78 l108 -328l66 457q0 38 -15 41q-54 37 -219 37h-364zM184 479q7 -42 27.5 -63t58.5 -21q86 0 86 88q-15 88 -94 88q-78 -12 -78 -92zM496 -258q0 -17 4 -29t16 -24q21 -23 53 -23q17 0 30 6t24 17t16.5 23.5t5.5 29.5q0 31 -22 53q-20 23 -54 23q-14 0 -27 -6.5t-24 -20.5 q-2 -2 -3 -2h-1q-2 -3 -4.5 -6t-5.5 -8q-8 -11 -8 -33z" />
<glyph unicode="&#xe11;" horiz-adv-x="1331" d="M2 731q0 147 86 244q19 22 43 38.5t53 30.5q63 29 76 29l113 -86l129 86l121 -98q3 -2 5.5 -4t4.5 -4q5 -5 11 -12.5t15 -16.5q7 -6 14.5 -17.5t18.5 -23.5l-164 -201v-432l281 813h31q12 0 23.5 -1t25.5 -2.5t37 -4.5q75 -9 114 -43l4 -4q44 -41 58 -68q14 -22 14 -82 v-866l-90 -6v887q0 36 -47 74q-21 18 -51 18l-49 2l-351 -975h-94v733l135 160l-77 53l-119 -82l-127 91q-21 0 -45 -27l-25 -27q26 -5 39.5 -9t32.5 -11q49 -19 67 -53q14 -23 20.5 -48t6.5 -53q0 -34 -14 -65.5t-38 -56t-55 -39.5t-65 -15q-66 0 -117 51q-51 54 -51 123z M98 731q0 -82 70 -82q84 0 84 82q0 80 -84 80q-29 0 -49 -20q-15 -20 -21 -60z" />
<glyph unicode="&#xe12;" horiz-adv-x="1565" d="M0 0v938q56 108 184 135q24 0 51.5 -5.5t53.5 -14t49.5 -18t38.5 -17.5l41 -25l43 25l41 18q84 37 129 37q12 0 24.5 -2t26.5 -10q19 -8 34 -17t27 -18q53 -41 76 -86v-506l105 -37q72 -24 141.5 -66t132.5 -102l57 -63v907h95v-1073h-95l-34 49q-8 11 -29.5 37t-56.5 68 q-44 49 -91 79q-12 7 -28 16t-33.5 18.5t-35 18t-32.5 15.5l-90 35v-254q0 -48 -67 -76l-22 -4q-11 -2 -17 -2q-83 0 -160 59q-76 61 -76 162q1 18 1 29t3 22.5t10.5 26.5t22.5 41q34 43 78 61l12 4l21 7q12 4 24.5 8t22.5 6l47 8v477q-38 56 -100 68q-52 0 -88 -18 q-13 -5 -31.5 -14t-44.5 -23l-43 -25l-37 25l-41 18q-5 5 -16.5 10t-28.5 13q-25 8 -49.5 12t-50.5 4q-23 -5 -41.5 -11t-32.5 -16q-21 -8 -27 -43v-768q9 0 148 160q133 156 133 189q-29 0 -52.5 14t-46.5 43q-34 48 -34 115q0 30 13.5 58.5t35.5 50.5t51 35t61 13h46 q34 0 71 -28q35 -26 55 -70l5 -18v-19v-16v-15v-12q0 -17 -1.5 -31t-3.5 -20q-8 -23 -28 -55t-55 -74l-398 -463h-94zM334 651q0 -27 22 -55q11 -9 24 -15.5t30 -9.5q16 0 31 7t26 18.5t18 25.5t7 29q0 16 -6 30t-17 28l-31 16q-6 2 -14 3t-16 3q-35 0 -52 -22 q-11 -13 -16.5 -27t-5.5 -31zM578 221q0 -60 37.5 -91.5t115.5 -31.5v238l-14 6q-20 0 -41.5 -8t-46.5 -25q-51 -26 -51 -88z" />
<glyph unicode="&#xe13;" horiz-adv-x="1702" d="M0 879q19 23 59 53t97 67q118 74 286 74q116 0 199.5 -35.5t138.5 -95.5q51 -51 51 -88v-707l68 50l55 45l72 47q17 12 37 24t51 29q19 11 35 17t39 14l53 12l25 6l2 682h92v-696l24 -12q14 -5 26.5 -12t29.5 -19q25 -19 35 -58l8 -73q0 -42 -13 -79t-38.5 -64.5 t-63 -43.5t-86.5 -16q-122 0 -160 72q-29 60 -37 121q-3 0 -15 -4.5t-34 -12.5l-41 -22l-37 -29q-48 -40 -79 -71t-48 -54h-94v797q0 66 -96 125q-95 59 -197 59q-87 0 -165 -35q-39 -17 -64.5 -30.5t-38.5 -22.5l164 -74l-139 -168v-309l47 12l55 4q67 -6 119 -55 q45 -39 45 -110q0 -43 -13 -78.5t-36.5 -61t-57 -39.5t-73.5 -14q-42 0 -72 11t-59 36q-42 39 -50 94v559l91 91zM201 180q0 -18 6 -34.5t20 -30.5q27 -27 60 -27q20 0 36 6.5t27 20.5q11 11 17 24.5t8 36.5q0 18 -7 34t-19 28t-28 19t-34 7q-32 0 -60 -24 q-11 -13 -17.5 -28t-8.5 -32zM1188 195q0 -21 8 -39.5t21 -32t30 -21.5t35 -8q100 0 100 101q0 21 -8.5 38.5t-22.5 30t-32 19t-37 6.5q-37 0 -62.5 -25.5t-31.5 -68.5z" />
<glyph unicode="&#xe14;" horiz-adv-x="1032" d="M12 0v733q5 29 18 61.5t38 75.5q22 40 56.5 77t79 65t98.5 44.5t116 16.5q67 0 123.5 -18t102 -47.5t79.5 -67.5t55 -78q20 -35 32.5 -67.5t18.5 -61.5v-733h-96v700q0 42 -21.5 87.5t-66.5 93.5q-89 98 -227 98q-94 0 -162 -47q-29 -20 -53 -44.5t-47 -56.5 q-26 -35 -40 -67.5t-14 -63.5v-557q10 0 146 160q137 159 137 189q-133 15 -133 172q0 33 12.5 63t35 52.5t52 36t64.5 13.5q44 0 67 -10l54 -33q11 -8 20.5 -17.5t17.5 -23.5q4 -5 7 -13.5t8 -22.5v-19v-16v-15v-12q0 -17 -1 -29t-3 -18l-8 -31l-13 -22l-22 -43l-25 -29 l-14 -20l-402 -455h-90zM342 653q0 -27 23 -55q15 -16 53 -23q20 0 35 6t26 17q23 28 23 55q0 80 -84 80q-32 0 -51.5 -19t-24.5 -61z" />
<glyph unicode="&#xe15;" horiz-adv-x="1032" d="M20 0v938q56 108 187 135q45 0 98 -18q31 -11 54.5 -20t37.5 -17l41 -25l41 25l41 18l45 19q25 11 46.5 14.5t39.5 3.5q10 0 17 -1t13 -2.5t12.5 -4t15.5 -6.5q18 -8 30.5 -15t24.5 -18q29 -20 47.5 -41.5t28.5 -44.5v-940h-95v911q-36 56 -100 68q-42 0 -85.5 -17.5 t-80.5 -37.5l-28 -19q-7 0 -13 -6l-37 25l-36 16l-50 25q-23 8 -47.5 12t-50.5 4q-102 -27 -102 -70v-768l20 23l60 57l51 60l88 102q63 81 63 104q-52 0 -100 60q-37 46 -37 115q0 63 45 114q59 47 121 47q64 0 76 -6q19 -3 49 -28l18 -23l23 -31q14 -28 14 -37v-51v-19 q0 -7 -2 -12q0 -21 -6 -30q-6 -28 -43 -80l-39 -53l-401 -455h-95zM354 653q0 -14 5 -27.5t16 -27.5q15 -21 55 -27q27 0 55 25q13 11 19 25.5t6 31.5q-3 39 -21 60q-15 24 -59 24q-31 0 -55 -24q-11 -16 -16 -31t-5 -29z" />
<glyph unicode="&#xe16;" horiz-adv-x="1047" d="M0 874q22 26 60.5 58t95.5 67q118 74 286 74q57 0 106.5 -9.5t92.5 -29.5q46 -21 81.5 -44.5t59.5 -47.5t36.5 -47t12.5 -41v-854h-94v797q0 40 -41 84q-18 18 -47 36t-63 31.5t-71 22t-71 8.5q-49 0 -90.5 -8t-77.5 -25q-17 -8 -41.5 -20.5t-58.5 -32.5l164 -74 l-139 -168v-307l47 10q17 2 30.5 3t24.5 1q37 0 65 -13t54 -42q45 -45 45 -110q0 -39 -14 -74.5t-38.5 -61.5t-57.5 -41.5t-70 -15.5q-74 0 -127 47q-46 40 -54 94v559l91 91zM201 180q0 -17 6 -33.5t20 -31.5q23 -26 60 -29q17 0 33 6.5t30 20.5q19 16 25 63q0 39 -25 64 q-22 22 -63 28q-18 0 -34 -7.5t-27.5 -20t-18 -28.5t-6.5 -32z" />
<glyph unicode="&#xe17;" horiz-adv-x="1167" d="M2 907q0 36 13 66.5t36.5 52.5t55 34.5t69.5 12.5q78 0 137 -47l23 -27l14 -28q12 -23 12 -33v-674l279 809q168 0 233 -53q23 -20 37.5 -37.5t22.5 -30.5q8 -14 13 -35.5t5 -50.5v-866h-94v881q0 41 -45 73q-17 16 -49 19l-51 2l-351 -975h-98v731l-31 -6l-51 -6l-35 6 q-145 50 -145 182zM100 905q0 -34 25 -65q15 -23 57 -35q88 0 88 96q0 43 -24 66q-23 18 -66 24q-80 -9 -80 -86z" />
<glyph unicode="&#xe18;" horiz-adv-x="1028" d="M14 641q0 47 47 145q47 102 150 195q106 92 238 92q63 0 115 -11t93.5 -30t72.5 -43t52 -49q13 -14 20.5 -27.5t12.5 -25.5l-70 -56q-13 37 -77 89q-21 14 -42.5 25t-46.5 18.5t-55 11.5t-67 4q-76 0 -152 -55q-77 -53 -117 -111q-20 -29 -32 -47.5t-15 -28.5h451 q35 0 62 -11t44 -34q27 -31 27 -82v-610h-631v94h117v547h-197zM309 94h322v484q0 9 -1.5 20t-9 20.5t-22.5 16t-43 6.5h-246v-547z" />
<glyph unicode="&#xe19;" horiz-adv-x="1284" d="M8 901q0 62 55 119q50 53 125 53l52 -4q17 0 28 -8l25 -14q28 -14 55 -54q13 -14 19 -25.5t8 -19.5v-815l100 74q67 54 133 89.5t121.5 57t95.5 30t56 7.5l4 682h94v-700l22 -15q16 -5 28 -11t20 -17q26 -22 36.5 -59.5t10.5 -77.5q0 -42 -13 -77.5t-37.5 -61t-61 -40 t-83.5 -14.5q-124 0 -162 86q-18 42 -28.5 75t-10.5 62q-17 0 -59 -22l-43 -21l-41 -28q-135 -99 -182 -152h-92v754q-44 -29 -103 -29q-64 0 -119 49q-26 26 -39.5 58t-13.5 69zM102 901q0 -83 86 -92q95 0 95 96q0 86 -95 86q-31 0 -61 -24q-8 -11 -14 -27t-11 -39z M809 195q0 -33 29 -68q24 -27 63 -33q42 0 72 27q26 20 26 74q0 47 -26 67q-30 27 -72 27q-36 0 -67 -29q-25 -21 -25 -65z" />
<glyph unicode="&#xe1a;" horiz-adv-x="1214" d="M2 901q0 64 53 117q52 55 127 55l51 -4l23 -4l31 -18q14 -5 28.5 -18.5t28.5 -35.5q14 -15 21.5 -26t7.5 -19v-854h534v979h92v-1073h-843v94h120v660q-43 -29 -102 -29q-33 0 -64 13.5t-55 37t-38.5 55.5t-14.5 70zM94 901q0 -35 25 -67q18 -23 63 -29q94 0 94 100 q0 88 -94 88q-35 0 -61 -26q-21 -15 -27 -66z" />
<glyph unicode="&#xe1b;" horiz-adv-x="1210" d="M2 897q0 61 53 117q29 29 59.5 41t67.5 12l51 -2l23 -6l31 -19q15 -8 29 -20.5t28 -32.5q14 -15 21.5 -26t7.5 -19v-848h534v1569h92v-1663h-843v94h120v656q-26 -17 -51 -24t-51 -7q-33 0 -64 13t-55 37t-38.5 56.5t-14.5 71.5zM100 897q0 -35 25 -68q17 -26 57 -26 q94 0 94 96q0 84 -94 84q-73 0 -82 -86z" />
<glyph unicode="&#xe1c;" horiz-adv-x="1020" d="M0 0v913q0 8 3 23t11 35t17.5 34.5t23.5 22.5q35 23 67.5 34t61.5 11q70 0 129 -47q48 -45 60 -119q0 -157 -150 -196l-43 2q-11 0 -45 6l-41 6v-586l275 312h73l269 -312v934h94v-1073h-94l-308 350l-309 -350h-94zM100 897q0 -106 93 -106q46 0 67 30q11 20 17 40t6 40 q0 22 -7 33l-22 31q-20 26 -61 26q-48 0 -68 -33l-19 -32z" />
<glyph unicode="&#xe1d;" horiz-adv-x="1020" d="M0 0v926q0 42 49 100q41 47 135 47q39 0 69.5 -12t55.5 -35q26 -23 41 -51.5t15 -63.5q0 -74 -33 -123t-109 -57l-69 6l-60 15v-613l275 312h73l269 -312v1524h94v-1663h-94l-308 350l-309 -350h-94zM94 891q0 -37 31 -62q24 -24 68 -24q21 0 38 8t28.5 21.5t17.5 30 t6 34.5q0 96 -95 96q-36 0 -67 -28l-19 -35z" />
<glyph unicode="&#xe1e;" horiz-adv-x="1290" d="M2 899q0 63 53 119q29 26 59.5 38.5t67.5 12.5l51 -2l23 -6l31 -17q14 -6 28.5 -19.5t28.5 -33.5q14 -17 21.5 -28t7.5 -17v-663l243 790h103l268 -790v790h94v-1073h-94l-317 893l-297 -893h-97v752q-46 -29 -102 -29q-33 0 -64 13t-55 36t-38.5 55.5t-14.5 71.5z M94 897q0 -38 27 -68q21 -24 61 -30q45 0 72 28.5t27 73.5q0 92 -99 92q-33 0 -61 -28q-21 -21 -27 -68z" />
<glyph unicode="&#xe1f;" horiz-adv-x="1290" d="M0 899q0 64 55 119q57 51 127 51l51 -2l23 -6l31 -17q14 -6 28.5 -19.5t28.5 -33.5q14 -17 21.5 -28t7.5 -17v-663l243 790h103l268 -790v1380h94v-1663h-94l-317 893l-297 -893h-97v752q-46 -29 -102 -29q-32 0 -61 12.5t-60 38.5q-53 53 -53 125zM86 899q0 -38 29 -70 q23 -26 67 -32q44 0 72 28q14 13 21.5 31.5t7.5 44.5q0 22 -7.5 40t-21.5 34q-17 12 -34.5 18t-37.5 6q-39 0 -67 -28q-26 -29 -29 -72z" />
<glyph unicode="&#xe20;" horiz-adv-x="1202" d="M0 182q0 69 49 121q26 25 55 39q32 14 62 14h18q16 0 37 -6l41 -8v356l92 88l-188 84q18 25 60 56.5t102 68.5q120 78 284 78q24 0 51 -3t54 -8.5t51.5 -13t42.5 -16.5q38 -17 70.5 -41t58.5 -53q47 -53 47 -88v-850h-94v791q0 66 -96 124q-48 29 -97 44.5t-100 15.5 q-89 0 -170 -35q-29 -12 -53.5 -25.5t-42.5 -27.5l158 -74l-130 -168v-506q1 -11 -13 -35t-39 -48t-59.5 -41.5t-74.5 -14.5q-36 0 -68 13.5t-56 37.5t-38 57.5t-14 73.5zM90 176q0 -18 7.5 -35.5t20 -31.5t29.5 -22.5t35 -8.5q16 0 33 8.5t30.5 22.5t22 31.5t8.5 35.5 q0 34 -24 66q-22 28 -70 28q-38 0 -62 -23t-30 -71z" />
<glyph unicode="&#xe21;" horiz-adv-x="1157" d="M2 899q0 63 53 119q29 26 59.5 38.5t67.5 12.5l51 -2q20 0 35 -12l21 -11q15 -8 30 -20.5t29 -32.5q8 -14 14 -24t11 -21v-516l104 -47q35 -14 56.5 -25t35.5 -22l72 -39l51 -41l66 -49l94 -78v944h94v-1073h-94l-90 90q-53 53 -86 80l-72 51l-137 74q-80 41 -94 41v-254 q0 -38 -28.5 -60t-82.5 -22q-83 0 -153 61q-66 60 -66 154q2 40 13 70t27 52.5t36.5 38.5t42.5 27q23 8 43 14t37 9l34 4v322q-49 -35 -102 -35q-34 0 -65 14t-55 38t-38 57.5t-14 72.5zM98 899q0 -33 23 -68q16 -25 61 -28q19 0 37 6.5t31.5 19t22 30.5t8.5 42q0 85 -99 94 q-34 0 -61 -24q-8 -11 -14 -29t-9 -43zM139 217q0 -119 137 -119v238l-12 6q-33 0 -80 -35q-45 -33 -45 -90z" />
<glyph unicode="&#xe22;" horiz-adv-x="1026" d="M0 762q0 143 94 225q0 13 66 53q12 8 30.5 15t42.5 12q23 5 37.5 5.5t22.5 0.5q34 0 65 -12.5t54.5 -34.5t37 -51.5t13.5 -63.5q0 -70 -37 -114q-45 -57 -104 -66l-35 -6q-37 0 -76 20q-16 10 -32.5 23.5t-35.5 30.5l-28 30q-9 -12 -9 -45q0 -56 27 -102q13 -19 28 -35.5 t40 -36.5q18 -15 31.5 -22.5t21.5 -9.5h184v-95h-164q-29 0 -38 -6q-9 -3 -9 -35v-348h490v979h94v-1073h-678v434l19 78l-43 47q-20 23 -39 48.5t-37 51.5q-17 26 -25 51.5t-8 51.5zM195 913q0 -21 9.5 -39.5t24 -32.5t32 -22t32.5 -8q16 0 32 8t28.5 21t20 30t7.5 35 q0 36 -27 66q-27 21 -65 24q-32 0 -66 -24q-28 -23 -28 -58z" />
<glyph unicode="&#xe23;" horiz-adv-x="887" d="M18 711v16q0 6 1 12t3 12.5t5 16.5q2 12 8.5 32t17.5 46q13 42 39 81.5t68 78.5q75 69 182 69q254 0 330 -309h-21l-26 -2l-41 -2l-15 41q-5 17 -12.5 36.5t-21.5 39.5q-13 18 -32.5 36t-44.5 32.5t-54 23t-60 8.5q-38 0 -73 -15t-66 -44q-29 -28 -49.5 -61.5 t-34.5 -72.5h330q11 0 26 -18q6 -3 6 -29v-596q0 -37 -47 -90q-39 -53 -139 -53q-73 0 -131 55q-60 57 -60 129q0 32 11.5 61t42.5 60q51 57 116 57h29l31 -6l47 -14v350h-360zM195 180q0 -47 32 -67q29 -29 74 -35q19 0 35.5 9t28.5 23t19 32.5t7 37.5q0 38 -26 68 q-29 33 -70 33q-46 0 -74 -33q-26 -27 -26 -68z" />
<glyph unicode="&#xe24;" horiz-adv-x="1034" d="M0 870q5 8 20 22t39 34q26 23 48 39t47 30q112 78 282 78q21 0 34.5 -0.5t24 -2t21.5 -3.5t27 -6q26 -5 48.5 -11.5t45.5 -17.5q83 -39 135 -94q47 -53 47 -88v-1411h-92v1352q0 67 -92 129q-92 55 -201 55q-26 0 -48.5 -1.5t-41.5 -6.5q-48 -11 -92 -31t-86 -49l162 -74 l-135 -168v-297l49 14l61 7q39 -4 70.5 -20t53 -40.5t33 -57t11.5 -69.5q0 -38 -14 -71t-39.5 -57.5t-60 -39t-74.5 -14.5t-73 14t-57 36.5t-38.5 49t-16.5 52.5v546l90 88zM193 180q0 -37 24 -74q33 -32 66 -32q51 0 79 28q27 27 27 72q0 61 -45 90q-29 19 -61 19 q-90 0 -90 -103z" />
<glyph unicode="&#xe25;" horiz-adv-x="1020" d="M0 539v252q0 24 49 94q135 188 354 188q53 0 101.5 -11t93.5 -34q86 -41 143 -117q62 -83 62 -172v-739h-94l-52 152q-64 197 -153 356l-43 80l-35 53q-3 8 -8 16t-9 13t-8 8l-12 -21l-84 -139q-8 -14 -18.5 -37t-24.5 -55l-16 -61l55 -11q137 -27 137 -161 q0 -44 -11.5 -76.5t-37.5 -61.5q-52 -55 -127 -55q-74 0 -133 53q-51 45 -51 121v33q0 16 8 39l23 63l20 47q2 9 4 16.5t4.5 15.5t6.5 17t10 21l57 125l45 84l61 98q11 17 28.5 40t43.5 58l12 15l76 -101q14 -18 38.5 -56t59.5 -97q17 -29 37.5 -71t44.5 -99l52 -119v408 q0 63 -23 111t-68 83q-20 17 -45.5 31t-54.5 25q-47 18 -110 18q-43 0 -82.5 -10.5t-74 -28.5t-63 -41.5t-49.5 -48.5q-45 -59 -45 -96v-215h-94zM170 180q0 -17 6.5 -33.5t20.5 -31.5q21 -26 63 -29q33 0 62 29q22 28 22 65q0 16 -7 32t-19 28.5t-28 20t-34 7.5 q-14 0 -29 -6t-30 -20q-11 -14 -18 -29.5t-9 -32.5z" />
<glyph unicode="&#xe26;" horiz-adv-x="1202" d="M6 184q0 66 44 112t116 60h31q13 -3 20 -6l45 -8v356l92 88l-188 84q20 23 58.5 55t97.5 70q115 78 288 78q29 0 50.5 -3t52.5 -9q142 -29 227 -123q47 -53 47 -88v-1438h-94v1379q0 66 -96 124q-48 29 -97 44.5t-100 15.5q-89 0 -170 -35q-29 -12 -53.5 -25.5 t-42.5 -27.5l158 -74l-130 -168v-506q0 -14 -11.5 -37.5t-34.5 -46t-58 -39t-82 -16.5q-38 0 -69 15t-53.5 40.5t-35 58.5t-12.5 70zM94 180q0 -40 27 -71q21 -31 61 -31q44 0 69 29.5t25 72.5q0 96 -94 96q-33 0 -57 -30q-25 -27 -31 -66z" />
<glyph unicode="&#xe27;" horiz-adv-x="907" d="M0 539v252q-1 17 9.5 45t31 60t52 64.5t73 58t93.5 41t114 13.5q95 0 166 -53q32 -23 63 -54.5t51 -66.5q43 -64 43 -80v-667q0 -29 -11 -55t-34 -46q-40 -40 -98 -49l-37 -2q-43 0 -78.5 14t-60.5 39.5t-39 61t-14 78.5q0 12 4 27t12 34q9 31 35 55q38 45 117 56 q17 0 33 -2t30 -5l45 -10v430q0 20 -31 66q-23 43 -86 94q-52 41 -121 41q-38 0 -73 -9.5t-66 -29.5q-66 -43 -94.5 -89t-34.5 -97v-215h-94zM403 180q0 -21 10 -40t25.5 -33.5t35 -23.5t38.5 -9q21 0 38 8.5t29.5 23t19.5 34t7 40.5q0 109 -102 109q-19 0 -36 -9t-34 -26 q-23 -26 -31 -74z" />
<glyph unicode="&#xe28;" horiz-adv-x="1032" d="M0 0v739q34 138 141 240q104 94 285 94q94 0 162 -26l16 -13l78 113h109l-109 -160l35 -20q25 -24 51 -68q26 -42 38.5 -75t12.5 -58v-766h-94v727q0 59 -25 94q-6 27 -32 58q-25 26 -31 26l-90 -125q49 -45 49 -121q0 -69 -53 -120q-25 -26 -57.5 -43t-69.5 -17 q-31 0 -80 31l-47 29l-199 -539h-90zM94 281l135 387q13 35 31.5 64t44.5 52q56 41 121 41h12l17 -4l100 131q-6 6 -37 15q-24 12 -96 12q-135 0 -232 -86q-96 -87 -96 -197v-415zM344 653q0 -15 6 -30t17 -27t26 -19.5t33 -7.5q78 0 78 84t-82 84q-33 0 -53 -26 q-25 -25 -25 -58z" />
<glyph unicode="&#xe29;" horiz-adv-x="1427" d="M2 901q0 64 53 117q52 55 127 55l64 -4l43 -20q31 -16 59 -54q8 -11 15.5 -26t9.5 -21v-854h534v449l-20 -13q-6 -5 -15.5 -8t-21.5 -6q-12 -5 -22.5 -5.5t-30.5 -8.5q-47 -10 -77 -14.5t-44 -4.5q-23 0 -43 3.5t-45 11.5q-133 38 -133 192q0 31 13.5 61t36.5 54 t53.5 38.5t64.5 14.5q139 0 180 -127q1 -4 2 -13t2 -20t1.5 -22t0.5 -17q0 -11 1 -23t3 -26l94 35v428h92v-373l168 134l66 -66l-234 -184v-584h-843v94h120v660q-23 -14 -48 -22.5t-54 -8.5q-32 0 -62.5 13.5t-55 37.5t-39.5 56.5t-15 70.5zM90 899q0 -31 29 -65 q18 -23 63 -29q99 0 99 96q0 92 -99 92q-40 0 -63 -26q-29 -29 -29 -68zM547 676q0 -17 5.5 -31.5t16.5 -28.5q11 -11 26.5 -17t35.5 -11q88 0 88 88q0 92 -90 92q-82 0 -82 -92z" />
<glyph unicode="&#xe2a;" horiz-adv-x="1020" d="M0 539v252q0 19 53 96q28 38 63 70.5t77 60.5q43 26 95 40.5t115 14.5q177 0 177 -33l65 146l78 -58l-66 -129l25 -24q19 -12 57 -64q64 -79 64 -172v-739h-94l-52 152q-64 197 -153 356l-43 80l-35 53q-3 8 -8 16t-9 13t-8 8l-12 -21l-84 -139q-8 -14 -18.5 -37 t-24.5 -55l-16 -61l51 -11q48 -9 98 -53q20 -19 31.5 -46t11.5 -62q0 -42 -10.5 -74.5t-36.5 -61.5q-51 -57 -129 -57q-74 0 -133 53q-51 45 -51 121q0 35 11.5 79.5t37.5 104.5q9 34 30.5 82t53.5 111q22 45 49 91.5t62 94.5l67 94l12 15l15 -17l28 35l76 94q0 21 -112 21 q-39 0 -77.5 -11t-76.5 -34q-52 -28 -98 -76q-62 -59 -62 -104v-215h-94zM168 180q0 -38 25 -67q18 -25 63 -31q39 0 68 29q24 30 24 69q0 29 -26 62q-26 28 -66 28q-31 0 -61 -24q-27 -33 -27 -66zM475 750q26 -38 51 -77t49 -81q9 -16 19.5 -36.5t21.5 -43t21.5 -46 t19.5 -44.5l52 -119v408q0 32 -8 61.5t-23 58.5q-5 14 -14 28t-23 28l-23 14l-12 10z" />
<glyph unicode="&#xe2b;" horiz-adv-x="1176" d="M0 899q0 60 53 119q26 29 57.5 40t69.5 11l49 -2l25 -6l29 -17q32 -13 59 -53q27 -33 27 -45v-786l442 571l-39 19q-96 46 -96 149q0 37 13 68.5t36 55t55.5 37t71.5 13.5q82 0 127 -47.5t45 -128.5q0 -32 -8 -60t-33 -46q-6 -13 -13 -19t-18 -14q-6 -6 -12 -11t-14 -8 l32 -30v-707h-94v639l-495 -641h-95v752q-26 -14 -49.5 -21.5t-54.5 -7.5q-64 0 -117 47q-25 26 -39 58.5t-14 70.5zM90 899q0 -18 7 -35.5t19.5 -31t29 -21.5t34.5 -8t35.5 6.5t31 19t21.5 30.5t8 42q0 90 -96 90q-35 0 -61 -26q-29 -26 -29 -66zM772 905q0 -15 6 -30.5 t16.5 -28t25 -20t30.5 -7.5q17 0 31.5 6.5t25.5 20.5q10 9 16 24t9 35q0 29 -27 56q-22 19 -55 22q-34 0 -53 -22q-19 -16 -25 -56z" />
<glyph unicode="&#xe2c;" horiz-adv-x="1280" d="M-12 899q0 30 13.5 60.5t37 54.5t56 39.5t71.5 15.5l49 -2q7 0 33 -12l22 -11q31 -12 60 -53q21 -33 24 -45v-663l246 692h100l271 -692v651l-37 -8l-49 -2q-14 0 -24 1t-15 3q-135 45 -135 182q0 54 47 113q26 23 55 35t61 12l46 -2q26 -3 34 -8q10 -2 20.5 -10.5 t24.5 -22.5q12 -11 27 -37l8 -21l72 68l63 -72l-104 -106v-1059h-94l-320 797l-297 -797h-94v743l-37 -16q-19 -8 -63 -8q-33 0 -64 14t-55 38.5t-38.5 57t-14.5 70.5zM78 899q0 -18 7 -35.5t19 -31t28 -21.5t34 -8q96 0 96 98q-5 43 -28 66.5t-68 23.5q-31 0 -64 -26 q-24 -26 -24 -66zM803 1104q0 -33 22 -60q22 -18 54 -24q82 0 82 84q0 32 -19.5 52t-62.5 26q-26 0 -54 -25q-22 -28 -22 -53z" />
<glyph unicode="&#xe2d;" horiz-adv-x="1020" d="M6 598q0 56 7 108t26 109q34 110 123 180q94 78 256 78q101 0 176 -26t124 -71.5t73 -106.5t24 -130v-739h-588v668q0 6 19 43q9 21 41 53q8 6 23 14t32 15q2 1 10.5 2.5t19.5 3.5t23.5 3.5t22.5 2.5q35 0 65.5 -12t53.5 -35q15 -15 34 -53q13 -22 13 -64 q0 -69 -34.5 -117.5t-100.5 -66.5q-14 0 -24 1t-15 3l-45 8l-43 8v-383h401v617q0 134 -82 204q-37 36 -90 54t-125 18q-172 0 -254 -117q-35 -51 -53.5 -120.5t-18.5 -159.5v-35v-21q0 -10 2 -18l4 -39h-92zM328 635q0 -39 26 -66q11 -8 26.5 -13.5t35.5 -8.5q32 0 59 24 q21 28 21 64q0 33 -25 55q-20 27 -55 27q-16 0 -31 -7t-27 -18t-20 -26t-10 -31z" />
<glyph unicode="&#xe2e;" horiz-adv-x="991" d="M0 0v496q0 5 4.5 16t13.5 31q7 14 16 27t27 30l25 16l29 15l32 6l46 4q33 0 62.5 -14t52 -37t35.5 -52.5t13 -60.5q0 -146 -135 -182h-27q-10 0 -19 1t-18 2.5t-22 4.5l-41 10v-219h522v668q0 8 -1 13.5t-3 10.5v24q0 9 -2 15q-9 45 -30 45l-45 -39q-26 -20 -53.5 -37.5 t-59.5 -31.5q-72 -35 -135 -35q-287 0 -287 170q0 94 94 133q95 43 211 43q17 0 40.5 -1.5t55.5 -6.5q19 -2 39 -7.5t43 -13.5q31 -12 54.5 -22t40.5 -23l131 129l65 -55l-123 -135l17 -14q8 -11 15 -22t13 -23q8 -17 11.5 -46t3.5 -67v-766h-711zM94 887q0 -22 62 -43 l61 -19l64 -6q41 0 92 25q28 12 49.5 24.5t38.5 24.5l24 27q3 3 6 4.5t5 3.5q0 4 -66 33q-32 11 -66 15.5t-59 4.5q-211 0 -211 -94zM106 467q0 -14 6 -28.5t17 -28.5q9 -10 24 -16t35 -9q14 0 27 7.5t27 21.5q22 22 22 53q0 35 -20 59.5t-56 24.5q-15 0 -30 -6.5t-29 -20.5 q-15 -15 -23 -57z" />
<glyph unicode="&#xe2f;" horiz-adv-x="981" d="M2 899q0 174 180 174q33 0 63 -8.5t53 -29t36.5 -53.5t13.5 -81q0 -60 -31 -92q-22 -43 -43 -51q10 -15 60 -15q66 0 117 31q38 25 71 66t62 98l34 70l27 65h121v-1073h-121v825l-39 -57q-8 -12 -26 -29t-45 -39q-48 -32 -102.5 -48.5t-123.5 -16.5q-31 0 -56.5 2.5 t-45.5 7.5q-17 3 -38.5 13.5t-47.5 27.5q-119 82 -119 213zM94 905q0 -35 25 -59q16 -24 55 -27q29 0 55 27q23 28 23 59q0 17 -6 31.5t-17 28.5q-14 26 -55 26q-16 0 -30.5 -7.5t-25.5 -20t-17.5 -28t-6.5 -30.5z" />
<glyph unicode="&#xe30;" horiz-adv-x="1020" d="M6 248q0 32 12 59.5t35 50.5q41 50 113 50q101 0 143 -52q35 -59 35 -161q51 0 172 53q32 14 67.5 35t73.5 47l56 39q12 9 18 12q5 3 10.5 7t12.5 9l49 -94l-131 -82q-37 -23 -75.5 -44.5t-80.5 -43.5q-78 -38 -152.5 -59t-152.5 -21q-12 0 -30.5 1.5t-41.5 6.5 q-65 14 -98 66q-35 56 -35 121zM6 907q0 63 49 117q39 45 111 45q28 0 48.5 -2t36 -7.5t28 -15t24.5 -24.5q33 -39 33 -162q83 0 180 49l68 39l69 41l101 72l49 -92l-127 -82l-80 -51l-80 -41q-69 -32 -143.5 -51t-159.5 -19h-33q-8 0 -17.5 1t-23.5 3q-32 7 -56.5 24 t-41.5 41t-26 53.5t-9 61.5zM98 240q0 -75 78 -84q78 0 78 86q0 11 -5 25t-16 34q-23 23 -63 23q-14 0 -27 -6.5t-24 -20.5q-8 -11 -13.5 -25.5t-7.5 -31.5zM98 901q0 -27 23 -55q16 -24 49 -27q38 0 59 25q11 11 17 25.5t8 31.5q0 32 -25 60q-26 26 -59 26q-15 0 -28 -7.5 t-22.5 -20t-15.5 -28t-6 -30.5z" />
<glyph unicode="&#xe31;" horiz-adv-x="0" d="M-729 1415q0 31 13.5 60t36 51.5t51.5 35.5t61 13q56 0 84 -10q12 -2 24.5 -11t26.5 -26q18 -19 27.5 -63.5t9.5 -116.5q58 0 174 55q76 36 137 82l98 76l49 -76l-124 -84l-160 -94q-164 -78 -320 -78h-41l-20 6q-127 33 -127 180zM-647 1409q0 -43 24 -68q20 -24 70 -30 q41 0 64 30q14 21 20 70q0 39 -25 64q-27 24 -67 24q-38 0 -60 -24q-26 -33 -26 -66z" />
<glyph unicode="&#xe32;" horiz-adv-x="926" d="M12 709q0 17 8.5 45.5t26.5 79.5q40 103 113 167q82 72 184 72q91 4 159.5 -29.5t114.5 -85t69.5 -111.5t23.5 -110v-737h-95v727q0 49 -17.5 94t-51 79t-82 54.5t-109.5 20.5q-95 0 -149 -60q-23 -24 -42 -57.5t-36 -77.5l-27 -71h-90z" />
<glyph unicode="&#xe33;" horiz-adv-x="926" d="M-616 1436q0 75 61 133q59 59 139 59q79 0 142 -57t63 -135q0 -84 -63 -144q-64 -61 -142 -61t-139 61q-61 64 -61 144zM-532 1436q0 -50 32.5 -86.5t83.5 -42.5q25 0 47 10t38.5 27t26 39.5t9.5 48.5q0 44 -35 77q-32 33 -78 33q-24 0 -46 -8.5t-39.5 -23t-28 -34 t-10.5 -40.5zM23 711q0 33 36 123q17 42 44 82.5t65 78.5q19 20 40.5 34.5t47.5 27.5q46 18 102 18q122 0 211 -59q39 -26 66.5 -57t46.5 -68q43 -79 43 -152v-739h-94v731q0 94 -70 170q-69 78 -188 78q-61 0 -86 -14q-49 -17 -113 -107q-9 -17 -17 -35.5t-16 -38.5 l-22 -73h-96z" />
<glyph unicode="&#xe34;" horiz-adv-x="0" d="M-1047 1262q0 11 10.5 35t30.5 61q23 40 45 69t43 46q33 24 63.5 42.5t59.5 30.5q31 13 70 17t90 4q54 0 100.5 -10.5t88.5 -30.5q29 -14 63 -43t72 -74q20 -22 36.5 -52.5t30.5 -72.5l35 -123l-205 64q-81 26 -139 38.5t-109 12.5l-81 2h-32q-15 0 -28 -2l-127 -6z M-899 1356h37l67 -4l156 -2q91 -11 167.5 -29.5t139.5 -44.5q-5 8 -16 26t-31 44q-31 47 -63 67q-26 17 -45 28.5t-31 16.5q-17 5 -45 11t-70 12q-156 0 -225 -78z" />
<glyph unicode="&#xe35;" horiz-adv-x="0" d="M-1139 1266q0 9 45 92q2 6 7.5 15t13.5 20q5 8 10 15t10 15q8 13 24 28.5t42 35.5t49 35t43 26q17 6 43 13.5t64 15.5q15 2 30 3t29 1h33q14 0 26.5 -1t26.5 -3q15 -2 24.5 -4t16.5 -3.5t13.5 -3.5t15.5 -5q14 -2 26 -6.5t25 -12.5l15 -8q9 -4 22 -12q8 -5 21 -13.5 t30 -19.5l26 -29q13 -9 13 -10q10 -7 16 -23v234h94v-473l-108 22l-193 45l-84 15l-80 6l-81 2h-33q-14 0 -27 -2q-24 0 -42 -0.5t-33 -1.5t-27.5 -2t-24.5 -2l-119 -8zM-993 1352l84 4l121 2l73 -2q25 0 49 -2.5t49 -7t51.5 -11.5t57.5 -16l137 -41l-45 65q-17 20 -31 35.5 t-28 26.5q-29 20 -55.5 37t-51.5 31q-16 10 -51 18l-65 6q-96 0 -193 -47q-12 -8 -26.5 -18.5t-32.5 -28.5q-11 -8 -17.5 -15.5t-11.5 -15.5z" />
<glyph unicode="&#xe36;" horiz-adv-x="0" d="M-1022 1276q0 20 43 96q42 75 90 113l105 74q23 13 77 22l119 6h21h14q45 0 51 6l25 47l18 39q5 7 11 13t14 12q25 17 50.5 26t51.5 9q20 0 40 -6.5t40 -20.5q23 -17 35 -42.5t12 -63.5q0 -11 -1.5 -26t-6.5 -32l-12 -18l-11 -10l-14 -13q-5 -5 -9 -8t-15 -14l-11 -12 q0 -7 6 -19l21 -37l31 -53l16 -45l16 -55l15 -86l-207 65q-69 23 -133 35t-115 12l-88 2h-49q-22 0 -39 -2q-35 0 -107 -6zM-879 1364l68 4h121q37 0 63.5 -1t40.5 -3q56 0 166 -37q35 -9 67.5 -20t61.5 -23l-16 43l-15 35q-11 23 -24 41.5t-27 32.5q-17 14 -38.5 26.5 t-41.5 18.5q-39 15 -122 24q-51 0 -97.5 -11t-91.5 -34q-41 -18 -74 -51l-30 -29zM-428 1585q0 -25 35 -49q15 -12 47 -12q62 0 78 57q0 12 6 39q0 46 -60 61q-72 0 -94 -55q-12 -30 -12 -41z" />
<glyph unicode="&#xe37;" horiz-adv-x="0" d="M-1038 1262q0 19 41 96q18 37 39.5 63t52.5 49q34 26 61.5 45.5t48.5 30.5q17 6 45 12.5t70 14.5l86 6h19l43 -8l45 -12v155h86v-184l18 -12q3 -2 13.5 -10.5t29.5 -22.5q5 -5 10.5 -10t12.5 -13q2 -2 5.5 -6t8.5 -10l24 -37v309h86v-530l-208 49l-140 29l-110 10 l-207 -6zM-930 1325l121 6h88l51 2l60 4q13 0 56 -2t126 -24l72 -21q11 -3 21.5 -5.5t21.5 -4.5q2 0 10.5 -2.5t23.5 -7.5q-5 8 -15.5 26t-27.5 47q-12 19 -29.5 38.5t-37.5 37.5l-47 33l-53 29l-52 16q-18 2 -29 3t-18 1h-10h-6q-110 0 -193 -37q-33 -15 -82 -73 q-23 -26 -35.5 -43t-15.5 -23z" />
<glyph unicode="&#xe38;" horiz-adv-x="0" d="M-555 -240q3 36 17 65.5t37 51t53.5 33.5t66.5 12h31q14 0 27.5 -3t27 -10t29.5 -22q8 -8 18 -21.5t23 -33.5l16 -43v-491h-86v303l-47 -15q-8 0 -16 -0.5t-21 -5.5h-41q-99 21 -127 117q-3 12 -4.5 19.5t-2.5 14t-1 13.5v16zM-473 -250q0 -36 29 -63q24 -29 63 -29 q94 0 94 92q0 35 -24 70q-22 26 -68 26q-42 0 -68 -27t-26 -69z" />
<glyph unicode="&#xe39;" horiz-adv-x="0" d="M-788 -240q0 32 12.5 61t38.5 52q45 49 114 49q45 0 75.5 -7.5t53.5 -27.5q10 -8 19 -21t20 -30l19 -37v-407h137v530h86v-610h-397v80h84v209l-29 -15q-17 -5 -32 -7.5t-29 -2.5q-18 0 -38.5 6.5t-39 16.5t-34 22.5t-24.5 24.5q-36 45 -36 114zM-702 -250q0 -35 22 -63 q21 -29 59 -29q103 0 103 90q0 100 -96 100q-40 0 -62 -28q-26 -30 -26 -70z" />
<glyph unicode="&#xe3a;" horiz-adv-x="0" d="M-428 -225q0 43 35 84q29 29 82 37q24 0 46 -10t38.5 -27t26.5 -38.5t10 -45.5t-9.5 -45.5t-26 -37t-38.5 -25t-47 -9.5q-24 0 -45.5 9.5t-37 25t-25 37t-9.5 45.5z" />
<glyph unicode="&#xe3f;" horiz-adv-x="973" d="M129 0v1251h305v146h113v-150q68 0 162 -57q31 -18 57.5 -47t46 -64.5t30.5 -75t11 -79.5q0 -155 -137 -252q29 -13 57.5 -31t54.5 -43q48 -45 71.5 -108.5t23.5 -133.5q0 -44 -11 -86t-31 -79.5t-49 -69t-65 -53.5q-50 -32 -104.5 -49t-116.5 -17v-182h-113v180h-305z M254 115h180v489h-180v-489zM254 719h180v422h-180v-422zM547 119q61 0 129 35q48 26 86 82q17 30 26 59.5t9 58.5q0 161 -156 226q-50 20 -94 20v-481zM547 727q30 0 82 31q44 25 71 73q12 18 25 48q6 27 6 49q0 112 -100 176q-26 17 -46.5 24t-37.5 7v-408z" />
<glyph unicode="&#xe40;" horiz-adv-x="469" d="M0 129v944h94v-737l45 8l76 4q65 -12 109 -67q20 -26 30.5 -56t10.5 -65q0 -66 -58 -115q-51 -45 -123 -45h-30q-13 0 -21 2q-11 0 -33 6q-15 0 -45 27l-24 26l-17 27q-8 17 -11 27.5t-3 13.5zM94 166q0 -33 27 -60q22 -22 61 -28q33 0 66 22q33 28 33 62q0 38 -22.5 66 t-70.5 36q-94 0 -94 -98z" />
<glyph unicode="&#xe41;" horiz-adv-x="920" d="M0 129v944h94v-737l47 12l74 6q68 -12 107.5 -63t39.5 -129q0 -35 -13 -62.5t-44 -52.5q-23 -23 -52.5 -35t-68.5 -12q-84 0 -131 35q-5 5 -9 10t-7 10q-5 8 -10.5 16t-12.5 17zM100 170q0 -35 22.5 -61t59.5 -31q15 0 32 8t30.5 21t22.5 29t9 32q0 45 -23.5 70.5 t-68.5 25.5q-34 0 -59 -28q-11 -14 -17 -30t-8 -36zM467 125v948h92v-743l45 14q14 5 34 7.5t48 2.5q31 -8 55.5 -26t44.5 -45q4 -3 7 -9t8 -14q5 -12 8.5 -20t5.5 -13q5 -17 7.5 -33.5t2.5 -33.5q0 -39 -14 -60q-8 -15 -18 -28.5t-21 -24.5q-50 -47 -121 -47h-31 q-14 0 -22 2q-11 0 -33 6q-12 0 -45 27q-8 8 -18.5 23.5t-18.5 27.5q-8 14 -11 23.5t-5 15.5zM563 180q0 -106 86 -106q35 0 59.5 25t30.5 67q0 38 -22 74q-16 14 -31.5 21t-32.5 7q-35 0 -63 -22q-27 -18 -27 -66z" />
<glyph unicode="&#xe42;" horiz-adv-x="678" d="M-172 1450q0 56 49 123q20 26 44 52t48 46q70 55 178 55q48 0 86.5 -14t69.5 -49q98 -107 98 -274h-104l4 8l-6 59q-3 31 -13 61.5t-29.5 54t-50 38t-73.5 14.5q-76 0 -131 -55q-29 -26 -43 -45.5t-14 -30.5l321 -205l2 -946l45 2l76 4q84 -15 113 -61q17 -25 24.5 -60.5 t7.5 -79.5q0 -56 -47 -106q-39 -41 -102 -41q-113 0 -158 39q-5 5 -15 17t-26 34l-14 43v1102zM260 174q0 -100 109 -100q18 0 34 9t28 23.5t19 32t7 35.5q0 42 -27 72q-28 22 -74 22q-45 0 -67 -22q-14 -11 -21.5 -28.5t-7.5 -43.5z" />
<glyph unicode="&#xe43;" horiz-adv-x="692" d="M-227 1444q0 89 49 160q88 122 209 122q199 0 252 -188v-1202l51 8l76 6q145 -27 145 -190q0 -68 -59 -115q-51 -45 -121 -45h-29q-10 0 -17.5 1t-14 2.5t-15.5 4.5q-17 5 -29.5 12t-21.5 15q-3 5 -4 7l-4 3l-19 18l-14 25q-14 29 -14 37v1399q0 19 -7.5 37.5t-24 34.5 t-43 28t-63.5 18q-21 0 -38.5 -5t-30 -12t-20 -14.5t-7.5 -13.5q8 0 12 -4l23 -8q15 -7 30.5 -19t28 -31t20 -45t7.5 -60q0 -62 -39 -95q-17 -15 -45.5 -25.5t-67.5 -15.5q-52 0 -104 45q-51 45 -51 105zM-127 1448q0 -26 14.5 -41.5t40.5 -22.5q51 0 60 46q0 26 -13 51 q-12 18 -41 18q-52 0 -61 -51zM293 168q0 -15 5.5 -30t16 -27.5t25.5 -21.5t33 -11q37 0 63.5 25.5t26.5 62.5q0 34 -19 63q-17 24 -55 33q-69 0 -90 -59q-2 -11 -4 -19t-2 -16z" />
<glyph unicode="&#xe44;" horiz-adv-x="637" d="M-186 1749h75l35 -166l10 -100l5 -107l217 320h86v-1354l61 6l66 2q64 -9 106 -63q37 -52 37 -125q0 -32 -14.5 -61t-38.5 -51.5t-56.5 -36t-68.5 -13.5l-45 2q-8 0 -16.5 1.5t-16.5 4.5q-8 2 -20 8t-29 19l-15 15q-7 7 -12 13q-4 9 -12 23l-14 41l-2 1407l-203 -283h-90 q0 57 -1 90t-3 62q0 26 -2 55.5t-7 63.5q-2 26 -5.5 55.5t-8.5 64.5q0 18 -18 107zM240 176q0 -42 26.5 -65.5t63.5 -28.5q28 0 65 27q31 21 31 57q0 89 -90 98q-39 0 -72 -22q-21 -20 -24 -66z" />
<glyph unicode="&#xe45;" horiz-adv-x="926" d="M12 709q0 17 8.5 45.5t26.5 79.5q40 103 113 167q82 72 184 72q129 0 211 -49q35 -23 64.5 -55.5t52.5 -77.5q39 -77 39 -154v-1274h-95v1264q0 49 -17.5 94t-51 79t-82 54.5t-109.5 20.5q-95 0 -149 -60q-23 -24 -42 -57.5t-36 -77.5l-27 -71h-90z" />
<glyph unicode="&#xe46;" horiz-adv-x="1255" d="M498 874l6 64q1 4 4.5 10.5t15.5 26.5l27 45q33 53 172 53h141q9 0 27 -12l16 -12l31 -23l23 -27l45 45l20 15l10 8l17 6h149v-1610h-94v1508q-54 0 -74 -17q-22 -13 -22 -133h-97l-2 51q0 23 -4 40.5t-10 29.5q-18 29 -108 29l20 -25q8 -12 11 -25.5t3 -27.5 q0 -70 -45 -127q-48 -53 -112 -53q-33 0 -64 12q-39 21 -55 37q-51 48 -51 112zM580 881q0 -84 77 -84q86 0 86 84q0 92 -84 92q-16 0 -30.5 -7t-25 -19.5t-17 -29.5t-6.5 -36z" />
<glyph unicode="&#xe47;" horiz-adv-x="0" d="M-911 1411q0 87 33 147t90 91q51 24 108 36.5t131 12.5q54 0 92.5 4t67.5 10q23 5 41.5 20t34.5 40q6 18 14 34.5t25 40.5q9 17 30 17q23 0 33 -9q16 -6 16 -18q0 -64 -45 -121q-20 -26 -41.5 -45t-44.5 -33q-37 -14 -87.5 -23t-112.5 -9q-153 0 -222 -45 q-63 -40 -63 -150l4 -55q40 67 90 67q47 0 104.5 -24.5t129.5 -75.5l18 -14l19 -15q0 48 6 60q30 61 106 61q14 0 21 -1.5t18 -6.5l37 -27q6 -5 12 -13t13 -19l8 -41q0 -70 -49 -105q-49 -22 -101 -28q-47 0 -98 26l-148 78q-40 20 -67 32t-41 17q-37 0 -37 -65v-43 q0 -31 -16 -37q-56 0 -76 32q-2 5 -10.5 28t-22.5 67q-11 32 -15.5 57.5t-4.5 44.5zM-393 1290q0 -23 15 -37.5t38 -19.5q22 0 41 16q18 12 18 39q0 32 -18 50t-41 18q-53 0 -53 -66z" />
<glyph unicode="&#xe48;" horiz-adv-x="0" d="M-408 1737v301h89v-301h-89z" />
<glyph unicode="&#xe49;" horiz-adv-x="0" d="M-578 1987q7 61 33 81q5 5 14 10t23 13q11 5 21.5 6.5t21.5 1.5q60 0 92 -31q33 -23 33 -81q0 -20 -3 -43t-11 -58l-21 -86q13 0 70 25q53 23 67 35l84 61q17 14 36.5 31t39.5 37l66 69l47 -49l-8 -10q-7 -17 -27 -37q-20 -22 -41.5 -43t-44.5 -41q-63 -54 -100 -78 q-39 -23 -83.5 -40.5t-97.5 -28.5l-92 -17l-51 -6l-12 49l33 15l28 12q12 12 21 41l8 41q-55 0 -86 14q-60 28 -60 107zM-510 1978q0 -51 49 -51q53 0 53 60q0 53 -51 53t-51 -62z" />
<glyph unicode="&#xe4a;" horiz-adv-x="0" d="M-623 1884l9 62q6 40 57 75q42 33 117 33q15 0 45 -16l35 -25l49 21q20 8 38 11t35 3q46 -12 64 -82l6 -49l-4 -41l-2 -29l29 47q5 7 11 22t11 32l25 114h65l-6 -43q-3 -22 -12 -53q-5 -18 -10.5 -42.5t-18.5 -59.5q-15 -29 -35 -55.5t-45 -51.5q-53 -53 -59 -53h-68 l25 59q11 31 16.5 54.5t5.5 48.5q0 95 -26 112q-17 0 -60 -12l-41 -24l-45 30q-12 8 -27.5 12.5t-33.5 4.5q-12 0 -33.5 -9.5t-34.5 -40.5l-8 -51l35 19l45 12q29 0 61 -31q29 -27 29 -88q0 -39 -35 -69q-28 -27 -82 -27q-51 0 -92 53q-17 23 -26 53.5t-9 73.5zM-537 1812 q0 -22 15 -34q8 -12 33 -19q57 0 57 41q0 60 -49 60q-22 0 -37 -15q-19 -10 -19 -33z" />
<glyph unicode="&#xe4b;" horiz-adv-x="0" d="M-537 1894v74h144v141h78v-141h141v-74h-139v-141h-80v141h-144z" />
<glyph unicode="&#xe4c;" horiz-adv-x="0" d="M-416 1636q0 57 6 84t23 45q12 29 35.5 54.5t58.5 50.5q8 8 28 20t54 31q29 16 49.5 29t34.5 24l57 51l52 48l45 -35l-33 -51q-11 -16 -23 -29.5t-24 -24.5q-19 -14 -44.5 -32.5t-60.5 -36.5l-67 -39q14 -5 26.5 -15t24.5 -24q26 -20 41 -80q0 -35 -8 -63.5t-25 -51.5 q-14 -21 -34.5 -34.5t-49.5 -18.5q-143 0 -166 98zM-346 1663q9 -66 86 -66q61 0 61 89q0 26 -26 53q-29 24 -56 24q-65 0 -65 -100z" />
<glyph unicode="&#xe4d;" horiz-adv-x="0" d="M-616 1436q0 75 61 133q59 59 139 59q79 0 142 -57t63 -135q0 -84 -63 -144q-64 -61 -142 -61t-139 61q-61 64 -61 144zM-532 1436q0 -50 32.5 -86.5t83.5 -42.5q25 0 47 10t38.5 27t26 39.5t9.5 48.5q0 44 -35 77q-32 33 -78 33q-24 0 -46 -8.5t-39.5 -23t-28 -34 t-10.5 -40.5z" />
<glyph unicode="&#xe4e;" horiz-adv-x="0" d="M-729 1479q0 84 43 127q23 20 41 32t31 17l-43 18q-18 8 -50 45q-22 39 -22 84q0 39 15 71.5t42.5 56t66.5 36t87 12.5h24q88 0 167.5 -25.5t148.5 -78.5q-123 27 -217 27q-47 0 -105 -9q-130 -18 -139 -84q0 -20 10.5 -39t32.5 -36q20 -14 44.5 -23t55.5 -12l355 -31 l-133 -35l-226 -20q-139 -12 -139 -133q0 -53 41 -80q17 -13 43 -21.5t55 -13.5q34 -12 99 -12h24q17 0 30 1t21 3q8 0 26.5 4t49.5 12q85 22 133 45l26 10q13 5 25 13q5 0 9 4q-20 -23 -51.5 -53t-73.5 -68q-20 -15 -45 -27.5t-54 -21.5q-21 -6 -67 -12q-19 0 -33 -1.5 t-25 -3.5q-120 0 -221 58q-102 59 -102 164z" />
<glyph unicode="&#xe4f;" horiz-adv-x="942" d="M74 557q0 191 139 324q116 112 258 112q53 0 102 -16.5t97 -48.5q204 -144 204 -389q0 -179 -143 -322q-114 -111 -254 -111q-220 0 -348 230q-26 48 -40.5 106.5t-14.5 114.5zM121 555q0 -38 6 -76t20 -73q14 -36 32.5 -67t47.5 -63q54 -60 114.5 -90t129.5 -30 q128 0 227 100q123 120 123 281q0 51 -11.5 98t-37.5 98q-24 47 -56 85t-71 64.5t-83.5 41t-92.5 14.5q-122 0 -223 -98q-125 -119 -125 -285zM301 557q0 37 13 70t42 65q54 45 111 45q36 0 68.5 -16t56.5 -43t38.5 -63t14.5 -76q0 -80 -61 -138q-50 -45 -107 -45 q-70 0 -123 62q-53 65 -53 139z" />
<glyph unicode="&#xe50;" horiz-adv-x="1073" d="M20 401q0 36 9.5 69t27.5 65q17 27 43 53.5t60 52.5q127 92 303 92q31 0 54 -2.5t40 -7.5q16 0 94 -37q83 -33 142 -111q31 -42 48 -86t17 -88q0 -54 -13 -104.5t-42 -99.5q-28 -45 -64.5 -79t-81.5 -59q-31 -17 -55 -27.5t-43 -17.5q-23 -8 -46.5 -11t-49.5 -3 q-253 0 -383 195q-29 43 -44.5 93.5t-15.5 112.5zM115 401q0 -69 26 -124.5t80 -100.5q51 -42 112 -62t130 -20q45 0 74 12q28 5 75 33q70 37 111 104t41 158q-15 113 -96 170q-26 19 -50 31.5t-47 20.5q-51 18 -108 18q-132 0 -223 -55q-110 -64 -125 -185z" />
<glyph unicode="&#xe51;" horiz-adv-x="1126" d="M0 362q0 112 60.5 201t166.5 146q21 9 48.5 18.5t56.5 17t58.5 12.5t53.5 5q179 0 287 -105q98 -93 119 -274q0 -62 -15 -121.5t-39.5 -113t-55.5 -98.5t-62 -79q-60 -69 -68 -69l-92 67l37 31q28 25 59 60.5t57 83t43 107.5t17 132q-33 258 -287 258q-58 0 -139 -29 q-68 -23 -131 -92q-55 -58 -55 -147q0 -104 74 -162l63 -49l57 -29q-26 0 -59 41q-14 19 -23.5 49t-9.5 78q4 33 18.5 60t37.5 46.5t53.5 30.5t66.5 11q32 0 61 -10.5t54 -30.5q50 -47 59 -107q0 -61 -17 -111.5t-49.5 -86.5t-78.5 -56t-104 -20q-63 0 -116.5 21t-107.5 71 q-98 89 -98 243zM297 270q0 -35 27 -69q27 -31 71 -31q21 0 38.5 8.5t29.5 22t19 31.5t7 36q0 39 -26 72q-11 14 -28.5 21.5t-43.5 7.5q-23 0 -40 -7.5t-29 -21.5q-19 -20 -25 -70z" />
<glyph unicode="&#xe52;" horiz-adv-x="1229" d="M14 995l54 78q29 0 61 -14q39 -14 45 -64v-897h746v467q0 6 -4 17.5t-13.5 23.5t-25 22t-39.5 13q-28 0 -51.5 -8.5t-42.5 -22t-33.5 -31.5t-24.5 -36l-22 -41l-27 37q-11 20 -26.5 38t-35.5 33l-38 21q-25 10 -52 10q-67 -9 -96 -66q-9 -18 -17 -42.5t-16 -55.5 q2 5 12 14t27 21q16 11 38.5 17t51.5 6q31 0 59.5 -14.5t50 -38t34 -52.5t12.5 -57q0 -68 -51 -119q-29 -23 -66.5 -35t-85.5 -12q-68 14 -109.5 56.5t-58.5 111.5q-5 20 -6.5 35.5t-1.5 27.5q0 113 72 203q74 92 158 92q76 0 116 -28q20 -14 33 -26.5t18 -25.5l23 25 q17 17 61 39q20 8 45 12t56 4q40 0 72 -15t53.5 -37.5t33 -49.5t11.5 -51v-578h-934v936q-3 28 -19 37q-5 4 -22 8l-21 8l-2 2zM385 383q0 -33 29 -68q22 -28 55 -28q15 0 30 6t29 20q23 29 23 62q0 11 -4 20t-17 23q-23 23 -53 31q-20 0 -33.5 -5.5t-25.5 -17.5 q-14 -11 -22 -21.5t-11 -21.5z" />
<glyph unicode="&#xe53;" horiz-adv-x="1202" d="M6 377q0 37 6.5 70.5t20.5 64.5q14 35 33.5 64.5t42.5 52.5q40 46 106 80q55 24 127 24q43 0 69.5 -4t57.5 -16q20 -8 41 -19t41 -26l27 -23l10 -8q8 13 24 29.5t40.5 31.5t59 25t79.5 10q75 0 135 -51q61 -49 61 -90v-592h-94v520q0 34 -29 72q-22 26 -84 37 q-36 0 -63 -12t-45.5 -31t-27.5 -41t-9 -43v-502h-96v508q-56 117 -195 117q-116 0 -197 -156q-18 -35 -18 -125v-43l4 -31q2 10 10 21.5t25 25.5q11 11 40 21t60 10q37 0 68 -11t53 -31.5t34.5 -50t12.5 -67.5q0 -37 -11 -69t-40 -58q-45 -46 -123 -61q-74 0 -135 43 q-26 20 -46.5 46.5t-37.5 62.5q-19 42 -28 98t-9 127zM182 195q0 -100 88 -109q31 0 58 33q22 28 22 65q-9 46 -33 62l-47 14q-9 0 -24 -6q-26 -12 -42 -27t-22 -32z" />
<glyph unicode="&#xe54;" horiz-adv-x="1341" d="M6 381q0 53 6 70q14 49 43.5 93.5t77.5 86.5q7 10 27 18q5 3 10 6.5t10 8.5l68 32q81 31 160 31h450q17 0 43.5 10.5t65.5 30.5q6 3 20 15t37 32l35 35l74 -57l-11 -9l-28 -32q-42 -38 -92.5 -70.5t-110.5 -40.5l-127 -10l-86 4h-270q-47 -8 -76 -14t-41 -11 q-65 -18 -98 -59l-72 -84q-11 -23 -16 -45t-5 -53q0 -22 6 -68q2 -11 8.5 -26t14.5 -33q14 -26 38 -53t56 -56q20 -18 73 -28.5t134 -10.5q0 19 -47 146l-35 96l-5 12q-3 8 -9 21q0 70 43 114q46 37 127 37q106 0 145 -86q10 -23 10 -61q0 -65 -34 -113q-20 -27 -78 -45 l-62 -18q0 -7 8 -21t23 -37q29 -39 62 -45h376v-94h-96h-176h-102h-158h-60q-30 0 -52.5 1.5t-53.5 12.5q-38 14 -65 25t-44 22q-12 10 -30.5 29.5t-42.5 50.5l-33 56q-5 8 -9.5 21.5t-11.5 33.5q-8 31 -11 63t-3 66zM426 369q0 -14 3.5 -28t14.5 -28q11 -11 22.5 -16.5 t25.5 -7.5q77 9 77 67q0 35 -18 58q-13 16 -53 22q-27 0 -54 -20q-18 -15 -18 -47z" />
<glyph unicode="&#xe55;" horiz-adv-x="1327" d="M0 313q0 71 29 121q5 8 11 18t15 21q11 16 24 31.5t27 32.5q34 38 121 104l66 37l10 8l-33 23q-11 6 -24.5 21t-24.5 36.5t-18.5 49t-7.5 58.5q0 45 16.5 81t48.5 65q32 25 70.5 39t83.5 14q39 0 75.5 -14t64.5 -40t45 -63t17 -82q0 -72 -20 -108q-8 -12 -16.5 -24.5 t-16.5 -18.5l107 -12l30 -2h37q28 0 46.5 -1t29.5 -3h37q14 0 23 1t14 3q50 0 96 49q20 20 34 38t23 35l37 -28l37 -31q-6 -8 -21.5 -25.5t-39.5 -46.5q-20 -20 -43 -35t-49 -24q-39 -17 -87.5 -24t-93.5 -7l-55 2h-57l-90 6q-4 0 -16.5 1t-28.5 2.5t-33.5 2.5t-32.5 1 q-112 -19 -234 -109q-131 -97 -131 -203q0 -123 95 -178q37 -20 98 -33.5t135 -13.5l-20 53l-21 54l-20 67q-13 45 -17 73.5t-4 53.5q9 88 66 121q49 41 96 41q85 0 133.5 -41t48.5 -129q0 -72 -45 -117q-20 -20 -41.5 -35t-46.5 -26l-47 -19q0 -33 43 -63q36 -27 76 -27 h295v-94h-623q-22 0 -86 18q-132 41 -197 164q-20 39 -20 131zM293 874q0 -48 34.5 -79t90.5 -37q57 9 78 39q24 18 24 82q0 48 -28.5 74t-77.5 26t-84 -31q-28 -21 -37 -74zM438 373q0 -86 80 -86q15 0 29.5 7.5t26 20t18 28.5t6.5 32q0 88 -78 88q-14 0 -28.5 -6 t-28.5 -19q-25 -18 -25 -65z" />
<glyph unicode="&#xe56;" horiz-adv-x="1206" d="M0 1024l39 80q29 0 56.5 -9.5t51.5 -29.5q46 -37 46 -66v-282l49 6l106 14l195 25l98 4l39 2q286 0 313 -240l6 -53q0 -140 -125 -268q-42 -45 -92 -80.5t-110 -63.5q-75 -32 -147 -47.5t-144 -15.5q-100 0 -158 18q-149 77 -149 215q0 25 6 54q7 34 24 60.5t41 45t52 28 t57 9.5q197 0 197 -176q0 -26 -3.5 -43.5t-11.5 -34.5q-5 -14 -11 -27t-17 -24l-23 -25q23 3 63 10.5t99 18.5q88 21 158 72q180 132 180 282q0 26 -3.5 46.5t-11.5 35.5q-8 17 -17 32t-22 26q-50 41 -159 41q-23 0 -38 -0.5t-27.5 -1.5t-26 -3.5t-31.5 -5.5l-461 -65v340 q0 35 -33 67l-24 17zM174 254q0 -48 20 -76t60 -39q22 0 39 9.5t28 25.5t17 37t6 43q0 37 -25.5 61.5t-62.5 24.5q-29 0 -55 -27q-24 -19 -27 -59z" />
<glyph unicode="&#xe57;" horiz-adv-x="1221" d="M6 377q0 40 5 73.5t16 61.5q12 35 25 63t36 60q37 49 88.5 76.5t120.5 27.5q17 -2 38.5 -12t47.5 -27l51 -30l58 35q59 34 120 34q63 -9 105 -57q37 -42 37 -104v-484q55 0 110 31q8 5 16.5 14t16.5 23q10 23 10 41v751q0 8 10.5 25t30.5 45l33 20l31 15l57 -58l-68 -49 v-745q0 -89 -77 -148q-40 -27 -113 -47q-37 -8 -66.5 -12t-54.5 -4q-11 0 -18.5 1t-12.5 3v551q0 64 -59 94l-25 6q-18 0 -41 -9.5t-51 -29.5l-49 -34l-26 18l-58 35q-14 8 -27.5 11t-25.5 3q-84 0 -135 -70q-29 -42 -45.5 -84t-16.5 -90q0 -31 3 -52.5t16 -47.5 q5 -14 11 -30.5t17 -34.5l21 32q26 42 60.5 62t76.5 20q159 0 174 -162q0 -39 -13.5 -73.5t-37.5 -60t-57.5 -40t-73.5 -14.5q-28 0 -53.5 8.5t-48 22.5t-41 32t-33.5 37l-58 70q-57 76 -57 207zM223 176q0 -81 90 -90q29 0 52 29q20 20 20 61q0 84 -80 84q-82 0 -82 -84z " />
<glyph unicode="&#xe58;" horiz-adv-x="1311" d="M14 369q8 75 49 135t113 108q58 37 78 37h510h26q11 0 19.5 0.5t16.5 2t20 3.5q12 3 22.5 6.5t18.5 6.5q8 4 18 8.5t22 12t27 19.5t33 31l37 39l72 -53q0 -18 -43 -61q-20 -23 -32.5 -33t-29.5 -21q-45 -28 -91.5 -41.5t-94.5 -13.5h-502q-47 0 -121 -47q-33 -21 -55 -64 q-18 -30 -18 -82q0 -17 6 -41.5t20 -56.5q16 -35 25 -47l6 -6q8 12 21 28.5t30 34.5q38 38 80 48q14 0 49 -17t92 -49l191 -109l8 56q5 29 14 53.5t25 44.5q33 41 108 41q170 0 170 -162q0 -68 -44.5 -115.5t-118.5 -64.5q-117 0 -185 41l-225 143q-29 14 -48 21.5t-24 9.5 q-61 0 -112 -154l-21 -61q-19 0 -72 92q-17 32 -30.5 61t-24.5 54q-17 48 -26 88t-9 74zM717 162q0 -68 63 -80q30 0 60 27q24 15 30 53q0 94 -79 94q-17 0 -30 -7.5t-24 -21.5q-11 -20 -20 -65z" />
<glyph unicode="&#xe59;" horiz-adv-x="1509" d="M14 434q0 59 17 101q12 37 49 94q58 85 156 137q97 49 202 49q96 0 178 -61q23 -14 38.5 -23t21.5 -14l61 -60l13 13l24 30q38 50 75.5 81.5t82.5 39.5q26 0 49.5 -5.5t46.5 -16.5q29 -11 53.5 -23t44.5 -26l41 -31l39 340q0 7 -8 10l-10 8l-19 13l-20 18l-14 12l75 74 l31 -18q11 -5 18.5 -10t10.5 -13q20 -20 31.5 -37t13.5 -31l-19 -307l-8 -47q-5 -23 -9.5 -39t-12.5 -24q-11 -20 -35 -35.5t-62 -28.5l-92 -24l-12 32q-11 19 -23 34t-24 26q-33 26 -78 26q-69 0 -92 -82q-11 -42 -17 -73t-6 -54q0 -5 9 -30.5t26 -73.5l51 -131 q13 -31 33 -55.5t49 -44.5l56 -29l45 -23v-102q-26 5 -58.5 16.5t-77.5 36.5q-89 47 -145 144q-14 24 -31 67t-39 105q-21 62 -44 110.5t-48 85.5q-42 63 -95 95t-122 32q-94 0 -166.5 -39.5t-115.5 -105.5q-23 -35 -34.5 -71.5t-11.5 -84.5q4 -41 41 -98q23 -29 44 -52 t38 -38l41 -33q1 0 11 -4l6 47q12 109 143 127q102 0 141 -43q52 -40 52 -104q0 -48 -14.5 -81.5t-49.5 -62.5q-58 -49 -143 -49q-42 0 -87.5 15.5t-90 44.5t-85.5 70.5t-75 92.5q-64 95 -64 211zM369 170q0 -28 20 -51q19 -30 47 -33q16 0 32 6t29 16.5t22 25t11 32.5 q0 90 -75 90q-33 0 -60 -20q-20 -18 -26 -66z" />
<glyph unicode="&#xe5a;" horiz-adv-x="1149" d="M0 987q0 71 43 123q39 57 109 57q75 0 110 -51q43 -43 43 -121q0 -34 -9.5 -59.5t-24 -43.5t-30.5 -29.5t-28 -16.5l35 -8l57 -7q118 19 170 68q32 32 65.5 73t65.5 89q72 106 125 106h14q45 0 80 -32q47 -41 47 -195v-940h-81v1001q0 14 -4.5 26t-12.5 20q-9 20 -35 20 q-9 0 -63 -72l-88 -110q-23 -23 -50.5 -45.5t-58.5 -40.5q-60 -39 -174 -56q-128 0 -217 68q-88 67 -88 176zM80 995q0 -17 4.5 -31.5t13.5 -25.5q9 -17 54 -25q28 0 55 25q11 11 15.5 25.5t4.5 31.5t-4 28.5t-16 25.5q-17 26 -55 26q-32 0 -52 -22q-14 -18 -20 -58zM952 0 v1167h92v-1167h-92z" />
<glyph unicode="&#xe5b;" horiz-adv-x="1591" d="M129 520q0 81 23.5 148t74.5 129q52 61 142 61q100 0 178 -78q42 -42 69 -98q2 -11 5.5 -22.5t3.5 -22.5q0 -26 -9 -53.5t-26 -53.5q-41 -39 -78 -45l-20 -2q-32 0 -60 12t-51 35q-57 54 -57 121q0 44 32 82l17 17l16 12q-8 4 -24 4q-38 0 -76 -39q-25 -32 -39 -78 t-14 -102q0 -51 11 -86t36 -60q82 -79 143 -79q35 0 123 40q54 26 94.5 119.5t69.5 255.5l102 -229l86 174l105 -170l79 141l357 -75l-336 -3l-80 -200l-119 174q0 -12 -41 -92q-5 -11 -8.5 -19t-11.5 -22q-6 -17 -10.5 -27t-6.5 -27l-90 130v-13q0 -43 -43 -123 q-48 -83 -98 -116q-14 -11 -31 -18.5t-37 -18.5q-3 0 -11.5 -1.5t-19.5 -3t-22.5 -3t-21.5 -2.5q-100 0 -213 77q-54 39 -82 103q-14 32 -22.5 70.5t-8.5 76.5zM410 649q0 -27 24 -51q13 -8 25 -13t26 -7q20 0 35 18q5 5 9 13t8 22q0 25 -29 51q-18 27 -41 27q-26 0 -41 -27 q-6 -5 -8 -12z" />
<glyph unicode="&#xe81;" horiz-adv-x="1320" d="M65 166q0 42 15.5 76.5t41 59t59 37.5t69.5 13q19 0 45 -4t43 -10v447q-17 -2 -43 -4t-44 -2q-85 0 -135.5 46t-50.5 137q0 87 50.5 132.5t135.5 45.5q37 0 72.5 -11t65 -31.5t51 -50.5t29.5 -67q28 34 69 63.5t87.5 51t95.5 33.5t94 12q29 0 70 -6.5t85 -19t87.5 -31.5 t78 -44.5t56 -57t21.5 -69.5v-746q0 -32 -3 -55t-9 -42t-14.5 -35.5t-19.5 -33.5h-155q10 16 21.5 32.5t21.5 36t16.5 43t6.5 54.5v675q0 45 -25 77t-63 51.5t-82 28.5t-81 9q-44 0 -93.5 -14t-97.5 -37t-90.5 -52.5t-72.5 -60.5v-677q0 -44 -19 -78.5t-50 -58.5 t-71.5 -36.5t-82.5 -12.5q-85 0 -135 50.5t-50 135.5zM162 166q0 -37 25.5 -62.5t62.5 -25.5q18 0 34 7t28 19t19 28t7 34t-7 34t-19 28t-28 19t-34 7t-34 -7t-28 -19t-19 -28t-7 -34zM162 968q0 -38 27 -57t62 -19q20 0 43.5 2t43.5 10q0 19 -4 43t-14 45t-27 35t-42 14 q-17 0 -32.5 -4.5t-28.5 -13.5t-20.5 -23t-7.5 -32z" />
<glyph unicode="&#xe82;" horiz-adv-x="1320" d="M136 206q0 49 26 88t70 71t103 58t125 49t135.5 44.5t134.5 44.5q64 22 121 46.5t99.5 54.5t67 65.5t24.5 80.5q0 41 -19.5 71.5t-51.5 53t-72 36.5t-82 22.5t-81 12t-68 3.5q-26 0 -60 -1.5t-72.5 -6.5t-78.5 -14t-79 -25q34 -4 62 -19.5t47 -39t29.5 -53.5t10.5 -62 q0 -87 -51.5 -136.5t-165.5 -49.5q-32 0 -63 13t-55.5 39.5t-40 66t-15.5 93.5q0 77 46 138t121.5 103t173 64.5t200.5 22.5q53 0 110.5 -6t113 -20.5t105.5 -38.5t88 -61.5t60.5 -88.5t22.5 -119q0 -71 -34.5 -127t-91.5 -101t-130.5 -80.5t-152.5 -64.5q-91 -33 -180 -61 t-159.5 -54t-114 -52.5t-43.5 -57.5q0 -35 25.5 -54t60 -28t69.5 -11t55 -2q43 0 78.5 10.5t67 26t61 34t61 34t66.5 26t77 10.5q44 0 94 -9.5t92.5 -33t70.5 -63.5t28 -101q0 -11 -2.5 -23t-6.5 -24h-135q4 11 6.5 21.5t2.5 21.5q0 21 -13 36t-35 24t-50.5 13.5t-59.5 4.5 q-43 0 -80.5 -22t-80.5 -48.5t-98 -48.5t-133 -22q-32 0 -70.5 3t-78 11t-77 23.5t-66.5 40.5t-46.5 61.5t-17.5 86.5zM256 782q0 -18 7.5 -34t19.5 -28t28.5 -19t34.5 -7q38 0 63.5 26t25.5 62q0 18 -7 34t-19 28t-28 19t-35 7q-18 0 -34.5 -7t-28.5 -19t-19.5 -28 t-7.5 -34z" />
<glyph unicode="&#xe84;" horiz-adv-x="1320" d="M106 330q-2 33 0.5 69t10.5 71.5t22.5 68t37.5 59.5q-31 37 -50 90.5t-19 104.5q0 64 26.5 115.5t70.5 90t101.5 66t118 45t120.5 25.5t110 8q41 0 95 -8.5t111 -26t111.5 -43.5t97.5 -61.5t69 -79.5t26 -97v-661q0 -31 -4 -54t-11 -42t-15 -35.5t-16 -34.5h-155 q11 18 23 38t21.5 41.5t15.5 43.5t6 43v608q0 40 -19.5 73t-51.5 59.5t-73 45.5t-83 32t-82 19.5t-70 6.5q-41 0 -87.5 -5t-92 -16.5t-87 -30.5t-73.5 -48t-51 -68.5t-19 -91.5q0 -16 6 -30.5t12 -27.5q30 48 72.5 74t94.5 26q40 0 76 -12.5t63.5 -36.5t43.5 -58t16 -77 t-17 -75t-45 -53.5t-64.5 -32.5t-76.5 -11q-32 0 -50.5 5.5t-33.5 15.5t-30.5 24t-40.5 31q-15 -34 -20.5 -73.5t-5.5 -77.5q0 -18 1 -37.5t3.5 -37.5t7 -33t12.5 -25q9 28 27.5 51t43 39t52.5 25t56 9q37 0 70 -15.5t57.5 -41.5t38.5 -59.5t14 -70.5q0 -40 -16 -74 t-43 -58.5t-62 -38.5t-74 -14q-75 0 -134.5 27.5t-101 75t-64 111.5t-23.5 136zM329 606q25 -29 47.5 -46t59.5 -17q15 0 31 3t29 10t21 19.5t8 30.5q0 35 -21 60.5t-55 25.5q-45 0 -70.5 -24.5t-49.5 -61.5zM351 165q0 -36 25.5 -61.5t61.5 -25.5q38 0 63.5 25.5t25.5 61.5 q0 37 -25 63t-64 26q-37 0 -62 -26t-25 -63z" />
<glyph unicode="&#xe87;" horiz-adv-x="958" d="M56 815q0 61 32 119.5t84.5 104t120 73.5t138.5 28q79 0 156 -25t137 -72t97 -113.5t37 -150.5v-716q0 -83 -23 -149.5t-61 -117.5t-88 -88.5t-104 -63.5q-48 -22 -115.5 -28.5t-138.5 0t-136 24.5t-107 45l54 118q35 -24 87 -39t108 -20.5t109.5 1t91.5 26.5 q40 20 74.5 48.5t59.5 63.5t39.5 77.5t14.5 90.5v750q0 45 -28.5 83t-72 65.5t-95.5 42.5t-98 15q-32 0 -65.5 -6.5t-62.5 -17t-51.5 -25t-32.5 -29.5q19 9 29.5 11.5t19.5 2.5h15q43 0 77 -14t57.5 -38.5t35.5 -58t12 -72.5q0 -41 -14 -75.5t-39 -60t-59 -39.5t-74 -14 q-57 0 -99 17t-69 49t-40 77t-13 101zM190 758q0 -39 26 -64t63 -25t62 25t25 64q0 37 -25 62t-62 25t-63 -25t-26 -62z" />
<glyph unicode="&#xe88;" horiz-adv-x="1235" d="M96 868q0 55 33 97t86 72.5t118.5 50.5t131.5 31.5t124.5 16.5t96.5 5q75 0 153 -14t142 -49t105 -94.5t41 -149.5q0 -43 -11.5 -103t-28.5 -131t-37.5 -149t-38.5 -156t-31.5 -153.5t-16.5 -141.5h-170q0 52 -6.5 111t-18.5 119t-29.5 119t-39.5 111q-27 -11 -46 -16 t-39 -8q-38 -6 -73.5 4.5t-63.5 33.5t-46.5 56.5t-22.5 73.5q-5 37 5 71.5t32.5 62t54.5 45.5t70 23q40 5 74 -7.5t62 -36.5t48.5 -56.5t32.5 -66.5q26 -72 49 -155t46 -167q22 100 42 172.5t35 128t23.5 100t8.5 89.5q0 48 -17 81.5t-45.5 55t-65.5 34t-77.5 18t-81 7 t-75.5 1.5q-16 0 -51 -4.5t-78.5 -13t-90 -20.5t-84.5 -27.5t-62.5 -34.5t-24.5 -40q0 -14 6.5 -24.5t15.5 -18t19 -12t18 -7.5l-70 -113q-23 10 -46.5 27t-42 39.5t-30.5 51t-12 61.5zM505 610q4 -38 32 -59.5t64 -17.5q39 5 61 32.5t18 65.5q-5 39 -33 61t-66 17 q-37 -4 -58.5 -32t-17.5 -67z" />
<glyph unicode="&#xe8a;" horiz-adv-x="1300" d="M116 206q0 49 26 88t70 71t103 58t125 49t135.5 44.5t134.5 44.5q64 22 121 46.5t99.5 54.5t67 65.5t24.5 80.5q0 41 -19.5 71.5t-51.5 53t-72 36.5t-82 22.5t-81 12t-68 3.5q-26 0 -60 -1.5t-72.5 -6.5t-78.5 -14t-79 -25q34 -4 62 -19.5t47 -39t29.5 -53.5t10.5 -62 q0 -87 -51.5 -136.5t-165.5 -49.5q-32 0 -63 13t-55.5 39.5t-40 66t-15.5 93.5q0 52 22 96.5t60.5 80.5t91 64.5t112.5 47.5t125 29t130 10q53 0 110.5 -6t113 -20.5t105.5 -38.5t88 -61.5t60.5 -88.5t22.5 -119q0 -71 -34.5 -127t-91.5 -101t-130.5 -80.5t-152.5 -64.5 q-91 -33 -180 -61t-159.5 -54t-114 -52.5t-43.5 -57.5q0 -35 25.5 -54t60 -28t69.5 -11t55 -2q43 0 78.5 10.5t67 26t61 34t60.5 34t65.5 26t75.5 10.5q39 0 90.5 -9.5t96.5 -32.5t74 -63.5t23 -101.5q-6 -53 -11.5 -98.5t-3.5 -87t14.5 -81t41.5 -79.5l-122 -58 q-31 37 -46 84t-19.5 99t-0.5 107t12 110q5 37 -35 57.5t-119 20.5q-29 0 -55 -10.5t-52 -26t-54.5 -34t-62 -34t-75 -26t-93.5 -10.5q-32 0 -70.5 3t-78 11t-77 23.5t-66.5 40.5t-46.5 61.5t-17.5 86.5zM236 782q0 -18 7.5 -34t19.5 -28t28.5 -19t34.5 -7q38 0 63.5 26 t25.5 62q0 18 -7 34t-19 28t-28 19t-35 7q-18 0 -34.5 -7t-28.5 -19t-19.5 -28t-7.5 -34z" />
<glyph unicode="&#xe8d;" horiz-adv-x="1320" d="M116 336q0 30 10 58t27.5 52t41.5 42t52 28q-29 18 -53.5 45t-41.5 58.5t-26.5 66.5t-9.5 69q0 100 32.5 173t82 120t107.5 69.5t109 22.5q39 0 73 -15t59 -41.5t39.5 -61.5t14.5 -75q0 -29 -12.5 -60.5t-35 -58t-54 -43.5t-70.5 -17q-66 0 -115 31t-69 97 q-10 -21 -15 -35.5t-7.5 -28.5t-3 -29t-0.5 -36q0 -53 25.5 -87.5t65 -55.5t86.5 -29t89 -7q26 1 47.5 2t49.5 5l14 -134q-18 -1 -53 -4t-77 -9t-85.5 -16t-79.5 -24.5t-59 -34.5t-23 -47q0 -26 12.5 -49t32.5 -43.5t45 -37.5t50 -30q37 -19 78 -29.5t79.5 -16t71.5 -6.5 t56 -1q58 0 119.5 14t111 45.5t81.5 81t32 121.5v495q0 28 -2 61.5t-8.5 68t-18 66t-29.5 54.5h155q8 -19 15.5 -41.5t13 -46t9 -46.5t3.5 -44v-637q0 -56 -23.5 -102t-62 -82t-88.5 -62.5t-103.5 -44t-106 -26t-96.5 -8.5q-78 0 -168 13.5t-177 51.5q-45 20 -85 48 t-69 64.5t-46 81t-17 97.5zM361 956q0 -37 26.5 -63.5t65.5 -26.5q37 0 60 26.5t23 63.5q0 36 -23 61t-60 25q-39 0 -65.5 -23.5t-26.5 -62.5z" />
<glyph unicode="&#xe94;" horiz-adv-x="1320" d="M126 333v395q0 65 24 121t65 102t95.5 81t114 59t121 36.5t117.5 12.5q61 0 124 -10t120.5 -31t108 -53.5t88 -77.5t59 -102.5t21.5 -129.5v-531q0 -31 -9 -60.5t-21.5 -55.5t-27.5 -49l-27 -40h-158q24 28 44 52.5t34 50t22 54t8 66.5v474q0 89 -33.5 148.5t-88 95.5 t-125 51t-145.5 15q-67 0 -137.5 -20t-128.5 -60t-95 -98.5t-37 -135.5v-323q0 -18 0.5 -38.5t3 -40t7.5 -36t13 -26.5q9 28 27.5 51t43 39t52.5 25t56 9q37 0 70 -16t58 -42t39 -60t14 -71q0 -40 -16 -73.5t-43 -58t-62.5 -38t-74.5 -13.5q-75 0 -134.5 28t-100.5 76 t-63 112t-23 136zM370 167q0 -36 25.5 -61.5t61.5 -25.5q38 0 63.5 25.5t25.5 61.5q0 37 -25 63t-64 26q-37 0 -62 -26t-25 -63z" />
<glyph unicode="&#xe95;" horiz-adv-x="1320" d="M126 321v440q0 64 14.5 131.5t47 122.5t85 90t129.5 35q50 0 87.5 -19t67 -49t53 -66t45.5 -70q22 34 43.5 70t49 65t65.5 48t92 19q79 0 132.5 -36t86 -92.5t46 -126t13.5 -136.5v-542q0 -31 -9 -60.5t-21.5 -55.5t-27.5 -49l-27 -40h-158q24 28 44 52.5t34 50t22 54 t8 66.5v503q0 20 -0.5 48.5t-5 59.5t-13 61t-25 54t-41 39t-60.5 15q-27 0 -49 -20t-41.5 -50.5t-38 -65.5t-37 -65.5t-38.5 -50.5t-44 -20t-44.5 20.5t-39.5 50.5t-38.5 66t-40 66t-43.5 50.5t-51 20.5q-51 0 -79 -28.5t-40.5 -69t-15 -85.5t-2.5 -78v-386q0 -17 1 -37 t4 -39t8 -34t13 -22q8 29 26.5 51.5t42.5 37.5t52 22.5t56 7.5q38 0 71 -14t57 -38t38 -57t14 -71q0 -41 -16.5 -75t-44 -58t-63.5 -37.5t-75 -13.5q-71 0 -129.5 27.5t-100.5 74t-65.5 108t-23.5 130.5zM371 163q0 -37 26.5 -63.5t63.5 -26.5q19 0 35.5 7t29 19.5t19.5 29 t7 34.5t-7 34.5t-19.5 29t-29 19.5t-35.5 7q-37 0 -63.5 -26.5t-26.5 -63.5z" />
<glyph unicode="&#xe96;" horiz-adv-x="1320" d="M59 946q0 94 48.5 144.5t145.5 50.5q36 0 70.5 -11t63 -32t49.5 -51t29 -67q35 40 80 70t91.5 49.5t90.5 29.5t77 10q38 0 82.5 -7t89.5 -20.5t87 -34.5t74.5 -48.5t52 -62t19.5 -75.5v-836q0 -32 -0.5 -76t3.5 -90.5t14.5 -90t32.5 -73.5l-111 -78q-27 40 -42 92.5 t-22 109.5t-8.5 113.5t-1.5 103.5v768q0 49 -26.5 82t-67 53t-87.5 28.5t-87 8.5q-35 0 -73 -11t-76 -28t-72 -37t-60 -38t-41.5 -31.5t-15.5 -17.5v-506q25 8 44 11.5t36 3.5q41 0 76 -13.5t60.5 -37.5t40 -58.5t14.5 -76.5q0 -90 -49 -138t-134 -48q-27 0 -65 8 t-73.5 31.5t-60 66t-24.5 110.5v589q-16 -2 -39 -4t-33 -2q-45 0 -82 11t-63.5 32.5t-41.5 52.5t-15 71zM158 968q0 -25 9 -40t22.5 -23.5t30 -11t31.5 -2.5q36 0 55.5 4.5t27.5 8.5q-1 23 -5 47.5t-14 44.5t-28 32.5t-47 12.5q-16 0 -31 -5.5t-26 -15.5t-18 -23.5t-7 -28.5 zM468 166q0 -18 7 -34t19 -28t28 -19t34 -7q37 0 62.5 25.5t25.5 62.5q0 18 -7 34t-19 28t-28 19t-34 7t-34 -7t-28 -19t-19 -28t-7 -34z" />
<glyph unicode="&#xe97;" horiz-adv-x="1404" d="M86 303q0 45 16.5 109t53.5 134q32 60 72 115.5t72 106.5q-44 0 -83 11t-68 33.5t-46 57.5t-17 83q0 43 15.5 78t42 59t60.5 37t70 13q42 0 79.5 -9.5t66 -31t45.5 -56.5t17 -86q0 -59 -19 -116.5t-49 -115.5t-66.5 -116.5t-70.5 -119.5q-34 -60 -45 -112t-11 -92 q0 -56 18 -90t49 -52t72 -24t87 -6q40 0 77.5 14t66.5 39t46 60.5t17 78.5v479q0 75 15 140.5t49.5 113.5t91.5 75.5t141 27.5q87 0 148.5 -24.5t100.5 -70.5t57.5 -112.5t18.5 -149.5v-600q0 -38 -2 -64.5t-6.5 -46.5t-11.5 -37t-17 -36h-165q15 21 27 39.5t20.5 38 t13.5 41t5 47.5v608q1 42 -8 83.5t-30 75t-55.5 54.5t-83.5 21q-50 0 -83.5 -18.5t-53.5 -49t-28.5 -70.5t-8.5 -82v-483q0 -78 -24.5 -139t-68.5 -102t-106.5 -62.5t-138.5 -21.5q-86 0 -153.5 16t-114.5 53.5t-72 99.5t-25 154zM183 955q0 -39 25 -64t62 -25t63 25t26 64 q0 37 -26 62t-63 25t-62 -25t-25 -62z" />
<glyph unicode="&#xe99;" horiz-adv-x="1320" d="M76 956q0 91 50.5 138t141.5 47q45 0 84 -15.5t67.5 -43t45 -65.5t16.5 -83v-535q0 -69 31 -120t78.5 -85t103.5 -50.5t106 -16.5q39 0 82 8t79 26.5t59.5 50t23.5 79.5v578q0 27 -3 60.5t-10 67.5t-19.5 66.5t-30.5 56.5h155q19 -45 31 -98.5t12 -101.5v-680 q0 -38 -16 -71t-42.5 -60.5t-61 -49.5t-72 -36.5t-75 -22.5t-69.5 -8q-69 0 -121.5 8.5t-93 22t-71 30t-56 32t-47.5 28t-45 18.5q-21 -27 -45.5 -47.5t-57 -37.5t-74.5 -30.5t-98 -25.5l-15 133q42 9 83 26t73 49.5t51.5 83t19.5 126.5v383q-17 -11 -41 -16.5t-41 -5.5 q-85 0 -136.5 49.5t-51.5 137.5zM173 955q0 -37 25 -62.5t64 -25.5q37 0 63.5 25.5t26.5 62.5q0 19 -7 35t-19.5 28t-29 18.5t-34.5 6.5q-38 0 -63.5 -25t-25.5 -63z" />
<glyph unicode="&#xe9a;" horiz-adv-x="1320" d="M86 333q0 21 3 49.5t10.5 60.5t21 66t35.5 67q19 30 32.5 49.5t28 38.5t33.5 42.5t50 61.5q-44 0 -83 11t-68 33.5t-46 57.5t-17 83q0 43 15.5 78t42 59t60.5 37t70 13q42 0 80 -9.5t66.5 -31t45 -56.5t16.5 -86q0 -52 -21 -108t-52.5 -112t-67 -111.5t-64.5 -106.5 q-17 -30 -28 -52.5t-17 -44.5t-8.5 -47t-2.5 -61q0 -38 34.5 -74t89.5 -63.5t124 -45t138 -18.5q83 0 159.5 15.5t135 47.5t93.5 82t35 119v493q0 27 -3 60.5t-10 67.5t-19.5 66t-30.5 56h155q8 -20 15.5 -45t13.5 -51t10 -53t4 -51v-526q0 -76 -24.5 -136.5t-66 -106.5 t-97.5 -78.5t-119 -53t-130 -30t-131 -9.5q-57 0 -117 8t-117 26t-107 45.5t-88 67t-60 90.5t-22 116zM183 955q0 -39 25 -64t62 -25t63 25t26 64q0 37 -26 62t-63 25t-62 -25t-25 -62z" />
<glyph unicode="&#xe9b;" horiz-adv-x="1320" d="M86 323q0 22 3 52.5t10.5 63.5t19 65.5t29.5 59.5q21 31 39 56t35.5 48t36 47t41.5 53q-44 0 -83 11t-68 33.5t-46 57.5t-17 83q0 43 15.5 78t42 59t60.5 37t70 13q42 0 79.5 -9.5t66 -31t45.5 -56.5t17 -86q0 -50 -22 -107.5t-54.5 -117t-69.5 -117t-67 -108.5 q-18 -31 -28 -59t-14.5 -53.5t-5 -48t-0.5 -42.5q0 -33 34.5 -67t89.5 -61t124 -44.5t138 -18.5q83 0 159.5 15.5t135 47.5t93.5 82t35 119v584q0 70 2.5 130t11.5 117t26 114.5t46 123.5h166q-42 -68 -65.5 -126.5t-35 -117t-14 -123t-2.5 -143.5v-542q0 -76 -24.5 -136.5 t-66 -106.5t-97.5 -78.5t-119 -53t-130 -30t-131 -9.5q-57 0 -117 8.5t-117 26t-107 45t-88 65.5t-60 87.5t-22 110.5zM183 955q0 -39 25 -64t62 -25t63 25t26 64q0 37 -26 62t-63 25t-62 -25t-25 -62z" />
<glyph unicode="&#xe9c;" horiz-adv-x="1320" d="M86 352v428q0 67 22 131.5t62 115.5t96.5 82t125.5 31q40 0 75.5 -13t62.5 -37t42.5 -59t15.5 -78q0 -39 -15.5 -73t-41 -59t-58.5 -39t-67 -14q-60 0 -102.5 19t-73.5 64q-11 -124 -10 -249.5t1 -251.5q0 -94 31 -148.5t76.5 -75.5t96 -10.5t90.5 47t60.5 97t4.5 139.5 q73 43 135 0q-12 -77 10 -137t61.5 -97.5t89.5 -48.5t93.5 9t73.5 75t30 150q0 126 1 251t-10 250q-37 -42 -79 -62.5t-84 -20.5q-41 0 -76 13.5t-61.5 38t-41.5 58.5t-15 75q0 43 15.5 78t42 59.5t62 37.5t75.5 12q57 0 103 -23t80 -50q22 30 30.5 69.5t10.5 71.5l126 -44 q-3 -29 -9.5 -58t-17 -57t-24.5 -52.5t-32 -42.5q21 -45 30 -84.5t9 -89.5v-429q0 -65 -15.5 -131t-49 -119.5t-87.5 -87t-132 -33.5q-41 0 -81.5 12.5t-77.5 34.5t-68.5 51t-53.5 61q-19 -35 -48 -64t-64 -50t-74 -33t-78 -12q-78 0 -133.5 33.5t-91 87t-52 119.5 t-16.5 132zM315 954q0 -37 25.5 -62.5t62.5 -25.5t62.5 25.5t25.5 62.5t-25.5 62.5t-62.5 25.5t-62.5 -25.5t-25.5 -62.5zM803 954q0 -37 25.5 -62.5t62.5 -25.5t67.5 23t50.5 65q-19 43 -50 65.5t-68 22.5t-62.5 -25.5t-25.5 -62.5z" />
<glyph unicode="&#xe9d;" horiz-adv-x="1320" d="M86 352v428q0 67 22 131.5t62 115.5t96.5 82t125.5 31q40 0 75.5 -13t62.5 -37t42.5 -59t15.5 -78q0 -39 -15.5 -73t-41 -59t-58.5 -39t-67 -14q-60 0 -102.5 19t-73.5 64q-7 -12 -9 -23.5t-2 -23.5q0 -11 1 -23t1 -24v-407q0 -94 31 -148.5t76.5 -75.5t96 -10.5t90.5 47 t60.5 97t4.5 139.5q73 43 135 0q-12 -77 10 -137t62 -97.5t89.5 -48.5t93.5 9t74 75t30 150v692q0 58 5 109.5t15.5 100.5t26.5 97t39 99h154q-38 -63 -59.5 -120.5t-31.5 -116t-12 -121t-2 -136.5v-603q0 -65 -15.5 -131t-49.5 -119.5t-88 -87t-132 -33.5q-41 0 -81.5 12.5 t-77.5 34.5t-68.5 51t-53.5 61q-19 -35 -48 -64t-64 -50t-74 -33t-78 -12q-78 0 -133.5 33.5t-91 87t-52 119.5t-16.5 132zM315 954q0 -37 25.5 -62.5t62.5 -25.5t62.5 25.5t25.5 62.5t-25.5 62.5t-62.5 25.5t-62.5 -25.5t-25.5 -62.5z" />
<glyph unicode="&#xe9e;" horiz-adv-x="1400" d="M86 303q0 45 16.5 109t53.5 134q32 60 72 115.5t72 106.5q-44 0 -83 11t-68 33.5t-46 57.5t-17 83q0 43 15.5 78t42 59t60.5 37t70 13q42 0 79.5 -9.5t66 -31t45.5 -56.5t17 -86q0 -59 -19 -116.5t-49 -115.5t-66.5 -116.5t-70.5 -119.5q-34 -60 -45 -112t-11 -92 q0 -56 18 -90t49 -52t72 -24t87 -6q43 0 80 15t64.5 41.5t43 63t15.5 80.5v807h135v-809q0 -35 14 -70t39 -63.5t58.5 -46.5t72.5 -18q40 0 71.5 19.5t53.5 50t33.5 68t11.5 73.5v796h135v-809q0 -62 -18.5 -121t-55.5 -106t-92.5 -75.5t-130.5 -28.5q-36 0 -73 8t-71.5 24 t-65 40.5t-53.5 58.5q-21 -32 -51.5 -56.5t-65.5 -41t-72.5 -25t-73.5 -8.5q-86 0 -153.5 16t-114.5 53.5t-72 99.5t-25 154zM183 955q0 -39 25 -64t62 -25t63 25t26 64q0 37 -26 62t-63 25t-62 -25t-25 -62z" />
<glyph unicode="&#xe9f;" horiz-adv-x="1400" d="M106 303q0 45 16.5 109t53.5 134q32 60 72 115.5t72 106.5q-44 0 -83 11t-68 33.5t-46 57.5t-17 83q0 43 15.5 78t42 59t60.5 37t70 13q42 0 79.5 -9.5t66 -31t45.5 -56.5t17 -86q0 -59 -19 -116.5t-49 -115.5t-66.5 -116.5t-70.5 -119.5q-34 -60 -45 -112t-11 -92 q0 -56 18 -90t49 -52t72 -24t87 -6q43 0 80 15t64.5 41.5t43 63t15.5 80.5v807h135v-809q0 -35 14 -70t39 -63.5t58.5 -46.5t72.5 -18q40 0 71.5 19.5t53.5 50t33.5 68t11.5 73.5q0 66 -11 132.5t-22 129.5q-15 94 -27 188t-12 191q0 62 2.5 124t11.5 123t26 120.5t46 115.5 h154q-40 -63 -61.5 -121t-31 -117t-11 -122t-1.5 -136q0 -72 7 -142t18 -142q15 -88 31 -177t16 -180q0 -62 -18.5 -121t-55.5 -106t-92.5 -75.5t-130.5 -28.5q-36 0 -73 8t-71.5 24t-65 40.5t-53.5 58.5q-21 -32 -51.5 -56.5t-65.5 -41t-72.5 -25t-73.5 -8.5 q-86 0 -153.5 16t-114.5 53.5t-72 99.5t-25 154zM203 955q0 -39 25 -64t62 -25t63 25t26 64q0 37 -26 62t-63 25t-62 -25t-25 -62z" />
<glyph unicode="&#xea1;" horiz-adv-x="1273" d="M66 166q0 36 13 69.5t37.5 59.5t59 41.5t77.5 15.5q17 0 40.5 -3.5t46.5 -10.5v569q0 23 -5 52t-13.5 58.5t-20 56.5t-24.5 46h155q12 -22 20 -49.5t13.5 -57t7.5 -58t2 -52.5v-612q0 -62 27.5 -97.5t70.5 -53.5t95 -22.5t100 -4.5q47 0 95 12t87 37t63.5 64t24.5 94v605 q0 25 -6 52t-15.5 53t-20.5 49t-21 41h155q14 -19 22.5 -45t13 -53.5t6 -55t1.5 -49.5v-630q0 -75 -37 -132.5t-95 -96.5t-127.5 -58.5t-135.5 -19.5q-40 0 -86 2.5t-91.5 11t-87.5 25t-74 44.5q-14 -22 -36.5 -37.5t-49 -25t-53 -14t-47.5 -4.5q-46 0 -81 14t-58.5 38.5 t-35.5 58.5t-12 73zM165 166q0 -37 25.5 -62.5t62.5 -25.5t62.5 25.5t25.5 62.5t-25.5 62.5t-62.5 25.5t-62.5 -25.5t-25.5 -62.5z" />
<glyph unicode="&#xea2;" horiz-adv-x="1320" d="M116 336q0 30 10 58t27.5 52t41.5 42t52 28q-29 18 -53.5 45t-41.5 58.5t-26.5 66.5t-9.5 69q0 100 32.5 173t82 120t107.5 69.5t109 22.5q39 0 73 -15t59 -41.5t39.5 -61.5t14.5 -75q0 -29 -12.5 -60.5t-35 -58t-54 -43.5t-70.5 -17q-66 0 -115 31t-69 97 q-10 -21 -15 -35.5t-7.5 -28.5t-3 -29t-0.5 -36q0 -53 25.5 -87.5t65 -55.5t86.5 -29t89 -7q26 1 47.5 2t49.5 5l14 -134q-18 -1 -53 -4t-77 -9t-85.5 -16t-79.5 -24.5t-59 -34.5t-23 -47q0 -26 12.5 -49t32.5 -43.5t45 -37.5t50 -30q37 -19 78 -29.5t79.5 -16t71.5 -6.5 t56 -1q58 0 119.5 14t111 45.5t81.5 81t32 121.5v577q0 67 2.5 129.5t11.5 123.5t25.5 121t44.5 122h155q-59 -97 -80 -198t-21 -216v-729q0 -56 -23.5 -102t-62 -82t-88.5 -62.5t-103.5 -44t-106 -26t-96.5 -8.5q-78 0 -168 13.5t-177 51.5q-45 20 -85 48t-69 64.5t-46 81 t-17 97.5zM361 956q0 -37 26.5 -63.5t65.5 -26.5q37 0 60 26.5t23 63.5q0 36 -23 61t-60 25q-39 0 -65.5 -23.5t-26.5 -62.5z" />
<glyph unicode="&#xea3;" horiz-adv-x="1254" d="M108 308q0 56 18 97t48 67.5t68.5 39.5t79.5 13q39 0 72 -14t56.5 -39t36.5 -59.5t13 -74.5q0 -35 -8.5 -67.5t-27 -57.5t-47 -40.5t-68.5 -15.5q78 -29 142.5 -37t118.5 -8q34 0 75.5 3t84 11.5t82.5 23.5t71.5 39t50.5 57.5t19 79.5q0 74 -27 121t-77.5 77.5t-123.5 51 t-165 41.5q-49 11 -104.5 20.5t-110 21.5t-104.5 29t-88.5 43.5t-61.5 64.5t-23 93q-1 63 22.5 106t64 71t92.5 43t108.5 22t112 8t102.5 1q83 0 155.5 -6.5t132.5 -29t106.5 -66.5t78.5 -119l-118 -63q-21 59 -57.5 90t-83.5 44.5t-101.5 15t-112.5 1.5q-76 0 -143 -3.5 t-117.5 -16t-79 -36t-27.5 -62.5q1 -24 18.5 -41t46.5 -30t67 -22.5t79.5 -17t84 -14.5t80.5 -15q99 -20 191.5 -49t163.5 -77t113 -122t41 -184q0 -64 -24 -114t-64.5 -87.5t-93.5 -63t-110.5 -42t-116 -23.5t-109.5 -7q-52 0 -109.5 9t-113.5 27.5t-106.5 45.5t-89 63.5 t-61 82t-22.5 100.5zM228 339q0 -18 7 -34t19 -28t27.5 -19t33.5 -7t34 7t28.5 19t19.5 28t7 34q0 37 -26 62.5t-63 25.5q-18 0 -33.5 -7t-27.5 -19t-19 -28t-7 -34z" />
<glyph unicode="&#xea5;" horiz-adv-x="1320" d="M116 281q0 81 33.5 137.5t87.5 92t122 51.5t137 16t118 -22.5t85 -60t62.5 -86.5t50.5 -102q19 -41 33.5 -76.5t27.5 -61.5t26.5 -41t30.5 -15q24 0 41.5 21.5t29.5 55.5t19 78t11 90t5.5 91.5t1.5 81.5q4 100 -7 171t-32.5 119.5t-50 78.5t-59.5 49q-24 15 -60 26 t-75 18t-77 10.5t-66 3.5q-29 0 -53.5 -0.5t-47 -2t-44.5 -4.5t-47 -9q-23 -5 -52.5 -12.5t-55.5 -18t-43.5 -25t-16.5 -33.5q0 -12 7 -22.5t16.5 -19.5t18.5 -15.5t13 -10.5l-80 -100q-48 24 -79 65.5t-31 98.5q0 54 26 92.5t66.5 65t90 42.5t97.5 25q20 4 48.5 7t59 5.5 t59 3.5t48.5 1q38 0 87.5 -4t100 -14t97 -26.5t78.5 -40.5q63 -48 102 -106.5t60.5 -123t29 -132.5t7.5 -134q0 -91 -4 -175t-19 -157q-11 -55 -29 -100.5t-44 -78t-61.5 -50.5t-81.5 -18q-59 0 -94.5 23.5t-59 60t-41 81.5t-39.5 88q-22 42 -40 81t-41.5 68.5t-58 47 t-90.5 17.5q-41 0 -80.5 -10.5t-70.5 -32t-49.5 -54t-18.5 -76.5q12 17 29.5 31t38.5 24.5t42.5 16.5t41.5 6q38 0 72.5 -13.5t60.5 -38t41.5 -58.5t15.5 -74q0 -41 -13.5 -75t-38.5 -59.5t-59 -39.5t-75 -14q-59 0 -111.5 15t-92.5 50.5t-63.5 93t-23.5 142.5zM320 166 q0 -37 25 -62.5t62 -25.5q38 0 63.5 25.5t25.5 62.5t-25.5 62.5t-63.5 25.5q-37 0 -62 -25.5t-25 -62.5z" />
<glyph unicode="&#xea7;" horiz-adv-x="1262" d="M116 316q0 47 16 85.5t45 65.5t68.5 41.5t86.5 14.5q84 -1 130 -53t46 -134q0 -75 -35 -123t-105 -56q21 -12 51 -20.5t61 -14t61 -8t51 -2.5q68 0 140 11t130.5 41t96 84t37.5 141v318q0 84 -35.5 141t-92.5 92.5t-128 51t-141 15.5q-29 0 -66 -3.5t-75.5 -12.5 t-75.5 -23.5t-66 -36.5t-47 -51.5t-18 -68.5h-135q0 61 22.5 109t60 84.5t86.5 62.5t103 42t109.5 23.5t105.5 7.5q100 0 195 -24t169 -75t119 -131.5t45 -192.5v-338q0 -111 -47 -187.5t-123 -123.5t-171 -67.5t-191 -20.5q-46 0 -99 8.5t-107 26t-104 45t-88.5 64.5 t-61.5 85t-23 107zM236 340q0 -39 25 -64t64 -25q37 0 62 25t25 64q0 37 -25 62t-62 25q-39 0 -64 -25t-25 -62z" />
<glyph unicode="&#xeaa;" horiz-adv-x="1320" d="M126 281q0 81 33.5 137.5t87.5 92t122 51.5t137 16t118 -22.5t85 -60t62.5 -86.5t50.5 -102q19 -41 33.5 -76.5t27.5 -61.5t26.5 -41t30.5 -15q24 0 41.5 21t29.5 55.5t19.5 78.5t11 90.5t5 91.5t1.5 81q0 52 -1.5 98t-7 85t-17 71.5t-31.5 57.5q-83 -79 -188.5 -119.5 t-210.5 -40.5q-70 0 -135 3t-128 17q-100 21 -151.5 73t-51.5 122q0 54 26 92.5t66.5 65t90 42.5t97.5 25q20 4 48.5 7t59 5.5t59 3.5t48.5 1q38 0 87.5 -4t100 -14t97 -26.5t78.5 -40.5q22 31 34.5 58t25.5 66l121 -46q-17 -43 -37.5 -92.5t-49.5 -85.5q32 -41 52.5 -89 t32 -99t16 -104t4.5 -104q0 -91 -4 -175t-19 -157q-11 -55 -29 -100.5t-44 -78t-61.5 -50.5t-81.5 -18q-59 0 -94.5 23.5t-59 60t-41 81.5t-39.5 88q-22 42 -40 81t-41.5 68.5t-58 47t-90.5 17.5q-41 0 -80.5 -10.5t-70.5 -32t-49.5 -54t-18.5 -76.5q12 17 29.5 31 t38.5 24.5t42.5 16.5t41.5 6q38 0 72.5 -13.5t60.5 -38t41.5 -58.5t15.5 -74q0 -41 -13.5 -75t-38.5 -59.5t-59 -39.5t-75 -14q-59 0 -111.5 15t-92.5 50.5t-63.5 93t-23.5 142.5zM261 902q0 -15 11 -26.5t28 -20.5t36 -15t36 -10q17 -5 76 -9.5t144 -4.5q42 0 85 7 t83.5 22.5t76 41t62.5 62.5q-26 16 -62.5 27t-75 18t-75.5 10t-65 3q-29 0 -53.5 -0.5t-47 -2t-44.5 -4.5t-47 -9q-23 -5 -52 -12.5t-55 -18t-43.5 -25t-17.5 -33.5zM330 166q0 -37 25 -62.5t62 -25.5q38 0 63.5 25.5t25.5 62.5t-25.5 62.5t-63.5 25.5q-37 0 -62 -25.5 t-25 -62.5z" />
<glyph unicode="&#xeab;" horiz-adv-x="1400" d="M86 940q0 43 13.5 80t39 63.5t61.5 41.5t81 15q43 0 79.5 -13.5t63.5 -38.5t42.5 -61.5t15.5 -82.5q0 -45 -19 -96t-48 -106t-62.5 -112.5t-62.5 -115t-48 -113.5t-19 -108q0 -56 19 -91t51 -55t75 -27t91 -7q40 0 79 14t69 39t48.5 60.5t18.5 78.5v532q0 60 -20.5 118 t-71.5 112l120 88q16 -26 32.5 -50t36 -42t43 -28.5t53.5 -8.5q23 1 39.5 19t35.5 39t45.5 38.5t69.5 17.5q109 0 165 -56.5t56 -168.5v-731q0 -21 -2 -45.5t-6.5 -49t-11.5 -48t-17 -41.5h-158q15 21 26 46t18.5 52t11.5 54t4 53v663q0 22 -1.5 47t-9 45t-24 33.5 t-45.5 13.5q-16 0 -33.5 -18t-40 -39t-51.5 -39t-67 -18q-15 0 -36.5 4t-37.5 17q8 -45 10 -95t2 -92v-422q0 -78 -25 -139t-71 -102t-109.5 -62.5t-140.5 -21.5q-86 0 -155.5 16t-118 53.5t-75 99.5t-26.5 154q0 63 19 124.5t47.5 120t61.5 114t61 106.5q-33 0 -67 11 t-61.5 32.5t-45 53.5t-17.5 75zM183 955q0 -39 25 -64t62 -25q39 0 64 25t25 64q0 37 -25 62t-64 25q-37 0 -62 -25t-25 -62z" />
<glyph unicode="&#xead;" horiz-adv-x="1320" d="M106 297q0 42 14 76t39 58t59 37t74 13q37 0 71 -14t59.5 -38.5t40.5 -57.5t15 -72q0 -18 -4 -38t-12.5 -39t-21 -35t-29.5 -25q18 -14 55 -23t78.5 -14.5t80 -7.5t58.5 -2q41 0 85.5 7.5t87.5 23t82 39t68 55t46.5 71.5t17.5 89v317q-40 -49 -95.5 -85.5t-118 -61 t-128.5 -36.5t-127 -12q-48 0 -103 5t-110 17t-106 33.5t-90 54t-62.5 78.5t-23.5 107q0 65 27.5 114.5t72.5 85.5t103.5 59.5t120.5 37.5t122.5 20t109.5 6q101 0 198.5 -23t174 -74t123.5 -132t47 -198v-330q0 -73 -22.5 -131t-61 -103t-90.5 -77t-111.5 -52.5t-124 -30 t-126.5 -9.5q-48 0 -108 6t-122.5 20.5t-122.5 38t-106.5 58.5t-75 83t-28.5 111zM204 296q0 -37 25.5 -62.5t62.5 -25.5t62.5 25.5t25.5 62.5t-25.5 62.5t-62.5 25.5t-62.5 -25.5t-25.5 -62.5zM241 811q0 -39 21 -65.5t54.5 -44t75 -27t83.5 -13.5t80 -5t64 -1 q56 0 115.5 13.5t114 40t101 65t76.5 88.5q-21 40 -70 67.5t-107 45t-115.5 25t-95.5 7.5q-27 0 -66.5 -4t-84 -13t-88.5 -24t-79 -36.5t-57 -51t-22 -67.5z" />
<glyph unicode="&#xeae;" horiz-adv-x="1240" d="M117 308q0 56 18 97t48 67.5t68.5 39.5t79.5 13q39 0 72 -14t56.5 -39t36.5 -59.5t13 -74.5q0 -35 -8.5 -67.5t-27 -57.5t-47 -40.5t-68.5 -15.5q78 -29 142.5 -37t118.5 -8q34 0 75.5 3t84 11.5t82.5 23.5t71.5 39t50.5 57.5t19 79.5q0 74 -27 121t-77.5 77.5t-123.5 51 t-165 41.5q-49 11 -104.5 20.5t-110 21.5t-104.5 29t-88.5 43.5t-61.5 64.5t-23 93q0 65 27.5 112.5t71.5 78t98.5 45.5t107.5 15q28 0 61.5 -10.5t69.5 -27t72 -35t69 -35t60.5 -27t46.5 -10.5q40 0 68.5 20t51.5 51t43 69t43 75l114 -70q-36 -67 -69.5 -119t-70.5 -87 t-79.5 -53.5t-97.5 -18.5q-54 0 -106 22.5t-100.5 50t-95 50t-89.5 22.5q-34 0 -63.5 -8.5t-51.5 -24t-34.5 -37t-11.5 -48.5q1 -24 18.5 -41t46.5 -30t67 -22.5t79.5 -17t84 -14.5t80.5 -15q99 -20 191.5 -49t163.5 -77t113 -122t41 -184q0 -64 -24 -114t-64.5 -87.5 t-93.5 -63t-110.5 -42t-116 -23.5t-109.5 -7q-52 0 -109.5 9t-113.5 27.5t-106.5 45.5t-89 63.5t-61 82t-22.5 100.5zM237 339q0 -18 7 -34t19 -28t27.5 -19t33.5 -7t34 7t28.5 19t19.5 28t7 34q0 37 -26 62.5t-63 25.5q-18 0 -33.5 -7t-27.5 -19t-19 -28t-7 -34z" />
<glyph unicode="&#xeaf;" horiz-adv-x="1355" d="M76 880q10 183 209 194q182 -11 192 -191q-10 -181 -192 -193l-35 9q75 -97 231 -113q413 38 572 389l154 -73l-766 -1421l-118 67l560 1038q-140 -128 -402 -136q-398 48 -405 430zM193 881q10 -81 92 -92q83 11 93 92q-10 84 -93 94q-82 -11 -92 -94z" />
<glyph unicode="&#xeb0;" horiz-adv-x="1177" d="M106 376q0 38 14.5 71.5t40 59t59 40t71.5 14.5t71.5 -14.5t59 -40t40 -59t14.5 -71.5q0 -37 -14.5 -69t-37.5 -57q29 -11 67 -15.5t67 -4.5q69 0 133 15t113.5 49.5t79 89.5t29.5 135h135q0 -111 -44.5 -190t-116.5 -130t-164.5 -75t-188.5 -24q-78 0 -164 23.5 t-171 75.5q-20 12 -36.5 32t-29.5 44.5t-20 50.5t-7 50zM106 846q0 38 14.5 71.5t40 59t59 40t71.5 14.5t71.5 -14.5t59 -40t40 -59t14.5 -71.5q0 -37 -14.5 -69t-37.5 -57q29 -11 67 -15.5t67 -4.5q69 0 133 15t113.5 49.5t79 89.5t29.5 135h135q0 -111 -44.5 -190 t-116.5 -130t-164.5 -75t-188.5 -24q-78 0 -164 23.5t-171 75.5q-20 12 -36.5 32t-29.5 44.5t-20 50.5t-7 50zM204 377q0 -37 25.5 -62.5t62.5 -25.5t62.5 25.5t25.5 62.5t-25.5 62.5t-62.5 25.5t-62.5 -25.5t-25.5 -62.5zM204 847q0 -37 25.5 -62.5t62.5 -25.5t62.5 25.5 t25.5 62.5t-25.5 62.5t-62.5 25.5t-62.5 -25.5t-25.5 -62.5z" />
<glyph unicode="&#xeb1;" horiz-adv-x="0" d="M-1145 1583q0 39 13.5 72.5t37.5 58t57 39t72 14.5q34 0 69.5 -13t64.5 -36t47 -55t18 -70q0 -43 -13.5 -75.5t-44.5 -63.5q17 -8 38.5 -14t44 -10.5t44 -6.5t39.5 -2q79 0 154.5 17t134 55.5t94 101t35.5 154.5h137q1 -111 -44 -196t-120 -142.5t-171 -87t-197 -29.5 q-45 0 -100.5 5t-112 17.5t-110 34t-95.5 53.5t-67 76t-25 103zM-1041 1583q0 -37 26.5 -63.5t63.5 -26.5q19 0 35.5 7t28.5 19.5t19 29t7 34.5q0 38 -26 64t-64 26q-18 0 -34.5 -7t-29 -19t-19.5 -28.5t-7 -35.5z" />
<glyph unicode="&#xeb2;" horiz-adv-x="1030" d="M106 815q0 61 32 119.5t84.5 104t120 73t138.5 27.5q79 0 156 -25t137 -71.5t97 -113t37 -150.5v-558q1 -6 -0.5 -22.5t-4.5 -39t-7 -48t-8 -48.5t-7.5 -40t-5.5 -23h-155q3 6 11.5 34.5t18 65t16.5 75t7 65.5v561q0 45 -28.5 83t-72 65t-95.5 42t-98 15q-32 0 -65 -6.5 t-62.5 -17t-52 -24.5t-32.5 -29q19 9 31.5 11.5t32.5 2.5q43 0 77 -14t57.5 -38.5t35.5 -58t12 -72.5q0 -41 -14 -75.5t-39 -60t-59 -39.5t-74 -14q-57 0 -99 17t-69 49t-40 77t-13 101zM240 758q0 -39 26 -64t63 -25t62 25t25 64q0 37 -25 62t-62 25t-63 -25t-26 -62z" />
<glyph unicode="&#xeb3;" horiz-adv-x="1030" d="M11 1409q0 46 17.5 86.5t48 71t71 48t86.5 17.5t86.5 -17.5t71 -48t48 -71t17.5 -86.5t-17.5 -86.5t-48 -71t-71 -48t-86.5 -17.5t-86.5 17.5t-71 48t-48 71t-17.5 86.5zM106 815q0 61 32 119.5t84.5 104t120 73t138.5 27.5q79 0 156 -25t137 -71.5t97 -113t37 -150.5 v-558q1 -6 -0.5 -22.5t-4.5 -39t-7 -48t-8 -48.5t-7.5 -40t-5.5 -23h-155q3 6 11.5 34.5t18 65t16.5 75t7 65.5v561q0 45 -28.5 83t-72 65t-95.5 42t-98 15q-32 0 -65 -6.5t-62.5 -17t-52 -24.5t-32.5 -29q19 9 31.5 11.5t32.5 2.5q43 0 77 -14t57.5 -38.5t35.5 -58 t12 -72.5q0 -41 -14 -75.5t-39 -60t-59 -39.5t-74 -14q-57 0 -99 17t-69 49t-40 77t-13 101zM138 1411q0 -42 28 -70t70 -28t70 28t28 70t-28 70t-70 28t-70 -28t-28 -70zM240 758q0 -39 26 -64t63 -25t62 25t25 64q0 37 -25 62t-62 25t-63 -25t-26 -62z" />
<glyph unicode="&#xeb4;" horiz-adv-x="0" d="M-1161 1571q14 255 484 278q470 -23 484 -278q-17 -185 -288 -256q-86 -1 -86 53q0 58 98 76q137 39 151 127q-10 134 -359 154q-349 -20 -359 -154q12 -88 151 -127q98 -18 98 -76q0 -54 -86 -53q-270 70 -288 256z" />
<glyph unicode="&#xeb5;" horiz-adv-x="0" d="M-1161 1571q14 255 484 278q470 -23 484 -278q-4 -72 -33 -101l-28 -30q107 2 193 33q67 -44 24 -123q-191 -44 -444 -35q-86 -1 -86 53q0 58 98 76q137 39 151 127q-10 134 -359 154q-349 -20 -359 -154q12 -88 151 -127q98 -18 98 -76q0 -54 -86 -53q-270 70 -288 256z " />
<glyph unicode="&#xeb6;" horiz-adv-x="0" d="M-1161 1571q14 255 484 278q470 -23 484 -278q-17 -185 -288 -256q-86 -1 -86 53q0 58 98 76q137 39 151 127q-10 134 -359 154q-349 -20 -359 -154q12 -88 151 -127q98 -18 98 -76q0 -54 -86 -53q-270 70 -288 256zM-784 1544q0 21 8.5 39t23 31.5t34 21.5t41.5 8 t41.5 -8t34 -21.5t23 -31.5t8.5 -39t-8.5 -39t-23 -31.5t-34 -21.5t-41.5 -8t-41.5 8t-34 21.5t-23 31.5t-8.5 39z" />
<glyph unicode="&#xeb7;" horiz-adv-x="0" d="M-1161 1571q14 255 484 278q470 -23 484 -278q-4 -72 -33 -101l-28 -30q107 2 193 33q67 -44 24 -123q-191 -44 -444 -35q-86 -1 -86 53q0 58 98 76q137 39 151 127q-10 134 -359 154q-349 -20 -359 -154q12 -88 151 -127q98 -18 98 -76q0 -54 -86 -53q-270 70 -288 256z M-784 1544q0 21 8.5 39t23 31.5t34 21.5t41.5 8t41.5 -8t34 -21.5t23 -31.5t8.5 -39t-8.5 -39t-23 -31.5t-34 -21.5t-41.5 -8t-41.5 8t-34 21.5t-23 31.5t-8.5 39z" />
<glyph unicode="&#xeb8;" horiz-adv-x="0" d="M-591 -348q0 40 14.5 73.5t40 57.5t60 37.5t74.5 13.5q51 0 88 -17t62.5 -46t41 -68t23.5 -82.5t10 -89.5t0 -90q-1 -18 -7 -45.5t-16.5 -58.5t-25 -63.5t-31.5 -60.5l-129 94q36 45 57 93t23 106q-23 -11 -50.5 -19.5t-52.5 -8.5q-35 0 -68 13.5t-58.5 37.5t-40.5 55.5 t-15 67.5zM-501 -342q0 -18 7 -33.5t18.5 -27t27 -18.5t33.5 -7t33.5 7t27 18.5t18.5 27t7 33.5t-7 33.5t-18.5 27t-27 18.5t-33.5 7t-33.5 -7t-27 -18.5t-18.5 -27t-7 -33.5z" />
<glyph unicode="&#xeb9;" horiz-adv-x="0" d="M-847 -367q0 40 14.5 73.5t39.5 58t59 38t73 13.5q42 0 81 -17t69 -46t48 -67t18 -81v-160q0 -32 13 -53t48 -21q38 0 48.5 19t10.5 57v349h133v-341q0 -103 -48.5 -160t-151.5 -57q-60 0 -97.5 16.5t-59 47t-29 73t-7.5 95.5q-18 -11 -42 -18t-44 -7q-38 0 -70 16 t-55.5 42t-37 60t-13.5 70zM-751 -365q0 -18 7 -34t18.5 -28t27 -19t33.5 -7q38 0 63 25.5t25 62.5q0 36 -25 61t-63 25q-18 0 -33.5 -6.5t-27 -18.5t-18.5 -27.5t-7 -33.5z" />
<glyph unicode="&#xebb;" horiz-adv-x="0" d="M-1145 1504q0 59 25 104t67 77t95.5 53t110 33t112 17t100.5 5q101 0 197 -29t170.5 -86t119.5 -141.5t45 -195.5h-137q0 90 -35.5 152.5t-94 100.5t-134 55t-154.5 17q-18 0 -40.5 -2t-45 -5.5t-43.5 -10t-37 -15.5q31 -29 44.5 -61.5t13.5 -77.5q0 -38 -18 -69.5 t-47 -55t-64.5 -36.5t-69.5 -13q-39 0 -72 14.5t-57 39.5t-37.5 58.5t-13.5 71.5zM-1041 1504q0 -37 26.5 -63.5t63.5 -26.5q19 0 35.5 7t28.5 19.5t19 29t7 34.5q0 38 -26 64.5t-64 26.5q-18 0 -34.5 -7t-29 -19.5t-19.5 -29t-7 -35.5z" />
<glyph unicode="&#xebc;" horiz-adv-x="0" d="M-1187 -235.5q9 39.5 31.5 70.5t56 51.5t72.5 26.5q50 9 97.5 2.5t92.5 -23.5t88 -39.5t85.5 -45t85.5 -41t87 -25.5q43 -11 83.5 4.5t77 43t67.5 59.5t57 56l72 -121q-30 -33 -72 -69t-89.5 -63.5t-98 -42t-97.5 -3.5q-40 4 -82.5 16.5t-83 30.5t-77.5 39.5t-66 43.5 q5 -37 -7 -72.5t-34.5 -65t-53.5 -49.5t-64 -26q-39 -6 -77.5 1t-70 26.5t-53 52t-27.5 78.5q-9 45 0 84.5zM-1083 -283q0 -37 25.5 -62.5t62.5 -25.5t62.5 25.5t25.5 62.5t-25.5 62.5t-62.5 25.5t-62.5 -25.5t-25.5 -62.5z" />
<glyph unicode="&#xebd;" horiz-adv-x="792" d="M-355 -534q0 43 15 81t42 66t64 44t82 16q35 0 66 -13t53.5 -35.5t35.5 -53t13 -66.5q0 -34 -9.5 -67.5t-28.5 -61t-47 -45.5t-65 -21q28 -13 50 -22t43.5 -14.5t44.5 -8t53 -2.5q61 0 118.5 29.5t101.5 79.5t70.5 115.5t26.5 137.5v1045q0 64 -16 112.5t-40 85.5 t-51.5 65.5t-51.5 51t-40 41.5t-16 39q0 12 4.5 26t12 25.5t18.5 19t24 7.5q103 -22 209.5 -24t210.5 21l18 -126q-63 -21 -130.5 -25.5t-133.5 2.5q24 -23 45.5 -54t37 -66t25 -71.5t9.5 -70.5v-1110q0 -107 -36.5 -195t-98.5 -152t-144 -99t-173 -35q-75 0 -149 17.5 t-132.5 56.5t-94.5 101.5t-36 152.5zM-255 -520q0 -39 26.5 -65.5t65.5 -26.5q38 0 64.5 26.5t26.5 65.5q0 18 -7 34.5t-19.5 29t-29 19.5t-35.5 7q-39 0 -65.5 -26.5t-26.5 -63.5z" />
<glyph unicode="&#xec0;" horiz-adv-x="758" d="M200 208v651q0 58 13 109.5t41.5 89.5t73 60t108.5 22q34 0 75.5 -8.5t73.5 -20.5l-38 -128q-30 14 -54 19t-59 5q-26 0 -44.5 -11t-30.5 -29t-18 -40t-6 -43v-554q23 8 46.5 14.5t46.5 6.5q88 0 134 -49t46 -137q0 -42 -14.5 -76t-39.5 -58t-60 -37.5t-75 -13.5 q-42 0 -81.5 13.5t-70 41.5t-49 71t-18.5 102zM335 166q0 -18 7 -34t19 -28.5t27.5 -19.5t33.5 -7q37 0 63 26t26 63q0 18 -7 33.5t-19.5 27.5t-28.5 19t-34 7t-33.5 -7t-27.5 -19t-19 -27.5t-7 -33.5z" />
<glyph unicode="&#xec1;" horiz-adv-x="1241" d="M200 208v651q0 58 13 109.5t41.5 89.5t73 60t108.5 22q34 0 75.5 -8.5t73.5 -20.5l-38 -128q-30 14 -54 19t-59 5q-26 0 -44.5 -11t-30.5 -29t-18 -40t-6 -43v-554q23 8 46.5 14.5t46.5 6.5q88 0 134 -49t46 -137q0 -42 -14.5 -76t-39.5 -58t-60 -37.5t-75 -13.5 q-42 0 -81.5 13.5t-70 41.5t-49 71t-18.5 102zM335 166q0 -18 7 -34t19 -28.5t27.5 -19.5t33.5 -7q37 0 63 26t26 63q0 18 -7 33.5t-19.5 27.5t-28.5 19t-34 7t-33.5 -7t-27.5 -19t-19 -27.5t-7 -33.5zM683 208v651q0 58 13 109.5t41.5 89.5t73 60t108.5 22q34 0 75.5 -8.5 t73.5 -20.5l-38 -128q-30 14 -54 19t-59 5q-26 0 -44.5 -11t-30.5 -29t-18 -40t-6 -43v-554q23 8 46.5 14.5t46.5 6.5q88 0 134 -49t46 -137q0 -42 -14.5 -76t-39.5 -58t-60 -37.5t-75 -13.5q-42 0 -81.5 13.5t-70 41.5t-49 71t-18.5 102zM818 166q0 -18 7 -34t19 -28.5 t27.5 -19.5t33.5 -7q37 0 63 26t26 63q0 18 -7 33.5t-19.5 27.5t-28.5 19t-34 7t-33.5 -7t-27.5 -19t-19 -27.5t-7 -33.5z" />
<glyph unicode="&#xec2;" horiz-adv-x="1068" d="M80 1731q0 37 11 69.5t33 56t53.5 37t72.5 13.5q43 0 91.5 -26t98.5 -64t99.5 -82t95 -80t84.5 -58t68 -16q12 3 17.5 5.5t10.5 5.5l11 5q6 3 19 7l10 -131q-21 -8 -35 -14.5t-33 -10.5q-33 -6 -78 16t-95.5 59t-102.5 81t-100 83t-88.5 65t-66.5 26q-6 0 -13 -2.5 t-14 -7t-11.5 -10t-4.5 -11.5q0 -21 27 -58.5t68.5 -82.5t93 -92.5t100 -89.5t89.5 -74t62 -45q18 -11 51 -27t65.5 -36.5t57 -45t24.5 -52.5v-1q0 -31 -17.5 -51t-43.5 -35t-57 -27.5t-57 -28.5t-43.5 -38t-17.5 -56v-577q23 8 46.5 14.5t46.5 6.5q88 0 134 -49t46 -137 q0 -42 -14.5 -76t-39.5 -58t-60 -37.5t-75 -13.5q-42 0 -81.5 13.5t-70 41.5t-49 71t-18.5 102v697q0 57 16.5 96.5t45 66t66.5 43.5t82 30q-22 3 -54.5 21t-70 44t-77.5 57.5t-76.5 62t-66 57t-46.5 42.5q-27 25 -64.5 61t-72 77.5t-58.5 85t-24 82.5zM615 166q0 -18 7 -34 t19 -28.5t27.5 -19.5t33.5 -7q37 0 63 26t26 63q0 18 -7 33.5t-19.5 27.5t-28.5 19t-34 7t-33.5 -7t-27.5 -19t-19 -27.5t-7 -33.5z" />
<glyph unicode="&#xec3;" horiz-adv-x="1056" d="M70 1552q0 84 31 150.5t84 112t123.5 70t150.5 24.5q69 0 140.5 -22.5t130 -64.5t95.5 -103t37 -138q0 -93 -19 -159t-48 -117t-62.5 -91.5t-62.5 -82t-48 -89t-19 -112.5v-600q23 8 46.5 14.5t46.5 6.5q88 0 134 -49t46 -137q0 -42 -14.5 -76t-39.5 -58t-60 -37.5 t-75 -13.5q-42 0 -81.5 13.5t-70 41.5t-49 71t-18.5 102v736q1 76 20.5 133t48.5 104t62.5 87.5t62 84.5t47.5 94.5t19 117.5q0 44 -28 82.5t-69 67t-88 45t-84 16.5q-54 0 -100.5 -13.5t-80.5 -42t-53.5 -71.5t-19.5 -101q0 -90 52 -137t137 -47q34 0 59 22.5t25 57.5 q0 19 -7 36.5t-18.5 31.5t-27 23.5t-32.5 12.5l72 103q26 -16 50.5 -39t43 -51t30 -59t11.5 -62q0 -41 -14 -78.5t-39 -66.5t-60.5 -46.5t-78.5 -17.5q-73 0 -135 21.5t-107 62.5t-70.5 100.5t-25.5 136.5zM603 166q0 -18 7 -34t19 -28.5t27.5 -19.5t33.5 -7q37 0 63 26 t26 63q0 18 -7 33.5t-19.5 27.5t-28.5 19t-34 7t-33.5 -7t-27.5 -19t-19 -27.5t-7 -33.5z" />
<glyph unicode="&#xec4;" horiz-adv-x="1014" d="M6 1806l91 99q57 -46 102 -107.5t81.5 -129.5t66 -140t55.5 -139q4 -11 8.5 -30t11 -38t16 -33t23.5 -14q25 0 48 13t47 29t50 29t56 13q36 0 67.5 -9t54.5 -26.5t36.5 -44t13.5 -60.5q0 -48 -21 -82.5t-52.5 -62t-68.5 -51t-68.5 -48.5t-52.5 -54.5t-21 -69.5v-520 q23 8 46.5 14.5t46.5 6.5q88 0 134 -49t46 -137q0 -42 -14.5 -76t-39.5 -58t-60 -37.5t-75 -13.5q-42 0 -81.5 13.5t-70 41.5t-49 71t-18.5 102v665q2 48 12 78.5t29.5 52.5t47.5 40.5t66 42.5q13 9 35 21t43.5 26.5t37 30.5t15.5 33q0 16 -12.5 21.5t-24.5 5.5 q-22 0 -48 -13t-54.5 -29t-58.5 -29t-60 -13q-31 0 -54 10t-41 31.5t-32.5 55.5t-28.5 82q-20 67 -45 128.5t-58.5 121t-77 117.5t-100.5 119zM550 166q0 -18 7 -34t19 -28.5t27.5 -19.5t33.5 -7q37 0 63 26t26 63q0 18 -7 33.5t-19.5 27.5t-28.5 19t-34 7t-33.5 -7 t-27.5 -19t-19 -27.5t-7 -33.5z" />
<glyph unicode="&#xec6;" horiz-adv-x="1355" d="M68 837q0 64 21.5 119t60 96t92 64.5t118.5 23.5q29 0 56 -11t52.5 -27t49 -35t45 -35t40.5 -27t36 -11q13 0 32 11t42 27t49 35t52.5 35t53 27t50.5 11q91 0 143 -30.5t77.5 -82.5t31.5 -120.5t6 -143.5v-978q0 -67 -33.5 -119t-85.5 -90.5t-116 -64.5t-125 -42 t-111.5 -23t-77.5 -7q-65 0 -122.5 11t-109.5 33.5t-99.5 56.5t-92.5 79l96 102q40 -41 72 -69t67 -45t79.5 -25t109.5 -8q29 0 71 6t88 17.5t91 30t81 43.5t58 57t22 71v1015q0 37 -1.5 70.5t-12.5 59.5t-35.5 41.5t-70.5 15.5q-28 0 -59.5 -22.5t-67.5 -49.5t-78 -49.5 t-90 -22.5q-41 0 -73.5 21.5t-62.5 47t-61 47t-70 21.5q-19 0 -38 -1.5t-36 -6.5t-31.5 -15t-24.5 -28q11 10 20.5 15t20 7t22.5 2.5t29 0.5q39 0 73 -15t59.5 -40t40 -57.5t14.5 -67.5q0 -41 -15 -76t-41.5 -60.5t-61.5 -40t-75 -14.5q-53 0 -97.5 15.5t-77 46t-51 75 t-18.5 103.5zM226 781q0 -20 7.5 -36.5t20.5 -29t30 -19.5t36 -7q39 0 66 26.5t27 65.5q0 19 -7 36.5t-20 30.5t-30 20.5t-36 7.5t-36 -7.5t-30 -20.5t-20.5 -30.5t-7.5 -36.5z" />
<glyph unicode="&#xec8;" horiz-adv-x="0" d="M-430 1861v430h109v-430h-109z" />
<glyph unicode="&#xec9;" horiz-adv-x="0" d="M-824 1889q0 26 10.5 43t28 29t39 20.5t42.5 17.5q19 8 37.5 15.5t32.5 16t22.5 19.5t8.5 26q0 12 -9.5 23.5t-26.5 11.5q-11 0 -22.5 -9t-11.5 -19q0 -4 -1 -6t5 -11l-114 -37q-2 14 -2.5 19t-0.5 12q0 31 11.5 57.5t32 45.5t49 29.5t61.5 10.5q30 0 57.5 -10.5 t48.5 -28.5t33.5 -42.5t12.5 -52.5q0 -37 -21 -73q29 3 61 6.5t67.5 8.5t73.5 13t59 20q16 12 32 24.5t29 30t21.5 41t10.5 57.5l128 -61q-11 -54 -41 -93.5t-73 -66.5t-95 -44.5t-122 -26.5t-125 -12.5t-103 -3.5h-246z" />
<glyph unicode="&#xeca;" horiz-adv-x="0" d="M-917 2031q0 36 17.5 65t45.5 48.5t64 30t74 10.5q17 0 37.5 -7.5t40 -18.5t37 -24.5t28.5 -25.5q24 30 61 54t82 24q34 0 69.5 -13t64.5 -32.5t47 -44t18 -46.5q14 18 23.5 32t16 27.5t12 29t11.5 37.5q29 -3 45.5 -13t27.5 -31q-15 -49 -36.5 -89.5t-53.5 -73 t-78.5 -57.5t-110.5 -42q-24 4 -38 19.5t-18 37.5q10 10 23.5 18.5t26 19.5t21 25.5t8.5 35.5q0 26 -22 40t-59 15q-27 0 -45.5 -17t-33.5 -37t-29 -37t-33 -17q-17 0 -31.5 16.5t-30.5 37t-35 37t-46 16.5q-32 0 -55 -11t-23 -41q0 -22 10.5 -38.5t25.5 -29.5t30.5 -23.5 t25.5 -20.5q-26 -44 -68 -51q-68 28 -108 67t-39 98z" />
<glyph unicode="&#xecb;" horiz-adv-x="0" d="M-576 1944v122h122l-1 130h121v-130h118v-122l-119 1l-1 -125h-119v125z" />
<glyph unicode="&#xecc;" horiz-adv-x="0" d="M-612.5 1964.5q-5.5 29.5 1.5 59.5q7 29 26 53.5t45 41t57 23.5t62 1q38 -7 78.5 -3.5t80 13t76 22t66.5 23.5q25 -16 29.5 -35.5t4.5 -40.5q-54 -25 -109 -49.5t-115 -41.5q13 -42 1 -81t-39.5 -66.5t-66.5 -39.5t-79 -1q-32 7 -57 25t-40.5 42.5t-21 54zM-508 1991 q-2 -27 14 -40t35 -13q20 0 34.5 11.5t20.5 30.5l2 2q0 34 -15 50t-39 16q-21 0 -37.5 -18t-14.5 -39z" />
<glyph unicode="&#xecd;" horiz-adv-x="0" d="M-839 1537q0 47 17.5 88t47.5 71.5t71 48t88 17.5q45 0 85 -16.5t71 -46t49 -71t18 -91.5q0 -43 -17.5 -83t-47.5 -70.5t-70.5 -49t-87.5 -18.5q-45 0 -85.5 16.5t-71 45.5t-49 70t-18.5 89zM-716 1541q0 -39 26.5 -69.5t74.5 -30.5q17 0 34.5 6.5t32 19t24 31t9.5 43.5 q0 21 -8 39t-21.5 31.5t-31.5 21t-39 7.5q-22 0 -40.5 -8.5t-32 -22t-21 -31.5t-7.5 -37z" />
<glyph unicode="&#xed0;" d="M146 574q0 236 106.5 362t311.5 126q217 0 318 -121t101 -367q0 -114 -29 -204.5t-83.5 -153.5t-132 -97t-174.5 -34q-208 0 -313 123.5t-105 365.5zM281 574q0 -176 70.5 -265t212.5 -89q66 0 119 24.5t89.5 70.5t56 111.5t19.5 147.5q0 178 -69.5 265.5t-214.5 87.5 q-137 0 -210 -90t-73 -263z" />
<glyph unicode="&#xed1;" d="M96 724q0 86 30 154t86.5 115.5t136.5 73t180 25.5q115 0 207.5 -37t158 -106.5t100.5 -168.5t35 -223v-5q0 -70 -24 -146t-73.5 -147t-125.5 -131.5t-180 -99.5q-61 -23 -112 -36t-97 -13q-8 0 -20 2t-23 5.5t-19 9.5t-8 15q0 15 11 27.5t37.5 28t71.5 37t114 53.5 q70 33 126.5 75t96.5 93t61.5 109.5t21.5 123.5q0 88 -21.5 161.5t-67 127t-117 83t-171.5 29.5q-67 0 -118.5 -19t-86.5 -50.5t-53 -72.5t-18 -85q0 -41 7.5 -77t26.5 -64t51.5 -46.5t82.5 -25.5q-8 16 -13 34t-5 37q0 31 12 59t32.5 49t48 33t59.5 12q31 0 58.5 -11.5 t48.5 -32t33.5 -47.5t12.5 -57q0 -41 -17 -80t-48 -69t-74 -48t-94 -18q-84 0 -150.5 22.5t-113.5 66t-72 107.5t-25 148zM468 596q0 -30 21 -51t51 -21t51 21t21 51t-21 51t-51 21t-51 -21t-21 -51z" />
<glyph unicode="&#xed2;" d="M91 524q0 66 10.5 119t32.5 98t56.5 84.5t82.5 78.5t110 80t140 89q129 79 250 177t221 222q25 -6 33 -21q5 -15 5 -30q0 -48 -22 -95.5t-57.5 -92.5t-79.5 -85.5t-87 -75t-80.5 -61.5t-61.5 -45q-40 -30 -86 -61.5t-85.5 -57.5t-66 -43t-28.5 -20q-34 -30 -59.5 -57 t-42 -58t-25 -67t-8.5 -84q0 -80 25 -151t71.5 -124t111.5 -84.5t146 -31.5q48 0 91.5 14.5t71.5 34.5q-48 40 -48 111q0 31 12 59t33 49t48.5 33t58.5 12t59 -12t49 -33t33 -49t12 -59q0 -35 -10.5 -67.5t-27.5 -60.5t-38 -51t-41 -38q-59 -45 -132.5 -67.5t-170.5 -22.5 q-117 0 -211 36.5t-159.5 106.5t-100.5 171t-35 230zM795 293q0 -30 21 -51t51 -21t51 21t21 51t-21 51t-51 21t-51 -21t-21 -51z" />
<glyph unicode="&#xed3;" d="M62 132q0 31 12 59t33 49t48.5 33t58.5 12q39 0 73.5 -18.5t54.5 -49.5l13 13q-30 38 -49.5 70t-31.5 58t-17.5 45.5t-8.5 32.5q-4 20 -6 47.5t-2 64.5q0 75 12 143t35.5 119t59 81t83.5 30q32 0 56 -21t41.5 -57t28.5 -83t15.5 -99t2.5 -105.5t-9 -101.5 q-4 -26 -17 -72.5t-50 -114.5q12 -18 22 -28t25 -19.5t39 -22.5t63 -37q42 -25 73 -36t50 -12q26 0 46 6.5t35.5 22t27 43t21.5 69.5q21 82 32.5 161t11.5 148q0 44 -5.5 95t-18 98.5t-32 86t-47.5 57.5q-67 45 -113 77.5t-77.5 58t-51 45t-32.5 39.5q-35 47 -35 87 q0 52 32 83t95 31q48 0 95.5 -19t94 -51.5t90.5 -76t83 -91.5q33 -42 33 -59q0 -5 -2 -10.5t-8 -5.5q-4 0 -11.5 4t-16.5 9.5t-19 11.5t-17 11q-35 20 -69.5 43.5t-70 47t-71.5 43.5t-73 33q-16 0 -25.5 -9.5t-9.5 -20.5q0 -16 14.5 -34t34.5 -31q57 -36 112 -71.5 t112 -71.5q41 -26 66.5 -69t40 -98.5t20 -121.5t5.5 -138q0 -133 -18.5 -238t-53 -177.5t-84 -111t-112.5 -38.5q-31 0 -73.5 8t-91.5 27.5t-100.5 51.5t-100.5 81q-54 -75 -107.5 -121.5t-111.5 -46.5q-32 0 -59.5 12t-48 32.5t-32.5 48t-12 59.5zM145 138q0 -30 21 -51 t51 -21t51 21t21 51t-21 51t-51 21t-51 -21t-21 -51zM351 543q0 -21 1 -45.5t8 -50t21.5 -51t41.5 -49.5l11 21q8 17 17.5 47.5t17 74.5t7.5 101q0 101 -12 149t-40 48q-20 0 -34 -11.5t-22.5 -39.5t-12.5 -75t-4 -119z" />
<glyph unicode="&#xed4;" d="M108 532q0 137 13.5 239t43 175t76.5 118t113 68l412 141q26 9 46 28t34.5 40.5t24.5 42t16 33.5q31 54 68 54q35 0 52.5 -20t17.5 -44q0 -27 -14 -65.5t-38.5 -76.5t-57 -69.5t-69.5 -43.5l-406 -138q-51 -17 -87 -48.5t-58.5 -79.5t-33 -114t-10.5 -153q0 -56 3 -112.5 t9 -109.5t15.5 -99t23.5 -80t32 -53.5t41 -19.5q8 0 27 6t43 15t50 19.5t48.5 20t38.5 16t20 8.5q-26 64 -25.5 132.5t29 130.5t87.5 112.5t151 79.5q34 0 65 -12t55 -33.5t38.5 -50.5t14.5 -63q0 -32 -12 -60t-32 -49t-48 -33t-59 -12q-58 0 -95.5 30t-59.5 88 q-14 -35 -20.5 -62t-6.5 -48q0 -24 8 -50.5t16 -51.5q12 5 31.5 10.5t41 10t41 7.5t30.5 3q38 0 72 -11t59 -31t39.5 -48t14.5 -61q0 -29 -15.5 -60.5t-41 -57.5t-59 -43t-69.5 -17q-48 0 -96.5 34.5t-88.5 94.5q-42 -20 -87 -42.5t-87.5 -41t-79.5 -31t-62 -12.5 q-60 0 -105.5 37t-76 107.5t-46 172.5t-15.5 233zM762 155q26 -38 47.5 -56t45.5 -18q30 0 53 20t23 48q0 23 -22 34.5t-54 11.5q-21 0 -44.5 -10.5t-48.5 -29.5zM791 530q0 -32 21.5 -52t50.5 -20q32 0 52.5 21.5t20.5 50.5q0 20 -10 36q-21 37 -62 37q-33 0 -53 -22.5 t-20 -50.5z" />
<glyph unicode="&#xed5;" d="M108 533q0 151 11.5 253.5t39.5 170.5t75.5 108.5t119.5 67.5l163 62q-18 21 -31.5 51.5t-13.5 57.5q0 31 12 59t33 49t48.5 33t58.5 12t59 -12.5t48 -34t32 -50t12 -59.5q0 -16 -1 -21q24 6 42.5 24t32 39.5t23 42t15.5 32.5q31 54 68 54q35 0 52.5 -20t17.5 -44 q0 -27 -14 -65.5t-38.5 -76.5t-57 -69.5t-69.5 -43.5l-406 -138q-54 -18 -90.5 -48t-58 -76.5t-31 -113t-9.5 -157.5q0 -56 3 -112.5t9 -109.5t15.5 -99t23.5 -80t32 -53.5t41 -19.5q12 0 46.5 12t72.5 27t70 29l38 16q-28 60 -29.5 125.5t26.5 127t88.5 114.5t156.5 88 q34 0 65 -12t55 -33.5t38.5 -50.5t14.5 -63q0 -32 -12 -60t-32 -49t-48 -33t-59 -12q-58 0 -95.5 30t-59.5 88q-14 -35 -20.5 -62t-6.5 -48q0 -24 8 -50.5t16 -51.5q12 5 31.5 10.5t41 10t41 7.5t30.5 3q38 0 72 -11t59 -31t39.5 -48t14.5 -61q0 -29 -15.5 -60.5t-41 -57.5 t-59 -43t-69.5 -17q-48 0 -96.5 34.5t-88.5 94.5q-42 -20 -87 -42.5t-87.5 -41t-79.5 -31t-62 -12.5q-59 0 -104.5 37t-76 107.5t-46.5 173t-16 233.5zM555 1310q0 -30 21 -51t51 -21t51 21t21 51t-21 51t-51 21t-51 -21t-21 -51zM762 155q26 -38 47.5 -56t45.5 -18 q30 0 53 20t23 48q0 23 -22 34.5t-54 11.5q-21 0 -44.5 -10.5t-48.5 -29.5zM791 530q0 -32 21.5 -52t50.5 -20q32 0 52.5 21.5t20.5 50.5q0 20 -10 36q-21 37 -62 37q-33 0 -53 -22.5t-20 -50.5z" />
<glyph unicode="&#xed6;" d="M37 588q0 37 4 81.5t12 87.5t19.5 80t25.5 58q48 72 95 105.5t101 33.5q31 0 59 -12t49 -33t33 -49t12 -59q0 -32 -12 -59.5t-33 -48t-49 -32.5t-59 -12q-65 0 -108 38q-2 -5 -4.5 -17t-5 -34t-4.5 -56.5t-2 -84.5q0 -25 2.5 -59t6.5 -71.5t8.5 -75t9.5 -69t9.5 -55 t7.5 -31.5q18 -51 37 -75.5t44 -24.5q10 0 27.5 3.5t44 21.5t62.5 57t83 111q-28 38 -45 95t-23 113v17q0 77 32 118.5t93 41.5q54 0 81.5 -37.5t27.5 -109.5q0 -63 -11 -123t-40 -115q9 -22 27 -48t38 -49.5t37.5 -42t24.5 -24.5q37 -31 71 -31q27 0 47.5 6.5t36 23 t27.5 43.5t22 68q32 139 32 266q0 26 -1 61t-4.5 73t-9.5 76t-15.5 71.5t-23.5 59t-33 38.5q-78 52 -131 91t-88 68t-54 50t-28.5 38t-11 31t-1.5 30q0 52 32 83t95 31q48 0 95.5 -19t94 -51.5t90.5 -76t83 -91.5q33 -42 33 -59q0 -9 -4 -13q-2 -3 -6 -3t-11.5 4t-16.5 9.5 t-19 11.5t-17 11l-222 142q-21 14 -36 19.5t-26 5.5q-16 0 -25.5 -9.5t-9.5 -20.5q0 -16 14.5 -34t34.5 -31l224 -143q39 -25 65 -66t41 -95t21.5 -121t6.5 -144q0 -114 -16.5 -216.5t-50.5 -180.5t-85 -123.5t-120 -45.5q-39 0 -74.5 6t-70.5 27t-71 61.5t-77 109.5 q-18 -37 -44.5 -73.5t-58.5 -65.5t-68 -47t-73 -18q-87 0 -141.5 46t-85.5 127.5t-42 192.5t-11 242zM225 887q0 -30 21 -51t51 -21t51 21t21 51t-21 51t-51 21t-51 -21t-21 -51zM530 494q0 -30 7 -50.5t24 -46.5q7 16 10.5 26.5t5.5 20t3.5 20.5t3.5 30q1 10 1.5 18t0.5 15 q0 29 -6 51t-19 22q-17 0 -24 -29t-7 -77z" />
<glyph unicode="&#xed7;" d="M-6 166q0 42 15.5 76.5t41 59t59 37.5t69.5 13q19 0 45 -4t43 -10v447q-17 -2 -43 -4t-44 -2q-85 0 -135.5 46t-50.5 137q0 87 50.5 132.5t135.5 45.5q37 0 72.5 -11t65 -31.5t51 -50.5t29.5 -67q28 34 59 63.5t67.5 51t75.5 33.5t84 12q29 0 70 -6.5t85 -19t87.5 -31.5 t78 -44.5t56 -57t21.5 -69.5v-746q0 -261 64 -486l-127 -69q-72 253 -72 555v675q0 45 -25 77t-63 51.5t-82 28.5t-81 9q-44 0 -83.5 -14t-77.5 -37t-70.5 -52.5t-62.5 -60.5v-677q0 -44 -19 -78.5t-50 -58.5t-71.5 -36.5t-82.5 -12.5q-85 0 -135 50.5t-50 135.5zM91 166 q0 -37 25.5 -62.5t62.5 -25.5q18 0 34 7t28 19t19 28t7 34t-7 34t-19 28t-28 19t-34 7t-34 -7t-28 -19t-19 -28t-7 -34zM91 968q0 -38 27 -57t62 -19q20 0 43.5 2t43.5 10q0 19 -4 43t-14 45t-27 35t-42 14q-17 0 -32.5 -4.5t-28.5 -13.5t-20.5 -23t-7.5 -32z" />
<glyph unicode="&#xed8;" d="M60 573q-1 345 61.5 457.5t222.5 112.5q100 0 161 -95t78 -95q15 -1 77 94.5t162 95.5q160 0 211 -112.5t52 -457.5q-6 -266 -81 -481q55 21 77.5 32t37.5 -9q5 -21 -33.5 -48t-112.5 -64l-21 -46h12q35 0 65.5 -13.5t53.5 -36.5t36.5 -53.5t13.5 -65.5t-13.5 -65.5 t-36.5 -53.5t-53.5 -36.5t-65.5 -13.5q-33 0 -63 12t-52.5 33t-36.5 49.5t-17 60.5l-244 -160q-38 -24 -83 -24q-119 2 -125 112q1 71 90 126l238 152q91 49 196 77q71 219 88 516q4 219 -9.5 329.5t-123.5 110.5q-62 0 -130.5 -105t-108.5 -105t-109.5 105t-129.5 105 q-110 0 -132 -167t-22 -273q4 -203 15 -288q45 34 105 34q68 0 116.5 -48t51.5 -121q-3 -83 -55.5 -126t-112.5 -43q-147 6 -202 169q-49 176 -48 423zM238 150q0 -30 21 -51t51 -21t51 21t21 51t-21 51t-51 21t-51 -21t-21 -51zM432 -298q3 -27 31 -26q19 -2 46 16l242 159 q25 17 76 39l17 74q-48 -16 -129 -61l-238 -152q-34 -16 -45 -49zM893 -212q0 -30 21 -51t51 -21t51 21t21 51t-21 51t-51 21t-51 -21t-21 -51z" />
<glyph unicode="&#xed9;" d="M26 555q10 591 344 589q304 2 294 -589q10 -446 180 -446q140 0 130 446q-1 270 -17 566h130q20 -296 17 -566q12 -574 -260 -574q-300 0 -310 574q10 436 -164 436q-204 0 -214 -436q8 -169 28 -275q46 34 103 36q141 -9 154 -178q-13 -148 -171 -157q-149 9 -201 167 q-43 166 -43 407zM199 148q5 -67 71 -72q69 5 74 76q-5 62 -74 67q-66 -5 -71 -71z" />
</font>
</defs>
</svg>
