<?xml version="1.0" encoding="UTF-8"?>
<svg width="314px" height="293px" viewBox="0 0 314 293" version="1.1" xmlns="http://www.w3.org/2000/svg" xmlns:xlink="http://www.w3.org/1999/xlink">
    <!-- Generator: Sketch 49.2 (51160) - http://www.bohemiancoding.com/sketch -->
    <title>chips5k</title>
    <desc>Created with Sketch.</desc>
    <defs>
        <ellipse id="path-1" cx="150" cy="158" rx="149" ry="127"></ellipse>
        <filter x="-5.2%" y="-3.3%" width="110.4%" height="112.2%" filterUnits="objectBoundingBox" id="filter-2">
            <feMorphology radius="1" operator="dilate" in="SourceAlpha" result="shadowSpreadOuter1"></feMorphology>
            <feOffset dx="0" dy="7" in="shadowSpreadOuter1" result="shadowOffsetOuter1"></feOffset>
            <feGaussianBlur stdDeviation="3" in="shadowOffsetOuter1" result="shadowBlurOuter1"></feGaussianBlur>
            <feColorMatrix values="0 0 0 0 0   0 0 0 0 0   0 0 0 0 0  0 0 0 0.5 0" type="matrix" in="shadowBlurOuter1"></feColorMatrix>
        </filter>
        <linearGradient x1="50%" y1="0%" x2="50%" y2="100%" id="linearGradient-3">
            <stop stop-color="#7722A5" offset="0%"></stop>
            <stop stop-color="#5F1587" offset="100%"></stop>
        </linearGradient>
        <linearGradient x1="50%" y1="0%" x2="50%" y2="100%" id="linearGradient-4">
            <stop stop-color="#FFFFFF" offset="0%"></stop>
            <stop stop-color="#E8E8E8" offset="100%"></stop>
        </linearGradient>
    </defs>
    <g id="Page-1" stroke="none" stroke-width="1" fill="none" fill-rule="evenodd">
        <g id="chips" transform="translate(-1446.000000, -2210.000000)">
            <g id="chips5k" transform="translate(1453.000000, 2203.000000)">
                <g id="Oval-5">
                    <use fill="black" fill-opacity="1" filter="url(#filter-2)" xlink:href="#path-1"></use>
                    <use fill="#29043D" fill-rule="evenodd" xlink:href="#path-1"></use>
                </g>
                <path d="M256,245.554953 C237.265201,261.502987 214.149903,272.627657 189.320565,278.320175 L189.320565,213 L256,213 L255.999987,245.554964 L256,245.554953 Z M48,247.979654 L48,213 L114.679422,213 L114.679422,279 C101.392302,276.19398 88.3392051,271.77137 75.8909534,265.647509 C65.6002691,260.585053 56.2845733,254.636266 48,247.979654 Z" id="Combined-Shape" fill="#FFFFFF" opacity="0.400000006"></path>
                <ellipse id="Oval-5" fill="url(#linearGradient-3)" cx="150.910032" cy="135.844782" rx="150.025046" ry="128.094475"></ellipse>
                <ellipse id="Oval-5" fill="url(#linearGradient-4)" cx="151.099142" cy="135.152428" rx="115.019202" ry="98.205764"></ellipse>
                <path d="M104.369767,216.436675 C52.2358714,186.337156 30.8066318,125.851764 56.5062209,81.3387696 C82.2058101,36.8257753 145.302317,25.1413449 197.436213,55.2408638 C249.570109,85.3403827 270.999348,145.825775 245.299759,190.33877 C219.60017,234.851764 156.503663,246.536194 104.369767,216.436675 Z M110.222156,205.978473 C155.659955,232.211999 210.652323,222.028321 233.051048,183.232592 C255.449772,144.436863 236.772912,91.7202366 191.335113,65.486711 C145.897313,39.2531853 90.9049455,49.4368632 68.5062209,88.2325921 C46.1074964,127.028321 64.7843567,179.744948 110.222156,205.978473 Z" id="Combined-Shape" fill="#33052D" transform="translate(150.902990, 135.838770) rotate(-30.000000) translate(-150.902990, -135.838770) "></path>
                <path d="M199.701796,63.4889877 C197.310333,62.1082758 196.327341,59.3337165 197.506221,57.291836 C198.685101,55.2499556 201.579436,54.7139725 203.970899,56.0946844 C206.362363,57.4753963 207.345355,60.2499556 206.166475,62.291836 C204.987595,64.3337165 202.09326,64.8696995 199.701796,63.4889877 Z M97.7017965,214.615234 C95.3103334,213.234522 94.3273407,210.459962 95.5062209,208.418082 C96.6851012,206.376201 99.5794363,205.840218 101.970899,207.22093 C104.362363,208.601642 105.345355,211.376201 104.166475,213.418082 C102.987595,215.459962 100.09326,215.995945 97.7017965,214.615234 Z M248.737118,135.92691 C248.737118,133.165487 250.64846,130.92691 253.006221,130.92691 C255.363981,130.92691 257.275324,133.165487 257.275324,135.92691 C257.275324,138.688334 255.363981,140.92691 253.006221,140.92691 C250.64846,140.92691 248.737118,138.688334 248.737118,135.92691 Z M44.737118,135.92691 C44.737118,133.165487 46.6484605,130.92691 49.0062209,130.92691 C51.3639814,130.92691 53.2753239,133.165487 53.2753239,135.92691 C53.2753239,138.688334 51.3639814,140.92691 49.0062209,140.92691 C46.6484605,140.92691 44.737118,138.688334 44.737118,135.92691 Z M199.701796,207.22093 C202.09326,205.840218 204.987595,206.376201 206.166475,208.418082 C207.345355,210.459962 206.362363,213.234522 203.970899,214.615234 C201.579436,215.995945 198.685101,215.459962 197.506221,213.418082 C196.327341,211.376201 197.310333,208.601642 199.701796,207.22093 Z M97.7017965,56.0946844 C100.09326,54.7139725 102.987595,55.2499556 104.166475,57.291836 C105.345355,59.3337165 104.362363,62.1082758 101.970899,63.4889877 C99.5794363,64.8696995 96.6851012,64.3337165 95.5062209,62.291836 C94.3273407,60.2499556 95.3103334,57.4753963 97.7017965,56.0946844 Z M150.506221,17.8862126 L158.441322,14.3243041 L156.925852,21.8685474 L163.345484,27.2114102 L154.473771,28.3121004 L150.506221,35.1760797 L146.53867,28.3121004 L137.666958,27.2114102 L144.086589,21.8685474 L142.57112,14.3243041 L150.506221,17.8862126 Z M150.506221,255.675249 L142.57112,259.237158 L144.086589,251.692914 L137.666958,246.350052 L146.53867,245.249361 L150.506221,238.385382 L154.473771,245.249361 L163.345484,246.350052 L156.925852,251.692914 L158.441322,259.237158 L150.506221,255.675249 Z M270.438719,77.069934 L277.490972,82.1609787 L270.199731,84.6206654 L268.782492,92.8516607 L263.39341,85.7188774 L255.465254,85.7148676 L259.42586,78.8468784 L255.943229,70.6134049 L263.7801,73.5015375 L269.555871,68.4169808 L270.438719,77.069934 Z M30.4564092,195.537542 L23.4041555,190.446497 L30.6953965,187.986811 L32.1126357,179.755815 L37.5017177,186.888599 L45.4298733,186.892608 L41.4692681,193.760598 L44.9518986,201.994071 L37.115028,199.105939 L31.3392564,204.190495 L30.4564092,195.537542 Z M270.438719,195.537542 L269.555871,204.190495 L263.7801,199.105939 L255.943229,201.994071 L259.42586,193.760598 L255.465254,186.892608 L263.39341,186.888599 L268.782492,179.755815 L270.199731,187.986811 L277.490972,190.446497 L270.438719,195.537542 Z M30.4564092,77.069934 L31.3392564,68.4169808 L37.115028,73.5015375 L44.9518986,70.6134049 L41.4692681,78.8468784 L45.4298733,85.7148676 L37.5017177,85.7188774 L32.1126357,92.8516607 L30.6953965,84.6206654 L23.4041555,82.1609787 L30.4564092,77.069934 Z M188.418724,14.2631669 C200.965601,17.1027326 213.28467,21.3904104 225.064681,27.1974087 C236.637208,32.9021268 246.982622,39.7246591 256.021853,47.4130494 L245.170234,58.2780649 C242.780888,60.6703607 238.301693,61.3564897 235.165672,59.810577 L186.332564,35.7381233 C183.196543,34.1922106 181.652883,30.5370934 182.884702,27.5741906 L188.418724,14.2631669 Z M114.122362,256.952895 C101.575485,254.113329 89.2564161,249.825651 77.4764051,244.018653 C65.9038785,238.313935 55.5584645,231.491403 46.5192329,223.803012 L57.3708522,212.937997 C59.7601983,210.545701 64.2393934,209.859572 67.3754144,211.405485 L116.208522,235.477938 C119.344543,237.023851 120.888203,240.678968 119.656384,243.641871 L114.122362,256.952895 Z M292.831228,102.627907 C296.224511,113.325231 298.035078,124.578163 298.035078,136.19216 C298.035078,147.601596 296.287729,158.662575 293.009054,169.190652 L276.56292,166.599143 C272.941755,166.028536 270.006221,163.059548 270.006221,159.967723 L270.006221,111.822815 C270.006221,108.73099 272.941755,105.762002 276.56292,105.191395 L292.831228,102.627907 Z M9.210071,169.190652 C5.81678818,158.493328 4.00622095,147.240396 4.00622095,135.626399 C4.00622095,124.216963 5.75356988,113.155984 9.03224492,102.627907 L25.4783783,105.219416 C29.0995434,105.790023 32.0350778,108.759011 32.0350778,111.850836 L32.0350778,159.995744 C32.0350778,163.087569 29.0995434,166.056557 25.4783783,166.627164 L9.210071,169.190652 Z M255.93294,224.525343 C246.779347,232.383101 236.270845,239.348355 224.490834,245.155354 C212.918307,250.860072 200.825544,255.098518 188.507637,257.938205 L182.913123,244.481681 C181.681304,241.518778 183.224965,237.863661 186.360986,236.317748 L235.194093,212.245295 C238.330114,210.699382 242.809309,211.385511 245.198655,213.777807 L255.93294,224.525343 Z M46.608146,48.39836 C55.7617395,40.5406019 66.2702415,33.5753474 78.0502526,27.7683492 C89.6227792,22.0636311 101.715542,17.8251843 114.033449,14.9854975 L119.627963,28.4420217 C120.859782,31.4049246 119.316121,35.0600418 116.1801,36.6059544 L67.3469928,60.6784081 C64.2109718,62.2243208 59.7317768,61.5381918 57.3424306,59.145896 L46.608146,48.39836 Z" id="Combined-Shape" fill="#FFFFFF" opacity="0.900000036"></path>
            </g>
        </g>
    </g>
</svg>