<?xml version="1.0" encoding="UTF-8"?>
<svg width="314px" height="293px" viewBox="0 0 314 293" version="1.1" xmlns="http://www.w3.org/2000/svg" xmlns:xlink="http://www.w3.org/1999/xlink">
    <!-- Generator: Sketch 49.2 (51160) - http://www.bohemiancoding.com/sketch -->
    <title>chips10</title>
    <desc>Created with Sketch.</desc>
    <defs>
        <ellipse id="path-1" cx="149" cy="127" rx="149" ry="127"></ellipse>
        <filter x="-5.2%" y="-3.3%" width="110.4%" height="112.2%" filterUnits="objectBoundingBox" id="filter-2">
            <feMorphology radius="1" operator="dilate" in="SourceAlpha" result="shadowSpreadOuter1"></feMorphology>
            <feOffset dx="0" dy="7" in="shadowSpreadOuter1" result="shadowOffsetOuter1"></feOffset>
            <feGaussianBlur stdDeviation="3" in="shadowOffsetOuter1" result="shadowBlurOuter1"></feGaussianBlur>
            <feColorMatrix values="0 0 0 0 0   0 0 0 0 0   0 0 0 0 0  0 0 0 0.5 0" type="matrix" in="shadowBlurOuter1"></feColorMatrix>
        </filter>
        <linearGradient x1="50%" y1="0%" x2="50%" y2="100%" id="linearGradient-3">
            <stop stop-color="#18178B" offset="0%"></stop>
            <stop stop-color="#0F0E72" offset="100%"></stop>
        </linearGradient>
        <linearGradient x1="50%" y1="0%" x2="50%" y2="100%" id="linearGradient-4">
            <stop stop-color="#FFFFFF" offset="0%"></stop>
            <stop stop-color="#E8E8E8" offset="100%"></stop>
        </linearGradient>
    </defs>
    <g id="Page-1" stroke="none" stroke-width="1" fill="none" fill-rule="evenodd">
        <g id="chips" transform="translate(-1121.000000, -1794.000000)">
            <g id="chips10" transform="translate(1128.000000, 1794.000000)">
                <g id="Group-4-Copy-2" transform="translate(1.000000, 24.000000)">
                    <g id="Oval-5">
                        <use fill="black" fill-opacity="1" filter="url(#filter-2)" xlink:href="#path-1"></use>
                        <use fill="#02022A" fill-rule="evenodd" xlink:href="#path-1"></use>
                    </g>
                    <path d="M255,214.554953 C236.265201,230.502987 213.149903,241.627657 188.320565,247.320175 L188.320565,182 L255,182 L254.999987,214.554964 L255,214.554953 Z M47,216.979654 L47,182 L113.679422,182 L113.679422,248 C100.392302,245.19398 87.3392051,240.77137 74.8909534,234.647509 C64.6002691,229.585053 55.2845733,223.636266 47,216.979654 Z" id="Combined-Shape" fill="#FFFFFF" opacity="0.400000006"></path>
                </g>
                <g id="chips10-copy">
                    <ellipse id="Oval-5" fill="url(#linearGradient-3)" cx="150.910032" cy="128.844782" rx="150.025046" ry="128.094475"></ellipse>
                    <ellipse id="Oval-5" fill="url(#linearGradient-4)" cx="151.099142" cy="128.152428" rx="115.019202" ry="98.205764"></ellipse>
                    <path d="M104.369767,209.436675 C52.2358714,179.337156 30.8066318,118.851764 56.5062209,74.3387696 C82.2058101,29.8257753 145.302317,18.1413449 197.436213,48.2408638 C249.570109,78.3403827 270.999348,138.825775 245.299759,183.33877 C219.60017,227.851764 156.503663,239.536194 104.369767,209.436675 Z M110.222156,198.978473 C155.659955,225.211999 210.652323,215.028321 233.051048,176.232592 C255.449772,137.436863 236.772912,84.7202366 191.335113,58.486711 C145.897313,32.2531853 90.9049455,42.4368632 68.5062209,81.2325921 C46.1074964,120.028321 64.7843567,172.744948 110.222156,198.978473 Z" id="Combined-Shape" fill="#182349" transform="translate(150.902990, 128.838770) rotate(-30.000000) translate(-150.902990, -128.838770) "></path>
                    <path d="M199.701796,56.4889877 C197.310333,55.1082758 196.327341,52.3337165 197.506221,50.291836 C198.685101,48.2499556 201.579436,47.7139725 203.970899,49.0946844 C206.362363,50.4753963 207.345355,53.2499556 206.166475,55.291836 C204.987595,57.3337165 202.09326,57.8696995 199.701796,56.4889877 Z M97.7017965,207.615234 C95.3103334,206.234522 94.3273407,203.459962 95.5062209,201.418082 C96.6851012,199.376201 99.5794363,198.840218 101.970899,200.22093 C104.362363,201.601642 105.345355,204.376201 104.166475,206.418082 C102.987595,208.459962 100.09326,208.995945 97.7017965,207.615234 Z M248.737118,128.92691 C248.737118,126.165487 250.64846,123.92691 253.006221,123.92691 C255.363981,123.92691 257.275324,126.165487 257.275324,128.92691 C257.275324,131.688334 255.363981,133.92691 253.006221,133.92691 C250.64846,133.92691 248.737118,131.688334 248.737118,128.92691 Z M44.737118,128.92691 C44.737118,126.165487 46.6484605,123.92691 49.0062209,123.92691 C51.3639814,123.92691 53.2753239,126.165487 53.2753239,128.92691 C53.2753239,131.688334 51.3639814,133.92691 49.0062209,133.92691 C46.6484605,133.92691 44.737118,131.688334 44.737118,128.92691 Z M199.701796,200.22093 C202.09326,198.840218 204.987595,199.376201 206.166475,201.418082 C207.345355,203.459962 206.362363,206.234522 203.970899,207.615234 C201.579436,208.995945 198.685101,208.459962 197.506221,206.418082 C196.327341,204.376201 197.310333,201.601642 199.701796,200.22093 Z M97.7017965,49.0946844 C100.09326,47.7139725 102.987595,48.2499556 104.166475,50.291836 C105.345355,52.3337165 104.362363,55.1082758 101.970899,56.4889877 C99.5794363,57.8696995 96.6851012,57.3337165 95.5062209,55.291836 C94.3273407,53.2499556 95.3103334,50.4753963 97.7017965,49.0946844 Z M150.506221,10.8862126 L158.441322,7.32430411 L156.925852,14.8685474 L163.345484,20.2114102 L154.473771,21.3121004 L150.506221,28.1760797 L146.53867,21.3121004 L137.666958,20.2114102 L144.086589,14.8685474 L142.57112,7.32430411 L150.506221,10.8862126 Z M150.506221,248.675249 L142.57112,252.237158 L144.086589,244.692914 L137.666958,239.350052 L146.53867,238.249361 L150.506221,231.385382 L154.473771,238.249361 L163.345484,239.350052 L156.925852,244.692914 L158.441322,252.237158 L150.506221,248.675249 Z M270.438719,70.069934 L277.490972,75.1609787 L270.199731,77.6206654 L268.782492,85.8516607 L263.39341,78.7188774 L255.465254,78.7148676 L259.42586,71.8468784 L255.943229,63.6134049 L263.7801,66.5015375 L269.555871,61.4169808 L270.438719,70.069934 Z M30.4564092,188.537542 L23.4041555,183.446497 L30.6953965,180.986811 L32.1126357,172.755815 L37.5017177,179.888599 L45.4298733,179.892608 L41.4692681,186.760598 L44.9518986,194.994071 L37.115028,192.105939 L31.3392564,197.190495 L30.4564092,188.537542 Z M270.438719,188.537542 L269.555871,197.190495 L263.7801,192.105939 L255.943229,194.994071 L259.42586,186.760598 L255.465254,179.892608 L263.39341,179.888599 L268.782492,172.755815 L270.199731,180.986811 L277.490972,183.446497 L270.438719,188.537542 Z M30.4564092,70.069934 L31.3392564,61.4169808 L37.115028,66.5015375 L44.9518986,63.6134049 L41.4692681,71.8468784 L45.4298733,78.7148676 L37.5017177,78.7188774 L32.1126357,85.8516607 L30.6953965,77.6206654 L23.4041555,75.1609787 L30.4564092,70.069934 Z M188.418724,7.26316694 C200.965601,10.1027326 213.28467,14.3904104 225.064681,20.1974087 C236.637208,25.9021268 246.982622,32.7246591 256.021853,40.4130494 L245.170234,51.2780649 C242.780888,53.6703607 238.301693,54.3564897 235.165672,52.810577 L186.332564,28.7381233 C183.196543,27.1922106 181.652883,23.5370934 182.884702,20.5741906 L188.418724,7.26316694 Z M114.122362,249.952895 C101.575485,247.113329 89.2564161,242.825651 77.4764051,237.018653 C65.9038785,231.313935 55.5584645,224.491403 46.5192329,216.803012 L57.3708522,205.937997 C59.7601983,203.545701 64.2393934,202.859572 67.3754144,204.405485 L116.208522,228.477938 C119.344543,230.023851 120.888203,233.678968 119.656384,236.641871 L114.122362,249.952895 Z M292.831228,95.627907 C296.224511,106.325231 298.035078,117.578163 298.035078,129.19216 C298.035078,140.601596 296.287729,151.662575 293.009054,162.190652 L276.56292,159.599143 C272.941755,159.028536 270.006221,156.059548 270.006221,152.967723 L270.006221,104.822815 C270.006221,101.73099 272.941755,98.7620017 276.56292,98.1913946 L292.831228,95.627907 Z M9.210071,162.190652 C5.81678818,151.493328 4.00622095,140.240396 4.00622095,128.626399 C4.00622095,117.216963 5.75356988,106.155984 9.03224492,95.627907 L25.4783783,98.2194156 C29.0995434,98.7900228 32.0350778,101.759011 32.0350778,104.850836 L32.0350778,152.995744 C32.0350778,156.087569 29.0995434,159.056557 25.4783783,159.627164 L9.210071,162.190652 Z M255.93294,217.525343 C246.779347,225.383101 236.270845,232.348355 224.490834,238.155354 C212.918307,243.860072 200.825544,248.098518 188.507637,250.938205 L182.913123,237.481681 C181.681304,234.518778 183.224965,230.863661 186.360986,229.317748 L235.194093,205.245295 C238.330114,203.699382 242.809309,204.385511 245.198655,206.777807 L255.93294,217.525343 Z M46.608146,41.39836 C55.7617395,33.5406019 66.2702415,26.5753474 78.0502526,20.7683492 C89.6227792,15.0636311 101.715542,10.8251843 114.033449,7.98549755 L119.627963,21.4420217 C120.859782,24.4049246 119.316121,28.0600418 116.1801,29.6059544 L67.3469928,53.6784081 C64.2109718,55.2243208 59.7317768,54.5381918 57.3424306,52.145896 L46.608146,41.39836 Z" id="Combined-Shape" fill="#FFFFFF" opacity="0.900000036"></path>
                </g>
            </g>
        </g>
    </g>
</svg>