<svg viewBox="0 0 301 301" xmlns="http://www.w3.org/2000/svg"><defs><linearGradient x1="50%" y1="0%" x2="50%" y2="100%" id="a"><stop stop-color="#00BDDA" offset="0%"/><stop stop-color="#009BB3" offset="100%"/></linearGradient><linearGradient x1="50%" y1="0%" x2="50%" y2="100%" id="b"><stop stop-color="#FFF" offset="0%"/><stop stop-color="#E8E8E8" offset="100%"/></linearGradient></defs><g fill="none" fill-rule="evenodd"><circle fill="url(#a)" cx="150.91" cy="150.904" r="150.025"/><circle fill="url(#b)" cx="151.099" cy="150.093" r="115.019"/><path d="M96.403 245.294c-52.134-30.1-69.996-96.763-39.897-148.897C86.606 44.263 153.27 26.4 205.403 56.5c52.134 30.1 69.996 96.763 39.897 148.897-30.1 52.134-96.763 69.996-148.897 39.897zm6.876-12.25c45.437 26.234 103.539 10.666 129.772-34.772 26.234-45.437 10.665-103.538-34.772-129.772-45.438-26.234-103.54-10.665-129.773 34.772-26.233 45.438-10.665 103.54 34.773 129.773z" fill="#05312D"/><path d="M199.336 66.16a5 5 0 1 1 5-8.66 5 5 0 0 1-5 8.66zm-102 177a5 5 0 1 1 5-8.66 5 5 0 0 1-5 8.66zM248.006 151a5 5 0 1 1 10 0 5 5 0 0 1-10 0zm-204 0a5 5 0 1 1 10 0 5 5 0 0 1-10 0zm155.33 83.5a5 5 0 1 1 5 8.66 5 5 0 0 1-5-8.66zm-102-177a5 5 0 1 1 5 8.66 5 5 0 0 1-5-8.66zm53.17-44.75l7.935-4.172-1.515 8.836 6.42 6.258-8.872 1.289L150.506 33l-3.967-8.04-8.872-1.288 6.42-6.258-1.516-8.836 7.935 4.172zm0 278.5l-7.935 4.172 1.516-8.836-6.42-6.258 8.872-1.289 3.967-8.039 3.968 8.04 8.871 1.288-6.42 6.258 1.516 8.836-7.935-4.172zM271.293 82.066l7.58 4.786-8.41 3.106-2.209 8.688-5.552-7.038-8.946.583 4.979-7.455-3.32-8.328 8.63 2.43 6.894-5.73.354 8.958zM29.602 220.816l-7.58-4.786 8.41-3.105 2.209-8.689 5.552 7.039 8.946-.584-4.978 7.456 3.319 8.328-8.629-2.431-6.894 5.73-.355-8.958zm241.691 0l-.354 8.958-6.895-5.73-8.629 2.43 3.32-8.327-4.979-7.456 8.946.584 5.552-7.039 2.21 8.689 8.41 3.105-7.58 4.786zM29.602 82.066l.355-8.958 6.894 5.73 8.629-2.43-3.32 8.328 4.979 7.455-8.946-.583-5.552 7.038-2.21-8.688-8.41-3.106 7.58-4.786zm158.817-73.56c12.547 3.326 24.866 8.348 36.646 15.15 11.572 6.68 21.918 14.671 30.957 23.676L245.17 60.057c-2.39 2.802-6.868 3.606-10.004 1.795l-48.833-28.194c-3.136-1.81-4.68-6.091-3.448-9.561l5.534-15.59zm-74.297 284.24c-12.547-3.325-24.866-8.347-36.646-15.148-11.572-6.682-21.918-14.672-30.957-23.677l10.852-12.725c2.39-2.802 6.868-3.606 10.004-1.795l48.834 28.194c3.136 1.81 4.68 6.091 3.447 9.561l-5.534 15.59zM292.832 112c3.393 12.529 5.203 25.708 5.203 39.31 0 13.363-1.747 26.318-5.026 38.649l-16.446-3.035c-3.621-.669-6.557-4.146-6.557-7.767v-56.388c0-3.621 2.936-7.098 6.557-7.767L292.83 112zM9.21 189.959c-3.393-12.53-5.204-25.709-5.204-39.311 0-13.363 1.748-26.317 5.026-38.648l16.446 3.035c3.622.668 6.557 4.146 6.557 7.767v56.388c0 3.62-2.935 7.098-6.557 7.766L9.21 189.96zm246.723 64.808c-9.154 9.203-19.662 17.36-31.442 24.162-11.573 6.681-23.665 11.646-35.983 14.971l-5.595-15.76c-1.232-3.47.312-7.751 3.448-9.562l48.833-28.193c3.136-1.811 7.615-1.007 10.005 1.794l10.734 12.588zM46.608 48.486c9.154-9.203 19.662-17.36 31.442-24.162 11.573-6.681 23.666-11.645 35.983-14.971l5.595 15.76c1.232 3.47-.312 7.751-3.448 9.562L67.347 62.868c-3.136 1.811-7.615 1.007-10.005-1.794L46.608 48.486z" fill="#FFF" opacity=".9"/></g></svg>