<?xml version="1.0" encoding="UTF-8"?>
<svg width="481px" height="481px" viewBox="0 0 481 481" version="1.1" xmlns="http://www.w3.org/2000/svg" xmlns:xlink="http://www.w3.org/1999/xlink">
    <!-- Generator: Sketch 51.2 (57519) - http://www.bohemiancoding.com/sketch -->
    <title>icon_ins_bg</title>
    <desc>Created with Sketch.</desc>
    <defs></defs>
    <g id="Page-1" stroke="none" stroke-width="1" fill="none" fill-rule="evenodd" fill-opacity="0.15">
        <g id="icon_ins_bg" fill="#000000" fill-rule="nonzero">
            <path d="M240.5,481 C107.675518,481 0,373.324482 0,240.5 C0,107.675518 107.675518,0 240.5,0 C373.324482,0 481,107.675518 481,240.5 C481,373.324482 373.324482,481 240.5,481 Z M75.1905675,165.545053 L40,314.786978 L86.2181677,314.786978 L121.408735,165.545053 L75.1905675,165.545053 Z M154.799834,165.545053 L119.609267,314.786978 L162.976975,314.786978 L182.300581,232.836262 L218.866345,314.786978 L262.335855,314.786978 L297.526423,165.545053 L254.056912,165.545053 L234.589279,248.106582 L197.862136,165.545053 L154.799834,165.545053 Z M296.578101,265.412944 C294.31492,280.479735 296.917597,292.899471 304.386209,302.672524 C311.854821,312.445578 328.280276,317.332031 353.663068,317.332031 C368.119043,317.332031 380.589727,315.245108 391.075496,311.0712 C401.561264,306.897292 410.403067,300.772258 417.601169,292.695915 C424.799271,284.619573 429.526468,275.796809 431.7829,266.227361 C433.703268,258.08315 433.454453,250.719536 431.036447,244.136299 C428.618442,237.553061 423.573069,232.038834 415.900177,227.593452 C408.227285,223.14807 394.824677,218.753656 375.69195,214.410076 C367.947815,212.713366 363.221969,210.880946 361.514268,208.912761 C359.722696,207.012445 359.106972,204.874622 359.66708,202.499227 C360.435227,199.241543 362.44469,196.475946 365.69553,194.202353 C368.94637,191.928761 373.252528,190.791982 378.614134,190.791982 C385.129503,190.791982 389.876462,192.318999 392.855153,195.373078 C395.833844,198.427157 397.107901,203.31361 396.67736,210.032585 L440.746982,207.487531 C442.495366,192.01353 439.20047,180.730573 430.862198,173.638323 C422.523925,166.546072 408.819481,163 389.748453,163 C374.206583,163 361.513401,164.951188 351.668527,168.853623 C341.823652,172.756057 333.874489,178.117582 327.820799,184.938359 C321.767109,191.759136 317.83615,199.003982 316.027803,206.673114 C313.275276,218.346484 315.35439,227.949722 322.265208,235.483118 C329.108158,243.016513 342.105731,249.056712 361.258317,253.603897 C372.970248,256.318634 380.162747,259.202999 382.83603,262.257078 C385.509314,265.311157 386.389855,268.772395 385.47768,272.640896 C384.517496,276.713001 381.891827,280.293007 377.600595,283.38102 C373.309363,286.469034 367.87221,288.013017 361.288973,288.013017 C352.466077,288.013017 346.391462,284.992918 343.064945,278.952628 C341.026772,275.219864 340.372777,269.790472 341.102941,262.664287 L296.578101,265.412944 Z" id="Combined-Shape"></path>
        </g>
    </g>
</svg>